<?xml version="1.0" standalone="no"?>
<!DOCTYPE svg PUBLIC "-//W3C//DTD SVG 1.1//EN" "http://www.w3.org/Graphics/SVG/1.1/DTD/svg11.dtd" >
<svg>
<metadata>
Created by FontForge 20090914 at Tue Sep 22 05:03:09 2015
 By www-data
Copyright (c) 2011 by Dieter Hofrichter. All rights reserved.
</metadata>
<defs>
<font id="Erato-Bold" horiz-adv-x="739" >
  <font-face 
    font-family="Erato-Bold"
    font-weight="700"
    font-stretch="normal"
    units-per-em="2048"
    panose-1="2 0 5 0 0 0 0 2 0 4"
    ascent="1546"
    descent="-502"
    x-height="999"
    cap-height="1448"
    bbox="-244 -633.002 2484 2089"
    underline-thickness="0"
    underline-position="0"
    unicode-range="U+0020-U+FB06"
  />
<missing-glyph horiz-adv-x="1073" 
d="M106 1298v-1093l367 547zM172 106h729l-364 549zM600 752l367 -547v1093zM537 848l364 547h-729zM0 0v1503h1073v-1503h-1073z" />
    <glyph glyph-name="f_f" unicode="ff" horiz-adv-x="1337" 
d="M836 846l-385 0.00195312v-594c0.666992 -72 8.33398 -118 23.001 -138s58.667 -33.333 132 -40v-76c-48 2.66699 -128.667 4 -242 4s-212 -1.33301 -296 -4v76c52 4 84.667 12.667 98 26c22 22 33 71.333 33 148v598h-140v76c74 22 117.667 56.333 131 103
c4 12 8 31 12 57c20.667 119.333 48.667 207.333 84 264c34.667 56 83.334 107 146.001 153c92 66.667 184 100 276 100s174 -21.667 246 -65l-127 -191c-80.667 66.667 -163 100.334 -247 101.001c-48 0 -81.333 -16.333 -100 -49s-27.667 -124.334 -27 -275.001v-149h204
c88.667 0 142 13 160 39c9.33301 13.333 21.666 62.666 36.999 147.999c29.333 163.333 96.666 285.666 201.999 366.999c106 81.333 204 122 294 122s167.667 -25.333 233 -76l-153 -191c-65.333 74 -126 111 -182 111s-94 -13.667 -114 -41
c-18.667 -27.333 -30.667 -61.333 -36 -102s-8 -107.667 -8 -201v-176h247v-125h-250v-594c0 -72 7.66699 -118 23 -138s59.666 -33.333 132.999 -40v-76c-47.333 2.66699 -127.666 4 -240.999 4s-212.333 -1.33301 -297 -4v76c52 4 84.667 12.667 98 26
c22 22 33 71.333 33 148v598z" />
    <glyph glyph-name="fi" unicode="fi" horiz-adv-x="1271" 
d="M608 846l-157.002 0.00292969v-594c0.666992 -72 8.33398 -118 23.001 -138s58.667 -33.333 132 -40v-76c-48 2.66699 -128.667 4 -242 4s-212 -1.33301 -296 -4v76c52 4 84.667 12.667 98 26c22 22 33 71.333 33 148v598h-140v76c60 18 100.333 44.333 121 79
c6.66699 12.667 18.667 63 36 151c32.667 166 101.334 290 206.001 372s212 123 322 123s213.667 -30.333 311 -91l-148 -208c-31.333 40.667 -74 74.667 -128 102s-107.333 41 -160 41s-91 -14.333 -115 -43c-34 -40.667 -51 -142.334 -51 -305.001v-172h155
c217.333 0 368.333 25.333 453 76l33 -17c-4 -80.667 -6.33301 -216.334 -7 -407.001v-373c0 -69.333 7.33301 -114.333 22 -135s53.334 -34.334 116.001 -41.001v-76c-79.333 2.66699 -165.333 4 -258 4s-180 -1.33301 -262 -4v76c62.667 2.66699 100 17.667 112 45
s18.333 71.666 19 132.999v342c0 106.667 -8.33301 171.334 -25 194.001c-28.667 38.667 -96.334 58 -203.001 58z" />
    <glyph glyph-name="fl" unicode="fl" horiz-adv-x="1269" 
d="M700 846l-249.001 -0.000976562v-594c0.666992 -72 8.33398 -118 23.001 -138s58.667 -33.333 132 -40v-76c-48 2.66699 -128.667 4 -242 4s-212 -1.33301 -296 -4v76c52 4 84.667 12.667 98 26c22 22 33 71.333 33 148v598h-140v76c60 18 100.333 44.333 121 79
c9.33301 16.667 21.666 67.667 36.999 153s41 157.333 77 216s80.667 108.667 134 150s107.333 72.666 162 93.999c54.667 20.667 106.667 31 156 31s108 -17.333 176 -52l141 66l35 -19c-8 -147.333 -12.333 -309 -13 -485v-903
c0.666992 -65.333 7.66699 -109.666 21 -132.999s52.333 -38.333 117 -45v-76c-79.333 2.66699 -165.666 4 -258.999 4s-181.333 -1.33301 -264 -4v76c60 2.66699 97.667 18.334 113 47.001c12 20.667 18 63 18 127v1022c0 79.333 -10 129 -30 149
c-46.667 48 -111 72 -193 72c-48 0 -82 -15 -102 -45c-35.333 -52 -53 -153.667 -53 -305v-170h247v-125z" />
    <glyph glyph-name="f_f_i" unicode="ffi" horiz-adv-x="1908" 
d="M836 846l-385 0.00195312v-594c0.666992 -72 8.33398 -118 23.001 -138s58.667 -33.333 132 -40v-76c-48 2.66699 -128.667 4 -242 4s-212 -1.33301 -296 -4v76c52 4 84.667 12.667 98 26c22 22 33 71.333 33 148v598h-140v76c74 22 117.667 56.333 131 103
c4 12 8 31 12 57c20.667 120 48.334 207.333 83.001 262c34 54.667 77 101.667 129 141s105 68.333 159 87c54.667 18.667 104 27.667 148 27c83.333 0 161 -21.667 233 -65l-127 -191c-80.667 66.667 -163 100.334 -247 101.001c-48 0 -81.333 -16.333 -100 -49
s-27.667 -124.334 -27 -275.001v-149h204c91.333 0 144.666 12.333 159.999 37c6.66699 12 18.667 61.333 36 148s43 159.667 77 219s83.667 114.333 149 165c39.333 31.333 87.666 57 144.999 77s108 30 152 30c112 0 217.333 -30.333 316 -91l-146 -208
c-31.333 40.667 -73.666 74.667 -126.999 102s-106.666 41 -159.999 41c-54 0 -92.333 -13 -115 -39c-22.667 -26.667 -37.334 -62 -44.001 -106s-10 -112.333 -10 -205v-170h155c217.333 0 368.333 25.333 453 76l33 -17c-4 -80.667 -6.33301 -216.334 -7 -407.001v-373
c0 -69.333 7.33301 -114.333 22 -135s53.334 -34.334 116.001 -41.001v-76c-79.333 2.66699 -165.333 4 -258 4s-180.334 -1.33301 -263.001 -4v76c63.333 2.66699 101 17.667 113 45s18.333 71.666 19 132.999v342c0 106.667 -8.33301 171.334 -25 194.001
c-28.667 38 -96.334 57.333 -203.001 58h-158v-594c0 -72 7.66699 -118 23 -138s59.666 -33.333 132.999 -40v-76c-47.333 2.66699 -127.666 4 -240.999 4s-212.333 -1.33301 -297 -4v76c52 4 84.667 12.667 98 26c22 22 33 71.333 33 148v598z" />
    <glyph glyph-name="f_f_l" unicode="ffl" horiz-adv-x="1906" 
d="M836 846l-384.996 -0.000976562v-594c0.666992 -72 8.33398 -118 23.001 -138s58.667 -33.333 132 -40v-76c-48 2.66699 -128.667 4 -242 4s-212 -1.33301 -296 -4v76c52 4 84.667 12.667 98 26c22 22 33 71.333 33 148v598h-140v76c60 18 100.333 44.333 121 79
c6.66699 12.667 18.334 61.667 35.001 147s40.667 152.666 72 201.999s73 94 125 134c102.667 78 205.667 116.333 309 115c83.333 0 161 -21.667 233 -65l-127 -191c-80.667 66.667 -163 100.334 -247 101.001c-48 0 -81.333 -16.333 -100 -49
s-27.667 -124.334 -27 -275.001v-149h231c80.667 0 127 15 139 45c5.33301 13.333 15.666 61.333 30.999 144c43.333 232 164.666 384 363.999 456c57.333 20.667 110.666 31 159.999 31s109.666 -18 180.999 -54l141 66l35 -19c-8 -147.333 -12.333 -309 -13 -485v-903
c0 -65.333 6.66699 -109.666 20 -132.999s52.666 -38.333 117.999 -45v-76c-80 2.66699 -166.667 4 -260 4s-181 -1.33301 -263 -4v76c60 2.66699 97.667 18.334 113 47.001c12 20.667 18 63 18 127v1022c0 79.333 -10 129 -30 149c-46.667 48 -112.334 72 -197.001 72
c-49.333 0 -84 -15 -104 -45c-19.333 -24.667 -32 -57.667 -38 -99s-9 -110 -9 -206v-170h247v-125h-250v-594c0 -72 7.66699 -118 23 -138s59.666 -33.333 132.999 -40v-76c-47.333 2.66699 -127.666 4 -240.999 4s-212.333 -1.33301 -297 -4v76c52 4 84.667 12.667 98 26
c22 22 33 71.333 33 148v598z" />
    <glyph glyph-name="T_h" unicode="Th" horiz-adv-x="2447" 
d="M834 272c0 -82 5.66797 -130.998 17.001 -146.998c11.333 -16.667 27.333 -27.667 48 -33s59 -10 115 -14v-80c-114.667 4 -234.667 6 -360 6s-221 -2 -287 -6v80c56.667 2.66699 94.334 7.33398 113.001 14.001s33.334 17 44.001 31c12 19.333 18.333 69 19 149v1065
c-24.667 2.66699 -67 4 -127 4c-112 0 -184.333 -14.667 -217 -44s-65 -96.333 -97 -201l-77 12c19.333 112 33.666 243 42.999 393h79c5.33301 -18 13.666 -30.333 24.999 -37c19.333 -14.667 162.666 -22 429.999 -22s437.333 2 510 6s128.667 13 168 27
c56 19.333 109.333 66.333 160 141h213c-8 -146 -12.333 -293.333 -13 -442v-308c143.333 110.667 256 166 338 166c42 0 85 -9.33301 129 -28s76.333 -43.334 97 -74.001c44 -64 65.667 -174 65 -330v-332c0 -82.667 7.33301 -134 22 -154s52.334 -33.333 113 -40v-76
c-88 2.66699 -172 4 -252 4s-170.667 -1.33301 -272 -4v76c58.667 6.66699 96.334 23 113.001 49s25 122.333 25 289s-12.333 282 -37 346c-23.333 64 -71.666 96 -144.999 96s-129 -19.667 -167 -59c-19.333 -20.667 -29 -80.334 -29 -179.001v-366
c0 -65.333 6.66699 -109 20 -131s52.666 -37 117.999 -45v-76c-78.667 2.66699 -164.667 4 -258 4s-181 -1.33301 -263 -4v76c63.333 2.66699 101 18.667 113 48s18.333 70.666 19 123.999v1126c-70.667 -19.333 -220.334 -29 -449.001 -29c-26.667 0 -62 -1.33301 -106 -4
v-1067z" />
    <glyph glyph-name="Tcaron_h" unicode="&#x164;h" horiz-adv-x="2447" 
d="M403 1917l287 -186l273 188l55 -49c-154 -168 -242 -265.667 -264 -293h-146l-252 287zM834 272c0 -82 5.66797 -130.998 17.001 -146.998c11.333 -16.667 27.333 -27.667 48 -33s59 -10 115 -14v-80c-114.667 4 -234.667 6 -360 6s-221 -2 -287 -6v80
c56.667 2.66699 94.334 7.33398 113.001 14.001s33.334 17 44.001 31c12 19.333 18.333 69 19 149v1065c-24.667 2.66699 -67 4 -127 4c-112 0 -184.333 -14.667 -217 -44s-65 -96.333 -97 -201l-77 12c19.333 112 33.666 243 42.999 393h79
c5.33301 -18 13.666 -30.333 24.999 -37c19.333 -14.667 162.666 -22 429.999 -22s437.333 2 510 6s128.667 13 168 27c56 19.333 109.333 66.333 160 141h213c-8 -146 -12.333 -293.333 -13 -442v-308c143.333 110.667 256 166 338 166c42 0 85 -9.33301 129 -28
s76.333 -43.334 97 -74.001c44 -64 65.667 -174 65 -330v-332c0 -82.667 7.33301 -134 22 -154s52.334 -33.333 113 -40v-76c-88 2.66699 -172 4 -252 4s-170.667 -1.33301 -272 -4v76c58.667 6.66699 96.334 23 113.001 49s25 122.333 25 289s-12.333 282 -37 346
c-23.333 64 -71.666 96 -144.999 96s-129 -19.667 -167 -59c-19.333 -20.667 -29 -80.334 -29 -179.001v-366c0 -65.333 6.66699 -109 20 -131s52.666 -37 117.999 -45v-76c-78.667 2.66699 -164.667 4 -258 4s-181 -1.33301 -263 -4v76c63.333 2.66699 101 18.667 113 48
s18.333 70.666 19 123.999v1126c-70.667 -19.333 -220.334 -29 -449.001 -29c-26.667 0 -62 -1.33301 -106 -4v-1067z" />
    <glyph glyph-name="f_b" unicode="fb" horiz-adv-x="1861" 
d="M1065 631v-273c2.66699 -88.667 11.667 -148 27 -178c30 -58.667 89.333 -88 178 -88c168 0 252 121 252 363c0 128.667 -24 227 -72 295s-111.333 102 -190 102c-40 0 -78.667 -11.333 -116 -34s-60 -46 -68 -70s-11.667 -63 -11 -117zM700 846h-249v-594
c0.666992 -72 8.33398 -118 23.001 -138s58.667 -33.333 132 -40v-76c-48 2.66699 -128.667 4 -242 4s-212 -1.33301 -296 -4v76c52 4 84.667 12.667 98 26c22 22 33 71.333 33 148v598h-140v76c60 18 100.333 44.333 121 79c9.33301 16.667 21.666 67.667 36.999 153
s41 157.333 77 216s80.667 108.667 134 150s107.333 72.666 162 93.999c54.667 20.667 104 31 148 31s99.667 -17.333 167 -52l142 66l34 -19c-9.33301 -172 -14 -333.667 -14 -485v-297c151.333 116 270 174 356 174c107.333 0 196.333 -46.333 267 -139s106 -213 106 -361
s-52.667 -275 -158 -381s-231.333 -159 -378 -159c-124 0 -233.333 26 -328 78l-47 -84l-80 14c6.66699 95.333 10 215.333 10 360v910c0 76.667 -10.333 128.334 -31 155.001c-34 44 -92.667 66 -176 66c-48 0 -82 -15 -102 -45c-35.333 -52 -53 -153.667 -53 -305v-170
h247v-125z" />
    <glyph glyph-name="f_f_b" unicode="ffb" horiz-adv-x="2498" 
d="M1702 631l-0.000976562 -273c2.66699 -88.667 11.667 -148 27 -178c30 -58.667 89.333 -88 178 -88c168 0 252 121 252 363c0 128.667 -24 227 -72 295s-111.667 102 -191 102c-39.333 0 -77.666 -11.333 -114.999 -34c-36.667 -22.667 -59 -46 -67 -70s-12 -63 -12 -117
zM835.999 846h-385.003v-594c0.666992 -72 8.33398 -118 23.001 -138s58.667 -33.333 132 -40v-76c-48 2.66699 -128.667 4 -242 4s-212 -1.33301 -296 -4v76c52 4 84.667 12.667 98 26c22 22 33 71.333 33 148v598h-140v76c74 22 117.667 56.333 131 103c4 12 8 31 12 57
c20.667 120 48.334 207.333 83.001 262c34 54.667 77 101.667 129 141s105 68.333 159 87c54.667 18.667 104 27.667 148 27c83.333 0 161 -21.667 233 -65l-127 -191c-80.667 66.667 -163 100.334 -247 101.001c-48 0 -81.333 -16.333 -100 -49
s-27.667 -124.334 -27 -275.001v-149h231c80.667 0 127 15 139 45c6.66699 17.333 17.334 66 32.001 146s40 149.333 76 208c35.333 58.667 79.666 108.667 132.999 150s107.333 72.666 162 93.999c54.667 20.667 104 31 148 31s100 -17.333 168 -52l141 66l35 -19
c-9.33301 -172 -14 -333.667 -14 -485v-297c151.333 116 270 174 356 174c106.667 0 195.334 -46.333 266 -139c70.667 -92.667 106.334 -213 107 -361c0 -148 -52.667 -275 -158 -381s-231.666 -159 -378.999 -159c-124 0 -233 26 -327 78l-47 -84l-80 14
c6.66699 95.333 10 215.333 10 360v910c0 76.667 -10.333 128.334 -31 155.001c-34 44 -92.667 66 -176 66c-48 0 -82 -15 -102 -45c-35.333 -52 -53 -153.667 -53 -305v-170h247v-125h-250v-594c0 -72 7.66699 -118 23 -138s59.666 -33.333 132.999 -40v-76
c-47.333 2.66699 -127.666 4 -240.999 4s-212.333 -1.33301 -297 -4v76c52 4 84.667 12.667 98 26c22 22 33 71.333 33 148v598z" />
    <glyph glyph-name="f_f_h" unicode="ffh" horiz-adv-x="2527" 
d="M836 846l-385.003 0.00390625v-594c0.666992 -72 8.33398 -118 23.001 -138s58.667 -33.333 132 -40v-76c-48 2.66699 -128.667 4 -242 4s-212 -1.33301 -296 -4v76c52 4 84.667 12.667 98 26c22 22 33 71.333 33 148v598h-140v76c74 22 117.667 56.333 131 103
c4 12 8 31 12 57c20.667 120 48.334 207.333 83.001 262c34 54.667 77 101.667 129 141s105 68.333 159 87c54.667 18.667 104 27.667 148 27c83.333 0 161 -21.667 233 -65l-127 -191c-80.667 66.667 -163 100.334 -247 101.001c-48 0 -81.333 -16.333 -100 -49
s-27.667 -124.334 -27 -275.001v-149h231c80.667 0 127 15 139 45c6.66699 17.333 17.334 66 32.001 146s40 149.333 76 208c35.333 58.667 79.666 108.667 132.999 150s107.333 72.666 162 93.999c54.667 20.667 106.667 31 156 31s108.333 -17.333 177 -52l141 66l35 -19
c-9.33301 -172 -14.333 -333.667 -15 -485v-289c143.333 110.667 256 166 338 166c42 0 85 -9.33301 129 -28s76.333 -43.334 97 -74.001c44 -64 65.667 -174 65 -330v-332c-0.666992 -82.667 6.33301 -134 21 -154s52.667 -33.333 114 -40v-76c-88 2.66699 -172 4 -252 4
s-170.667 -1.33301 -272 -4v76c58.667 6.66699 96.334 23 113.001 49s25 122.333 25 289s-12.333 282 -37 346c-23.333 64 -71.666 96 -144.999 96s-129 -19.667 -167 -59c-19.333 -20.667 -29 -80.334 -29 -179.001v-366c0 -65.333 6.66699 -109 20 -131
s52.666 -37 117.999 -45v-76c-78.667 2.66699 -164.667 4 -258 4s-181 -1.33301 -263 -4v76c63.333 2.66699 101 18.667 113 48s18 70.666 18 123.999v1028c0 79.333 -10 129 -30 149c-44 45.333 -108.333 68 -193 68c-48 0 -82 -15 -102 -45
c-35.333 -52 -53 -153.667 -53 -305v-170h247v-125h-250v-594c0 -72 7.66699 -118 23 -138s59.666 -33.333 132.999 -40v-76c-47.333 2.66699 -127.666 4 -240.999 4s-212.333 -1.33301 -297 -4v76c52 4 84.667 12.667 98 26c22 22 33 71.333 33 148v598z" />
    <glyph glyph-name="f_f_j" unicode="ffj" horiz-adv-x="1892" 
d="M1456 104v490c0 106.667 -8 171.334 -24 194.001c-28.667 38 -96.334 57.333 -203.001 58h-142v-594c0 -72 7.66699 -118 23 -138s59.666 -33.333 132.999 -40v-76c-47.333 2.66699 -127.666 4 -240.999 4s-212.333 -1.33301 -297 -4v76c52 4 84.667 12.667 98 26
c22 22 33 71.333 33 148v598h-385v-594c0.666992 -72 8.33398 -118 23.001 -138s58.667 -33.333 132 -40v-76c-48 2.66699 -128.667 4 -242 4s-212 -1.33301 -296 -4v76c52 4 84.667 12.667 98 26c22 22 33 71.333 33 148v598h-140v76c74 22 117.667 56.333 131 103
c4 12 8 31 12 57c20.667 120 48.334 207.333 83.001 262c34 54.667 77 101.667 129 141s105 68.333 159 87c54.667 18.667 104 27.667 148 27c83.333 0 161 -21.667 233 -65l-127 -191c-80.667 66.667 -163 100.334 -247 101.001c-48 0 -81.333 -16.333 -100 -49
s-27.667 -124.334 -27 -275.001v-149h204c91.333 0 144.666 12.333 159.999 37c6.66699 12 18.667 61.333 36 148s43 159.667 77 219s83.667 114.333 149 165c91.333 70.667 191 106 299 106s207.667 -30 299 -90l-139 -198c-34 35.333 -77 66.333 -129 93
s-103.333 40 -154 40s-88.667 -14.333 -114 -43c-34 -36.667 -51 -139 -51 -307v-170h139c217.333 0 368 25.333 452 76l33 -17c-4 -80.667 -6 -216.334 -6 -407.001l6 -488c0 -80.667 -5 -142.334 -15 -185.001s-28 -86.667 -54 -132
c-46.667 -78 -146.334 -175.667 -299.001 -293l-56 61c94.667 90 147.334 185 158.001 285c5.33301 50.667 8 128.334 8 233.001z" />
    <glyph glyph-name="f_f_k" unicode="ffk" horiz-adv-x="2480" 
d="M836 846l-385.001 -0.000976562v-594c0.666992 -72 8.33398 -118 23.001 -138s58.667 -33.333 132 -40v-76c-48 2.66699 -128.667 4 -242 4s-212 -1.33301 -296 -4v76c52 4 84.667 12.667 98 26c22 22 33 71.333 33 148v598h-140v76c74 22 117.667 56.333 131 103
c4 12 8 31 12 57c20.667 120 48.334 207.333 83.001 262c34 54.667 77 101.667 129 141s105 68.333 159 87c54.667 18.667 104 27.667 148 27c83.333 0 161 -21.667 233 -65l-127 -191c-80.667 66.667 -163 100.334 -247 101.001c-48 0 -81.333 -16.333 -100 -49
s-27.667 -124.334 -27 -275.001v-149h231c80.667 0 127 15 139 45c6.66699 17.333 17.334 66 32.001 146s40 149.333 76 208c35.333 58.667 79.666 108.667 132.999 150s107.333 72.666 162 93.999c54.667 20.667 106.667 31 156 31s108.333 -17.333 177 -52l141 66l35 -19
c-9.33301 -172 -14.333 -333.667 -15 -485v-600c54.667 10 102 33 142 69s82.667 79.667 128 131c44 51.333 66 89 66 113c0 31.333 -36 47 -108 47v82c95.333 -2.66699 175.666 -4 240.999 -4s135 1.33301 209 4v-82c-93.333 -9.33301 -175.333 -50.666 -246 -123.999
l-170 -179l342 -438c28.667 -34 50 -56.667 64 -68c28.667 -20.667 59.334 -31.334 92.001 -32.001v-76c-87.333 2.66699 -173 4 -257 4s-173.667 -1.33301 -269 -4v76c54.667 1.33301 82 15 82 41c0 20.667 -12.333 46.667 -37 78l-162 215c-34 44 -62 69.667 -84 77
c-8 2.66699 -19 5.66699 -33 9v-242c0 -65.333 6.66699 -109.666 20 -132.999s52.666 -38.333 117.999 -45v-76c-78.667 2.66699 -164.667 4 -258 4s-181 -1.33301 -263 -4v76c60 2.66699 97.667 18.334 113 47.001c12 20.667 18 63 18 127v1026c0 79.333 -10 129 -30 149
c-44 45.333 -108.333 68 -193 68c-48 0 -82 -15 -102 -45c-35.333 -52 -53 -153.667 -53 -305v-170h247v-125h-250v-594c0 -72 7.66699 -118 23 -138s59.666 -33.333 132.999 -40v-76c-47.333 2.66699 -127.666 4 -240.999 4s-212.333 -1.33301 -297 -4v76
c52 4 84.667 12.667 98 26c22 22 33 71.333 33 148v598z" />
    <glyph glyph-name="f_f_t" unicode="fft" horiz-adv-x="1964" 
d="M836 846l-385.002 0.00390625v-594c0.666992 -72 8.33398 -118 23.001 -138s58.667 -33.333 132 -40v-76c-48 2.66699 -128.667 4 -242 4s-212 -1.33301 -296 -4v76c52 4 84.667 12.667 98 26c22 22 33 71.333 33 148v598h-140v76c74 22 117.667 56.333 131 103
c4 12 8 31 12 57c20.667 120 48.334 207.333 83.001 262c34 54.667 77 101.667 129 141s105 68.333 159 87c54.667 18.667 104 27.667 148 27c83.333 0 161 -21.667 233 -65l-127 -191c-80.667 66.667 -163 100.334 -247 101.001c-48 0 -81.333 -16.333 -100 -49
s-27.667 -124.334 -27 -275.001v-149h204c88.667 0 142 13 160 39c9.33301 13.333 21.666 61.666 36.999 144.999s41 154.666 77 213.999s87.333 115 154 167c95.333 74 182.333 111 261 111s153 -20 223 -60l-139 -207c-64 74 -132.333 111 -205 111
s-115 -47.667 -127 -143c-5.33301 -42 -8 -111 -8 -207v-170h145c108 0 192.333 27.333 253 82s107.334 129 140.001 223h80c0 -8 -2.66699 -109.667 -8 -305h244v-127h-248c-2.66699 -218.667 -4 -381.334 -4 -488.001s7.33301 -172.334 22 -197.001
c14.667 -25.333 42.667 -38 84 -38c40.667 0 81 11.667 121 35l37 -60c-92 -79.333 -188 -119 -288 -119s-166 27.333 -198 82c-21.333 42 -32 117 -32 225s3.33301 295.333 10 562h-361v-594c0 -72 7.66699 -118 23 -138s59.666 -33.333 132.999 -40v-76
c-47.333 2.66699 -127.666 4 -240.999 4s-212.333 -1.33301 -297 -4v76c52 4 84.667 12.667 98 26c22 22 33 71.333 33 148v598z" />
    <glyph glyph-name="f_h" unicode="fh" horiz-adv-x="1890" 
d="M700 846l-249.005 0.00292969v-594c0.666992 -72 8.33398 -118 23.001 -138s58.667 -33.333 132 -40v-76c-48 2.66699 -128.667 4 -242 4s-212 -1.33301 -296 -4v76c52 4 84.667 12.667 98 26c22 22 33 71.333 33 148v598h-140v76c60 18 100.333 44.333 121 79
c9.33301 16.667 21.666 67.667 36.999 153s41 157.333 77 216s80.667 108.667 134 150s107.333 72.666 162 93.999c54.667 20.667 106.667 31 156 31s108 -17.333 176 -52l141 66l35 -19c-9.33301 -172 -14.333 -333.667 -15 -485v-289c143.333 110.667 256 166 338 166
c42 0 85 -9.33301 129 -28s76.333 -43.334 97 -74.001c44 -64 65.667 -174 65 -330v-332c0 -82.667 7.33301 -134 22 -154s52.334 -33.333 113.001 -40v-76c-87.333 2.66699 -171 4 -251 4s-171 -1.33301 -273 -4v76c58.667 6.66699 96.334 23 113.001 49
c16 26 24 122.333 24 289s-12 282 -36 346s-72.667 96 -146 96s-128.666 -19.667 -165.999 -59c-19.333 -20.667 -29 -80.334 -29 -179.001v-366c0.666992 -65.333 7.66699 -109 21 -131s52.333 -37 117 -45v-76c-79.333 2.66699 -165.666 4 -258.999 4
s-180.666 -1.33301 -261.999 -4v76c62.667 2.66699 100 18.667 112 48s18.333 70.666 19 123.999v1044c0 70.667 -10 116.334 -30 137.001c-42 42 -106.333 63.333 -193 64c-48 0 -82 -15 -102 -45c-35.333 -52 -53 -153.667 -53 -305v-170h247v-125z" />
    <glyph glyph-name="f_j" unicode="fj" horiz-adv-x="1255" 
d="M819 104l-0.000976562 492.003c0 105.333 -8 169.333 -24 192c-28.667 38.667 -96.334 58 -203.001 58h-141v-594c0.666992 -72 8.33398 -118 23.001 -138s58.667 -33.333 132 -40v-76c-48 2.66699 -128.667 4 -242 4s-212 -1.33301 -296 -4v76c52 4 84.667 12.667 98 26
c22 22 33 71.333 33 148v598h-140v76c60 18 100.333 44.333 121 79c6.66699 11.333 18.667 61.666 36 150.999s43 163.666 77 222.999s83.667 114.333 149 165c38.667 31.333 87.334 57 146.001 77s109.667 30 153 30c113.333 0 218 -30.333 314 -91l-148 -204
c-84.667 92.667 -181 139 -289 139c-50.667 0 -88.667 -14.333 -114 -43c-34 -36.667 -51 -139 -51 -307v-170h139c217.333 0 368 25.333 452 76l33 -17c-4 -80.667 -6 -216.334 -6 -407.001l6 -488c0 -80.667 -5 -142.334 -15 -185.001s-28 -86.667 -54 -132
c-46.667 -78 -146.334 -175.667 -299.001 -293l-56 61c94.667 90 147.334 185 158.001 285c5.33301 50.667 8 128.334 8 233.001z" />
    <glyph glyph-name="f_k" unicode="fk" horiz-adv-x="1843" 
d="M700 846l-249.002 -0.000976562v-594c0.666992 -72 8.33398 -118 23.001 -138s58.667 -33.333 132 -40v-76c-48 2.66699 -128.667 4 -242 4s-212 -1.33301 -296 -4v76c52 4 84.667 12.667 98 26c22 22 33 71.333 33 148v598h-140v76c60 18 100.333 44.333 121 79
c9.33301 16.667 21.666 67.667 36.999 153s41 157.333 77 216s80.667 108.667 134 150s107.333 72.666 162 93.999c54.667 20.667 106.667 31 156 31s108 -17.333 176 -52l141 66l35 -19c-9.33301 -172 -14.333 -333.667 -15 -485v-600c55.333 10 103 33 143 69
s82 79.667 126 131s66.333 89 67 113c0 31.333 -36 47 -108 47v82c95.333 -2.66699 175.666 -4 240.999 -4s135 1.33301 209 4v-82c-94 -9.33301 -175.667 -50.666 -245 -123.999l-170 -179l342 -438c28.667 -34 49.667 -56.667 63 -68
c28.667 -20.667 59.334 -31.334 92.001 -32.001v-76c-87.333 2.66699 -173 4 -257 4s-173.667 -1.33301 -269 -4v76c54.667 1.33301 82 15 82 41c0 20.667 -12.333 46.667 -37 78l-162 215c-34 44 -62 69.667 -84 77c-8 2.66699 -19 5.66699 -33 9v-242
c0.666992 -65.333 7.66699 -109.666 21 -132.999s52.333 -38.333 117 -45v-76c-79.333 2.66699 -165.666 4 -258.999 4s-180.666 -1.33301 -261.999 -4v76c60 2.66699 97.667 18.334 113 47.001c12 20.667 18 63 18 127v1042c0 69.333 -10 115 -30 137
c-39.333 42 -101 63.333 -185 64c-53.333 0 -90 -15 -110 -45c-35.333 -52 -53 -153.667 -53 -305v-170h247v-125z" />
    <glyph glyph-name="f_t" unicode="ft" horiz-adv-x="1327" 
d="M451 846l-0.00488281 -593.997c0.666992 -72 8.33398 -118 23.001 -138s58.667 -33.333 132 -40v-76c-48 2.66699 -128.667 4 -242 4s-212 -1.33301 -296 -4v76c52 4 84.667 12.667 98 26c22 22 33 71.333 33 148v598h-140v76c60 18 100.333 44.333 121 79
c9.33301 18 21.666 69.667 36.999 155s39.333 157.666 72 216.999s80.334 113.666 143.001 162.999c94.667 74 187.334 111 278.001 111s170 -24.667 238 -74l-155 -193c-64 74 -130.333 111 -199 111c-75.333 0 -119.333 -46 -132 -138c-6 -43.333 -9 -114.666 -9 -213.999
v-168h145c108 0 192.333 27.333 253 82s107.334 129 140.001 223h80c0 -8 -2.66699 -109.667 -8 -305h244v-127h-248c-2.66699 -218.667 -4 -381.334 -4 -488.001c0.666992 -106.667 8.33398 -172.334 23.001 -197.001c14.667 -25.333 42.334 -38 83.001 -38
s81 11.667 121 35l37 -60c-91.333 -79.333 -187 -119 -287 -119s-166 27.333 -198 82c-22 42 -33 117 -33 225s3.33301 295.333 10 562h-360z" />
    <glyph glyph-name="uni0162_h" unicode="&#x162;h" horiz-adv-x="2447" 
d="M877 -293c0 -57.333 -23.334 -106.997 -70.001 -148.997c-82.667 -74 -192.667 -115.667 -330 -125l-20 112c56 0 99 1.66699 129 5s57.333 14.666 82 33.999s37 47.333 37 84c0 65.333 -52.667 97.333 -158 96l88 242l-268 -8v80
c56.667 2.66699 94.334 7.33398 113.001 14.001s33.334 17 44.001 31c12 19.333 18.333 69 19 149v1065c-24.667 2.66699 -67 4 -127 4c-112 0 -184.333 -14.667 -217 -44s-65 -96.333 -97 -201l-77 12c19.333 112 33.666 243 42.999 393h79
c5.33301 -18 13.666 -30.333 24.999 -37c19.333 -14.667 162.666 -22 429.999 -22s437.333 2 510 6s128.667 13 168 27c56 19.333 109.333 66.333 160 141h213c-8 -146 -12.333 -293.333 -13 -442v-308c143.333 110.667 256 166 338 166c42 0 85 -9.33301 129 -28
s76.333 -43.334 97 -74.001c44 -64 65.667 -174 65 -330v-332c0 -82.667 7.33301 -134 22 -154s52.334 -33.333 113.001 -40v-76c-88 2.66699 -172 4 -252 4s-170.667 -1.33301 -272 -4v76c58.667 6.66699 96.334 23 113.001 49s25 122.333 25 289s-12.333 282 -37 346
c-23.333 64 -71.666 96 -144.999 96s-129 -19.667 -167 -59c-19.333 -20.667 -29 -80.334 -29 -179.001v-366c0 -65.333 6.66699 -109 20 -131s52.666 -37 117.999 -45v-76c-78.667 2.66699 -164.667 4 -258 4s-181 -1.33301 -263 -4v76c63.333 2.66699 101 18.667 113 48
s18.333 70.666 19 123.999v1126c-70.667 -19.333 -220.334 -29 -449.001 -29c-27.333 0 -62.666 -1.33301 -105.999 -4v-1067c0 -82 5.66699 -131 17 -147c11.333 -16.667 27.333 -27.667 48 -33s59 -10 115 -14v-80l-283 8l-49 -127c130 -10.667 195 -68 195 -172z" />
    <glyph glyph-name="uni021A_h" unicode="&#x21a;h" horiz-adv-x="2447" 
d="M586 -633l-46.999 46.998c79.333 70.667 118.666 142.334 117.999 215.001c0 44 -29.333 94.667 -88 152l152 121c74 -75.333 110.667 -145.666 110 -210.999c0.666992 -87.333 -81 -195.333 -245 -324zM834.001 271.998c0 -82 5.66699 -130.998 17 -146.998
c11.333 -16.667 27.333 -27.667 48 -33s59 -10 115 -14v-80c-114.667 4 -234.667 6 -360 6s-221 -2 -287 -6v80c56.667 2.66699 94.334 7.33398 113.001 14.001s33.334 17 44.001 31c12 19.333 18.333 69 19 149v1065c-24.667 2.66699 -67 4 -127 4
c-112 0 -184.333 -14.667 -217 -44s-65 -96.333 -97 -201l-77 12c19.333 112 33.666 243 42.999 393h79c5.33301 -18 13.666 -30.333 24.999 -37c19.333 -14.667 162.666 -22 429.999 -22s437.333 2 510 6s128.667 13 168 27c56 19.333 109.333 66.333 160 141h213
c-8 -146 -12.333 -293.333 -13 -442v-308c143.333 110.667 256 166 338 166c42 0 85 -9.33301 129 -28s76.333 -43.334 97 -74.001c44 -64 65.667 -174 65 -330v-332c0 -82.667 7.33301 -134 22 -154s52.334 -33.333 113.001 -40v-76c-88 2.66699 -172 4 -252 4
s-170.667 -1.33301 -272 -4v76c58.667 6.66699 96.334 23 113.001 49s25 122.333 25 289s-12.333 282 -37 346c-23.333 64 -71.666 96 -144.999 96s-129 -19.667 -167 -59c-19.333 -20.667 -29 -80.334 -29 -179.001v-366c0 -65.333 6.66699 -109 20 -131
s52.666 -37 117.999 -45v-76c-78.667 2.66699 -164.667 4 -258 4s-181 -1.33301 -263 -4v76c63.333 2.66699 101 18.667 113 48s18.333 70.666 19 123.999v1126c-70.667 -19.333 -220.334 -29 -449.001 -29c-26.667 0 -62 -1.33301 -106 -4v-1067z" />
    <glyph glyph-name=".notdef" horiz-adv-x="1073" 
d="M106 1298v-1093l367 547zM172 106h729l-364 549zM600 752l367 -547v1093zM537 848l364 547h-729zM0 0v1503h1073v-1503h-1073z" />
    <glyph glyph-name="space" unicode=" " horiz-adv-x="440" 
 />
    <glyph glyph-name="exclam" unicode="!" horiz-adv-x="643" 
d="M350 -31c-46.667 0 -87.334 16 -122.001 48s-52 73 -52 123s16.333 91.667 49 125s73.334 50 122.001 50s89 -17.333 121 -52s48 -76 48 -124s-16 -88.333 -48 -121s-71.333 -49 -118 -49zM203 1487h309c0 -314 -37.667 -656 -113 -1026h-96
c-66.667 322 -100 664 -100 1026z" />
    <glyph glyph-name="quotedbl" unicode="&#x22;" horiz-adv-x="634" 
d="M598 1524c0 -98.667 -26.667 -287.999 -80 -567.999h-80c-48 251.333 -71.667 440.666 -71 567.999h231zM37 1524l231 0.000976562c0 -98.667 -26.667 -288 -80 -568h-79c-48 251.333 -72 440.666 -72 567.999z" />
    <glyph glyph-name="numbersign" unicode="#" horiz-adv-x="1136" 
d="M494 793l-37 -177h198l37 177h-198zM973 403h-256l-90 -428h-107l90 428h-200l-91 -428h-106l90 428h-225v213h270l37 177h-221v213h266l82 378h109l-82 -378h198l82 378h109l-82 -378h213v-213h-258l-37 -177h209v-213z" />
    <glyph glyph-name="dollar" unicode="$" horiz-adv-x="1050" 
d="M328 1102c0 -79.333 47.667 -147 143 -203v371c-44.667 -5.33301 -79.667 -23 -105 -53s-38 -68.333 -38 -115zM739 263c0 48.667 -13.001 89.6689 -39.001 123.002s-66.667 65.666 -122 96.999v-389c46.667 5.33301 85.334 22.666 116.001 51.999s45.667 68.333 45 117z
M577.999 1550v-180c142 -2.66699 258.667 -34 350 -94l-119 -162c-78 87.333 -155 136 -231 146v-414c198 -88.667 319.333 -184 364 -286c15.333 -33.333 24.666 -62.333 27.999 -87s5 -54 5 -88c0.666992 -91.333 -34.333 -175 -105 -251s-168 -121.333 -292 -136v-182
h-107v178c-187.333 5.33301 -339 60 -455 164l144 155c32.667 -52 76.334 -97 131.001 -135s114.667 -63.333 180 -76v433c-136.667 65.333 -232.334 132.333 -287.001 201c-54.667 68 -82 148.667 -82 242s31.333 177 94 251s154.334 119 275.001 135v186h107z" />
    <glyph glyph-name="percent" unicode="%" horiz-adv-x="1646" 
d="M1269 57c42.667 0.666992 74.333 24.334 95 71.001s31 136.667 31 270s-10.333 228 -31 284s-51.334 84 -92.001 84c-86 0 -129 -111.333 -129 -334c0 -140.667 10.333 -238.334 31 -293.001s52.334 -82 95.001 -82zM1274 844c104 0 184 -38.665 240 -115.998
s83.667 -180 83 -308c0 -128 -29.333 -233.333 -88 -316c-59.333 -82.667 -140.333 -124 -243 -124s-183.667 38.667 -243 116s-89 180.666 -89 309.999s30.667 234.666 92 315.999s144 122 248 122zM1161 1370l-549 -1374h-123l547 1374h125zM383.999 602.002
c42.667 0 74.333 23.334 95 70.001s31 137 31 271c0 133.333 -10.333 228 -31 284s-51.334 84 -92.001 84c-86 0 -129 -111.333 -129 -334c0 -140.667 10.333 -238.334 31 -293.001s52.334 -82 95.001 -82zM712.998 966.003c0 -128 -29.334 -233.667 -88.001 -317
s-139.667 -125 -243 -125s-184.666 39 -243.999 117s-89 181.333 -89 310s30.667 233.667 92 315s144 122.333 248 123c104 0 184 -38.667 240 -116c56 -76.667 84 -179 84 -307z" />
    <glyph glyph-name="ampersand" unicode="&#x26;" horiz-adv-x="1642" 
d="M1476 147c34.667 0 77.3359 9 128.003 27l36 -63c-108 -92.667 -198.333 -139 -271 -139s-139 10.667 -199 32c-60 22 -127 67.667 -201 137c-56.667 -53.333 -118.334 -95.333 -185.001 -126s-153.334 -46 -260.001 -46c-106.667 0.666992 -208.667 35 -306 103
c-96 68 -144 166.333 -144 295c0 88.667 26.333 163.667 79 225s137 120 253 176c-92 112 -138 215.667 -138 311s34 177.666 102 246.999s171.333 104 310 104c95.333 0 172 -23.667 230 -71s87 -112 87 -194c0 -121.333 -92.667 -228.333 -278 -321l383 -426
c69.333 94 118.333 195.667 147 305c8 32.667 12.333 66 13 100c0 61.333 -52.667 93 -158 95v79c122.667 -4 214 -6 274 -6s138.667 2 236 6v-79c-80.667 -5.33301 -133.334 -25.333 -158.001 -60s-48.667 -79 -72 -133c-79.333 -173.333 -150.333 -301.666 -213 -384.999
c76.667 -76.667 138 -128 184 -154s86.333 -39 121 -39zM651.002 143c104 0 185.333 23.333 244 70l-440 494c-62.667 -69.333 -94.334 -161 -95.001 -275c0 -80.667 29.333 -149 88 -205s126.334 -84 203.001 -84zM679.002 1339c-46 0 -84.334 -15.666 -115.001 -46.999
s-46 -74.333 -46 -129c0.666992 -74.667 49.334 -163.334 146.001 -266.001c112 70.667 167.667 158.667 167 264c0 52 -13.667 94.667 -41 128c-28 33.333 -65 50 -111 50z" />
    <glyph glyph-name="quotesingle" unicode="'" horiz-adv-x="305" 
d="M37 1524l231 0.000976562c0 -98.667 -26.667 -288 -80 -568h-79c-48 251.333 -72 440.666 -72 567.999z" />
    <glyph glyph-name="parenleft" unicode="(" horiz-adv-x="667" 
d="M96 594c0 190 43 371.669 129 545.002s211 326.666 375 459.999l62 -59c-113.333 -165.333 -194.333 -318.333 -243 -459s-73 -301.667 -73 -483c0 -318 104.333 -629.333 313 -934l-51 -57c-158.667 121.333 -283.667 268.666 -375 441.999s-137 355 -137 545z" />
    <glyph glyph-name="parenright" unicode=")" horiz-adv-x="667" 
d="M571 614c0 -189.333 -43 -370.668 -129 -544.001s-210.667 -327 -374 -461l-62 59c113.333 165.333 194.333 318.333 243 459s73 301.667 73 483c0 318 -104.667 629.333 -314 934l51 58c158.667 -121.333 283.667 -268.666 375 -441.999s137 -355.333 137 -546z" />
    <glyph glyph-name="asterisk" unicode="*" horiz-adv-x="894" 
d="M545 1495c0 -65.333 -18.667 -173.331 -56 -323.998c140.667 83.333 237.667 134.666 291 153.999l58 -182c-50.667 -16.667 -160 -33 -328 -49c110.667 -84.667 192 -163.334 244 -236.001l-164 -104c-38 52 -86.667 150.333 -146 295
c-58.667 -150 -105.667 -249.667 -141 -299l-166 110c44 62.667 125.333 140.667 244 234c-158.667 18 -266.667 36.333 -324 55l60 178c86 -28.667 183 -81.334 291 -158.001c-38 144.667 -58 253.334 -60 326.001h197z" />
    <glyph glyph-name="plus" unicode="+" horiz-adv-x="1476" 
d="M829 63h-182v463h-454v172h454v463h182v-463h461v-172h-461v-463z" />
    <glyph glyph-name="comma" unicode="," horiz-adv-x="569" 
d="M223 -121c0 61.333 -43.667 136.335 -131 225.002l225 175c98 -102.667 147.333 -209.334 148 -320.001c0 -125.333 -114.667 -283 -344 -473l-72 80c116 109.333 174 213.666 174 312.999z" />
    <glyph glyph-name="hyphen" unicode="-" horiz-adv-x="636" 
d="M573 434h-510v199h510v-199z" />
    <glyph glyph-name="period" unicode="." horiz-adv-x="569" 
d="M289 -31c-46.667 0 -87.334 16 -122.001 48s-52 73 -52 123s16.333 91.667 49 125s73.334 50 122.001 50s89 -17.333 121 -52s48 -76 48 -124s-16 -88.333 -48 -121s-71.333 -49 -118 -49z" />
    <glyph glyph-name="slash" unicode="/" horiz-adv-x="733" 
d="M692 1485l-495 -1581h-156l496 1581h155z" />
    <glyph glyph-name="zero" unicode="0" horiz-adv-x="1150" 
d="M778 680c0 225.333 -14.668 385.332 -44.001 479.999s-80.666 142.334 -153.999 143.001c-73.333 -0.666992 -125.666 -49 -156.999 -145c-30.667 -96 -46 -256 -46 -480s14.667 -383 44 -477s81.666 -141 156.999 -141c74.667 0 126.667 46.667 156 140
c29.333 94.667 44 254.667 44 480zM571.999 -29.001c-158.667 0 -281.334 64.335 -368.001 193.002c-86.667 128 -130 302 -130 522s47.333 392.667 142 518s218.667 187.666 372 186.999c152.667 -0.666992 272.334 -61.667 359.001 -183s130 -293.333 130 -516
s-44.667 -398.334 -134 -527.001c-89.333 -129.333 -213 -194 -371 -194z" />
    <glyph glyph-name="one" unicode="1" horiz-adv-x="1150" 
d="M739 1073l0.000976562 -811.003c0 -80 10.667 -128.667 32 -146s77.666 -30.666 168.999 -39.999v-78c-89.333 2.66699 -199.333 4 -330 4s-248 -1.33301 -352 -4v78c92.667 9.33301 149.334 23.333 170.001 42s31 68 31 148v701
c-0.666992 84.667 -6.33398 136.334 -17.001 155.001s-27.667 31.334 -51 38.001c-23.333 7.33301 -68.333 12 -135 14v83c64 7.33301 142 26.333 234 57s165.667 61 221 91l37 -21c-6 -57.333 -9 -161 -9 -311z" />
    <glyph glyph-name="two" unicode="2" horiz-adv-x="1150" 
d="M622 1391c113.333 0.666992 202.665 -32.3369 267.998 -99.0039s98.333 -157.667 99 -273c0 -115.333 -41 -228.666 -123 -339.999c-29.333 -40 -54.666 -73 -75.999 -99c-53.333 -65.333 -154 -158.333 -302 -279c-50 -40.667 -83 -68.667 -99 -84
c196.667 0 416.667 5.33301 660 16l-52 -235c-109.333 2.66699 -253.666 4 -432.999 4s-345.333 -1.33301 -498 -4l-11 65c57.333 44 133.333 111 228 201c164 162.667 272 298.334 324 407.001c52.667 108.667 79 224.334 79 347.001c0 65.333 -17.667 115.333 -53 150
s-77 52.334 -125 53.001c-120 0 -219 -65.667 -297 -197l-88 43c48 100 114.667 179 200 237c86 58 185.667 87 299 87z" />
    <glyph glyph-name="three" unicode="3" horiz-adv-x="1150" 
d="M688 446c0 86 -21.666 149.335 -64.999 190.002c-44 40 -95 60 -153 60s-124 -15 -198 -45l-30 97c176 52.667 285.667 119 329 199c22 40 33 85.333 33 136s-13 89.334 -39 116.001s-59.333 40 -100 40c-96.667 0 -189.667 -45 -279 -135l-69 70
c68 77.333 141.667 132.666 221 165.999s153 50.333 221 51c113.333 0 198 -24.667 254 -74s84 -113.666 84 -192.999c0 -144.667 -107.333 -252.334 -322 -323.001c130 0 231.333 -27 304 -81s109 -133.333 109 -238s-47.667 -201.667 -143 -291
c-94 -88.667 -203.667 -156.334 -329 -203.001s-249 -75.334 -371 -86.001l-24 164c199.333 0 343.666 29.667 432.999 89s134 156.333 134 291z" />
    <glyph glyph-name="four" unicode="4" horiz-adv-x="1150" 
d="M608 530v535l-121 -170l-251 -365h372zM881 530h194v-163h-194v-412h-273v412c-224 0 -410.333 -0.666992 -559 -2l-16 67c187.333 272 419.333 589.333 696 952l154 -6l-2 -500v-348z" />
    <glyph glyph-name="five" unicode="5" horiz-adv-x="1150" 
d="M956 506c0 -104 -39.3311 -200 -117.998 -288s-178.334 -159 -299.001 -213c-121.333 -54 -249 -88.333 -383 -103l-23 161c359.333 8 539 125.667 539 353c0 61.333 -22 117.333 -66 168s-128 95.667 -252 135c-90 27.333 -135 66.333 -135 117c0 35.333 4 68 12 98
l103 428c352 0 563.667 2.66699 635 8l-45 -219c-104 -4 -283 -6 -537 -6c-18 -62.667 -27 -103 -27 -121c0 -24.667 28.667 -45.667 86 -63c201.333 -63.333 336.666 -129 405.999 -197s104 -154 104 -258z" />
    <glyph glyph-name="six" unicode="6" horiz-adv-x="1150" 
d="M1073 426c0 -123.333 -44.333 -230.003 -133 -320.003s-207.667 -135 -357 -135c-148.667 0.666992 -265.667 50.334 -351 149.001s-128 234 -128 406c0 206.667 61.333 396.334 184 569.001c62 86.667 146 162.334 252 227.001s228.333 112 367 142l29 -78
c-180 -58.667 -315.333 -163.334 -406 -314.001s-135.667 -322 -135 -514c0 -192 22.333 -322 67 -390c44.667 -69.333 96.667 -104.333 156 -105c116 0 174.333 97.667 175 293c0 234.667 -70.333 352.334 -211 353.001c-28 0 -62.333 -7.66699 -103 -23l-24 68
c88.667 46.667 174 69.667 256 69c109.333 0 197 -35.333 263 -106s99 -167.667 99 -291z" />
    <glyph glyph-name="seven" unicode="7" horiz-adv-x="1150" 
d="M594 1362c185.333 0 329.333 0.666016 432 1.99902l25 -37l-670 -1425l-141 43c138 300.667 336 701.334 594 1202c-340 0 -593.333 -2 -760 -6l55 225c124.667 -2.66699 279.667 -4 465 -4z" />
    <glyph glyph-name="eight" unicode="8" horiz-adv-x="1150" 
d="M612 1298c-58.667 0 -105.666 -17.332 -140.999 -51.999s-53 -80.334 -53 -137.001s18.667 -105.667 56 -147s101.333 -88.333 192 -141c101.333 62.667 151.666 148 150.999 256c0 67.333 -19.333 121 -58 161c-39.333 40 -88.333 60 -147 60zM295.001 326.001
c0 -80.667 25.333 -144.333 76 -191c50.667 -46 109 -69 175 -69s121.667 17.667 167 53c44.667 35.333 67 86.333 67 153s-24.333 125.667 -73 177c-49.333 50 -135.333 105.667 -258 167c-102.667 -69.333 -154 -166 -154 -290zM170.001 1022
c0 104 40.6699 191.329 122.003 261.996s182.666 106 303.999 106s216.666 -28 285.999 -84c69.333 -56.667 104.333 -133 105 -229c0 -69.333 -20 -127.666 -60 -174.999s-99 -90.666 -177 -129.999c109.333 -62.667 183.666 -123.334 222.999 -182.001
s59 -131.667 59 -219c0 -108 -45 -201.667 -135 -281s-202 -119 -336 -119c-134 0.666992 -241 32.334 -321 95.001s-120.333 146.334 -121 251.001c0 146.667 86.667 262.334 260 347.001c-83.333 60 -139 118 -167 174s-42 117.333 -42 184z" />
    <glyph glyph-name="nine" unicode="9" horiz-adv-x="1150" 
d="M569 653c27.333 0 61.6689 7.66895 103.002 23.002l24 -68c-88.667 -46.667 -174 -69.667 -256 -69c-109.333 0 -197 35.333 -263 106s-99 167.667 -99 291c0 124 44.333 230.667 133 320s207.667 134 357 134s266.666 -49.333 351.999 -148s127.666 -234 126.999 -406
c0 -206.667 -61.333 -396.334 -184 -569.001c-62 -86.667 -146 -162.334 -252 -227.001s-228.333 -112 -367 -142l-29 77c179.333 59.333 314.333 164.333 405 315s136 322 136 514s-22.333 322 -67 390c-44.667 69.333 -97 104 -157 104c-116 0 -174 -97.333 -174 -292
c0 -235.333 70.333 -353 211 -353z" />
    <glyph glyph-name="colon" unicode=":" horiz-adv-x="602" 
d="M321 -31c-46 0 -86.333 16 -121 48s-52 73 -52 123s16 91.667 48 125c33.333 33.333 74 50 122 50s88.333 -17.333 121 -52c32 -34.667 48 -76 48 -124s-16 -88.333 -48 -121s-71.333 -49 -118 -49zM321 653c-46 0 -86.333 16 -121 48s-52 73 -52 123s16 91.667 48 125
c33.333 33.333 74 50 122 50s88.333 -17.333 121 -52c32 -34.667 48 -76 48 -124s-16 -88.333 -48 -121s-71.333 -49 -118 -49z" />
    <glyph glyph-name="semicolon" unicode=";" horiz-adv-x="602" 
d="M256 -121c0 61.333 -43.667 136.335 -131 225.002l225 175c98 -102.667 147.333 -209.334 148 -320.001c0 -125.333 -114.667 -283 -344 -473l-72 80c116 109.333 174 213.666 174 312.999zM321 653.002c-46 0 -86.333 16 -121 48s-52 73 -52 123s16 91.667 48 125
c33.333 33.333 74 50 122 50s88.333 -17.333 121 -52c32 -34.667 48 -76 48 -124s-16 -88.333 -48 -121s-71.333 -49 -118 -49z" />
    <glyph glyph-name="less" unicode="&#x3c;" horiz-adv-x="1482" 
d="M1186 68l-953 440v211l953 459v-191l-785 -364l785 -353v-202z" />
    <glyph glyph-name="equal" unicode="=" horiz-adv-x="1476" 
d="M1288 717h-1098v174h1098v-174zM1290 332h-1097v174h1097v-174z" />
    <glyph glyph-name="greater" unicode="&#x3e;" horiz-adv-x="1482" 
d="M297 1178l952 -441v-211l-952 -458v190l784 367l-784 352v201z" />
    <glyph glyph-name="question" unicode="?" horiz-adv-x="761" 
d="M289 -31c-46.667 0 -87.334 16 -122.001 48s-52 73 -52 123s16.333 91.667 49 125s73.334 50 122.001 50s89 -17.333 121 -52s48 -76 48 -124s-16 -88.333 -48 -121s-71.333 -49 -118 -49zM211 788c0 24.667 6 45.3301 18 61.9971s30 30.667 54 42l71 34l50 23
c10 4.66699 23.333 11.667 40 21c54.667 32 82 78.667 82 140s-33.333 105.333 -100 132s-174 41.334 -322 44.001v219c60 0 128 -12 204 -36s140 -55.667 192 -95c148.667 -114.667 223 -241 223 -379c0 -83.333 -26.333 -152.666 -79 -207.999
s-130.667 -101.333 -234 -138c-39.333 -13.333 -64 -44 -74 -92s-15.667 -85.667 -17 -113h-90c-12 204.667 -18 319.334 -18 344.001z" />
    <glyph glyph-name="at" unicode="@" horiz-adv-x="1720" 
d="M1122 879c0 36.667 -34.333 55.002 -103 55.002c-112 0 -216.333 -117.333 -313 -352c-36 -88 -54 -155.333 -54 -202s16 -70.334 48 -71.001c50.667 0 112 39.667 184 119s131.667 166.666 179 261.999c39.333 85.333 59 148.333 59 189zM1485 858.002
c0 134 -41.0039 242.668 -123.004 326.001s-196 125 -342 125c-206 0.666992 -381 -77 -525 -233s-216 -357.667 -216 -605c0 -194 59.333 -345 178 -453s266.667 -161.667 444 -161c248.667 0 471.334 96 668.001 288l78 -88c-222.667 -207.333 -476.667 -311 -762 -311
c-234.667 0 -424.334 66 -569.001 198c-144 132 -216 309 -216 531c0 264.667 86.333 485 259 661s395.667 264.333 669 265c113.333 0 212 -17.333 296 -52c142.667 -58.667 238.334 -163.667 287.001 -315c20 -60 29.667 -121.333 29 -184
c0 -192.667 -77.667 -364.667 -233 -516c-62 -61.333 -127.667 -108.333 -197 -141c-114.667 -54 -190 -64 -226 -30c-14.667 12.667 -22 34.667 -22 66s22.667 119.666 68 264.999l-6 4c-79.333 -118.667 -160.333 -208 -243 -268s-154 -89.667 -214 -89
c-80.667 0 -121 44.333 -121 133c0 64 17.333 140.667 52 230s82.334 172.666 143.001 249.999c140.667 178.667 285.334 268 434.001 268c36.667 0 77 -4 121 -12l33 65l117 -6l-179 -590c-23.333 -76.667 -34.666 -135.334 -33.999 -176.001
c0 -15.333 7.33301 -22.666 22 -21.999c40.667 0 94.667 32.667 162 98c112 110.667 168 270.334 168 479.001z" />
    <glyph glyph-name="A" unicode="A" horiz-adv-x="1542" 
d="M719 1190l-199 -528h369zM1196 4c-96 0 -202.333 -2 -319 -6v76c66.667 2.66699 110 10 130 22c19.333 12 29 32.667 29 62s-9.33301 74.333 -28 135l-88 274h-437l-104 -278c-22 -57.333 -33 -99.333 -33 -126c0 -27.333 11 -47.666 33 -60.999s65 -22.666 129 -27.999
v-76c-101.333 4 -182 6 -242 6s-144.667 -2 -254 -6v76c57.333 8 100 22.667 128 44s55 64 81 128l324 801c53.333 132.667 99 258 137 376l238 54c16.667 -54.667 59.667 -185.334 129 -392.001l274 -823c23.333 -70.667 47 -118.334 71 -143.001s66 -39.667 126 -45v-76
c-120 4 -228 6 -324 6z" />
    <glyph glyph-name="B" unicode="B" horiz-adv-x="1341" 
d="M674 92c184 0 275.334 87.334 274.001 262.001c-0.666992 156 -38.334 256.333 -113.001 301c-61.333 37.333 -142.333 56.666 -243 57.999c-32 0 -53.333 -0.666992 -64 -2v-387c0 -88.667 4.66699 -144.667 14 -168c9.33301 -24 22.666 -40.667 39.999 -50
c16.667 -9.33301 47.334 -14 92.001 -14zM582.001 803.001c114.667 0.666992 195.999 24.333 243.999 71s71.667 118.667 71 216c0 97.333 -25.667 166.333 -77 207c-51.333 41.333 -117.666 62.333 -198.999 63c-29.333 0 -60.333 -2 -93 -6v-549c8 -1.33301 26 -2 54 -2z
M1194 1124c0 -177.333 -123 -294.002 -369 -350.002c142 -5.33301 250.333 -38.333 325 -99s112 -143 112 -247c0 -143.333 -53 -251 -159 -323s-254 -107.667 -444 -107l-260 4c-143.333 0 -250.333 -1.33301 -321 -4v80c48 2.66699 82 7.66699 102 15s35 21.333 45 42
c9.33301 20.667 14.333 62.334 15 125.001v932c0 62.667 -6 106.334 -18 131.001s-60 39.667 -144 45v80c112 -2.66699 215 -4 309 -4l268 2c194 0 332.333 -26.333 415 -79s124 -133.667 124 -243z" />
    <glyph glyph-name="C" unicode="C" horiz-adv-x="1478" 
d="M410 741c0 -199.333 45.668 -361.669 137.001 -487.002s205.333 -188 342 -188c109.333 0 195.666 23.333 258.999 70s112 132.334 146 257.001l95 -12c-24.667 -135.333 -51.334 -244 -80.001 -326c-45.333 -24.667 -110.666 -45 -195.999 -61
s-167.666 -23.667 -246.999 -23c-241.333 0 -432 70.667 -572 212s-210 321.666 -210 540.999s71.667 399 215 539s328.333 210 555 210c126.667 0.666992 233.667 -11.666 321 -36.999s140.666 -41 159.999 -47c12 -139.333 23 -246.666 33 -321.999l-94 -8
c-31.333 120 -77 204.333 -137 253c-59.333 48 -152.333 72 -279 72s-233 -57.333 -319 -172s-129 -271.667 -129 -471z" />
    <glyph glyph-name="D" unicode="D" horiz-adv-x="1601" 
d="M528 301c0 -70.667 4.33301 -117.668 13 -141.001c18 -46.667 76.667 -70 176 -70c147.333 0 263 53.333 347 160s126 264.334 126 473.001c0 101.333 -6.33301 186.666 -19 255.999c-29.333 170.667 -104.333 282.334 -225 335.001c-69.333 30.667 -149.333 46 -240 46
s-150 -1.33301 -178 -4v-1055zM238 1192c0 65.333 -7 109.67 -21 133.003s-61 37.666 -141 42.999v80c48 -2.66699 153.667 -4 317 -4l318 4c538 0 807 -233.333 807 -700c0 -250.667 -75.333 -438 -226 -562s-356.667 -186 -618 -186l-281 4
c-88.667 0 -194.334 -2 -317.001 -6v80c82 5.33301 129.333 20.666 142 45.999s19.334 68.666 20.001 129.999v938z" />
    <glyph glyph-name="E" unicode="E" horiz-adv-x="1284" 
d="M452 4c-128 0 -253.332 -1.99805 -375.999 -5.99805v80c80.667 4 127.667 19 141 45s20.333 69.667 21 131v938c0 61.333 -7 105 -21 131s-61 41 -141 45v80c122.667 -4 284.667 -6 486 -6s388 2 560 6c10.667 -176 18.334 -279 23.001 -309l-82 -9
c-20.667 86 -51.334 147 -92.001 183c-36.667 30 -108.334 45 -215.001 45s-182.667 -1.33301 -228 -4v-553c132.667 -0.666992 218.334 6.33301 257.001 21s67 71.667 85 171h82c-6.66699 -143.333 -10 -245 -10 -305s1.33301 -117.333 4 -172h-82
c-12 94 -37.333 150.333 -76 169s-125.334 28 -260.001 28v-437c0 -58.667 5.66699 -97.334 17 -116.001c12.667 -26 39 -43.333 79 -52s99.667 -13.334 179 -14.001c132.667 0 222 32 268 96c34 48 63.333 102.667 88 164l80 -16c-30 -128.667 -60.667 -242 -92 -340
c-335.333 4 -567 6 -695 6z" />
    <glyph glyph-name="F" unicode="F" horiz-adv-x="1222" 
d="M528 707l-0.00195312 -434.998c0 -66.667 7.33301 -113.334 22 -140.001s75.667 -44.667 183 -54v-80c-114.667 4 -222 6 -322 6s-211.667 -2 -335 -6v80c80.667 4 127.667 19 141 45s20.333 69.667 21 131v938c0 61.333 -7 105 -21 131s-61 41 -141 45v80
c122.667 -4 288 -6 496 -6s397.667 2 569 6c9.33301 -155.333 18 -263.333 26 -324l-80 -6c-23.333 96 -54.666 160 -93.999 192s-117 48 -233 48s-193.333 -1.33301 -232 -4v-568c157.333 0 252.333 6.33301 285 19c40.667 15.333 70 72.666 88 171.999h82
c-6.66699 -143.333 -10 -244 -10 -302s1.33301 -114.333 4 -169h-82c-12.667 98 -37.667 156 -75 174s-134.666 27 -291.999 27z" />
    <glyph glyph-name="G" unicode="G" horiz-adv-x="1572" 
d="M1143 375c0 61.333 -12.3291 101 -36.9961 119s-75.334 30 -152.001 36v80c98.667 -2.66699 204.667 -4 318 -4s213.666 1.33301 300.999 4v-78c-72.667 -6.66699 -117.667 -18 -135 -34s-26.333 -59 -27 -129c0 -139.333 5.33301 -239 16 -299
c-190 -65.333 -367.333 -98.333 -532 -99c-251.333 0 -449.333 66.333 -594 199s-217 314 -217 544s76.667 414 230 552s346.333 207 579 207c142 0 262 -15.333 360 -46c5.33301 -1.33301 50.666 -14 135.999 -38c12 -139.333 22.667 -246.666 32 -321.999l-96 -8
c-28.667 118.667 -72.667 202.667 -132 252c-59.333 48.667 -158.333 73 -297 73s-254.334 -57.667 -347.001 -173s-139 -266.333 -139 -453s36.667 -344.334 110 -473.001c38 -66 92 -119 162 -159s156 -60 258 -60s163 23.667 183 71c13.333 30.667 20 110 20 238z" />
    <glyph glyph-name="H" unicode="H" horiz-adv-x="1669" 
d="M530 805l608.999 0.00195312v387c0 61.333 -6.33301 104.333 -19 129c-13.333 24.667 -61 40.334 -143 47.001v80c122.667 -4 227 -6 313 -6s186.333 2 301 6v-80c-79.333 -6.66699 -126 -20.334 -140 -41.001s-21 -67 -21 -139v-930c0 -68 6.66699 -113.333 20 -136
s60.333 -37.334 141 -44.001v-80c-114.667 4 -215 6 -301 6s-190.333 -2 -313 -6v80c82 5.33301 129.333 20 142 44s19.334 68 20.001 132v455h-609v-451c0 -68 6.66699 -113.333 20 -136s60.666 -37.334 141.999 -44.001v-80c-114.667 4 -215 6 -301 6s-190.333 -2 -313 -6
v80c82 5.33301 129.333 20 142 44s19.334 68 20.001 132v938c0 61.333 -6.33301 104.333 -19 129c-13.333 24.667 -61 40.334 -143 47.001v80c122.667 -4 227 -6 313 -6s186.333 2 301 6v-80c-79.333 -6.66699 -126 -20.334 -140 -41.001s-21.333 -67 -22 -139v-383z" />
    <glyph glyph-name="I" unicode="I" horiz-adv-x="774" 
d="M535 1188l-0.000976562 -930c0 -68 6.66699 -113.333 20 -136s60.333 -37.334 141 -44.001v-80c-114.667 4 -215.667 6 -303 6s-192.333 -2 -315 -6v80c82 5.33301 129.333 20 142 44s19.334 68 20.001 132v938c0 61.333 -6.33301 104.333 -19 129
c-13.333 24.667 -61 40.334 -143 47.001v80c122.667 -4 227.667 -6 315 -6s188.333 2 303 6v-80c-79.333 -6.66699 -126 -20 -140 -40s-21 -66.667 -21 -140z" />
    <glyph glyph-name="J" unicode="J" horiz-adv-x="735" 
d="M135 -213c74 0 111 80.666 111 241.999v1147c0 70.667 -6.66699 118 -20 142s-67.666 40.667 -162.999 50v80c122 -4 229.667 -6 323 -6s197.333 2 312 6v-80c-80.667 -8 -127.667 -22 -141 -42s-20 -66.667 -20 -140v-617l2 -340
c-0.666992 -87.333 -20.334 -169.666 -59.001 -246.999s-85.667 -140.333 -141 -189c-55.333 -48 -111 -86 -167 -114c-56 -27.333 -103.667 -41 -143 -41s-79 5.33301 -119 16l57 170c58.667 -24.667 114.667 -37 168 -37z" />
    <glyph glyph-name="K" unicode="K" horiz-adv-x="1542" 
d="M528 692l-0.00195312 -434.001c0 -68 6.66699 -113.333 20 -136s56.666 -37.334 129.999 -44.001v-80c-114.667 4 -213 6 -295 6s-184.333 -2 -307 -6v80c82 5.33301 129.333 20 142 44s19.334 68 20.001 132v938c0 61.333 -6.33301 104.333 -19 129
c-13.333 24.667 -61 40.334 -143 47.001v80c122.667 -4 226.334 -6 311.001 -6s184.334 2 299.001 6v-80c-76.667 -6.66699 -122 -20.334 -136 -41.001s-21.333 -67 -22 -139v-408c38 0 73.667 13 107 39c80.667 65.333 200 191 358 377c38 46.667 57 82.334 57 107.001
s-9 41.334 -27 50.001c-18.667 8.66699 -51 13.667 -97 15v80c34 -4 108.667 -6 224 -6s203.666 2 264.999 6v-76c-56 -6.66699 -96.333 -17.334 -121 -32.001c-25.333 -14.667 -78.666 -66 -159.999 -154l-311 -330l502 -639c45.333 -57.333 84 -95 116 -113
s65 -26.667 99 -26v-80c-141.333 5.33301 -265.333 8 -372 8s-206.667 -2.66699 -300 -8v80c76.667 2.66699 115 20.334 115 53.001c0 23.333 -21.667 65 -65 125l-232 303c-66 88.667 -118.667 133 -158 133z" />
    <glyph glyph-name="L" unicode="L" horiz-adv-x="1267" 
d="M530 1188v-916.002c0 -53.333 5.66699 -90.666 17 -111.999c12 -26.667 34 -44.667 66 -54s89.667 -14 173 -14c135.333 0 226.333 32 273 96c28.667 40.667 59.334 101.667 92.001 183l76 -17c-28.667 -125.333 -61 -244 -97 -356c-336 4 -564.667 6 -686 6
s-243.333 -2 -366 -6v80c80.667 4 127.667 19 141 45s20.333 69.667 21 131v938c0 65.333 -6.33301 108.333 -19 129c-15.333 27.333 -63 43 -143 47v80c122.667 -4 227 -6 313 -6s186.333 2 301 6v-80c-78.667 -5.33301 -125.334 -18.666 -140.001 -39.999
s-22 -68 -22 -140z" />
    <glyph glyph-name="M" unicode="M" horiz-adv-x="1931" 
d="M1559 1444c78.667 0 167.333 1.33301 266 4v-80c-78 -2.66699 -126.667 -12.667 -146 -30s-29 -68 -29 -152s10.333 -390.667 31 -920c2.66699 -80 13.334 -130 32.001 -150s70.334 -32.667 155.001 -38v-80c-79.333 2.66699 -190 4 -332 4s-254 -1.33301 -336 -4v80
c78 6.66699 128 20 150 40c21.333 20 32 63 32 129s-2.33301 191.333 -7 376c-4.66699 185.333 -8.33398 342.333 -11.001 471c-112 -243.333 -210 -466 -294 -668s-139.667 -345.333 -167 -430h-96c-40.667 127.333 -119.667 329.333 -237 606
c-118 277.333 -186.333 440 -205 488c-27.333 -491.333 -41 -772 -41 -842c0 -69.333 12 -114 36 -134s77.333 -32 160 -36v-80c-70.667 2.66699 -154 4 -250 4s-179.333 -1.33301 -250 -4v80c66.667 2.66699 111 14.667 133 36c21.333 21.333 34.666 69.333 39.999 144
c46 613.333 69 943.333 69 990s-10.667 76.667 -32 90c-21.333 14.667 -68 24.667 -140 30v80c65.333 -2.66699 134.333 -4 207 -4s158 1.33301 256 4c44.667 -134.667 121.667 -331.667 231 -591c109.333 -260 166.666 -396 171.999 -408l233 525
c113.333 253.333 179 411.333 197 474c36.667 -2.66699 94.334 -4 173.001 -4z" />
    <glyph glyph-name="N" unicode="N" horiz-adv-x="1619" 
d="M274 2c-98.667 0 -165.333 -1.33105 -200 -3.99805v80c58.667 4 98.667 11.333 120 22s34 28 38 52c18.667 100 28 420 28 960c0 83.333 -17 144 -51 182c-22 26.667 -44.333 44.667 -67 54s-56.334 16 -101.001 20v80c55.333 -2.66699 132.333 -4 231 -4
s172.667 1.33301 222 4c110 -153.333 268.667 -353 476 -599c208 -246 312.667 -370 314 -372c-1.33301 86 -2 178.333 -2 277s-1.66699 212 -5 340s-15.666 204.667 -36.999 230s-75 40 -161 44v80c98 -2.66699 180.667 -4 248 -4s152.666 1.33301 255.999 4v-80
c-75.333 -4 -122.333 -19 -141 -45s-30.667 -92 -36 -198c-4.66699 -106 -7 -270.333 -7 -493s4.66699 -437.334 14 -644.001l-119 -33c-23.333 34 -82.666 111 -177.999 231l-747 910c2.66699 -38 4 -127.667 4 -269c0 -140.667 0.666992 -273.667 2 -399
s4 -203.333 8 -234s15 -55.334 33 -74.001c18.667 -18.667 38.667 -29.667 60 -33s58 -6.33301 110 -9v-80c-109.333 2.66699 -213.333 4 -312 4z" />
    <glyph glyph-name="O" unicode="O" horiz-adv-x="1648" 
d="M824 1384c-125.333 0 -226.333 -52.667 -303 -158c-75.333 -105.333 -113 -267.333 -113 -486c0 -218 38.667 -386 116 -504s181.333 -177 312 -177s234 53.667 310 161c76 108 114 272 114 492s-41.333 387 -124 501s-186.667 171 -312 171zM821 -29
c-232.667 0 -413.668 68.668 -543.001 206.001c-129.333 138 -194 315.667 -194 533s69 398.666 207 543.999s323.333 218.333 556 219c232.667 0 410.334 -67.667 533.001 -203c122.667 -136 184 -314.667 184 -536s-65.667 -404 -197 -548
c-132 -144 -314 -215.667 -546 -215z" />
    <glyph glyph-name="P" unicode="P" horiz-adv-x="1320" 
d="M1245 1065c0 -78 -15.6699 -146.335 -47.0029 -205.002s-73.666 -104 -126.999 -136c-105.333 -63.333 -224.666 -94.333 -357.999 -93c-42 0 -79.667 2 -113 6l10 92c27.333 -5.33301 51.333 -8 72 -8c169.333 0 254 109.333 254 328c0 103.333 -25.667 180.333 -77 231
s-122.666 76 -213.999 76c-46.667 0 -85 -1.33301 -115 -4v-1094c0 -69.333 9.66699 -114.666 29 -135.999s74.666 -36 165.999 -44v-80c-114 4 -219.667 6 -317 6s-207.333 -2 -330 -6v80c80.667 4 127.667 19 141 45s20.333 69.667 21 131v938
c0 62.667 -6.66699 106 -20 130s-60.666 39.333 -141.999 46v80c54.667 -2.66699 155 -4 301 -4l305 2c182.667 0 322 -28.667 418 -86s143.667 -155.666 143 -294.999z" />
    <glyph glyph-name="Q" unicode="Q" horiz-adv-x="1648" 
d="M824 1384c-125.333 0 -226.332 -52.668 -302.999 -158.001c-75.333 -105.333 -113 -268 -113 -488c0 -219.333 38 -386.666 114 -501.999s180 -173 312 -173c133.333 0 237.666 51 312.999 153c75.333 102.667 113 266 113 490s-41.333 393 -124 507
s-186.667 171 -312 171zM1102 26.999c344.667 -224 607.664 -335.999 788.997 -335.999c85.333 0 174.666 9.33301 267.999 28l22 -73c-160 -78 -314.667 -117 -464 -117s-308.666 38 -477.999 114s-378.333 185.333 -627 328l-118 68
c-131.333 52 -232.666 136.333 -303.999 253c-70.667 116.667 -106 252 -106 406c0 225.333 69 410.666 207 555.999s323.333 218.333 556 219c232.667 0 410.334 -67.667 533.001 -203s184.334 -309.333 185.001 -522c0 -176 -40 -327.333 -120 -454
s-194.333 -215.667 -343 -267z" />
    <glyph glyph-name="R" unicode="R" horiz-adv-x="1452" 
d="M653 745c178.667 0 268.333 102 269 306c0 108.667 -28.333 187 -85 235s-129.667 72 -219 72c-28.667 0 -58 -1.33301 -88 -4v-600c46.667 -6 87.667 -9 123 -9zM1233 1057c0 -79.333 -23.668 -150.335 -71.001 -213.002s-119.333 -110.667 -216 -144l78 -137
c38.667 -68 75 -128.667 109 -182c106.667 -168.667 210.334 -278.667 311.001 -330l-10 -67c-192.667 0 -339.667 41.667 -441 125c-75.333 60 -191.333 245 -348 555c-44 0 -82.333 2 -115 6v-412c0 -64 8.33301 -108 25 -132s71.334 -40 164.001 -48v-80
c-115.333 4 -220.333 6 -315 6s-203.334 -2 -326.001 -6v80c80.667 4 128.334 19.667 143.001 47c12 20.667 18.333 64.334 19 131.001v928c0 72.667 -6.33301 118.334 -19 137.001c-16.667 26 -64.334 41.667 -143.001 47v80c54.667 -2.66699 155 -4 301 -4l285 2
c379.333 0 569 -129.667 569 -389z" />
    <glyph glyph-name="S" unicode="S" horiz-adv-x="1107" 
d="M1020 393c0 -120 -47.335 -220.336 -142.002 -301.003s-217.334 -121 -368.001 -121c-70.667 0 -144.334 8.33301 -221.001 25s-132.667 35.667 -168 57c-19.333 92.667 -35 194.334 -47 305.001l96 9c24.667 -105.333 64.334 -182.666 119.001 -231.999
s132.334 -74 233.001 -74c69.333 0.666992 126 19.667 170 57s66 85.333 66 144s-13.667 106 -41 142s-69 73.333 -125 112l-180 121c-102.667 66 -176.667 131 -222 195s-67.666 143.667 -66.999 239c0 114.667 47.333 210.334 142 287.001
c95.333 76.667 214.333 115 357 115s249.334 -13.667 320.001 -41c10.667 -126.667 20.334 -224.334 29.001 -293.001l-97 -9c-36.667 169.333 -123.334 254 -260.001 254c-70.667 0 -126.667 -20.667 -168 -62s-62.333 -96.666 -63 -165.999
c0 -69.333 42.333 -132.333 127 -189l170 -117c136 -86 226.667 -162.333 272 -229s68 -142.667 68 -228z" />
    <glyph glyph-name="T" unicode="T" horiz-adv-x="1378" 
d="M834 272c0 -82 5.66699 -131.001 17 -147.001c11.333 -16.667 27.333 -27.667 48 -33s59 -10 115 -14v-80c-114.667 4 -234.667 6 -360 6s-221 -2 -287 -6v80c56.667 2.66699 94.334 7.33398 113.001 14.001s33.334 17 44.001 31c12 19.333 18.333 69 19 149v1065
c-24.667 2.66699 -67 4 -127 4c-112 0 -184.333 -14.667 -217 -44s-65 -96.333 -97 -201l-77 12c19.333 112 33.666 243 42.999 393h79c5.33301 -18 13.666 -30.333 24.999 -37c18.667 -14.667 192 -22 520 -22s503.333 3 526 9s40.667 23.333 54 52l74 -6
c-9.33301 -79.333 -19 -211 -29 -395h-80c-4 64 -13.333 113.333 -28 148c-15.333 34.667 -41 58.667 -77 72s-83.667 20.333 -143 21c-59.333 0 -111 -1.33301 -155 -4v-1067z" />
    <glyph glyph-name="U" unicode="U" horiz-adv-x="1542" 
d="M832 117c70.667 -0.666992 132.998 8.33301 186.998 27s95.667 41.667 125 69s51.666 67 66.999 119c16 52 25.667 101.333 29 148s5 149.334 5 308.001c0 160 -3.33301 282 -10 366s-21.667 139.667 -45 167s-72.666 43 -147.999 47v80c98.667 -2.66699 178 -4 238 -4
s142 1.33301 246 4v-80c-70.667 -4 -116.334 -20 -137.001 -48s-31 -94.667 -31 -200l2 -583c0 -187.333 -46 -328.333 -138 -423s-237.333 -142.334 -436 -143.001c-255.333 0 -429.333 68.333 -522 205c-52 75.333 -78 197 -78 365v651c0 66.667 -7.33301 111.667 -22 135
s-57.667 37 -129 41v80c122.667 -4 225.667 -6 309 -6s182.333 2 297 6v-80c-75.333 -6.66699 -121.666 -20.667 -138.999 -42s-25.666 -67.333 -24.999 -138l-2 -572c0 -100 4 -175.333 12 -226s23.667 -95.667 47 -135c23.333 -40 61 -73 113 -99
c52.667 -26 114.334 -39 185.001 -39z" />
    <glyph glyph-name="V" unicode="V" horiz-adv-x="1540" 
d="M1304 1442c96 0 170.669 2 224.002 6v-80c-49.333 -2.66699 -85 -13.667 -107 -33s-47 -63 -75 -131l-508 -1227h-113c-70.667 198 -244.667 618 -522 1260c-20.667 50 -43.334 84.333 -68.001 103s-62 28 -112 28v80c102.667 -4 216 -6 340 -6s237 2 339 6v-80
c-73.333 -2.66699 -122 -9 -146 -19s-36 -27 -36 -51s10.333 -63.667 31 -119c20.667 -56 70.667 -180 150 -372l180 -440l157 397c69.333 174.667 115.666 298.667 138.999 372c23.333 72.667 35 123 35 151s-11.667 48.333 -35 61c-24 12 -68.333 18.667 -133 20v80
c77.333 -4 164 -6 260 -6z" />
    <glyph glyph-name="W" unicode="W" horiz-adv-x="2146" 
d="M1860 1283c0 24 -1.99512 40 -5.99512 48c-4 8.66699 -17.333 17 -40 25c-21.333 8 -53.333 12 -96 12v80c56 -4 122 -6 198 -6s150.667 2 224 6v-80c-40.667 -2.66699 -71 -13 -91 -31s-47.667 -69 -83 -153l-514 -1207h-125c-48 134 -122.333 322 -223 564
c-101.333 -211.333 -187.333 -399.333 -258 -564h-125c-147.333 374 -324.333 795.333 -531 1264c-18.667 42 -38 73.667 -58 95s-55.667 32 -107 32v80c103.333 -4 211.666 -6 324.999 -6s201.333 2 264 6v-80c-32 -1.33301 -56 -6 -72 -14s-25.333 -16 -28 -24
s-4 -23 -4 -45s8 -53 24 -93l351 -866l162 344c-112.667 273.333 -185 446 -217 518s-56 119 -72 141c-22 26 -52.667 39 -92 39v80c114.667 -4 217.667 -6 309 -6s165.666 2 222.999 6v-80c-36.667 -1.33301 -62.334 -7 -77.001 -17c-14 -10 -21 -27.333 -21 -52
c0.666992 -46 43.667 -165 129 -357l96 215c30 65.333 45 113 45 143c0 45.333 -38.333 68 -115 68v80c50.667 -4 116 -6 196 -6s150.667 2 212 6v-80c-48.667 -2.66699 -84.334 -13.667 -107.001 -33s-58.334 -77.333 -107.001 -174l-163 -334l201 -491
c144.667 343.333 243 581 295 713s78 210 78 234z" />
    <glyph glyph-name="X" unicode="X" horiz-adv-x="1576" 
d="M312 4c-42.667 0 -135.668 -2 -279.001 -6v80c56 2.66699 100.667 14.667 134 36s75.333 65.333 126 132l342 452l-352 521c-45.333 66 -79.333 106.333 -102 121s-60.334 24 -113.001 28v80c148 -4 274 -6 378 -6s197 2 279 6v-80
c-94 -2.66699 -141 -20.334 -141 -53.001c0 -12.667 4.33301 -25.667 13 -39l21 -32c5.33301 -8 10 -15.667 14 -23l18 -27c7.33301 -12 14.666 -23 21.999 -33l180 -272c54.667 70.667 124.334 170.334 209.001 299.001c38 57.333 57 99 57 125
c0 32.667 -43.667 50.334 -131 53.001v82c56.667 -2.66699 134.334 -4 233.001 -4s181.334 2 248.001 6v-82c-46.667 -4 -87.334 -17.667 -122.001 -41s-80.667 -71 -138 -143l-293 -385l377 -555c47.333 -70.667 89 -115.334 125 -134.001c35.333 -18 77 -29.333 125 -34
v-78c-90.667 4 -187.334 6 -290.001 6s-236 -2 -400 -6v80c78.667 2.66699 124 12.667 136 30c4.66699 5.33301 7 15.333 7 30s-19.667 52 -59 112l-236 354c-78.667 -101.333 -132.667 -175 -162 -221s-49.666 -76.667 -60.999 -92c-50.667 -82 -76.667 -132.667 -78 -152
s7.33398 -34 26.001 -44s58 -15.667 118 -17v-80c-111.333 4 -188.333 6 -231 6z" />
    <glyph glyph-name="Y" unicode="Y" horiz-adv-x="1429" 
d="M848 258c0 -70.667 7.99805 -117.332 23.998 -139.999s65.333 -36 148 -40v-80c-106.667 4 -203 6 -289 6s-200.667 -2 -344 -6v80c84.667 2.66699 134.334 17.667 149.001 45s21.667 71 21 131v354l-346 596c-40.667 69.333 -72 113 -94 131s-58.333 29 -109 33v80
c65.333 -4 166.333 -6 303 -6s244 2 322 6v-80c-56 0 -93 -4.33301 -111 -13c-17.333 -8.66699 -26 -24 -26 -46s16.333 -64 49 -126s116 -212 250 -450l77 129l84 137c26 42 56.333 94 91 156s52.334 113.333 53.001 154c0 10.667 -2 19.667 -6 27
c-4 8 -16.667 15.333 -38 22s-51 10 -89 10v80c50 -4 114.333 -6 193 -6s163 2 253 6v-80c-40.667 -4 -76.667 -19.333 -108 -46s-63 -66.334 -95 -119.001l-178 -287l-184 -295v-363z" />
    <glyph glyph-name="Z" unicode="Z" horiz-adv-x="1361" 
d="M624 1350c-113.333 0 -195.667 -6 -247 -18c-52 -12 -90 -31.333 -114 -58c-24 -26 -57.667 -82.667 -101 -170l-86 18c28.667 82 62 207.667 100 377h80c6.66699 -19.333 15.334 -32.333 26.001 -39s36 -11 76 -13c41.333 -2 174.333 -3 399 -3s390 2 496 6l25 -51
l-864 -1284c61.333 -4 144.666 -6 249.999 -6c221.333 0 358 14.667 410 44s105 102 159 218l88 -15c-46.667 -146 -83 -266.667 -109 -362l-518 10c-256.667 0 -477 -3.33301 -661 -10l-17 49l437 637l456 666c-76.667 2.66699 -171.667 4 -285 4z" />
    <glyph glyph-name="bracketleft" unicode="[" horiz-adv-x="632" 
d="M387 1452v-1710h234v-96h-455v1902h459v-96h-238z" />
    <glyph glyph-name="backslash" unicode="\" horiz-adv-x="733" 
d="M537 -96l-496 1581h156l495 -1581h-155z" />
    <glyph glyph-name="bracketright" unicode="]" horiz-adv-x="632" 
d="M246 -258v1710h-234v96h455v-1902h-459v96h238z" />
    <glyph glyph-name="asciicircum" unicode="^" horiz-adv-x="1482" 
d="M1257 600h-200l-320 686l-321 -686h-191l412 858h209z" />
    <glyph glyph-name="underscore" unicode="_" horiz-adv-x="1024" 
d="M1044 -442h-1064v161h1064v-161z" />
    <glyph glyph-name="grave" unicode="`" horiz-adv-x="604" 
d="M102 1507l219.999 64c62.667 -144.667 123.334 -277 182.001 -397l-55 -31c-127.333 124 -243 245.333 -347 364z" />
    <glyph glyph-name="a" unicode="a" horiz-adv-x="1054" 
d="M623 291l-0.00195312 172c-115.333 -31.333 -191.666 -60.666 -228.999 -87.999s-56 -62.333 -56 -105s12.333 -76.334 37 -101.001c24.667 -25.333 60.334 -38 107.001 -38s81.667 10 105 30c24 20 36 63.333 36 130zM943.998 137c10 0 34.001 6.33301 72.001 19l31 -52
c-92.667 -86 -170.667 -129 -234 -129c-84.667 0 -146.667 41 -186 123c-104 -83.333 -197.667 -125 -281 -125s-150.333 27.333 -201 82c-50 54.667 -75 114.334 -75 179.001s28 117.667 84 159c38 26 81.667 47.333 131 64s138 41 266 73c27.333 6.66699 46 16 56 28
s15.333 36.333 16 73c0 99.333 -12.333 167 -37 203c-25.333 36 -74 54 -146 54s-108 -25.667 -108 -77c0 -23.333 14.333 -62.333 43 -117l-199 -100c-39.333 57.333 -59 108 -59 152s27.333 86.667 82 128c54 41.333 118.333 78 193 110s136.667 48 186 48
c121.333 0 210.666 -38 267.999 -114c22 -28.667 33 -96.334 33 -203.001l-7 -312c0 -106.667 4 -177.667 12 -213s28 -53 60 -53z" />
    <glyph glyph-name="b" unicode="b" horiz-adv-x="1202" 
d="M406 631l-0.00195312 -273c2.66699 -88.667 11.334 -148 26.001 -178c30 -58.667 89.333 -88 178 -88c168 0 252 121 252 363c0 128.667 -23.667 227 -71 295c-48 68 -111.667 102 -191 102c-40 0 -78.667 -11.333 -116 -34s-59.666 -46 -66.999 -70s-11 -63 -11 -117z
M407.998 1174l-0.00195312 -316c151.333 116 270 174 356 174c106.667 0 195.334 -46.333 266.001 -139s106 -213 106 -361s-52.333 -275 -157 -381c-105.333 -106 -231.666 -159 -378.999 -159c-124 0 -233.333 26 -328 78l-47 -84l-80 14
c6.66699 95.333 10.334 215.333 11.001 360v867c0 75.333 -10.333 125 -31 149c-10.667 15.333 -37.334 38 -80.001 68v39l340 176l35 -19c-8 -146.667 -12 -302 -12 -466z" />
    <glyph glyph-name="c" unicode="c" horiz-adv-x="909" 
d="M601 176c82.667 0 167 20.667 253 62l43 -60c-134 -138 -259.667 -207 -377 -207c-135.333 0.666992 -245.333 47 -330 139s-127 205.667 -127 341c-0.666992 88.667 17 171 53 247c64 136 166.333 234 307 294c60.667 26.667 117.667 40 171 40
c112.667 0 206 -27.333 280 -82l-145 -194c-78 76.667 -161.333 114.667 -250 114c-130 0 -194.667 -92.667 -194 -278c0 -130.667 32 -232.667 96 -306s137.333 -110 220 -110z" />
    <glyph glyph-name="d" unicode="d" horiz-adv-x="1234" 
d="M799 1223c0 75.333 -9 124.334 -27 147.001c-8 10.667 -36 34.667 -84 72v39l340 176l35 -19c-8 -147.333 -12 -305.666 -12 -474.999v-846c-0.666992 -72.667 6.33301 -118.334 21 -137.001s54 -27.334 118 -26.001v-78l-377 -105l-16 13v141
c-39.333 -40.667 -88.333 -74.667 -147 -102s-112.334 -41 -161.001 -41c-122.667 0 -224 42.333 -304 127s-119.667 198 -119 340c0 166 52.667 304.333 158 415s240.333 166 405 166c58.667 0.666992 115.334 -7.33301 170.001 -24v217zM799 299.001v374.999
c0 88.667 -16.333 147.334 -49 176.001c-53.333 45.333 -116 68 -188 68s-132.667 -25.333 -182 -76c-50 -50.667 -75 -140 -75 -268s31.333 -228 94 -300c62.667 -70.667 134 -106 214 -106s135 18.333 165 55c14 16.667 21 42 21 76z" />
    <glyph glyph-name="e" unicode="e" horiz-adv-x="1042" 
d="M538 940c-56.667 0 -103.999 -21 -141.999 -63c-37.333 -42.667 -60.666 -104.334 -69.999 -185.001c148.667 0 248.667 3.33301 300 10s76.666 25.334 75.999 56.001c0 53.333 -13 97 -39 131c-26.667 34 -68.334 51 -125.001 51zM317.001 555
c0.666992 -118.667 30.998 -211 90.998 -277c60 -66.667 140.667 -100 242 -100s198.666 29.333 291.999 88l45 -61c-135.333 -155.333 -281.666 -233 -438.999 -233s-277.666 48 -360.999 144c-82.667 96 -124 222.333 -124 379
c0.666992 156.667 50.334 285.667 149.001 387s222.667 151.333 372 150c116 0 210 -36 282 -108s108.333 -177.333 109 -316l-656 -2c-1.33301 -12 -2 -29 -2 -51z" />
    <glyph glyph-name="f" unicode="f" horiz-adv-x="700" 
d="M364 2c-113.333 0 -211.998 -1.33301 -295.998 -4v76c52 4 84.667 12.667 98 26c22 22 33 71.333 33 148v598h-140v76c60 18 100.333 44.333 121 79c9.33301 16.667 21.666 68 36.999 154s39.666 158.667 72.999 218s75.333 109 126 149s103.667 71 159 93
c56 21.333 104.667 32 146 32c84.667 0 159.667 -25.333 225 -76l-153 -191c-62.667 74 -127 111 -193 111c-48 0 -82 -13.333 -102 -40s-32.333 -61 -37 -103c-5.33301 -42 -8 -111 -8 -207v-170h247v-125h-249v-594c0 -72 7.33301 -118 22 -138s59 -33.333 133 -40v-76
c-48 2.66699 -128.667 4 -242 4z" />
    <glyph glyph-name="g" unicode="g" horiz-adv-x="1034" 
d="M334 709c0 -184 50.332 -276.332 150.999 -276.999c91.333 0 137.333 80 138 240c0 187.333 -47.333 280.666 -142 279.999c-47.333 0 -83.666 -21 -108.999 -63s-38 -102 -38 -180zM828.999 -206.999c0 109.333 -115.333 164 -346 164c-108 0 -170 -7.66699 -186 -23
c-49.333 -44 -74 -93.333 -74 -148s30 -101.667 90 -141s134.667 -59 224 -59s160.333 20 213 60s79 89 79 147zM296.999 280.001c0 -24 11.6689 -44.333 35.002 -61c22.667 -16.667 86.667 -25 192 -25s184.333 -2 237 -6c52.667 -5.33301 98 -16.666 136 -33.999
s70 -47.333 96 -90s39 -92 39 -148c0 -122.667 -58.333 -226.667 -175 -312s-254.334 -128 -413.001 -128c-126.667 0 -229.667 26.667 -309 80s-119 117.333 -119 192c0 40 14 76 42 108s88.667 74.667 182 128c-52 22 -92 52.667 -120 92s-42 81.666 -42 126.999l184 182
c-124 58.667 -186 159 -186 301c0 100 37 183 111 249s171 99 291 99s207.667 -23 263 -69h277v-115h-172c23.333 -38 35 -89.333 35 -154c0 -102.667 -37.333 -186 -112 -250s-173.334 -96 -296.001 -96l-102 6c-16.667 0 -33 -6.66699 -49 -20s-24.333 -32 -25 -56z" />
    <glyph glyph-name="h" unicode="h" horiz-adv-x="1239" 
d="M432 1174v-307.997c143.333 110.667 256 166 338 166c42 0 85 -9.33301 129 -28s76 -43.334 96 -74.001c44 -64 66 -174 66 -330v-332c-0.666992 -82.667 6.33301 -134 21 -154s52.667 -33.333 114 -40v-76c-88 2.66699 -172 4 -252 4s-170.667 -1.33301 -272 -4v76
c58.667 6.66699 96 23 112 49s24.333 122.333 25 289c0 166.667 -12 282 -36 346c-23.333 64 -71.666 96 -144.999 96s-129 -19.667 -167 -59c-19.333 -20.667 -29 -80.334 -29 -179.001v-366c0 -65.333 6.66699 -109 20 -131s52.333 -37 117 -45v-76
c-79.333 2.66699 -165.333 4 -258 4s-180 -1.33301 -262 -4v76c63.333 2.66699 101 18.667 113 48s18 70.666 18 123.999v973c0 80.667 -10 133 -30 157c-10.667 15.333 -37.334 38 -80.001 68v39l340 176l34 -19c-8 -146.667 -12 -302 -12 -466z" />
    <glyph glyph-name="i" unicode="i" horiz-adv-x="622" 
d="M438 623v-372.997c0 -69.333 7.33301 -114.333 22 -135s53 -34.334 115 -41.001v-76c-79.333 2.66699 -165.333 4 -258 4s-180 -1.33301 -262 -4v76c63.333 2.66699 101 17.667 113 45s18 71.666 18 132.999v344c0 72.667 -6.33301 123.667 -19 153
s-43 59.666 -91 90.999v37l336 186l32 -16c-4 -80.667 -6 -222 -6 -424zM455 1372c0 -42 -14.0029 -76.667 -42.0029 -104c-27.333 -27.333 -61.666 -41 -102.999 -41s-76.666 14 -105.999 42s-44 62.667 -44 104c0 40.667 14.667 75 44 103s64.333 42 105 42
s75.334 -13.667 104.001 -41c28 -28 42 -63 42 -105z" />
    <glyph glyph-name="j" unicode="j" horiz-adv-x="540" 
d="M154 104v492.002c0 72.667 -6.66699 123.667 -20 153s-43.666 59.666 -90.999 90.999v37l336 186l33 -16c-4 -80.667 -6 -222 -6 -424l6 -488c0 -80.667 -5.33301 -142.334 -16 -185.001s-28.667 -86.667 -54 -132c-46.667 -78 -146.334 -175.667 -299.001 -293l-55 61
c94 89.333 146.333 184.333 157 285c6 50 9 127.667 9 233zM422 1372c0 -42 -14.001 -76.667 -42.001 -104s-62.667 -41 -104 -41s-76.333 14 -105 42c-29.333 28 -44 62.667 -44 104c0 40.667 14.667 75 44 103s64.333 42 105 42s75.334 -13.667 104.001 -41
c28 -28 42 -63 42 -105z" />
    <glyph glyph-name="k" unicode="k" horiz-adv-x="1191" 
d="M180 248v980.998c0 72.667 -7.66699 119.667 -23 141s-44.333 46 -87 74v39l340 176l34 -19c-8 -147.333 -12 -309 -12 -485v-600c54.667 10 102 33 142 69s82.667 79.667 128 131c44 51.333 66 89 66 113c0 31.333 -36.333 47 -109 47v82
c95.333 -2.66699 175.666 -4 240.999 -4s135.333 1.33301 210 4v-82c-93.333 -9.33301 -175.333 -50.666 -246 -123.999l-170 -179l342 -438c28.667 -34 50 -56.667 64 -68c28.667 -20.667 59.334 -31.334 92.001 -32.001v-76c-87.333 2.66699 -173 4 -257 4
s-173.667 -1.33301 -269 -4v76c54.667 1.33301 82 15 82 41c0 20.667 -12.333 46.667 -37 78l-162 215c-34 44 -62 69.667 -84 77c-8 2.66699 -19 5.66699 -33 9v-242c0 -65.333 6.66699 -109.666 20 -132.999s52.333 -38.333 117 -45v-76
c-79.333 2.66699 -165.333 4 -258 4s-180 -1.33301 -262 -4v76c60 2.66699 97.667 18.334 113 47.001c12 20.667 18 63 18 127z" />
    <glyph glyph-name="l" unicode="l" horiz-adv-x="618" 
d="M180 248l-0.000976562 980.998c0 72.667 -7.66699 119.667 -23 141s-44.333 46 -87 74v39l342 176l34 -19c-8 -147.333 -12 -309 -12 -485v-903c0 -65.333 6.66699 -109.666 20 -132.999s52.333 -38.333 117 -45v-76c-79.333 2.66699 -165.666 4 -258.999 4
s-181 -1.33301 -263 -4v76c60 2.66699 97.667 18.334 113 47.001c12 20.667 18 63 18 127z" />
    <glyph glyph-name="m" unicode="m" horiz-adv-x="1845" 
d="M1382 1032c42.667 0 84.666 -9.33008 125.999 -27.9971s72.666 -43.334 93.999 -74.001c44 -64 65.667 -174 65 -330v-332c0 -82.667 7.33301 -134 22 -154s52.334 -33.333 113.001 -40v-76c-88 2.66699 -172 4 -252 4s-170.667 -1.33301 -272 -4v76
c58.667 6.66699 96.334 23 113.001 49s25 122.333 25 289s-12.333 282 -37 346c-24 64 -70 96 -138 96s-121.333 -19.667 -160 -59c-19.333 -20.667 -28.666 -80.334 -27.999 -179.001v-348c-0.666992 -82.667 6.33301 -134 21 -154s52.667 -33.333 114 -40v-76
c-87.333 2.66699 -171.333 4 -252 4s-171.334 -1.33301 -272.001 -4v76c58.667 6.66699 96 23 112 49s24.333 122.333 25 289c0 166.667 -12 282 -36 346s-70 96 -138 96s-121.333 -19.667 -160 -59c-19.333 -20.667 -29 -80.334 -29 -179.001v-366
c0 -65.333 6.66699 -109 20 -131s52.333 -37 117 -45v-76c-79.333 2.66699 -165.333 4 -258 4s-180 -1.33301 -262 -4v76c63.333 2.66699 101 18.667 113 48s18 70.666 18 123.999v350c0 68 -6.33301 118.667 -19 152s-43 64 -91 92v37l336 186l26 -16v-181
c143.333 110.667 256 166 338 166c61.333 0 114 -15.667 158 -47s74 -73.666 90 -126.999c150 116 269.333 174 358 174z" />
    <glyph glyph-name="n" unicode="n" horiz-adv-x="1245" 
d="M950 2c-80 0 -170.669 -1.33008 -272.002 -3.99707v76c58.667 6.66699 96.334 23 113.001 49s25 122.333 25 289s-12.333 282 -37 346c-23.333 64 -71.666 96 -144.999 96s-129 -19.667 -167 -59c-19.333 -20.667 -29 -80.334 -29 -179.001v-366
c0 -65.333 6.66699 -109 20 -131s52.333 -37 117 -45v-76c-79.333 2.66699 -165.333 4 -258 4s-180 -1.33301 -262 -4v76c63.333 2.66699 101 18.667 113 48s18 70.666 18 123.999v350c0 68 -6.33301 118.667 -19 152s-43 64 -91 92v37l336 186l26 -16v-181
c143.333 110.667 256 166 338 166c42 0 85 -9.33301 129 -28s76 -43.334 96 -74.001c44 -64 66 -174 66 -330v-332c-0.666992 -82.667 6.33301 -134 21 -154s52.667 -33.333 114 -40v-76c-88 2.66699 -172 4 -252 4z" />
    <glyph glyph-name="o" unicode="o" horiz-adv-x="1175" 
d="M607 1032c148.667 0 269.667 -46.667 363 -140s140 -219.333 140 -378s-49.333 -288.667 -148 -390s-226 -152.333 -382 -153c-156 0.666992 -280.667 48.334 -374 143.001s-140 222.667 -140 384s52.667 290.666 158 387.999c106 97.333 233.667 146 383 146zM596 57
c156.667 0 235 141.333 235 424c0 140.667 -21.667 253 -65 337c-44 84 -106 126 -186 126s-139.333 -36.333 -178 -109c-38.667 -73.333 -58 -174.333 -58 -303c0 -316.667 84 -475 252 -475z" />
    <glyph glyph-name="p" unicode="p" horiz-adv-x="1200" 
d="M321 -498c-116 0 -216.332 -1.33496 -300.999 -4.00195v76c45.333 4 75 10 89 18c30 20.667 45 74.667 45 162v846c0 76.667 -6.33301 127.334 -19 152.001c-13.333 30 -43.333 59.333 -90 88v37l336 186l25 -14v-187c78.667 56 144.667 98 198 126s106 42 158 42
c110.667 0 200.334 -46.333 269.001 -139s103 -213.667 103 -363s-51.667 -276 -155 -380c-104 -104.667 -228.333 -156.667 -373 -156c-64.667 0 -132.334 11.667 -203.001 35l5 -273c0 -68 6.66699 -113.667 20 -137s59.666 -37.666 138.999 -42.999v-76
c-48 2.66699 -130 4 -246 4zM406.001 658.998v-306.999c0 -87.333 10 -148 30 -182c32.667 -52 90 -78 172 -78c169.333 0 254 128.333 254 385c0 119.333 -24.667 211.666 -74 276.999s-109 98 -179 98s-127.667 -24.667 -173 -74c-20 -22 -30 -61.667 -30 -119z" />
    <glyph glyph-name="q" unicode="q" horiz-adv-x="1226" 
d="M1053 655l0.000976562 -905c0 -88 12.667 -138.667 38 -152s57 -21.333 95 -24v-76c-84.667 2.66699 -185 4 -301 4s-198 -1.33301 -246 -4v76c79.333 8 125.666 23.667 138.999 47s20.333 66.333 21 129v375c-112 -95.333 -214.333 -143 -307 -143
c-124 0 -226.333 43.667 -307 131c-80 87.333 -119.667 201.333 -119 342c0 163.333 53.333 300.333 160 411s241.667 166 405 166c128.667 0 233 -17.667 313 -53l53 88l70 -16c-9.33301 -105.333 -14 -237.333 -14 -396zM799.001 307l-0.000976562 360.999
c0 104 -17 169.333 -51 196c-44 36 -106.667 54 -188 54s-144 -30 -188 -90s-66.333 -150.333 -67 -271c0 -119.333 30.333 -213.666 91 -282.999s131.334 -104 212.001 -104s136.667 17 168 51c15.333 15.333 23 44 23 86z" />
    <glyph glyph-name="r" unicode="r" horiz-adv-x="845" 
d="M346 2c-102.667 0 -199.668 -1.33301 -291.001 -4v76c52 4 87 14.667 105 32s26.667 66 26 146v344c0 69.333 -6.33301 120 -19 152s-43 62.667 -91 92v37l336 186l28 -16v-216c95.333 134 185 201 269 201c60 0 116.667 -21.667 170 -65l-131 -219
c-54.667 40.667 -106.667 61 -156 61s-89.666 -16.333 -120.999 -49c-22 -23.333 -33 -86.333 -33 -189v-315c0 -74.667 8 -122.667 24 -144s62.667 -34 140 -38v-76c-68 2.66699 -153.333 4 -256 4z" />
    <glyph glyph-name="s" unicode="s" horiz-adv-x="804" 
d="M428 940c-38 0 -69.666 -11.6699 -94.999 -35.0029s-38 -52.666 -38 -87.999s13.667 -66.666 41 -93.999s73.666 -57.333 138.999 -90c120.667 -60 199 -114.667 235 -164c36 -50 54 -115 54 -195s-36.667 -150.667 -110 -212s-167.333 -91.666 -282 -90.999
c-114.667 0 -216.667 22.667 -306 68c-4 83.333 -10.333 170.666 -19 261.999l80 4c22 -82 47.333 -137.333 76 -166c48 -49.333 117.667 -73.666 209 -72.999c44 0 80 11.333 108 34s41.667 50.334 41 83.001c0 33.333 -14.667 63.333 -44 90
c-28.667 26.667 -91 67 -187 121s-162 105.667 -198 155s-54 109.333 -54 180c0 90 37 163.333 111 220c74.667 56.667 170 85 286 85c82 0 161.333 -11.667 238 -35c0 -62 2.66699 -145 8 -249l-82 -5c-15.333 63.333 -36.333 111.666 -63 144.999s-76 50 -148 50z" />
    <glyph glyph-name="t" unicode="t" horiz-adv-x="686" 
d="M25 844l0.000976562 76.001c69.333 27.333 133.666 73.333 192.999 138s103.333 137.334 132 218.001h80c0 -8 -2.66699 -109.667 -8 -305h244v-127h-248c-2.66699 -218.667 -4 -381.334 -4 -488.001s7.33301 -172.334 22 -197.001c14.667 -25.333 42.667 -38 84 -38
c40.667 0 81 11.667 121 35l37 -60c-92 -79.333 -188 -119 -288 -119s-165.667 27.333 -197 82c-22 42 -33 117 -33 225s3.33301 294.667 10 560h-145z" />
    <glyph glyph-name="u" unicode="u" horiz-adv-x="1193" 
d="M1165 123l0.00292969 -73.998l-372 -88l-19 14v154c-66.667 -60 -122.667 -101.333 -168 -124s-90.333 -34 -135 -34c-216 0 -324 121.667 -324 365v399c0 64 -6.66699 107 -20 129s-50.333 33.667 -111 35v76c174.667 9.33301 309.334 25.666 404.001 48.999
c-10.667 -164 -16.334 -348.333 -17.001 -553c0 -121.333 14.333 -204.333 43 -249s69 -66.667 121 -66c80.667 0 141 19 181 57c19.333 19.333 28.666 70.666 27.999 153.999v366c0 69.333 -7 114 -21 134c-14.667 20 -55.334 30.667 -122.001 32v76
c170.667 16.667 305.667 33.667 405 51c-5.33301 -86 -8 -180.333 -8 -283v-460c0 -76.667 7 -122.667 21 -138c8 -10.667 17.667 -17 29 -19s39.666 -3 84.999 -3z" />
    <glyph glyph-name="v" unicode="v" horiz-adv-x="1107" 
d="M840 834c0 25.333 -2.33301 42.6709 -7 52.0039c-12 23.333 -55.667 36.666 -131 39.999v73c44 -2.66699 110.667 -4 200 -4s158 1.33301 206 4v-73c-40.667 -4 -71 -14 -91 -30s-40.333 -47 -61 -93c-170.667 -396 -284.667 -671.333 -342 -826h-131
c-52 151.333 -163 426.666 -333 825.999c-22 52 -42 84.667 -60 98s-48 21.666 -90 24.999v73c35.333 -2.66699 122 -4 260 -4s241 1.33301 309 4v-73c-55.333 -1.33301 -92.333 -7.33301 -111 -18s-28 -27.334 -28 -50.001c0 -23.333 10.333 -63 31 -119
c62.667 -160 120.667 -315 174 -465c136.667 348 205 534.667 205 560z" />
    <glyph glyph-name="w" unicode="w" horiz-adv-x="1587" 
d="M1339 864c0 39.333 -42.999 60.001 -128.999 62.001v73c82 -2.66699 154 -4 216 -4s115.667 1.33301 161 4v-73c-35.333 -4 -60.333 -13.333 -75 -28c-38.667 -38.667 -154.334 -345.667 -347.001 -921h-135c-30 92.667 -103.667 302.334 -221 629.001
c-138 -326 -223.333 -535.667 -256 -629h-135c-62.667 206 -157 482.667 -283 830c-18 49.333 -35.333 80.666 -52 93.999c-17.333 13.333 -45 21.666 -83 24.999v73c33.333 -2.66699 113.333 -4 240 -4s222.667 1.33301 288 4v-73c-45.333 -1.33301 -76 -7.33301 -92 -18
s-24 -27.334 -24 -50.001s15.333 -81.334 46 -176.001l120 -383l178 434c-31.333 88.667 -55.333 142.334 -72 161.001s-44.667 29.334 -84 32.001v73c33.333 -2.66699 113.333 -4 240 -4s222.667 1.33301 288 4v-73c-53.333 -1.33301 -88 -7.33301 -104 -18
s-24.333 -26.667 -25 -48s13 -69.333 41 -144s74.667 -211 140 -409c56 165.333 103 312.333 141 441c12 42 18 80.667 18 116z" />
    <glyph glyph-name="x" unicode="x" horiz-adv-x="1196" 
d="M252 2c-77.333 0 -154.667 -1.33594 -232 -4.00293v80c48 1.33301 88 13.333 120 36s77.333 70.667 136 144l175 219l-199 281c-50.667 73.333 -89.334 119.333 -116.001 138s-61 28.667 -103 30v75c50 -2.66699 136.333 -4 259 -4s233 1.33301 331 4v-75
c-76.667 0 -115 -14.333 -115 -43c0 -22 24 -67 72 -135l77 -111l80 108c50.667 67.333 76 111 76 131s-6.66699 32.667 -20 38s-42.666 9.33301 -87.999 12v75c49.333 -2.66699 112 -4 188 -4s147 1.33301 213 4v-75c-41.333 -1.33301 -77.333 -12.666 -108 -33.999
s-74.667 -69.333 -132 -144l-149 -193l221 -297c60 -78.667 103 -128 129 -148s62.333 -30.667 109 -32v-80c-92 2.66699 -192.667 4 -302 4s-217 -1.33301 -323 -4v80c73.333 2.66699 115 10.667 125 24c4 5.33301 6 14.666 6 27.999s-26 58 -78 134l-92 131l-94 -125
c-49.333 -65.333 -74 -113.666 -74 -144.999c1.33301 -15.333 11 -26.666 29 -33.999s53.333 -11.666 106 -12.999v-80c-74 2.66699 -149.667 4 -227 4z" />
    <glyph glyph-name="y" unicode="y" horiz-adv-x="1144" 
d="M856 862c0 39.333 -47.002 60.667 -141.002 64v73c87.333 -2.66699 165 -4 233 -4s126 1.33301 174 4v-73c-44 -1.33301 -75.333 -10.333 -94 -27s-37.667 -48.667 -57 -96c-170 -412 -285 -684 -345 -816s-116.667 -240.667 -170 -326
s-114.666 -156.666 -183.999 -213.999l-135 145c67.333 30.667 135 79.334 203 146.001s125.333 148.667 172 246l-322 751c-34 79.333 -60.333 130.666 -79 153.999c-19.333 23.333 -51.666 35.666 -96.999 36.999v73c53.333 -4 135 -6 245 -6s216.333 2 319 6v-73
c-54.667 -1.33301 -92 -8 -112 -20s-30 -28.333 -30 -49c0 -21.333 10.333 -58 31 -110l87 -216l97 -244l178 456c18 48 27 87.667 27 119z" />
    <glyph glyph-name="z" unicode="z" horiz-adv-x="1007" 
d="M584 989c169.333 0 282.667 1.33301 340 4l18 -47l-573 -852c52.667 -1.33301 115 -2 187 -2s132 4.33301 180 13s84.333 25.667 109 51c24 25.333 51 74.333 81 147l78 -14c-16.667 -55.333 -44 -152.333 -82 -291c-216 2.66699 -358.667 4 -428 4l-465 -4l-15 43
l582 862c-145.333 0 -237.333 -2 -276 -6c-38.667 -4.66699 -66 -15 -82 -31s-41.333 -67 -76 -153l-80 14c12 44 30.333 135.333 55 274c128.667 -8 277.667 -12 447 -12z" />
    <glyph glyph-name="braceleft" unicode="{" horiz-adv-x="702" 
d="M213 934l0.00390625 269.998c0 117.333 34 207.333 102 270s189.667 93.667 365 93v-90c-101.333 0 -167 -15.667 -197 -47s-45 -104.666 -45 -219.999v-331c0 -90 -19.667 -154.333 -59 -193s-103 -68.667 -191 -90c85.333 -19.333 148.666 -48.333 189.999 -87
s62 -104 62 -196v-340c0 -102 15.667 -169 47 -201s95.666 -48 192.999 -48v-95c-166.667 0 -285.334 26.333 -356.001 79s-106.334 138.334 -107.001 257.001v311c0 95.333 -13.667 163.666 -41 204.999s-81.333 65.333 -162 72v82c86 7.33301 140.667 30.333 164 69
s35 115.334 35 230.001z" />
    <glyph glyph-name="bar" unicode="|" horiz-adv-x="526" 
d="M360 1556v-1945h-194v1945h194z" />
    <glyph glyph-name="braceright" unicode="}" horiz-adv-x="702" 
d="M481 262l-0.00292969 -270c0 -117.333 -34 -207.333 -102 -270s-189.667 -93.667 -365 -93v90c101.333 -0.666992 167 15 197 47s45 105.333 45 220v331c0 90 19.667 154.333 59 193s103 68.667 191 90c-86 19.333 -149.667 48.333 -191 87
c-40.667 38.667 -61 104 -61 196v340c0 102 -15.667 169 -47 201s-95.666 48.333 -192.999 49v94c166.667 0 285.334 -26.333 356.001 -79s106.334 -138.334 107.001 -257.001v-311c0 -95.333 13.667 -163.666 41 -204.999s81.333 -65.333 162 -72v-82
c-86 -8 -140.667 -31 -164 -69s-35 -114.667 -35 -230z" />
    <glyph glyph-name="asciitilde" unicode="~" horiz-adv-x="1482" 
d="M470 780c61.333 0 156.001 -29.332 284.001 -87.999s211.667 -88 251 -88s76.333 12.667 111 38c34 25.333 73.667 66.666 119 123.999l125 -107c-121.333 -155.333 -242.333 -233 -363 -233c-62.667 0 -153.334 29.667 -272.001 89c-118 59.333 -197.667 89 -239 89
s-78.333 -10 -111 -30s-75 -63.333 -127 -130l-127 103c61.333 83.333 119.333 143 174 179s113 54 175 54z" />
    <glyph glyph-name="uni00A0" unicode="&#xa0;" horiz-adv-x="440" 
 />
    <glyph glyph-name="exclamdown" unicode="&#xa1;" horiz-adv-x="643" 
d="M293 1032c46.667 0 87.334 -16 122.001 -48s52 -73 52 -123s-16.333 -91.667 -49 -125s-73.334 -50 -122.001 -50s-89 17.333 -121 52s-48 76 -48 124s16 88.333 48 121s71.333 49 118 49zM440 -485h-309c0 314 37.667 656 113 1026h96c66.667 -322 100 -664 100 -1026z
" />
    <glyph glyph-name="cent" unicode="&#xa2;" horiz-adv-x="1007" 
d="M354 605c0 -193.333 60.333 -326.001 181 -398.001v702c-120.667 -9.33301 -181 -110.666 -181 -303.999zM641 169.999h24.999c75.333 0 160 24.667 254 74l43 -54c-114.667 -117.333 -222 -181.333 -322 -192v-186h-106v186c-120 13.333 -216.667 64.666 -290 153.999
s-110 201.333 -110 336s39.667 252.334 119 353.001s173 165.667 281 195v191h106v-172c110.667 0 207.667 -25.333 291 -76l-107 -164c-61.333 44 -122.666 72.667 -183.999 86v-731z" />
    <glyph glyph-name="sterling" unicode="&#xa3;" horiz-adv-x="1187" 
d="M842 1391c142.667 0 252.333 -27.332 329 -81.999l-127 -160c-46.667 54.667 -86 93 -118 115s-70.333 32.667 -115 32c-110.667 0 -166.667 -77 -168 -231c0 -180 -0.666992 -303.667 -2 -371h297v-112h-303c-5.33301 -70.667 -34.666 -139.334 -87.999 -206.001
s-128.333 -125 -225 -175c52 1.33301 163.333 2 334 2s273.667 6.66699 309 20c46.667 18 82 70 106 156l84 -10c-23.333 -116 -46 -239.667 -68 -371c-294.667 2.66699 -525.334 4 -692.001 4s-289.334 -1.33301 -368.001 -4l36 178c38 4 73 11.667 105 23
c122.667 48 184 175.667 184 383h-215v112h215l-4 230c1.33301 139.333 48.333 252 141 338s210.334 129 353.001 129z" />
    <glyph glyph-name="currency" unicode="&#xa4;" horiz-adv-x="1363" 
d="M684 991c-96 0 -176 -33.665 -240 -100.998c-62.667 -67.333 -94 -151.333 -94 -252s32 -185 96 -253s144.667 -102 242 -102c96.667 0 176.667 33.667 240 101c62.667 67.333 94 151.666 94 252.999s-32.333 185.666 -97 252.999s-145 101 -241 101zM170 637.002
c0 114.667 31.3311 214.332 93.998 298.999l-145 147l121 115l147 -147c82 65.333 182 98 300 98s217.333 -32.667 298 -98l145 145l115 -106l-147 -150c65.333 -82 98 -181.667 98 -299s-34 -218.333 -102 -303l149 -150l-115 -110l-147 147
c-87.333 -65.333 -187.666 -98 -300.999 -98s-213.666 32 -300.999 96l-146 -145l-112 112l149 148c-66.667 84.667 -100 184.334 -100 299.001z" />
    <glyph glyph-name="yen" unicode="&#xa5;" horiz-adv-x="1380" 
d="M1174 707l-271.005 0.000976562l-78 -132v-18h349v-96h-349v-205c0 -70.667 8.33301 -117 25 -139s69.334 -35.667 158.001 -41v-78c-106.667 4 -205 6 -295 6s-207 -2 -351 -6v78c90.667 4 143.334 20 158.001 48s22.334 70.667 23.001 128v209h-336v96h336v12l-84 138
h-252v96h194l-194 321c-40.667 66.667 -73.667 110 -99 130s-58.666 31.333 -99.999 34v78c65.333 -4 167.333 -6 306 -6s247 2 325 6v-78c-60 -2.66699 -100.667 -7.33398 -122 -14.001s-32 -21 -32 -43s12 -54.333 36 -97l118 -205l135 -239l225 395
c30 56 45 102.667 45 140c0 40.667 -51.667 61.667 -155 63v78c49.333 -4 119.333 -6 210 -6s181 2 271 6v-78c-45.333 -2.66699 -80.666 -13.667 -105.999 -33s-63 -69 -113 -149l-188 -303h211v-96z" />
    <glyph glyph-name="brokenbar" unicode="&#xa6;" horiz-adv-x="526" 
d="M360 422v-717h-194v717h194zM360 1446v-717h-194v717h194z" />
    <glyph glyph-name="section" unicode="&#xa7;" horiz-adv-x="1067" 
d="M784 451c0 34 -11.333 67.334 -34 100.001c-23.333 32.667 -76 81 -158 145l-113 88c-45.333 35.333 -83.333 67.666 -114 96.999c-52 -27.333 -78 -76 -78 -146s53 -146.333 159 -229l119 -92c57.333 -44 100.333 -81 129 -111c60 38 90 87.333 90 148zM468 -417.999
c-134.667 0 -245.001 32.001 -331.001 96.001l94 154c106.667 -98 204.334 -147 293.001 -147c40.667 0 76.667 13 108 39c30.667 26 46 59 46 99c0 40.667 -14.333 81.667 -43 123s-87.334 99 -176.001 173l-203 168c-82 68 -135.333 127 -160 177s-37 104 -37 162
c-0.666992 58 19.666 115.667 60.999 173s104.333 103 189 137c-78 74 -117 156.667 -117 248s35.333 171 106 239c70 68 168 102.333 294 103c52 0 109.333 -7.33301 172 -22s112.334 -34.667 149.001 -60l-108 -148c-82 88.667 -165.333 133.334 -250 134.001
c-35.333 0 -65.666 -12.333 -90.999 -37s-38 -56.334 -38 -95.001s12.667 -76.667 38 -114c25.333 -38 79 -86.667 161 -146l145 -106c96 -70.667 160 -133.334 192 -188.001s48 -112.334 48 -173.001c0 -129.333 -86.667 -236.333 -260 -321
c61.333 -58.667 103.333 -111.667 126 -159s33.667 -101 33 -161c0.666992 -85.333 -39 -164.666 -119 -237.999s-187.333 -110 -322 -110z" />
    <glyph glyph-name="dieresis" unicode="&#xa8;" horiz-adv-x="598" 
d="M467 1190c-31.333 0 -58 11 -80 33s-33 48.667 -33 80s11 58.333 33 81s49 33.667 81 33c32 0 58 -11 78 -33c20 -21.333 30 -48 30 -80s-10.667 -59 -32 -81c-20 -22 -45.667 -33 -77 -33zM135 1190c-31.333 0 -58 11 -80 33s-32.667 48.667 -32 80s11.667 58.333 33 81
s48 33.667 80 33c32 0 58 -11 78 -33c20 -21.333 30 -48 30 -80s-10.333 -59 -31 -81s-46.667 -33 -78 -33z" />
    <glyph glyph-name="copyright" unicode="&#xa9;" horiz-adv-x="1689" 
d="M621 738c-0.666992 -125.333 25 -223.335 77 -294.002s120.333 -106 205 -106c65.333 0 116 16.333 152 49c35.333 32.667 62.666 90.667 81.999 174l80 -8c-18 -122.667 -34.667 -204.667 -50 -246c-64 -36.667 -157.333 -55 -280 -55
c-151.333 0 -271.333 42.667 -360 128c-88 85.333 -132 199.333 -132 342s45 259.334 135 350.001s206.333 136 349 136c83.333 0 158.333 -9.33301 225 -28c36.667 -8 63.334 -15.667 80.001 -23c2.66699 -22 6 -61.667 10 -119s7.33301 -97.333 10 -120l-80 -5
c-18 79.333 -42.667 135 -74 167c-32 32 -87 48 -165 48s-141.667 -33.667 -191 -101c-48.667 -67.333 -73 -163.666 -73 -288.999zM1499 723.998c0 188 -61 346 -183 474s-276.333 192.333 -463 193c-186.667 0 -342.667 -64.333 -468 -193s-188 -285.667 -188 -471
s63.667 -343 191 -473c128 -130 283.333 -195 466 -195s336 64 460 192c123.333 127.333 185 285 185 473zM88 723.998c0 212 73.667 390.668 221 536.001s327 217.666 539 216.999s391.333 -73 538 -217s220 -321.333 220 -532s-72.333 -390 -217 -538
c-144.667 -147.333 -324.667 -221 -540 -221s-396 72.667 -542 218c-146 146 -219 325 -219 537z" />
    <glyph glyph-name="ordfeminine" unicode="&#xaa;" horiz-adv-x="677" 
d="M321 676c26 0 46.333 5.66406 61 16.9971s21.667 37 21 77v100c-72 -17.333 -117 -34.666 -135 -51.999c-17.333 -17.333 -26 -38.666 -26 -63.999s6.66699 -44.666 20 -57.999s33 -20 59 -20zM403 1008c0.666992 82.667 -27.002 124.333 -83.002 125
c-50.667 0 -76 -17.333 -76 -52c0 -13.333 7.33301 -33 22 -59l-137 -68c-24.667 40 -37 73.333 -37 100s17 50.667 51 72c91.333 61.333 174.333 92 249 92s125.667 -23 153 -69c16.667 -26 24.667 -67.667 24 -125l-4 -180c0 -64 2.33301 -108 7 -132s16 -36 34 -36
c10.667 0 24.334 4 41.001 12l25 -35c-58.667 -50.667 -108 -75.667 -148 -75c-56 0 -95.333 25.667 -118 77c-68 -53.333 -125.667 -80 -173 -80c-47.333 -0.666992 -86.666 15 -117.999 47s-47 69.333 -47 112s16.333 76 49 100s85 44.667 157 62s111.667 30 119 38
c6.66699 8 10 32.667 10 74z" />
    <glyph glyph-name="guillemotleft" unicode="&#xab;" horiz-adv-x="972" 
d="M813 119l-377 342v86l379 330l51 -43l-252 -326l252 -342zM473 119l-377 342v86l379 330l51 -43l-252 -326l252 -342z" />
    <glyph glyph-name="logicalnot" unicode="&#xac;" horiz-adv-x="1476" 
d="M1249 63h-180v463h-917v172h1097v-635z" />
    <glyph glyph-name="uni00AD" unicode="&#xad;" horiz-adv-x="636" 
d="M573 434h-510v199h510v-199z" />
    <glyph glyph-name="registered" unicode="&#xae;" horiz-adv-x="1689" 
d="M846 778c53.333 0 94.001 14.666 122.001 43.999s42 70.333 42 123s-14 95.334 -42 128.001s-78.333 49 -151 49c-8 0 -21.667 -1.33301 -41 -4v-336c27.333 -2.66699 50.666 -4 69.999 -4zM1212 955.999c0 -106.667 -58 -180.332 -174 -220.999
c53.333 -114.667 103 -199.667 149 -255s91.333 -94.666 136 -117.999l-16 -65c-95.333 5.33301 -178.333 34.666 -249 87.999s-138.667 160.666 -204 321.999c-24.667 0 -50.667 1.33301 -78 4v-226c0 -48 4 -76.667 12 -86c9.33301 -15.333 42.333 -23.333 99 -24v-68
c-46.667 2.66699 -114 4 -202 4s-158 -1.33301 -210 -4v68c56 4 88.667 13.333 98 28c8 16.667 12.333 42.667 13 78v537c0 46.667 -6 76 -18 88s-43 20 -93 24v66c32.667 -2.66699 105 -4 217 -4l139 2c126 0 221 -17.333 285 -52s96 -96.667 96 -186zM1499 724.001
c0 188 -61 346 -183 474s-276.333 192.333 -463 193c-186.667 0 -342.667 -64.333 -468 -193s-188 -285.667 -188 -471s63.667 -343 191 -473c128 -130 283.333 -195 466 -195s336 64 460 192c123.333 127.333 185 285 185 473zM88.001 724.001
c0 212 73.667 390.668 221 536.001s327 217.666 539 216.999s391.333 -73 538 -217s220 -321.333 220 -532s-72.333 -390 -217 -538c-144.667 -147.333 -324.667 -221 -540 -221s-396 72.667 -542 218c-146 146 -219 325 -219 537z" />
    <glyph glyph-name="macron" unicode="&#xaf;" horiz-adv-x="598" 
d="M23 1192v151h552v-151h-552z" />
    <glyph glyph-name="degree" unicode="&#xb0;" horiz-adv-x="702" 
d="M354 1380c-49.333 0 -89.333 -18 -120 -54s-46 -81.667 -46 -137s15 -101 45 -137s70 -54 120 -54s90 17.333 120 52c30 36 45 82 45 138s-15 102 -45 138s-69.667 54 -119 54zM354 1483c84.667 0 155.334 -24.998 212.001 -74.998s85 -121.333 85 -214
s-29.333 -165.667 -88 -219s-130.334 -80 -215.001 -80s-155.334 25.667 -212.001 77s-85 122.666 -85 213.999s29.333 163.666 88 216.999s130.334 80 215.001 80z" />
    <glyph glyph-name="plusminus" unicode="&#xb1;" horiz-adv-x="1480" 
d="M1290 0h-1097v172h1097v-172zM829 330h-182v450h-454v172h454v451h182v-451h461v-172h-461v-450z" />
    <glyph glyph-name="twosuperior" unicode="&#xb2;" 
d="M394 1767c72 0 129.331 -20.666 171.998 -61.999c42.667 -40.667 64.334 -90.334 65.001 -149.001c0 -58.667 -10.333 -110.667 -31 -156c-20 -45.333 -53.333 -90 -100 -134c-46.667 -45.333 -83.667 -79 -111 -101s-71.666 -55.333 -132.999 -100
c114.667 0 250 2.66699 406 8l-33 -151c-69.333 2.66699 -160.333 4 -273 4s-217.667 -1.33301 -315 -4l-6 51l143 119c101.333 95.333 168 175.333 200 240s48 132 48 202c0 34 -11 62.333 -33 85s-46.667 34 -74 34c-73.333 0 -135.333 -39.667 -186 -119l-59 33
c30 60 72.667 108.333 128 145c56 36.667 120 55 192 55z" />
    <glyph glyph-name="threesuperior" unicode="&#xb3;" 
d="M627 1210c0 -62.667 -29 -120 -87 -172c-107.333 -96.667 -256 -153.334 -446 -170.001l-12 113c144.667 0 237 15.667 277 47c47.333 34.667 71 90.667 71 168c0 44 -12.333 78 -37 102s-54.667 36.333 -90 37c-35.333 0 -79 -8.66699 -131 -26l-20 65
c57.333 16.667 100.333 33.667 129 51c66.667 40.667 100 92 100 154c0 24.667 -9 45 -27 61s-39.667 23.667 -65 23c-49.333 0 -106.666 -27.333 -171.999 -82l-47 51c88.667 90 182.667 135 282 135c70.667 0 124.667 -16.667 162 -50s55.666 -73.666 54.999 -120.999
c0 -46.667 -17.333 -86.667 -52 -120s-82.667 -57.666 -144 -72.999c80.667 0 143 -16.667 187 -50c44 -32.667 66.333 -80.334 67 -143.001z" />
    <glyph glyph-name="acute" unicode="&#xb4;" horiz-adv-x="604" 
d="M285 1571l219 -64c-104 -118.667 -219.333 -240 -346 -364l-56 31c59.333 120 120.333 252.333 183 397z" />
    <glyph glyph-name="mu" unicode="&#xb5;" horiz-adv-x="1202" 
d="M156 -31l0.00195312 766.002c0 64 -6.66699 107 -20 129s-50.333 33.667 -111 35v76c174.667 9.33301 309 25.666 403 48.999c-10.667 -164 -16 -348.333 -16 -553c0 -121.333 14.333 -204.333 43 -249s68.667 -66.667 120 -66c80.667 0 141 19 181 57
c19.333 19.333 28.666 70.666 27.999 153.999v366c0 69.333 -7 114 -21 134c-14.667 20 -55.334 30.667 -122.001 32v76c170.667 16.667 306 33.667 406 51c-5.33301 -86 -8.33301 -180.333 -9 -283v-460c0 -76.667 7 -122.667 21 -138c7.33301 -10.667 17 -17 29 -19
s40.667 -3 86 -3v-74l-373 -88l-19 14v154c-68 -105.333 -148.333 -158 -241 -158c-58 0 -106.667 13 -146 39c0 -172 7 -334.333 21 -487l-266 -21c4 155.333 6 311 6 467z" />
    <glyph glyph-name="paragraph" unicode="&#xb6;" horiz-adv-x="1234" 
d="M1180 1368c-70.667 0 -116.001 -11.666 -136.001 -34.999s-29.333 -84.666 -28 -183.999l10 -983c0 -96.667 -12 -182 -36 -256s-47.333 -126.333 -70 -157s-57.667 -71.334 -105 -122.001c-79.333 -84.667 -168 -127 -266 -127c-62.667 0 -120 12.333 -172 37l82 185
c20.667 -13.333 49.334 -25.333 86.001 -36s68.667 -16 96 -16c94 0 151.333 48.667 172 146c14 62.667 21 270 21 622s-1.33301 580.667 -4 686c-2.66699 106.667 -11.667 172 -27 196s-43.333 36 -84 36s-72 -20 -94 -60c-32.667 -58.667 -49 -178.667 -49 -360
s10 -296.333 30 -345c20.667 -48 51 -79.333 91 -94c24 -8.66699 52.333 -13.334 85 -14.001v-92c-32 -4 -87.333 -6 -166 -6s-157 17 -235 51s-143 92 -195 174s-77.667 182.333 -77 301c0 165.333 49.667 295.333 149 390c100 94 242.667 141 428 141l229 -2
c82.667 0 171 2 265 6v-82z" />
    <glyph glyph-name="periodcentered" unicode="&#xb7;" horiz-adv-x="569" 
d="M289 371c-46.667 0 -87.334 16 -122.001 48s-52 73 -52 123s16.333 91.667 49 125s73.334 50 122.001 50s89 -17.333 121 -52s48 -76 48 -124s-16 -88.333 -48 -121s-71.333 -49 -118 -49z" />
    <glyph glyph-name="cedilla" unicode="&#xb8;" horiz-adv-x="598" 
d="M334 -319c0 62.667 -50 94 -150 94l86 231h92l-49 -123c124 -8 186.333 -62.667 187 -164c0 -42 -12.333 -79.667 -37 -113c-42.667 -58 -116 -101 -220 -129c-42 -12 -83.333 -19.333 -124 -22l-21 109c53.333 0 94.333 1.66699 123 5s54.667 14 78 32s35 44.667 35 80z
" />
    <glyph glyph-name="onesuperior" unicode="&#xb9;" 
d="M477 1573l-0.00292969 -480.997c0.666992 -46.667 7.66699 -75.334 21 -86.001s48.666 -19.667 105.999 -27v-57c-57.333 2.66699 -128.666 4 -213.999 4s-160.666 -1.33301 -225.999 -4v57c58.667 7.33301 94.334 16.333 107.001 27s19.334 40 20.001 88v405
c0 52 -4 83.333 -12 94c-10.667 19.333 -49 29.666 -115 30.999v59c40.667 5.33301 91 17.333 151 36s107.333 37 142 55l26 -13c-4 -52.667 -6 -115.334 -6 -188.001z" />
    <glyph glyph-name="ordmasculine" unicode="&#xba;" horiz-adv-x="768" 
d="M391 641c82 0 123 84.001 123 252.001s-43.667 252 -131 252s-131 -81.333 -131 -244c0 -79.333 12.333 -142.333 37 -189s58.667 -70.334 102 -71.001zM696 904.001c0 -101.333 -29.3311 -181.334 -87.998 -240.001s-133.334 -88 -224.001 -88
s-165.334 28.667 -224.001 86s-88 135.333 -88 234s29.667 177.334 89 236.001s135 87.667 227 87c92 0.666992 166.333 -26.333 223 -81s85 -132.667 85 -234z" />
    <glyph glyph-name="guillemotright" unicode="&#xbb;" horiz-adv-x="972" 
d="M160 877l377 -342v-86l-379 -330l-52 43l252 325l-252 342zM500 877l377 -342v-86l-379 -330l-52 43l252 325l-252 342z" />
    <glyph glyph-name="onequarter" unicode="&#xbc;" horiz-adv-x="1654" 
d="M461 1194l-0.000976562 -481c0 -46.667 6.66699 -75.334 20 -86.001s49 -19.667 107 -27v-57c-57.333 2.66699 -128.666 4 -213.999 4s-161 -1.33301 -227 -4v57c58 6.66699 93.667 15.334 107 26.001s20 40.334 20 89.001v405c0 52 -4 83.333 -12 94
c-10.667 19.333 -49 29.666 -115 30.999v60c40.667 4.66699 91 16.334 151 35.001s107.333 37 142 55l27 -13c-4 -52.667 -6 -115.334 -6 -188.001zM1161 1370l-549 -1374h-123l547 1374h125zM1251 319l0.000976562 310c-6.66699 -7.33301 -20.334 -25 -41.001 -53l-80 -106
l-110 -151h231zM1559 319v-102h-123v-246h-185v246c-140.667 0 -258 -0.666992 -352 -2l-10 47c94 131.333 240 320.333 438 567l111 -4v-92l-2 -414h123z" />
    <glyph glyph-name="onehalf" unicode="&#xbd;" horiz-adv-x="1654" 
d="M459 1194l-0.000976562 -481c0 -46.667 6.66699 -75.334 20 -86.001s49 -19.667 107 -27v-57c-57.333 2.66699 -128.666 4 -213.999 4s-161 -1.33301 -227 -4v57c58 6.66699 93.667 15.334 107 26.001s20 40.334 20 89.001v405c0 52 -4 83.333 -12 94
c-10.667 19.333 -49 29.666 -115 30.999v60c40.667 4.66699 91 16.334 151 35.001s107.333 37 142 55l27 -13c-4 -52.667 -6 -115.334 -6 -188.001zM1161 1370l-549 -1374h-123l547 1374h125zM1308 846c72 0 129.999 -20.668 173.999 -62.001
c42.667 -41.333 64 -91.333 64 -150c0 -58 -10 -109.667 -30 -155c-20 -44.667 -53.667 -89.667 -101 -135s-84.333 -78.666 -111 -99.999s-71 -55 -133 -101c114.667 0 250 3 406 9l-33 -152c-69.333 2.66699 -160.333 4 -273 4s-217.667 -1.33301 -315 -4l-6 51
c4 2.66699 51.333 42.334 142 119.001c104 92 171.333 170.667 202 236s46.334 134 47.001 206c0 34 -10.667 62.333 -32 85c-22 22.667 -46.667 34 -74 34c-73.333 0 -135.333 -39.667 -186 -119l-60 33c30 59.333 72.667 107.666 128 144.999s119 56 191 56z" />
    <glyph glyph-name="threequarters" unicode="&#xbe;" horiz-adv-x="1654" 
d="M1161 1370l-549 -1374h-123l547 1374h125zM381 1200c0 24.667 -9 44.998 -27 60.998s-39.667 23.667 -65 23c-49.333 0 -106.666 -27.333 -171.999 -82l-47 51c88.667 90 182.667 135.333 282 136c70.667 -0.666992 124.667 -17.667 162 -51
s55.666 -73.666 54.999 -120.999c0 -47.333 -17.333 -87.666 -52 -120.999s-82.667 -57.333 -144 -72c80.667 0 143 -16.667 187 -50s66.333 -81 67 -143c0 -62 -29 -119 -87 -171c-107.333 -96.667 -256 -153.667 -446 -171l-12 113c144.667 0 237 15.667 277 47
c47.333 34 71 89.667 71 167c0 44 -12.333 78.667 -37 104c-24.667 24 -54.667 36 -90 36s-79 -8.66699 -131 -26l-20 65c152.667 44.667 229 113 229 205zM1235 318.998l0.000976562 310c-6.66699 -7.33301 -20.334 -25 -41.001 -53l-80 -106l-110 -151h231zM1542 318.998
v-102h-123v-246h-184v246c-140.667 0 -258 -0.666992 -352 -2l-11 47c94 131.333 240.333 320.333 439 567l110 -4v-92l-2 -414h123z" />
    <glyph glyph-name="questiondown" unicode="&#xbf;" horiz-adv-x="761" 
d="M473 1028c46.667 0 87.334 -16 122.001 -48s52 -73 52 -123s-16.333 -91.667 -49 -125s-73.334 -50 -122.001 -50s-89 17.333 -121 52s-48 76 -48 124s16 88.333 48 121s71.333 49 118 49zM236 -102c0 -68 33.334 -115.331 100.001 -141.998s173.667 -41.667 321 -45
v-219c-59.333 0 -127 12 -203 36s-140 55.667 -192 95c-148.667 114.667 -223 241 -223 379c0 83.333 26.333 152.666 79 207.999s130.667 101.333 234 138c40 13.333 64.667 44 74 92s14.666 85.667 15.999 113h90c12 -204.667 18 -319.334 18 -344.001
s-6 -45.334 -18 -62.001s-30 -30.667 -54 -42l-70 -33l-72 -34c-24.667 -12 -41.667 -22.667 -51 -32c-8.66699 -9.33301 -19 -21.666 -31 -36.999s-18 -39 -18 -71z" />
    <glyph glyph-name="Agrave" unicode="&#xc0;" horiz-adv-x="1542" 
d="M492 1815l200 110c105.333 -135.333 199 -249.333 281 -342l-47 -43c-199.333 118 -344 209.667 -434 275zM719 1190l-199 -528h369zM1196 4c-96 0 -202.333 -2 -319 -6v76c66.667 2.66699 110 10 130 22c19.333 12 29 32.667 29 62s-9.33301 74.333 -28 135l-88 274
h-437l-104 -278c-22 -57.333 -33 -99.333 -33 -126c0 -27.333 11 -47.666 33 -60.999s65 -22.666 129 -27.999v-76c-101.333 4 -182 6 -242 6s-144.667 -2 -254 -6v76c57.333 8 100 22.667 128 44s55 64 81 128l324 801c53.333 132.667 99 258 137 376l238 54
c16.667 -54.667 59.667 -185.334 129 -392.001l274 -823c23.333 -70.667 47 -118.334 71 -143.001s66 -39.667 126 -45v-76c-120 4 -228 6 -324 6z" />
    <glyph glyph-name="Aacute" unicode="&#xc1;" horiz-adv-x="1542" 
d="M938 1925l201 -110c-90 -65.333 -234.667 -157 -434 -275l-48 43c82 92.667 175.667 206.667 281 342zM719 1190l-199 -528h369zM1196 4c-96 0 -202.333 -2 -319 -6v76c66.667 2.66699 110 10 130 22c19.333 12 29 32.667 29 62s-9.33301 74.333 -28 135l-88 274h-437
l-104 -278c-22 -57.333 -33 -99.333 -33 -126c0 -27.333 11 -47.666 33 -60.999s65 -22.666 129 -27.999v-76c-101.333 4 -182 6 -242 6s-144.667 -2 -254 -6v76c57.333 8 100 22.667 128 44s55 64 81 128l324 801c53.333 132.667 99 258 137 376l238 54
c16.667 -54.667 59.667 -185.334 129 -392.001l274 -823c23.333 -70.667 47 -118.334 71 -143.001s66 -39.667 126 -45v-76c-120 4 -228 6 -324 6z" />
    <glyph glyph-name="Acircumflex" unicode="&#xc2;" horiz-adv-x="1542" 
d="M1083 1538l-286.001 186l-273 -188l-55 49c154 168 242 265.667 264 293h146c14.667 -18 98.334 -113.667 251.001 -287zM718.999 1190l-199 -528h369zM1196 4c-96 0 -202.333 -2 -319 -6v76c66.667 2.66699 110 10 130 22c19.333 12 29 32.667 29 62
s-9.33301 74.333 -28 135l-88 274h-437l-104 -278c-22 -57.333 -33 -99.333 -33 -126c0 -27.333 11 -47.666 33 -60.999s65 -22.666 129 -27.999v-76c-101.333 4 -182 6 -242 6s-144.667 -2 -254 -6v76c57.333 8 100 22.667 128 44s55 64 81 128l324 801
c53.333 132.667 99 258 137 376l238 54c16.667 -54.667 59.667 -185.334 129 -392.001l274 -823c23.333 -70.667 47 -118.334 71 -143.001s66 -39.667 126 -45v-76c-120 4 -228 6 -324 6z" />
    <glyph glyph-name="Atilde" unicode="&#xc3;" horiz-adv-x="1542" 
d="M1000 1714c29.333 0 63.334 33.667 102.001 101l59 -25c-64 -151.333 -126.667 -227 -188 -227c-35.333 0 -80.333 10.667 -135 32l-64 25c-44 16.667 -77.333 25 -100 25c-22.667 -0.666992 -42 -7 -58 -19c-16.667 -12 -34.334 -36 -53.001 -72l-61 23
c23.333 60 53.333 112 90 156s75 65.667 115 65c20 0 60.667 -10.333 122 -31l70 -28c38 -16.667 71.667 -25 101 -25zM719.001 1190l-199 -528h369zM1196 4c-96 0 -202.333 -2 -319 -6v76c66.667 2.66699 110 10 130 22c19.333 12 29 32.667 29 62s-9.33301 74.333 -28 135
l-88 274h-437l-104 -278c-22 -57.333 -33 -99.333 -33 -126c0 -27.333 11 -47.666 33 -60.999s65 -22.666 129 -27.999v-76c-101.333 4 -182 6 -242 6s-144.667 -2 -254 -6v76c57.333 8 100 22.667 128 44s55 64 81 128l324 801c53.333 132.667 99 258 137 376l238 54
c16.667 -54.667 59.667 -185.334 129 -392.001l274 -823c23.333 -70.667 47 -118.334 71 -143.001s66 -39.667 126 -45v-76c-120 4 -228 6 -324 6z" />
    <glyph glyph-name="Adieresis" unicode="&#xc4;" horiz-adv-x="1542" 
d="M983 1591c-31.333 0 -58 11 -80 33s-33 48.667 -33 80s11 58.333 33 81s49 34 81 34s58 -11 78 -33s30 -49 30 -81s-10.333 -59 -31 -81s-46.667 -33 -78 -33zM614 1591c-32 0 -58.667 11 -80 33s-32 48.667 -32 80s11 58.333 33 81s49 34 81 34s57.667 -11 77 -33
c20 -22 30 -49 30 -81s-10.333 -59 -31 -81s-46.667 -33 -78 -33zM719 1190l-199 -528h369zM1196 4c-96 0 -202.333 -2 -319 -6v76c66.667 2.66699 110 10 130 22c19.333 12 29 32.667 29 62s-9.33301 74.333 -28 135l-88 274h-437l-104 -278
c-22 -57.333 -33 -99.333 -33 -126c0 -27.333 11 -47.666 33 -60.999s65 -22.666 129 -27.999v-76c-101.333 4 -182 6 -242 6s-144.667 -2 -254 -6v76c57.333 8 100 22.667 128 44s55 64 81 128l324 801c53.333 132.667 99 258 137 376l238 54
c16.667 -54.667 59.667 -185.334 129 -392.001l274 -823c23.333 -70.667 47 -118.334 71 -143.001s66 -39.667 126 -45v-76c-120 4 -228 6 -324 6z" />
    <glyph glyph-name="Aring" unicode="&#xc5;" horiz-adv-x="1542" 
d="M795 1612c30 0 55 11 75 33s29.667 50.333 29 85c0.666992 34.667 -9 62.667 -29 84s-44.667 31.666 -74 30.999c-29.333 0.666992 -54 -9.66602 -74 -30.999s-30 -49 -30 -83s9.66699 -62.333 29 -85s44 -34 74 -34zM800 1927c59.333 0 107.332 -18 143.999 -54
s55 -83 55 -141c0 -58.667 -19.667 -107.334 -59 -146.001s-87.666 -58 -144.999 -58s-106 18 -146 54c-39.333 36 -59 83.333 -59 142s20 107.334 60 146.001c40.667 38 90.667 57 150 57zM718.999 1190l-199 -528h369zM1196 4c-96 0 -202.333 -2 -319 -6v76
c66.667 2.66699 110 10 130 22c19.333 12 29 32.667 29 62s-9.33301 74.333 -28 135l-88 274h-437l-104 -278c-22 -57.333 -33 -99.333 -33 -126c0 -27.333 11 -47.666 33 -60.999s65 -22.666 129 -27.999v-76c-101.333 4 -182 6 -242 6s-144.667 -2 -254 -6v76
c57.333 8 100 22.667 128 44s55 64 81 128l324 801c53.333 132.667 99 258 137 376l238 54c16.667 -54.667 59.667 -185.334 129 -392.001l274 -823c23.333 -70.667 47 -118.334 71 -143.001s66 -39.667 126 -45v-76c-120 4 -228 6 -324 6z" />
    <glyph glyph-name="AE" unicode="&#xc6;" horiz-adv-x="2142" 
d="M1096 678v610c0 28.667 -7 43 -21 43c-8 0 -15 -3 -21 -9s-17.333 -22 -34 -48l-365 -596h441zM1096 254l0.00488281 330h-490l-139 -226c-65.333 -108 -98 -174.667 -98 -200s11 -44.333 33 -57c22.667 -11.333 71 -19 145 -23v-80c-100.667 4 -190.334 6 -269.001 6
s-171.334 -2 -278.001 -6v80c60 6.66699 106.667 23.667 140 51s85.666 96.333 156.999 207l436 678c68 106.667 111.667 178.334 131 215.001s29 65 29 85c-0.666992 20 -8.33398 33.333 -23.001 40s-67 11.334 -157 14.001v80c82 -2.66699 285 -4 609 -4
s543.333 1.33301 658 4c10.667 -176 18.334 -279 23.001 -309l-82 -9c-20.667 86 -51.334 147 -92.001 183c-36.667 30 -108.334 45 -215.001 45s-182.667 -1.33301 -228 -4v-553c132.667 -0.666992 218.334 6.33301 257.001 21s67.334 71.667 86.001 171h81
c-6.66699 -143.333 -10 -245 -10 -305s1.33301 -117.333 4 -172h-82c-12 94 -37.333 150.333 -76 169s-125.334 28 -260.001 28v-437c0 -58.667 5.66699 -97.334 17 -116.001c12.667 -26 39 -43.333 79 -52s99.667 -13.334 179 -14.001c132.667 0 222 32 268 96
c34 48 63.333 102.667 88 164l80 -16c-30 -128.667 -60.667 -242 -92 -340c-335.333 4 -566.333 6 -693 6s-251.334 -2 -374.001 -6v80c78.667 4 124.667 19 138 45s20 69.667 20 131z" />
    <glyph glyph-name="Ccedilla" unicode="&#xc7;" horiz-adv-x="1478" 
d="M84 738c0 210.667 71.6709 385.664 215.004 524.997c143.333 140 328.333 210 555 210c126.667 0.666992 233.667 -11.666 321 -36.999s140.666 -41 159.999 -47c12 -139.333 23 -246.666 33 -321.999l-94 -8c-31.333 120 -77 204.333 -137 253
c-59.333 48 -152.333 72 -279 72s-233 -57.333 -319 -172s-129 -271.667 -129 -471s45.667 -361.666 137 -486.999s205.333 -188 342 -188c109.333 0 195.666 23.333 258.999 70s112 132.334 146 257.001l95 -12c-24.667 -135.333 -51.334 -244 -80.001 -326
c-46.667 -24.667 -112.334 -45 -197.001 -61s-169.334 -23.667 -254.001 -23h-12l-37 -92c130 -10.667 195 -68 195 -172c0 -57.333 -23.333 -107 -70 -149c-82.667 -74 -192.667 -115.667 -330 -125l-20 112c56 0 99 1.66699 129 5s57.333 14.666 82 33.999
s37 46.333 37 81s-12.333 60 -37 76s-65 23.667 -121 23l78 213c-207.333 22 -370.666 101.667 -489.999 239c-118.667 137.333 -178 311.333 -178 522z" />
    <glyph glyph-name="Egrave" unicode="&#xc8;" horiz-adv-x="1284" 
d="M326 1815l200 110c105.333 -135.333 199 -249.333 281 -342l-47 -43c-199.333 118 -344 209.667 -434 275zM452 4c-128 0 -253.332 -1.99805 -375.999 -5.99805v80c80.667 4 127.667 19 141 45s20.333 69.667 21 131v938c0 61.333 -7 105 -21 131s-61 41 -141 45v80
c122.667 -4 284.667 -6 486 -6s388 2 560 6c10.667 -176 18.334 -279 23.001 -309l-82 -9c-20.667 86 -51.334 147 -92.001 183c-36.667 30 -108.334 45 -215.001 45s-182.667 -1.33301 -228 -4v-553c132.667 -0.666992 218.334 6.33301 257.001 21s67 71.667 85 171h82
c-6.66699 -143.333 -10 -245 -10 -305s1.33301 -117.333 4 -172h-82c-12 94 -37.333 150.333 -76 169s-125.334 28 -260.001 28v-437c0 -58.667 5.66699 -97.334 17 -116.001c12.667 -26 39 -43.333 79 -52s99.667 -13.334 179 -14.001c132.667 0 222 32 268 96
c34 48 63.333 102.667 88 164l80 -16c-30 -128.667 -60.667 -242 -92 -340c-335.333 4 -567 6 -695 6z" />
    <glyph glyph-name="Eacute" unicode="&#xc9;" horiz-adv-x="1284" 
d="M815 1925l201.001 -110c-90 -65.333 -234.667 -157 -434 -275l-47 43c81.333 92.667 174.666 206.667 279.999 342zM452.001 4c-128 0 -253.332 -1.99805 -375.999 -5.99805v80c80.667 4 127.667 19 141 45s20.333 69.667 21 131v938c0 61.333 -7 105 -21 131
s-61 41 -141 45v80c122.667 -4 284.667 -6 486 -6s388 2 560 6c10.667 -176 18.334 -279 23.001 -309l-82 -9c-20.667 86 -51.334 147 -92.001 183c-36.667 30 -108.334 45 -215.001 45s-182.667 -1.33301 -228 -4v-553c132.667 -0.666992 218.334 6.33301 257.001 21
s67 71.667 85 171h82c-6.66699 -143.333 -10 -245 -10 -305s1.33301 -117.333 4 -172h-82c-12 94 -37.333 150.333 -76 169s-125.334 28 -260.001 28v-437c0 -58.667 5.66699 -97.334 17 -116.001c12.667 -26 39 -43.333 79 -52s99.667 -13.334 179 -14.001
c132.667 0 222 32 268 96c34 48 63.333 102.667 88 164l80 -16c-30 -128.667 -60.667 -242 -92 -340c-335.333 4 -567 6 -695 6z" />
    <glyph glyph-name="Ecircumflex" unicode="&#xca;" horiz-adv-x="1284" 
d="M965 1538l-287 186l-272 -188l-56 49c154 168 242 265.667 264 293h146l252 -287zM452 4c-128 0 -253.332 -1.99805 -375.999 -5.99805v80c80.667 4 127.667 19 141 45s20.333 69.667 21 131v938c0 61.333 -7 105 -21 131s-61 41 -141 45v80
c122.667 -4 284.667 -6 486 -6s388 2 560 6c10.667 -176 18.334 -279 23.001 -309l-82 -9c-20.667 86 -51.334 147 -92.001 183c-36.667 30 -108.334 45 -215.001 45s-182.667 -1.33301 -228 -4v-553c132.667 -0.666992 218.334 6.33301 257.001 21s67 71.667 85 171h82
c-6.66699 -143.333 -10 -245 -10 -305s1.33301 -117.333 4 -172h-82c-12 94 -37.333 150.333 -76 169s-125.334 28 -260.001 28v-437c0 -58.667 5.66699 -97.334 17 -116.001c12.667 -26 39 -43.333 79 -52s99.667 -13.334 179 -14.001c132.667 0 222 32 268 96
c34 48 63.333 102.667 88 164l80 -16c-30 -128.667 -60.667 -242 -92 -340c-335.333 4 -567 6 -695 6z" />
    <glyph glyph-name="Edieresis" unicode="&#xcb;" horiz-adv-x="1284" 
d="M862 1591c-31.333 0 -58 11 -80 33s-32.667 48.667 -32 80c0 31.333 10.667 58.333 32 81c22 22.667 49 34 81 34s58 -11 78 -33s30 -49 30 -81s-10.333 -59 -31 -81s-46.667 -33 -78 -33zM495 1819c31.333 0 57 -11 77 -33s30 -49 30 -81s-10 -59 -30 -81
s-46 -33 -78 -33c-31.333 0 -58 11 -80 33s-33 48.667 -33 80s11 58.333 33 81s49 34 81 34zM452 4c-128 0 -253.332 -1.99805 -375.999 -5.99805v80c80.667 4 127.667 19 141 45s20.333 69.667 21 131v938c0 61.333 -7 105 -21 131s-61 41 -141 45v80
c122.667 -4 284.667 -6 486 -6s388 2 560 6c10.667 -176 18.334 -279 23.001 -309l-82 -9c-20.667 86 -51.334 147 -92.001 183c-36.667 30 -108.334 45 -215.001 45s-182.667 -1.33301 -228 -4v-553c132.667 -0.666992 218.334 6.33301 257.001 21s67 71.667 85 171h82
c-6.66699 -143.333 -10 -245 -10 -305s1.33301 -117.333 4 -172h-82c-12 94 -37.333 150.333 -76 169s-125.334 28 -260.001 28v-437c0 -58.667 5.66699 -97.334 17 -116.001c12.667 -26 39 -43.333 79 -52s99.667 -13.334 179 -14.001c132.667 0 222 32 268 96
c34 48 63.333 102.667 88 164l80 -16c-30 -128.667 -60.667 -242 -92 -340c-335.333 4 -567 6 -695 6z" />
    <glyph glyph-name="Igrave" unicode="&#xcc;" horiz-adv-x="774" 
d="M55 1815l201 110c105.333 -135.333 199 -249.333 281 -342l-48 -43c-199.333 118 -344 209.667 -434 275zM535 1188l-0.000976562 -930c0 -68 6.66699 -113.333 20 -136s60.333 -37.334 141 -44.001v-80c-114.667 4 -215.667 6 -303 6s-192.333 -2 -315 -6v80
c82 5.33301 129.333 20 142 44s19.334 68 20.001 132v938c0 61.333 -6.33301 104.333 -19 129c-13.333 24.667 -61 40.334 -143 47.001v80c122.667 -4 227.667 -6 315 -6s188.333 2 303 6v-80c-79.333 -6.66699 -126 -20 -140 -40s-21 -66.667 -21 -140z" />
    <glyph glyph-name="Iacute" unicode="&#xcd;" horiz-adv-x="774" 
d="M549 1925l201 -110c-90 -65.333 -235 -157 -435 -275l-47 43c82 92.667 175.667 206.667 281 342zM535 1188l-0.000976562 -930c0 -68 6.66699 -113.333 20 -136s60.333 -37.334 141 -44.001v-80c-114.667 4 -215.667 6 -303 6s-192.333 -2 -315 -6v80
c82 5.33301 129.333 20 142 44s19.334 68 20.001 132v938c0 61.333 -6.33301 104.333 -19 129c-13.333 24.667 -61 40.334 -143 47.001v80c122.667 -4 227.667 -6 315 -6s188.333 2 303 6v-80c-79.333 -6.66699 -126 -20 -140 -40s-21 -66.667 -21 -140z" />
    <glyph glyph-name="Icircumflex" unicode="&#xce;" horiz-adv-x="774" 
d="M672 1538l-287 186l-272 -188l-56 49c154 168 242.333 265.667 265 293h145l252 -287zM535 1188l-0.000976562 -930c0 -68 6.66699 -113.333 20 -136s60.333 -37.334 141 -44.001v-80c-114.667 4 -215.667 6 -303 6s-192.333 -2 -315 -6v80c82 5.33301 129.333 20 142 44
s19.334 68 20.001 132v938c0 61.333 -6.33301 104.333 -19 129c-13.333 24.667 -61 40.334 -143 47.001v80c122.667 -4 227.667 -6 315 -6s188.333 2 303 6v-80c-79.333 -6.66699 -126 -20 -140 -40s-21 -66.667 -21 -140z" />
    <glyph glyph-name="Idieresis" unicode="&#xcf;" horiz-adv-x="774" 
d="M571 1591c-31.333 0 -57.667 11 -79 33s-32.333 48.667 -33 80c0 31.333 11 58.333 33 81c21.333 22.667 48 34 80 34s58 -11 78 -33s30 -49 30 -81s-10.333 -59 -31 -81s-46.667 -33 -78 -33zM202.999 1591c-31.333 0 -58 11 -80 33s-33 48.667 -33 80s11 58.333 33 81
s49 34 81 34s58 -11 78 -33s30 -49 30 -81s-10.667 -59 -32 -81c-20 -22 -45.667 -33 -77 -33zM534.999 1188l-0.000976562 -930c0 -68 6.66699 -113.333 20 -136s60.333 -37.334 141 -44.001v-80c-114.667 4 -215.667 6 -303 6s-192.333 -2 -315 -6v80
c82 5.33301 129.333 20 142 44s19.334 68 20.001 132v938c0 61.333 -6.33301 104.333 -19 129c-13.333 24.667 -61 40.334 -143 47.001v80c122.667 -4 227.667 -6 315 -6s188.333 2 303 6v-80c-79.333 -6.66699 -126 -20 -140 -40s-21 -66.667 -21 -140z" />
    <glyph glyph-name="Eth" unicode="&#xd0;" horiz-adv-x="1601" 
d="M913 709l-385 -0.000976562v-408c0 -70.667 4.33301 -117.667 13 -141c18 -46.667 76.667 -70 176 -70c147.333 0 263 53.333 347 160s126 264.334 126 473.001c0 101.333 -6.33301 186.666 -19 255.999c-29.333 170.667 -104.333 282.334 -225 335.001
c-69.333 30.667 -149.333 46 -240 46s-150 -1.33301 -178 -4v-537h385v-110zM238 708.999l-156 0.00390625v110h156v373c0 65.333 -7 109.666 -21 132.999s-61 37.666 -141 42.999v80c48 -2.66699 153.667 -4 317 -4l318 4c538 0 807 -233.333 807 -700
c0 -250.667 -75.333 -438 -226 -562s-356.667 -186 -618 -186l-281 4c-88.667 0 -194.334 -2 -317.001 -6v80c82 5.33301 129.333 20.666 142 45.999s19.334 68.666 20.001 129.999v455z" />
    <glyph glyph-name="Ntilde" unicode="&#xd1;" horiz-adv-x="1619" 
d="M1041 1714c29.333 0 63.335 33.667 102.002 101l59 -25c-64 -151.333 -126.667 -227 -188 -227c-35.333 0 -80.333 10.667 -135 32l-64 25c-43.333 16.667 -76.333 25 -99 25c-22.667 -0.666992 -42.334 -7 -59.001 -19s-34.334 -36 -53.001 -72l-61 23
c23.333 60 53.333 112 90 156s75 65.667 115 65c20 0 60.667 -10.333 122 -31l70 -28c38 -16.667 71.667 -25 101 -25zM274.002 2c-98.667 0 -165.333 -1.33105 -200 -3.99805v80c58.667 4 98.667 11.333 120 22s34 28 38 52c18.667 100 28 420 28 960
c0 83.333 -17 144 -51 182c-22 26.667 -44.333 44.667 -67 54s-56.334 16 -101.001 20v80c55.333 -2.66699 132.333 -4 231 -4s172.667 1.33301 222 4c110 -153.333 268.667 -353 476 -599c208 -246 312.667 -370 314 -372c-1.33301 86 -2 178.333 -2 277
s-1.66699 212 -5 340s-15.666 204.667 -36.999 230s-75 40 -161 44v80c98 -2.66699 180.667 -4 248 -4s152.666 1.33301 255.999 4v-80c-75.333 -4 -122.333 -19 -141 -45s-30.667 -92 -36 -198c-4.66699 -106 -7 -270.333 -7 -493s4.66699 -437.334 14 -644.001l-119 -33
c-23.333 34 -82.666 111 -177.999 231l-747 910c2.66699 -38 4 -127.667 4 -269c0 -140.667 0.666992 -273.667 2 -399s4 -203.333 8 -234s15 -55.334 33 -74.001c18.667 -18.667 38.667 -29.667 60 -33s58 -6.33301 110 -9v-80c-109.333 2.66699 -213.333 4 -312 4z" />
    <glyph glyph-name="Ograve" unicode="&#xd2;" horiz-adv-x="1648" 
d="M492 1815l200 110c105.333 -135.333 199 -249.333 281 -342l-47 -43c-199.333 118 -344 209.667 -434 275zM824 1384c-125.333 0 -226.333 -52.667 -303 -158c-75.333 -105.333 -113 -267.333 -113 -486c0 -218 38.667 -386 116 -504s181.333 -177 312 -177
s234 53.667 310 161c76 108 114 272 114 492s-41.333 387 -124 501s-186.667 171 -312 171zM821 -29c-232.667 0 -413.668 68.668 -543.001 206.001c-129.333 138 -194 315.667 -194 533s69 398.666 207 543.999s323.333 218.333 556 219
c232.667 0 410.334 -67.667 533.001 -203c122.667 -136 184 -314.667 184 -536s-65.667 -404 -197 -548c-132 -144 -314 -215.667 -546 -215z" />
    <glyph glyph-name="Oacute" unicode="&#xd3;" horiz-adv-x="1648" 
d="M938 1925l201 -110c-90 -65.333 -234.667 -157 -434 -275l-48 43c82 92.667 175.667 206.667 281 342zM824 1384c-125.333 0 -226.333 -52.667 -303 -158c-75.333 -105.333 -113 -267.333 -113 -486c0 -218 38.667 -386 116 -504s181.333 -177 312 -177
s234 53.667 310 161c76 108 114 272 114 492s-41.333 387 -124 501s-186.667 171 -312 171zM821 -29c-232.667 0 -413.668 68.668 -543.001 206.001c-129.333 138 -194 315.667 -194 533s69 398.666 207 543.999s323.333 218.333 556 219
c232.667 0 410.334 -67.667 533.001 -203c122.667 -136 184 -314.667 184 -536s-65.667 -404 -197 -548c-132 -144 -314 -215.667 -546 -215z" />
    <glyph glyph-name="Ocircumflex" unicode="&#xd4;" horiz-adv-x="1648" 
d="M1118 1538l-287 186l-272 -188l-55 49c154 168 242 265.667 264 293h145l252 -287zM824 1384c-125.333 0 -226.333 -52.667 -303 -158c-75.333 -105.333 -113 -267.333 -113 -486c0 -218 38.667 -386 116 -504s181.333 -177 312 -177s234 53.667 310 161
c76 108 114 272 114 492s-41.333 387 -124 501s-186.667 171 -312 171zM821 -29c-232.667 0 -413.668 68.668 -543.001 206.001c-129.333 138 -194 315.667 -194 533s69 398.666 207 543.999s323.333 218.333 556 219c232.667 0 410.334 -67.667 533.001 -203
c122.667 -136 184 -314.667 184 -536s-65.667 -404 -197 -548c-132 -144 -314 -215.667 -546 -215z" />
    <glyph glyph-name="Otilde" unicode="&#xd5;" horiz-adv-x="1648" 
d="M1000 1714c29.333 0 63.334 33.667 102.001 101l59 -25c-64 -151.333 -126.667 -227 -188 -227c-35.333 0 -80.333 10.667 -135 32l-64 25c-44 16.667 -77.333 25 -100 25c-22.667 -0.666992 -42 -7 -58 -19c-16.667 -12 -34.334 -36 -53.001 -72l-61 23
c23.333 60 53.333 112 90 156s75 65.667 115 65c20 0 60.667 -10.333 122 -31l70 -28c38 -16.667 71.667 -25 101 -25zM824.001 1384c-125.333 0 -226.333 -52.667 -303 -158c-75.333 -105.333 -113 -267.333 -113 -486c0 -218 38.667 -386 116 -504s181.333 -177 312 -177
s234 53.667 310 161c76 108 114 272 114 492s-41.333 387 -124 501s-186.667 171 -312 171zM821.001 -29c-232.667 0 -413.668 68.668 -543.001 206.001c-129.333 138 -194 315.667 -194 533s69 398.666 207 543.999s323.333 218.333 556 219
c232.667 0 410.334 -67.667 533.001 -203c122.667 -136 184 -314.667 184 -536s-65.667 -404 -197 -548c-132 -144 -314 -215.667 -546 -215z" />
    <glyph glyph-name="Odieresis" unicode="&#xd6;" horiz-adv-x="1648" 
d="M983 1591c-31.333 0 -58 11 -80 33s-33 48.667 -33 80s11 58.333 33 81s49 34 81 34s58 -11 78 -33s30 -49 30 -81s-10.333 -59 -31 -81s-46.667 -33 -78 -33zM614 1591c-32 0 -58.667 11 -80 33s-32 48.667 -32 80s11 58.333 33 81s49 34 81 34s57.667 -11 77 -33
c20 -22 30 -49 30 -81s-10.333 -59 -31 -81s-46.667 -33 -78 -33zM824 1384c-125.333 0 -226.333 -52.667 -303 -158c-75.333 -105.333 -113 -267.333 -113 -486c0 -218 38.667 -386 116 -504s181.333 -177 312 -177s234 53.667 310 161c76 108 114 272 114 492
s-41.333 387 -124 501s-186.667 171 -312 171zM821 -29c-232.667 0 -413.668 68.668 -543.001 206.001c-129.333 138 -194 315.667 -194 533s69 398.666 207 543.999s323.333 218.333 556 219c232.667 0 410.334 -67.667 533.001 -203c122.667 -136 184 -314.667 184 -536
s-65.667 -404 -197 -548c-132 -144 -314 -215.667 -546 -215z" />
    <glyph glyph-name="multiply" unicode="&#xd7;" horiz-adv-x="1482" 
d="M1214 272l-127 -129l-348 349l-342 -342l-123 120l342 344l-348 347l129 126l346 -346l347 349l122 -123l-348 -349z" />
    <glyph glyph-name="Oslash" unicode="&#xd8;" horiz-adv-x="1648" 
d="M826 1384c-128 0 -229.667 -52.667 -305 -158c-76 -105.333 -113.667 -267.666 -113 -486.999c0 -152.667 18.333 -280.334 55 -383.001l674 856c-79.333 114.667 -183 172 -311 172zM848 59c122.667 0 221.999 53.667 297.999 161s114 266 114 476
c0 168 -24 307.333 -72 418l-678 -858c76.667 -131.333 189.334 -197 338.001 -197zM83.999 696c0 226.667 68.999 412.666 206.999 557.999s324.333 218.333 559 219c158.667 0 295.334 -35 410.001 -105l137 174l82 -59l-140 -176c150 -130 225 -313.333 225 -550
s-65.667 -427 -197 -571c-132 -144 -316.667 -215.667 -554 -215c-168 0 -312 40.333 -432 121l-139 -176l-82 55l143 183c-146 134.667 -219 315.334 -219 542.001z" />
    <glyph glyph-name="Ugrave" unicode="&#xd9;" horiz-adv-x="1542" 
d="M471 1815l201.001 110c105.333 -135.333 198.666 -249.333 279.999 -342l-47 -43c-199.333 118 -344 209.667 -434 275zM832.001 117c70.667 -0.666992 132.998 8.33301 186.998 27s95.667 41.667 125 69s51.666 67 66.999 119c16 52 25.667 101.333 29 148
s5 149.334 5 308.001c0 160 -3.33301 282 -10 366s-21.667 139.667 -45 167s-72.666 43 -147.999 47v80c98.667 -2.66699 178 -4 238 -4s142 1.33301 246 4v-80c-70.667 -4 -116.334 -20 -137.001 -48s-31 -94.667 -31 -200l2 -583c0 -187.333 -46 -328.333 -138 -423
s-237.333 -142.334 -436 -143.001c-255.333 0 -429.333 68.333 -522 205c-52 75.333 -78 197 -78 365v651c0 66.667 -7.33301 111.667 -22 135s-57.667 37 -129 41v80c122.667 -4 225.667 -6 309 -6s182.333 2 297 6v-80c-75.333 -6.66699 -121.666 -20.667 -138.999 -42
s-25.666 -67.333 -24.999 -138l-2 -572c0 -100 4 -175.333 12 -226s23.667 -95.667 47 -135c23.333 -40 61 -73 113 -99c52.667 -26 114.334 -39 185.001 -39z" />
    <glyph glyph-name="Uacute" unicode="&#xda;" horiz-adv-x="1542" 
d="M938 1925l201 -110c-90 -65.333 -234.667 -157 -434 -275l-48 43c82 92.667 175.667 206.667 281 342zM832 117c70.667 -0.666992 132.998 8.33301 186.998 27s95.667 41.667 125 69s51.666 67 66.999 119c16 52 25.667 101.333 29 148s5 149.334 5 308.001
c0 160 -3.33301 282 -10 366s-21.667 139.667 -45 167s-72.666 43 -147.999 47v80c98.667 -2.66699 178 -4 238 -4s142 1.33301 246 4v-80c-70.667 -4 -116.334 -20 -137.001 -48s-31 -94.667 -31 -200l2 -583c0 -187.333 -46 -328.333 -138 -423
s-237.333 -142.334 -436 -143.001c-255.333 0 -429.333 68.333 -522 205c-52 75.333 -78 197 -78 365v651c0 66.667 -7.33301 111.667 -22 135s-57.667 37 -129 41v80c122.667 -4 225.667 -6 309 -6s182.333 2 297 6v-80c-75.333 -6.66699 -121.666 -20.667 -138.999 -42
s-25.666 -67.333 -24.999 -138l-2 -572c0 -100 4 -175.333 12 -226s23.667 -95.667 47 -135c23.333 -40 61 -73 113 -99c52.667 -26 114.334 -39 185.001 -39z" />
    <glyph glyph-name="Ucircumflex" unicode="&#xdb;" horiz-adv-x="1542" 
d="M1073 1538l-287 186l-272 -188l-55 49c154 168 242 265.667 264 293h145l252 -287zM832 117c70.667 -0.666992 132.998 8.33301 186.998 27s95.667 41.667 125 69s51.666 67 66.999 119c16 52 25.667 101.333 29 148s5 149.334 5 308.001c0 160 -3.33301 282 -10 366
s-21.667 139.667 -45 167s-72.666 43 -147.999 47v80c98.667 -2.66699 178 -4 238 -4s142 1.33301 246 4v-80c-70.667 -4 -116.334 -20 -137.001 -48s-31 -94.667 -31 -200l2 -583c0 -187.333 -46 -328.333 -138 -423s-237.333 -142.334 -436 -143.001
c-255.333 0 -429.333 68.333 -522 205c-52 75.333 -78 197 -78 365v651c0 66.667 -7.33301 111.667 -22 135s-57.667 37 -129 41v80c122.667 -4 225.667 -6 309 -6s182.333 2 297 6v-80c-75.333 -6.66699 -121.666 -20.667 -138.999 -42s-25.666 -67.333 -24.999 -138
l-2 -572c0 -100 4 -175.333 12 -226s23.667 -95.667 47 -135c23.333 -40 61 -73 113 -99c52.667 -26 114.334 -39 185.001 -39z" />
    <glyph glyph-name="Udieresis" unicode="&#xdc;" horiz-adv-x="1542" 
d="M983 1591c-31.333 0 -58 11 -80 33s-33 48.667 -33 80s11 58.333 33 81s49 34 81 34s58 -11 78 -33s30 -49 30 -81s-10.333 -59 -31 -81s-46.667 -33 -78 -33zM614 1591c-32 0 -58.667 11 -80 33s-32 48.667 -32 80s11 58.333 33 81s49 34 81 34s57.667 -11 77 -33
c20 -22 30 -49 30 -81s-10.333 -59 -31 -81s-46.667 -33 -78 -33zM832 117c70.667 -0.666992 132.998 8.33301 186.998 27s95.667 41.667 125 69s51.666 67 66.999 119c16 52 25.667 101.333 29 148s5 149.334 5 308.001c0 160 -3.33301 282 -10 366
s-21.667 139.667 -45 167s-72.666 43 -147.999 47v80c98.667 -2.66699 178 -4 238 -4s142 1.33301 246 4v-80c-70.667 -4 -116.334 -20 -137.001 -48s-31 -94.667 -31 -200l2 -583c0 -187.333 -46 -328.333 -138 -423s-237.333 -142.334 -436 -143.001
c-255.333 0 -429.333 68.333 -522 205c-52 75.333 -78 197 -78 365v651c0 66.667 -7.33301 111.667 -22 135s-57.667 37 -129 41v80c122.667 -4 225.667 -6 309 -6s182.333 2 297 6v-80c-75.333 -6.66699 -121.666 -20.667 -138.999 -42s-25.666 -67.333 -24.999 -138
l-2 -572c0 -100 4 -175.333 12 -226s23.667 -95.667 47 -135c23.333 -40 61 -73 113 -99c52.667 -26 114.334 -39 185.001 -39z" />
    <glyph glyph-name="Yacute" unicode="&#xdd;" horiz-adv-x="1429" 
d="M918 1925l200 -110c-90 -65.333 -234.667 -157 -434 -275l-47 43c82 92.667 175.667 206.667 281 342zM848 258c0 -70.667 7.99805 -117.332 23.998 -139.999s65.333 -36 148 -40v-80c-106.667 4 -203 6 -289 6s-200.667 -2 -344 -6v80
c84.667 2.66699 134.334 17.667 149.001 45s21.667 71 21 131v354l-346 596c-40.667 69.333 -72 113 -94 131s-58.333 29 -109 33v80c65.333 -4 166.333 -6 303 -6s244 2 322 6v-80c-56 0 -93 -4.33301 -111 -13c-17.333 -8.66699 -26 -24 -26 -46s16.333 -64 49 -126
s116 -212 250 -450l77 129l84 137c26 42 56.333 94 91 156s52.334 113.333 53.001 154c0 10.667 -2 19.667 -6 27c-4 8 -16.667 15.333 -38 22s-51 10 -89 10v80c50 -4 114.333 -6 193 -6s163 2 253 6v-80c-40.667 -4 -76.667 -19.333 -108 -46s-63 -66.334 -95 -119.001
l-178 -287l-184 -295v-363z" />
    <glyph glyph-name="Thorn" unicode="&#xde;" horiz-adv-x="1320" 
d="M682 434c169.333 0 253.999 105.999 253.999 317.999s-103 318.333 -309 319c-19.333 0 -51.666 -2 -96.999 -6v-801c0 -69.333 7.33301 -116 22 -140s64 -39.333 148 -46v-80c-114.667 4 -216.334 6 -305.001 6s-194.334 -2 -317.001 -6v80
c82 5.33301 129.333 20 142 44s19.334 68 20.001 132v938c0 61.333 -6.33301 104.333 -19 129c-13.333 24.667 -61 40.334 -143 47.001v80c122.667 -4 226.667 -6 312 -6s185.333 2 300 6v-80c-77.333 -6.66699 -123.333 -20 -138 -40s-22 -66.667 -22 -140v-33
c58.667 4 110 6 154 6c177.333 0 315.333 -29 414 -87s147.667 -156.667 147 -296c0 -78 -15.667 -146.333 -47 -205c-54.667 -102 -153.667 -170.667 -297 -206c-60.667 -15.333 -117.667 -23 -171 -23s-96.666 2 -129.999 6l10 92c27.333 -5.33301 51.333 -8 72 -8z" />
    <glyph glyph-name="germandbls" unicode="&#xdf;" horiz-adv-x="1224" 
d="M199 848l-139.996 0.000976562v76c62.667 17.333 104 45.666 124 84.999c8.66699 17.333 16 46.333 22 87c15.333 113.333 43.666 206 84.999 278s101 135.667 179 191c79.333 54.667 169.666 82 270.999 82s182.666 -29 243.999 -87c62 -58 93 -131 93 -219
c0 -136.667 -56 -259.334 -168 -368.001c-46.667 -47.333 -76.667 -79.666 -90 -96.999s-20 -35.666 -20 -54.999c0.666992 -42 49 -100.333 145 -175s160 -134 192 -178c32 -44.667 48 -95 48 -151c0 -96.667 -41 -178.334 -123 -245.001s-174 -100 -276 -100
s-194.333 29 -277 87l127 152c27.333 -38 61.666 -69.667 102.999 -95s80 -38 116 -38s65.667 11.333 89 34c22.667 22.667 34 52 34 88s-13.333 70.333 -40 103s-81.667 81 -165 145s-140.333 117 -171 159s-46 79 -46 111s8 62.333 24 91s52.333 71 109 127
c114.667 112 172 236.333 172 373c0 75.333 -14.333 133.333 -43 174s-68.334 61 -119.001 61c-121.333 0 -197.666 -96.333 -228.999 -289c-12 -75.333 -18 -287.333 -18 -636s2 -555.667 6 -621c-30 2.66699 -82.667 4 -158 4s-152.333 -1.33301 -231 -4v76
c38 1.33301 69.333 9.33301 94 24s37 59.667 37 135v615z" />
    <glyph glyph-name="agrave" unicode="&#xe0;" horiz-adv-x="1054" 
d="M256 1507l218.999 64c62.667 -144.667 123.334 -277 182.001 -397l-55 -31c-126.667 124 -242 245.333 -346 364zM622.999 291l-0.00195312 172c-115.333 -31.333 -191.666 -60.666 -228.999 -87.999s-56 -62.333 -56 -105s12.333 -76.334 37 -101.001
c24.667 -25.333 60.334 -38 107.001 -38s81.667 10 105 30c24 20 36 63.333 36 130zM943.997 137c10 0 34.001 6.33301 72.001 19l31 -52c-92.667 -86 -170.667 -129 -234 -129c-84.667 0 -146.667 41 -186 123c-104 -83.333 -197.667 -125 -281 -125
s-150.333 27.333 -201 82c-50 54.667 -75 114.334 -75 179.001s28 117.667 84 159c38 26 81.667 47.333 131 64s138 41 266 73c27.333 6.66699 46 16 56 28s15.333 36.333 16 73c0 99.333 -12.333 167 -37 203c-25.333 36 -74 54 -146 54s-108 -25.667 -108 -77
c0 -23.333 14.333 -62.333 43 -117l-199 -100c-39.333 57.333 -59 108 -59 152s27.333 86.667 82 128c54 41.333 118.333 78 193 110s136.667 48 186 48c121.333 0 210.666 -38 267.999 -114c22 -28.667 33 -96.334 33 -203.001l-7 -312c0 -106.667 4 -177.667 12 -213
s28 -53 60 -53z" />
    <glyph glyph-name="aacute" unicode="&#xe1;" horiz-adv-x="1054" 
d="M612 1571l218.999 -64c-104 -118.667 -219.333 -240 -346 -364l-55 31c58.667 120 119.334 252.333 182.001 397zM622.999 291l-0.00195312 172c-115.333 -31.333 -191.666 -60.666 -228.999 -87.999s-56 -62.333 -56 -105s12.333 -76.334 37 -101.001
c24.667 -25.333 60.334 -38 107.001 -38s81.667 10 105 30c24 20 36 63.333 36 130zM943.997 137c10 0 34.001 6.33301 72.001 19l31 -52c-92.667 -86 -170.667 -129 -234 -129c-84.667 0 -146.667 41 -186 123c-104 -83.333 -197.667 -125 -281 -125
s-150.333 27.333 -201 82c-50 54.667 -75 114.334 -75 179.001s28 117.667 84 159c38 26 81.667 47.333 131 64s138 41 266 73c27.333 6.66699 46 16 56 28s15.333 36.333 16 73c0 99.333 -12.333 167 -37 203c-25.333 36 -74 54 -146 54s-108 -25.667 -108 -77
c0 -23.333 14.333 -62.333 43 -117l-199 -100c-39.333 57.333 -59 108 -59 152s27.333 86.667 82 128c54 41.333 118.333 78 193 110s136.667 48 186 48c121.333 0 210.666 -38 267.999 -114c22 -28.667 33 -96.334 33 -203.001l-7 -312c0 -106.667 4 -177.667 12 -213
s28 -53 60 -53z" />
    <glyph glyph-name="acircumflex" unicode="&#xe2;" horiz-adv-x="1054" 
d="M762 1133l-234.001 210.001l-235 -215l-57 39c96.667 131.333 178.334 247.666 245.001 348.999h105c40.667 -64 117 -177.333 229 -340zM622.999 291.001l-0.00195312 172c-115.333 -31.333 -191.666 -60.666 -228.999 -87.999s-56 -62.333 -56 -105
s12.333 -76.334 37 -101.001c24.667 -25.333 60.334 -38 107.001 -38s81.667 10 105 30c24 20 36 63.333 36 130zM943.997 137.001c10 0 34.001 6.33301 72.001 19l31 -52c-92.667 -86 -170.667 -129 -234 -129c-84.667 0 -146.667 41 -186 123
c-104 -83.333 -197.667 -125 -281 -125s-150.333 27.333 -201 82c-50 54.667 -75 114.334 -75 179.001s28 117.667 84 159c38 26 81.667 47.333 131 64s138 41 266 73c27.333 6.66699 46 16 56 28s15.333 36.333 16 73c0 99.333 -12.333 167 -37 203
c-25.333 36 -74 54 -146 54s-108 -25.667 -108 -77c0 -23.333 14.333 -62.333 43 -117l-199 -100c-39.333 57.333 -59 108 -59 152s27.333 86.667 82 128c54 41.333 118.333 78 193 110s136.667 48 186 48c121.333 0 210.666 -38 267.999 -114
c22 -28.667 33 -96.334 33 -203.001l-7 -312c0 -106.667 4 -177.667 12 -213s28 -53 60 -53z" />
    <glyph glyph-name="atilde" unicode="&#xe3;" horiz-adv-x="1054" 
d="M410 1403c14.667 0 52.666 -10.333 113.999 -31l66 -29c36.667 -16.667 67.334 -24.667 92.001 -24c30 0 62.667 33.333 98 100l58 -24c-60 -151.333 -119.667 -227.333 -179 -228c-28.667 0 -71 11 -127 33l-59 25c-68 28 -117.333 30 -148 6c-16 -12 -33 -36 -51 -72
l-57 23c22 58.667 50.667 110 86 154s71 66.333 107 67zM622.999 291l-0.00195312 172c-115.333 -31.333 -191.666 -60.666 -228.999 -87.999s-56 -62.333 -56 -105s12.333 -76.334 37 -101.001c24.667 -25.333 60.334 -38 107.001 -38s81.667 10 105 30
c24 20 36 63.333 36 130zM943.997 137c10 0 34.001 6.33301 72.001 19l31 -52c-92.667 -86 -170.667 -129 -234 -129c-84.667 0 -146.667 41 -186 123c-104 -83.333 -197.667 -125 -281 -125s-150.333 27.333 -201 82c-50 54.667 -75 114.334 -75 179.001s28 117.667 84 159
c38 26 81.667 47.333 131 64s138 41 266 73c27.333 6.66699 46 16 56 28s15.333 36.333 16 73c0 99.333 -12.333 167 -37 203c-25.333 36 -74 54 -146 54s-108 -25.667 -108 -77c0 -23.333 14.333 -62.333 43 -117l-199 -100c-39.333 57.333 -59 108 -59 152
s27.333 86.667 82 128c54 41.333 118.333 78 193 110s136.667 48 186 48c121.333 0 210.666 -38 267.999 -114c22 -28.667 33 -96.334 33 -203.001l-7 -312c0 -106.667 4 -177.667 12 -213s28 -53 60 -53z" />
    <glyph glyph-name="adieresis" unicode="&#xe4;" horiz-adv-x="1054" 
d="M694 1190c-31.333 0 -58 11 -80 33s-32.667 48.667 -32 80c0 31.333 10.667 58.333 32 81s48.333 33.667 81 33c32 0 58 -11 78 -33c20 -21.333 30 -48 30 -80s-10.333 -59 -31 -81s-46.667 -33 -78 -33zM362 1190c-32 0 -58.667 11 -80 33s-32 48.667 -32 80
s11 58.333 33 81s49 33.667 81 33c32 0 58 -11 78 -33c20 -21.333 29.667 -48 29 -80c0 -32 -10.333 -59 -31 -81s-46.667 -33 -78 -33zM623 291l-0.00195312 172c-115.333 -31.333 -191.666 -60.666 -228.999 -87.999s-56 -62.333 -56 -105s12.333 -76.334 37 -101.001
c24.667 -25.333 60.334 -38 107.001 -38s81.667 10 105 30c24 20 36 63.333 36 130zM943.998 137c10 0 34.001 6.33301 72.001 19l31 -52c-92.667 -86 -170.667 -129 -234 -129c-84.667 0 -146.667 41 -186 123c-104 -83.333 -197.667 -125 -281 -125
s-150.333 27.333 -201 82c-50 54.667 -75 114.334 -75 179.001s28 117.667 84 159c38 26 81.667 47.333 131 64s138 41 266 73c27.333 6.66699 46 16 56 28s15.333 36.333 16 73c0 99.333 -12.333 167 -37 203c-25.333 36 -74 54 -146 54s-108 -25.667 -108 -77
c0 -23.333 14.333 -62.333 43 -117l-199 -100c-39.333 57.333 -59 108 -59 152s27.333 86.667 82 128c54 41.333 118.333 78 193 110s136.667 48 186 48c121.333 0 210.666 -38 267.999 -114c22 -28.667 33 -96.334 33 -203.001l-7 -312c0 -106.667 4 -177.667 12 -213
s28 -53 60 -53z" />
    <glyph glyph-name="aring" unicode="&#xe5;" horiz-adv-x="1054" 
d="M527 1452c-31.333 0 -56.999 -11 -76.999 -33s-30 -50.667 -30 -86s10 -64.666 30 -87.999s45.333 -35 76 -35s56.667 11 78 33c20.667 22 31 51.667 31 89s-10.333 66.666 -31 87.999s-46.334 32 -77.001 32zM531.001 1534c60.667 0 110.333 -18.333 149 -55
s57.667 -85 57 -145c0 -60 -20 -109.333 -60 -148c-40.667 -40 -91 -60 -151 -60s-110 18.667 -150 56s-60 86 -60 146s20.667 109.333 62 148s92.333 58 153 58zM623 291l-0.00195312 172c-115.333 -31.333 -191.666 -60.666 -228.999 -87.999s-56 -62.333 -56 -105
s12.333 -76.334 37 -101.001c24.667 -25.333 60.334 -38 107.001 -38s81.667 10 105 30c24 20 36 63.333 36 130zM943.998 137c10 0 34.001 6.33301 72.001 19l31 -52c-92.667 -86 -170.667 -129 -234 -129c-84.667 0 -146.667 41 -186 123
c-104 -83.333 -197.667 -125 -281 -125s-150.333 27.333 -201 82c-50 54.667 -75 114.334 -75 179.001s28 117.667 84 159c38 26 81.667 47.333 131 64s138 41 266 73c27.333 6.66699 46 16 56 28s15.333 36.333 16 73c0 99.333 -12.333 167 -37 203
c-25.333 36 -74 54 -146 54s-108 -25.667 -108 -77c0 -23.333 14.333 -62.333 43 -117l-199 -100c-39.333 57.333 -59 108 -59 152s27.333 86.667 82 128c54 41.333 118.333 78 193 110s136.667 48 186 48c121.333 0 210.666 -38 267.999 -114
c22 -28.667 33 -96.334 33 -203.001l-7 -312c0 -106.667 4 -177.667 12 -213s28 -53 60 -53z" />
    <glyph glyph-name="ae" unicode="&#xe6;" horiz-adv-x="1593" 
d="M338 270c0 -42.667 12.333 -76.334 37 -101.001c24.667 -25.333 55 -38 91 -38s72.667 8 110 24s69.333 40 96 72c-31.333 66 -47 144.667 -47 236c-114 -31.333 -190.333 -60.666 -229 -87.999s-58 -62.333 -58 -105zM1088 940
c-62.667 0 -113.333 -30.6689 -152 -92.002s-57.667 -144.666 -57 -249.999c184 36.667 289.667 60.667 317 72c42 15.333 63.333 41.333 64 78c0 54.667 -13 100.334 -39 137.001s-70.333 55 -133 55zM885.001 465.998c0 -30.667 5.33398 -62.3311 16.001 -94.998
c23.333 -64.667 62.666 -113 117.999 -145s111 -48 167 -48c117.333 0 220.333 29.333 309 88l45 -63c-75.333 -76.667 -146 -134.334 -212 -173.001s-143.333 -58 -232 -58c-171.333 -0.666992 -297 57.666 -377 174.999c-128.667 -116 -249.667 -174 -363 -174
c-90 0 -160.333 27.333 -211 82c-50 54.667 -75 114.334 -75 179.001s28 117.667 84 159c38 26 81.667 47.333 131 64s138 41 266 73c27.333 6.66699 46 16 56 28s15.333 36.333 16 73c0 103.333 -12.333 172.333 -37 207s-69 52.334 -133 53.001
c-35.333 0 -64.333 -7.66699 -87 -23c-22.667 -16 -34 -35.333 -34 -58s14.333 -61.334 43 -116.001l-199 -100c-39.333 60 -59 110.667 -59 152s27.333 84 82 128c55.333 44 121 81.333 197 112s137.333 46 184 46s88 -7.33301 124 -22s61 -29.334 75 -44.001
c14.667 -14.667 30 -33.667 46 -57c91.333 82 197 123 317 123s214 -34.667 282 -104c69.333 -69.333 104 -169 104 -299l-598 -111c-30 -4 -45 -21.333 -45 -52z" />
    <glyph glyph-name="ccedilla" unicode="&#xe7;" horiz-adv-x="909" 
d="M522 -319c0 62.667 -49.668 94.001 -149.001 94.001l73 202c-114.667 16.667 -207 69 -277 157s-105.333 193.667 -106 317c0.666992 88.667 18.334 171 53.001 247c62.667 136 164.334 234 305.001 294c60.667 26.667 119 40 175 40c105.333 0 198 -26.667 278 -80
l-145 -194c-82 75.333 -165.333 112.666 -250 111.999c-130 0 -194.667 -92.667 -194 -278c0 -130.667 32.667 -232.667 98 -306s139.666 -110 222.999 -110s166 20.667 248 62l43 -60c-128.667 -132.667 -248.667 -201.667 -360 -207l-35 -88c124 -8 186 -62.667 186 -164
c0 -42 -12.333 -79.667 -37 -113c-42.667 -58 -116 -101 -220 -129c-42 -12 -83.333 -19.333 -124 -22l-20 109c53.333 0 94.333 1.66699 123 5c29.333 3.33301 55.333 14 78 32s34 44.667 34 80z" />
    <glyph glyph-name="egrave" unicode="&#xe8;" horiz-adv-x="1042" 
d="M258 1507l218.999 64c62.667 -144.667 123.334 -277 182.001 -397l-55 -31c-126.667 124 -242 245.333 -346 364zM537.999 940c-56.667 0 -103.999 -21 -141.999 -63c-37.333 -42.667 -60.666 -104.334 -69.999 -185.001c148.667 0 248.667 3.33301 300 10
s76.666 25.334 75.999 56.001c0 53.333 -13 97 -39 131c-26.667 34 -68.334 51 -125.001 51zM317 555c0.666992 -118.667 30.998 -211 90.998 -277c60 -66.667 140.667 -100 242 -100s198.666 29.333 291.999 88l45 -61c-135.333 -155.333 -281.666 -233 -438.999 -233
s-277.666 48 -360.999 144c-82.667 96 -124 222.333 -124 379c0.666992 156.667 50.334 285.667 149.001 387s222.667 151.333 372 150c116 0 210 -36 282 -108s108.333 -177.333 109 -316l-656 -2c-1.33301 -12 -2 -29 -2 -51z" />
    <glyph glyph-name="eacute" unicode="&#xe9;" horiz-adv-x="1042" 
d="M625 1571l219 -64c-104 -118.667 -219.333 -240 -346 -364l-56 31c59.333 120 120.333 252.333 183 397zM538 940c-56.667 0 -103.999 -21 -141.999 -63c-37.333 -42.667 -60.666 -104.334 -69.999 -185.001c148.667 0 248.667 3.33301 300 10
s76.666 25.334 75.999 56.001c0 53.333 -13 97 -39 131c-26.667 34 -68.334 51 -125.001 51zM317.001 555c0.666992 -118.667 30.998 -211 90.998 -277c60 -66.667 140.667 -100 242 -100s198.666 29.333 291.999 88l45 -61c-135.333 -155.333 -281.666 -233 -438.999 -233
s-277.666 48 -360.999 144c-82.667 96 -124 222.333 -124 379c0.666992 156.667 50.334 285.667 149.001 387s222.667 151.333 372 150c116 0 210 -36 282 -108s108.333 -177.333 109 -316l-656 -2c-1.33301 -12 -2 -29 -2 -51z" />
    <glyph glyph-name="ecircumflex" unicode="&#xea;" horiz-adv-x="1042" 
d="M758 1133l-234 210.001l-235 -215l-58 39c96.667 131.333 178.667 247.666 246 348.999h105c40.667 -64 117 -177.333 229 -340zM538 940.001c-56.667 0 -103.999 -21 -141.999 -63c-37.333 -42.667 -60.666 -104.334 -69.999 -185.001c148.667 0 248.667 3.33301 300 10
s76.666 25.334 75.999 56.001c0 53.333 -13 97 -39 131c-26.667 34 -68.334 51 -125.001 51zM317.001 555.001c0.666992 -118.667 30.998 -211 90.998 -277c60 -66.667 140.667 -100 242 -100s198.666 29.333 291.999 88l45 -61
c-135.333 -155.333 -281.666 -233 -438.999 -233s-277.666 48 -360.999 144c-82.667 96 -124 222.333 -124 379c0.666992 156.667 50.334 285.667 149.001 387s222.667 151.333 372 150c116 0 210 -36 282 -108s108.333 -177.333 109 -316l-656 -2
c-1.33301 -12 -2 -29 -2 -51z" />
    <glyph glyph-name="edieresis" unicode="&#xeb;" horiz-adv-x="1042" 
d="M704 1190c-32 0 -58.667 11 -80 33s-32 48.667 -32 80s11 58.333 33 81s49 33.667 81 33c32 0 58 -11 78 -33c20 -21.333 29.667 -48 29 -80c0 -32 -10.333 -59 -31 -81s-46.667 -33 -78 -33zM373 1190c-31.333 0 -58 11 -80 33s-33 48.667 -33 80s11 58.333 33 81
s49 33.667 81 33c32 0 58 -11 78 -33c20 -21.333 30 -48 30 -80s-10.667 -59 -32 -81c-20 -22 -45.667 -33 -77 -33zM538 940c-56.667 0 -103.999 -21 -141.999 -63c-37.333 -42.667 -60.666 -104.334 -69.999 -185.001c148.667 0 248.667 3.33301 300 10
s76.666 25.334 75.999 56.001c0 53.333 -13 97 -39 131c-26.667 34 -68.334 51 -125.001 51zM317.001 555c0.666992 -118.667 30.998 -211 90.998 -277c60 -66.667 140.667 -100 242 -100s198.666 29.333 291.999 88l45 -61c-135.333 -155.333 -281.666 -233 -438.999 -233
s-277.666 48 -360.999 144c-82.667 96 -124 222.333 -124 379c0.666992 156.667 50.334 285.667 149.001 387s222.667 151.333 372 150c116 0 210 -36 282 -108s108.333 -177.333 109 -316l-656 -2c-1.33301 -12 -2 -29 -2 -51z" />
    <glyph glyph-name="igrave" unicode="&#xec;" horiz-adv-x="622" 
d="M29 1507l218.999 64c62.667 -144.667 123.334 -277 182.001 -397l-55 -31c-126.667 124 -242 245.333 -346 364zM437.999 623v-372.997c0 -69.333 7.33301 -114.333 22 -135s53 -34.334 115 -41.001v-76c-79.333 2.66699 -165.333 4 -258 4s-180 -1.33301 -262 -4v76
c63.333 2.66699 101 17.667 113 45s18 71.666 18 132.999v344c0 72.667 -6.33301 123.667 -19 153s-43 59.666 -91 90.999v37l336 186l32 -16c-4 -80.667 -6 -222 -6 -424z" />
    <glyph glyph-name="iacute" unicode="&#xed;" horiz-adv-x="622" 
d="M375 1571l218.999 -64c-104 -118.667 -219.333 -240 -346 -364l-55 31c58.667 120 119.334 252.333 182.001 397zM437.999 623v-372.997c0 -69.333 7.33301 -114.333 22 -135s53 -34.334 115 -41.001v-76c-79.333 2.66699 -165.333 4 -258 4s-180 -1.33301 -262 -4v76
c63.333 2.66699 101 17.667 113 45s18 71.666 18 132.999v344c0 72.667 -6.33301 123.667 -19 153s-43 59.666 -91 90.999v37l336 186l32 -16c-4 -80.667 -6 -222 -6 -424z" />
    <glyph glyph-name="icircumflex" unicode="&#xee;" horiz-adv-x="622" 
d="M541 1133l-234 210.001l-235 -215l-58 39c96.667 131.333 178.667 247.666 246 348.999h105c40.667 -64 117 -177.333 229 -340zM438 623.001v-372.997c0 -69.333 7.33301 -114.333 22 -135s53 -34.334 115 -41.001v-76c-79.333 2.66699 -165.333 4 -258 4
s-180 -1.33301 -262 -4v76c63.333 2.66699 101 17.667 113 45s18 71.666 18 132.999v344c0 72.667 -6.33301 123.667 -19 153s-43 59.666 -91 90.999v37l336 186l32 -16c-4 -80.667 -6 -222 -6 -424z" />
    <glyph glyph-name="idieresis" unicode="&#xef;" horiz-adv-x="622" 
d="M479 1190c-31.333 0 -58 11 -80 33s-32.667 48.667 -32 80s11.667 58.333 33 81s48 33.667 80 33c32 0 58 -11 78 -33c20 -21.333 30 -48 30 -80s-10.333 -59 -31 -81s-46.667 -33 -78 -33zM147 1190c-31.333 0 -57.667 11 -79 33s-32.333 48.667 -33 80
c0 31.333 11 58.333 33 81s49 33.667 81 33c31.333 0 57 -11 77 -33c20 -21.333 30 -48 30 -80s-10.333 -59 -31 -81s-46.667 -33 -78 -33zM437.999 623v-372.997c0 -69.333 7.33301 -114.333 22 -135s53 -34.334 115 -41.001v-76c-79.333 2.66699 -165.333 4 -258 4
s-180 -1.33301 -262 -4v76c63.333 2.66699 101 17.667 113 45s18 71.666 18 132.999v344c0 72.667 -6.33301 123.667 -19 153s-43 59.666 -91 90.999v37l336 186l32 -16c-4 -80.667 -6 -222 -6 -424z" />
    <glyph glyph-name="eth" unicode="&#xf0;" horiz-adv-x="1175" 
d="M596 55c78 0 136.667 36 176 108s59 172.667 59 302c0 299.333 -84.333 448.666 -253 447.999c-76 0 -134 -32.667 -174 -98s-60 -159.666 -60 -282.999c0 -318 84 -477 252 -477zM1110 551c0 -173.333 -49.334 -313.332 -148.001 -419.999s-226 -160 -382 -160
c-156 0.666992 -280.667 48.334 -374 143.001s-140 222 -140 382s51.333 283.667 154 371c103.333 88 228 132 374 132c32.667 0 67 -5 103 -15s62.333 -24 79 -42c-34 91.333 -73.667 168.666 -119 231.999l-219 -117l-49 88l203 108c-69.333 74 -151.333 126.667 -246 158
l29 90c140.667 -32.667 262 -89.334 364 -170.001l193 103l49 -84l-162 -88c92.667 -92 164.334 -200 215.001 -324s76 -253 76 -387z" />
    <glyph glyph-name="ntilde" unicode="&#xf1;" horiz-adv-x="1245" 
d="M504 1403c14.667 0 52.666 -10.333 113.999 -31l66 -29c36.667 -16.667 67.334 -24.667 92.001 -24c30 0 62.667 33.333 98 100l58 -24c-60 -151.333 -119.333 -227.333 -178 -228c-28.667 0 -71 11 -127 33l-60 25c-68 28 -117.333 30 -148 6
c-16 -12 -32.667 -36 -50 -72l-58 23c22 58.667 50.667 110 86 154s71 66.333 107 67zM949.999 2c-80 0 -170.669 -1.33008 -272.002 -3.99707v76c58.667 6.66699 96.334 23 113.001 49s25 122.333 25 289s-12.333 282 -37 346c-23.333 64 -71.666 96 -144.999 96
s-129 -19.667 -167 -59c-19.333 -20.667 -29 -80.334 -29 -179.001v-366c0 -65.333 6.66699 -109 20 -131s52.333 -37 117 -45v-76c-79.333 2.66699 -165.333 4 -258 4s-180 -1.33301 -262 -4v76c63.333 2.66699 101 18.667 113 48s18 70.666 18 123.999v350
c0 68 -6.33301 118.667 -19 152s-43 64 -91 92v37l336 186l26 -16v-181c143.333 110.667 256 166 338 166c42 0 85 -9.33301 129 -28s76 -43.334 96 -74.001c44 -64 66 -174 66 -330v-332c-0.666992 -82.667 6.33301 -134 21 -154s52.667 -33.333 114 -40v-76
c-88 2.66699 -172 4 -252 4z" />
    <glyph glyph-name="ograve" unicode="&#xf2;" horiz-adv-x="1175" 
d="M289 1507l218.999 64c62.667 -144.667 123.334 -277 182.001 -397l-55 -31c-126.667 124 -242 245.333 -346 364zM606.999 1032c148.667 0 269.667 -46.667 363 -140s140 -219.333 140 -378s-49.333 -288.667 -148 -390s-226 -152.333 -382 -153
c-156 0.666992 -280.667 48.334 -374 143.001s-140 222.667 -140 384s52.667 290.666 158 387.999c106 97.333 233.667 146 383 146zM595.999 57c156.667 0 235 141.333 235 424c0 140.667 -21.667 253 -65 337c-44 84 -106 126 -186 126s-139.333 -36.333 -178 -109
c-38.667 -73.333 -58 -174.333 -58 -303c0 -316.667 84 -475 252 -475z" />
    <glyph glyph-name="oacute" unicode="&#xf3;" horiz-adv-x="1175" 
d="M666 1571l219 -64c-104 -118.667 -219.333 -240 -346 -364l-56 31c59.333 120 120.333 252.333 183 397zM607 1032c148.667 0 269.667 -46.667 363 -140s140 -219.333 140 -378s-49.333 -288.667 -148 -390s-226 -152.333 -382 -153
c-156 0.666992 -280.667 48.334 -374 143.001s-140 222.667 -140 384s52.667 290.666 158 387.999c106 97.333 233.667 146 383 146zM596 57c156.667 0 235 141.333 235 424c0 140.667 -21.667 253 -65 337c-44 84 -106 126 -186 126s-139.333 -36.333 -178 -109
c-38.667 -73.333 -58 -174.333 -58 -303c0 -316.667 84 -475 252 -475z" />
    <glyph glyph-name="ocircumflex" unicode="&#xf4;" horiz-adv-x="1175" 
d="M823 1133l-233 210.001l-236 -215l-57 39c96.667 131.333 178.667 247.666 246 348.999h104l230 -340zM607 1032c148.667 0 269.667 -46.667 363 -140s140 -219.333 140 -378s-49.333 -288.667 -148 -390s-226 -152.333 -382 -153
c-156 0.666992 -280.667 48.334 -374 143.001s-140 222.667 -140 384s52.667 290.666 158 387.999c106 97.333 233.667 146 383 146zM596 57.001c156.667 0 235 141.333 235 424c0 140.667 -21.667 253 -65 337c-44 84 -106 126 -186 126s-139.333 -36.333 -178 -109
c-38.667 -73.333 -58 -174.333 -58 -303c0 -316.667 84 -475 252 -475z" />
    <glyph glyph-name="otilde" unicode="&#xf5;" horiz-adv-x="1175" 
d="M469 1403c15.333 0 53.666 -10.333 114.999 -31l65 -29c36.667 -16.667 67.334 -24.667 92.001 -24c30 0 63 33.333 99 100l57 -24c-60 -151.333 -119.333 -227.333 -178 -228c-28.667 0 -71 11 -127 33l-60 25c-68 28 -117.333 30 -148 6c-16 -12 -32.667 -36 -50 -72
l-58 23c22 58.667 50.667 110 86 154s71 66.333 107 67zM607 1032c148.667 0 269.667 -46.667 363 -140s140 -219.333 140 -378s-49.333 -288.667 -148 -390s-226 -152.333 -382 -153c-156 0.666992 -280.667 48.334 -374 143.001s-140 222.667 -140 384
s52.667 290.666 158 387.999c106 97.333 233.667 146 383 146zM596 57c156.667 0 235 141.333 235 424c0 140.667 -21.667 253 -65 337c-44 84 -106 126 -186 126s-139.333 -36.333 -178 -109c-38.667 -73.333 -58 -174.333 -58 -303c0 -316.667 84 -475 252 -475z" />
    <glyph glyph-name="odieresis" unicode="&#xf6;" horiz-adv-x="1175" 
d="M756 1190c-31.333 0 -58 11 -80 33s-33 48.667 -33 80s11 58.333 33 81s49 33.667 81 33c32 0 58 -11 78 -33c19.333 -21.333 29 -48 29 -80s-10 -59 -30 -81s-46 -33 -78 -33zM424 1190c-31.333 0 -58 11 -80 33s-33 48.667 -33 80s11 58.333 33 81s49 33.667 81 33
c32 0 58 -11 78 -33c19.333 -21.333 29 -48 29 -80s-10 -59 -30 -81s-46 -33 -78 -33zM607 1032c148.667 0 269.667 -46.667 363 -140s140 -219.333 140 -378s-49.333 -288.667 -148 -390s-226 -152.333 -382 -153c-156 0.666992 -280.667 48.334 -374 143.001
s-140 222.667 -140 384s52.667 290.666 158 387.999c106 97.333 233.667 146 383 146zM596 57c156.667 0 235 141.333 235 424c0 140.667 -21.667 253 -65 337c-44 84 -106 126 -186 126s-139.333 -36.333 -178 -109c-38.667 -73.333 -58 -174.333 -58 -303
c0 -316.667 84 -475 252 -475z" />
    <glyph glyph-name="divide" unicode="&#xf7;" horiz-adv-x="1476" 
d="M616 264c0 34 12.333 63 37 87s54 36 88 36s62.667 -11.667 86 -35s35 -53 35 -89s-11.333 -65.333 -34 -88s-51.667 -34 -87 -34s-65 12 -89 36s-36 53 -36 87zM616 963c0 34 12.333 63 37 87s54 36 88 36s62.667 -12 86 -36c23.333 -22.667 35 -51.667 35 -87
s-11.333 -65 -34 -89s-51.667 -35.333 -87 -34c-35.333 0 -65 12 -89 36s-36 53 -36 87zM1290 526h-1097v172h1097v-172z" />
    <glyph glyph-name="oslash" unicode="&#xf8;" horiz-adv-x="1175" 
d="M596 57c78 0.666992 136.667 36.333 176 107s59 164 59 280s-10 210.333 -30 283l-387 -561c43.333 -72.667 104 -109 182 -109zM344 547.999c0 -118.667 9.66602 -211.999 28.999 -279.999l387 561c-45.333 76.667 -106.666 115 -183.999 115
s-135.333 -36.333 -174 -109s-58 -168.334 -58 -287.001zM1110 528c0 -168 -49.333 -302.667 -148 -404s-227.667 -152.333 -387 -153c-94 0 -179.333 19.333 -256 58l-100 -146l-78 47l103 150c-118.667 95.333 -178 229 -178 401s52.667 307 158 405
c106 97.333 235.333 146 388 146c91.333 0 173.333 -19.667 246 -59l107 155l77 -51l-106 -153c116 -96 174 -228 174 -396z" />
    <glyph glyph-name="ugrave" unicode="&#xf9;" horiz-adv-x="1193" 
d="M272 1507l219.999 64c62.667 -144.667 123.334 -277 182.001 -397l-56 -31c-126.667 124 -242 245.333 -346 364zM1165 123l0.00292969 -73.998l-372 -88l-19 14v154c-66.667 -60 -122.667 -101.333 -168 -124s-90.333 -34 -135 -34c-216 0 -324 121.667 -324 365v399
c0 64 -6.66699 107 -20 129s-50.333 33.667 -111 35v76c174.667 9.33301 309.334 25.666 404.001 48.999c-10.667 -164 -16.334 -348.333 -17.001 -553c0 -121.333 14.333 -204.333 43 -249s69 -66.667 121 -66c80.667 0 141 19 181 57
c19.333 19.333 28.666 70.666 27.999 153.999v366c0 69.333 -7 114 -21 134c-14.667 20 -55.334 30.667 -122.001 32v76c170.667 16.667 305.667 33.667 405 51c-5.33301 -86 -8 -180.333 -8 -283v-460c0 -76.667 7 -122.667 21 -138c8 -10.667 17.667 -17 29 -19
s39.666 -3 84.999 -3z" />
    <glyph glyph-name="uacute" unicode="&#xfa;" horiz-adv-x="1193" 
d="M639 1571l218.999 -64c-104 -118.667 -219.333 -240 -346 -364l-55 31c58.667 120 119.334 252.333 182.001 397zM1165 123l0.00292969 -73.998l-372 -88l-19 14v154c-66.667 -60 -122.667 -101.333 -168 -124s-90.333 -34 -135 -34c-216 0 -324 121.667 -324 365v399
c0 64 -6.66699 107 -20 129s-50.333 33.667 -111 35v76c174.667 9.33301 309.334 25.666 404.001 48.999c-10.667 -164 -16.334 -348.333 -17.001 -553c0 -121.333 14.333 -204.333 43 -249s69 -66.667 121 -66c80.667 0 141 19 181 57
c19.333 19.333 28.666 70.666 27.999 153.999v366c0 69.333 -7 114 -21 134c-14.667 20 -55.334 30.667 -122.001 32v76c170.667 16.667 305.667 33.667 405 51c-5.33301 -86 -8 -180.333 -8 -283v-460c0 -76.667 7 -122.667 21 -138c8 -10.667 17.667 -17 29 -19
s39.666 -3 84.999 -3z" />
    <glyph glyph-name="ucircumflex" unicode="&#xfb;" horiz-adv-x="1193" 
d="M819 1133l-233 210.001l-236 -215l-57 39c96.667 131.333 178.667 247.666 246 348.999h104c40.667 -64 117 -177.333 229 -340zM1165 123.001l0.00292969 -73.998l-372 -88l-19 14v154c-66.667 -60 -122.667 -101.333 -168 -124s-90.333 -34 -135 -34
c-216 0 -324 121.667 -324 365v399c0 64 -6.66699 107 -20 129s-50.333 33.667 -111 35v76c174.667 9.33301 309.334 25.666 404.001 48.999c-10.667 -164 -16.334 -348.333 -17.001 -553c0 -121.333 14.333 -204.333 43 -249s69 -66.667 121 -66c80.667 0 141 19 181 57
c19.333 19.333 28.666 70.666 27.999 153.999v366c0 69.333 -7 114 -21 134c-14.667 20 -55.334 30.667 -122.001 32v76c170.667 16.667 305.667 33.667 405 51c-5.33301 -86 -8 -180.333 -8 -283v-460c0 -76.667 7 -122.667 21 -138c8 -10.667 17.667 -17 29 -19
s39.666 -3 84.999 -3z" />
    <glyph glyph-name="udieresis" unicode="&#xfc;" horiz-adv-x="1193" 
d="M764 1190c-31.333 0 -58 11 -80 33s-33 48.667 -33 80s11 58.333 33 81s49 33.667 81 33c32 0 58 -11 78 -33c19.333 -21.333 29 -48 29 -80s-10 -59 -30 -81s-46 -33 -78 -33zM432 1190c-31.333 0 -58 11 -80 33s-33 48.667 -33 80s11 58.333 33 81s49 33.667 81 33
c32 0 58 -11 78 -33c20 -21.333 30 -48 30 -80s-10.333 -59 -31 -81s-46.667 -33 -78 -33zM1165 123l0.00292969 -73.998l-372 -88l-19 14v154c-66.667 -60 -122.667 -101.333 -168 -124s-90.333 -34 -135 -34c-216 0 -324 121.667 -324 365v399c0 64 -6.66699 107 -20 129
s-50.333 33.667 -111 35v76c174.667 9.33301 309.334 25.666 404.001 48.999c-10.667 -164 -16.334 -348.333 -17.001 -553c0 -121.333 14.333 -204.333 43 -249s69 -66.667 121 -66c80.667 0 141 19 181 57c19.333 19.333 28.666 70.666 27.999 153.999v366
c0 69.333 -7 114 -21 134c-14.667 20 -55.334 30.667 -122.001 32v76c170.667 16.667 305.667 33.667 405 51c-5.33301 -86 -8 -180.333 -8 -283v-460c0 -76.667 7 -122.667 21 -138c8 -10.667 17.667 -17 29 -19s39.666 -3 84.999 -3z" />
    <glyph glyph-name="yacute" unicode="&#xfd;" horiz-adv-x="1144" 
d="M723 1571l218.999 -64c-104 -118.667 -219.333 -240 -346 -364l-55 31c58.667 120 119.334 252.333 182.001 397zM855.999 862c0 39.333 -47.002 60.667 -141.002 64v73c87.333 -2.66699 165 -4 233 -4s126 1.33301 174 4v-73c-44 -1.33301 -75.333 -10.333 -94 -27
s-37.667 -48.667 -57 -96c-170 -412 -285 -684 -345 -816s-116.667 -240.667 -170 -326s-114.666 -156.666 -183.999 -213.999l-135 145c67.333 30.667 135 79.334 203 146.001s125.333 148.667 172 246l-322 751c-34 79.333 -60.333 130.666 -79 153.999
c-19.333 23.333 -51.666 35.666 -96.999 36.999v73c53.333 -4 135 -6 245 -6s216.333 2 319 6v-73c-54.667 -1.33301 -92 -8 -112 -20s-30 -28.333 -30 -49c0 -21.333 10.333 -58 31 -110l87 -216l97 -244l178 456c18 48 27 87.667 27 119z" />
    <glyph glyph-name="thorn" unicode="&#xfe;" horiz-adv-x="1200" 
d="M406 659v-307c0 -87.333 10 -148 30 -182c32.667 -52 90 -78 172 -78c169.333 0 254 128.333 254 385c0 115.333 -24.667 206.333 -74 273s-109.333 100 -180 100s-128 -24 -172 -72c-20 -22 -30 -61.667 -30 -119zM408 -246c0 -68 6.66699 -113.669 20 -137.002
s59.666 -37.666 138.999 -42.999v-76c-48 2.66699 -130 4 -246 4s-216.333 -1.33301 -301 -4v76c45.333 4 75 10 89 18c30 20.667 45 74.667 45 162v1469c0 75.333 -9 124.333 -27 147c-8 10.667 -36 34.667 -84 72v39l340 176l35 -19
c-8 -147.333 -12 -305.666 -12 -474.999v-301c78.667 56 144.667 98 198 126s106 42 158 42c110.667 0 200.334 -46.333 269.001 -139s103 -213.667 103 -363s-51.667 -276 -155 -380c-104 -104.667 -228.333 -156.667 -373 -156c-61.333 0 -127.333 11.667 -198 35v-273z
" />
    <glyph glyph-name="ydieresis" unicode="&#xff;" horiz-adv-x="1144" 
d="M778 1190c-31.333 0 -58 11 -80 33s-32.667 48.667 -32 80c0 31.333 10.667 58.333 32 81s48.333 33.667 81 33c32 0 58 -11 78 -33c20 -21.333 30 -48 30 -80s-10.333 -59 -31 -81s-46.667 -33 -78 -33zM446 1190c-32 0 -58.667 11 -80 33s-32 48.667 -32 80
s11 58.333 33 81s49 33.667 81 33c32 0 58 -11 78 -33c20 -21.333 29.667 -48 29 -80c0 -32 -10.333 -59 -31 -81s-46.667 -33 -78 -33zM856 862c0 39.333 -47.002 60.667 -141.002 64v73c87.333 -2.66699 165 -4 233 -4s126 1.33301 174 4v-73
c-44 -1.33301 -75.333 -10.333 -94 -27s-37.667 -48.667 -57 -96c-170 -412 -285 -684 -345 -816s-116.667 -240.667 -170 -326s-114.666 -156.666 -183.999 -213.999l-135 145c67.333 30.667 135 79.334 203 146.001s125.333 148.667 172 246l-322 751
c-34 79.333 -60.333 130.666 -79 153.999c-19.333 23.333 -51.666 35.666 -96.999 36.999v73c53.333 -4 135 -6 245 -6s216.333 2 319 6v-73c-54.667 -1.33301 -92 -8 -112 -20s-30 -28.333 -30 -49c0 -21.333 10.333 -58 31 -110l87 -216l97 -244l178 456
c18 48 27 87.667 27 119z" />
    <glyph glyph-name="Amacron" unicode="&#x100;" horiz-adv-x="1542" 
d="M510 1585v152h594v-152h-594zM719 1190l-199 -528h369zM1196 4c-96 0 -202.333 -2 -319 -6v76c66.667 2.66699 110 10 130 22c19.333 12 29 32.667 29 62s-9.33301 74.333 -28 135l-88 274h-437l-104 -278c-22 -57.333 -33 -99.333 -33 -126
c0 -27.333 11 -47.666 33 -60.999s65 -22.666 129 -27.999v-76c-101.333 4 -182 6 -242 6s-144.667 -2 -254 -6v76c57.333 8 100 22.667 128 44s55 64 81 128l324 801c53.333 132.667 99 258 137 376l238 54c16.667 -54.667 59.667 -185.334 129 -392.001l274 -823
c23.333 -70.667 47 -118.334 71 -143.001s66 -39.667 126 -45v-76c-120 4 -228 6 -324 6z" />
    <glyph glyph-name="amacron" unicode="&#x101;" horiz-adv-x="1054" 
d="M250 1192v151h553v-151h-553zM623 291l-0.00195312 172c-115.333 -31.333 -191.666 -60.666 -228.999 -87.999s-56 -62.333 -56 -105s12.333 -76.334 37 -101.001c24.667 -25.333 60.334 -38 107.001 -38s81.667 10 105 30c24 20 36 63.333 36 130zM943.998 137
c10 0 34.001 6.33301 72.001 19l31 -52c-92.667 -86 -170.667 -129 -234 -129c-84.667 0 -146.667 41 -186 123c-104 -83.333 -197.667 -125 -281 -125s-150.333 27.333 -201 82c-50 54.667 -75 114.334 -75 179.001s28 117.667 84 159c38 26 81.667 47.333 131 64
s138 41 266 73c27.333 6.66699 46 16 56 28s15.333 36.333 16 73c0 99.333 -12.333 167 -37 203c-25.333 36 -74 54 -146 54s-108 -25.667 -108 -77c0 -23.333 14.333 -62.333 43 -117l-199 -100c-39.333 57.333 -59 108 -59 152s27.333 86.667 82 128
c54 41.333 118.333 78 193 110s136.667 48 186 48c121.333 0 210.666 -38 267.999 -114c22 -28.667 33 -96.334 33 -203.001l-7 -312c0 -106.667 4 -177.667 12 -213s28 -53 60 -53z" />
    <glyph glyph-name="Abreve" unicode="&#x102;" horiz-adv-x="1542" 
d="M805 1550c-84.667 0 -154.333 23.333 -209 70s-84.667 119.667 -90 219l69 8c10 -46 35.667 -80.333 77 -103s91 -34 149 -34c133.333 0 212.333 45.667 237 137l70 -4c-1.33301 -90 -31 -161.333 -89 -214s-129.333 -79 -214 -79zM719.001 1190l-199 -528h369zM1196 4
c-96 0 -202.333 -2 -319 -6v76c66.667 2.66699 110 10 130 22c19.333 12 29 32.667 29 62s-9.33301 74.333 -28 135l-88 274h-437l-104 -278c-22 -57.333 -33 -99.333 -33 -126c0 -27.333 11 -47.666 33 -60.999s65 -22.666 129 -27.999v-76c-101.333 4 -182 6 -242 6
s-144.667 -2 -254 -6v76c57.333 8 100 22.667 128 44s55 64 81 128l324 801c53.333 132.667 99 258 137 376l238 54c16.667 -54.667 59.667 -185.334 129 -392.001l274 -823c23.333 -70.667 47 -118.334 71 -143.001s66 -39.667 126 -45v-76c-120 4 -228 6 -324 6z" />
    <glyph glyph-name="abreve" unicode="&#x103;" horiz-adv-x="1054" 
d="M522 1141c-172 0 -262.667 94 -272 282l69 9c10 -53.333 31 -91.333 63 -114s80 -34 144 -34s111.667 10.333 143 31c30.667 20.667 52 59.667 64 117l70 -5c-1.33301 -90 -28 -160.333 -80 -211s-119 -75.667 -201 -75zM623 291l-0.00195312 172
c-115.333 -31.333 -191.666 -60.666 -228.999 -87.999s-56 -62.333 -56 -105s12.333 -76.334 37 -101.001c24.667 -25.333 60.334 -38 107.001 -38s81.667 10 105 30c24 20 36 63.333 36 130zM943.998 137c10 0 34.001 6.33301 72.001 19l31 -52
c-92.667 -86 -170.667 -129 -234 -129c-84.667 0 -146.667 41 -186 123c-104 -83.333 -197.667 -125 -281 -125s-150.333 27.333 -201 82c-50 54.667 -75 114.334 -75 179.001s28 117.667 84 159c38 26 81.667 47.333 131 64s138 41 266 73c27.333 6.66699 46 16 56 28
s15.333 36.333 16 73c0 99.333 -12.333 167 -37 203c-25.333 36 -74 54 -146 54s-108 -25.667 -108 -77c0 -23.333 14.333 -62.333 43 -117l-199 -100c-39.333 57.333 -59 108 -59 152s27.333 86.667 82 128c54 41.333 118.333 78 193 110s136.667 48 186 48
c121.333 0 210.666 -38 267.999 -114c22 -28.667 33 -96.334 33 -203.001l-7 -312c0 -106.667 4 -177.667 12 -213s28 -53 60 -53z" />
    <glyph glyph-name="Aogonek" unicode="&#x104;" horiz-adv-x="1542" 
d="M719 1190l-199 -528h369zM1202 -323c0 -38.667 11 -68.3311 33 -88.998c22 -20 53.667 -30 95 -30s84.666 10.667 129.999 32l29 -53c-78 -69.333 -154.333 -104 -229 -104s-131 17 -169 51s-57 82.333 -57 145c0 63.333 22.667 125.666 68 186.999s107.333 124 186 188
h-74c-108 0 -220.333 -2 -337 -6v76c66.667 2.66699 110 10 130 22c19.333 12 29 32.667 29 62s-9.33301 74.333 -28 135l-88 274h-437l-104 -278c-22 -57.333 -33 -99.333 -33 -126c0 -27.333 11 -47.666 33 -60.999s65 -22.666 129 -27.999v-76c-101.333 4 -182 6 -242 6
s-144.667 -2 -254 -6v76c57.333 8 100 22.667 128 44s55 64 81 128l324 801c53.333 132.667 99 258 137 376l238 54c16.667 -54.667 59.667 -185.334 129 -392.001l274 -823c23.333 -70.667 47 -118.334 71 -143.001s66 -39.667 126 -45v-76c-60 2.66699 -104.667 4 -134 4
c-36.667 -36.667 -66 -68.334 -88 -95.001c-21.333 -26.667 -42.666 -62 -63.999 -106s-32 -85.333 -32 -124z" />
    <glyph glyph-name="aogonek" unicode="&#x105;" horiz-adv-x="1054" 
d="M623 291l-0.00195312 172c-115.333 -31.333 -191.666 -60.666 -228.999 -87.999s-56 -62.333 -56 -105s12.333 -76.334 37 -101.001c24.667 -25.333 60.334 -38 107.001 -38s81.667 10 105 30c24 20 36 63.333 36 130zM943.998 137c10 0 33.999 6.33008 71.999 18.9971
l31 -52c-53.333 -49.333 -99.333 -82.666 -138 -99.999c-36.667 -39.333 -65 -70.666 -85 -93.999s-40.667 -56 -62 -98c-21.333 -42.667 -31.666 -82.667 -30.999 -120c0 -37.333 10.667 -66 32 -86c22 -20 52.333 -30 91 -30s79.667 11 123 33l29 -51
c-74.667 -66.667 -148 -100 -220 -100s-126 16 -162 48c-36 32.667 -54.333 75 -55 127c0 110.667 71 225.334 213 344.001c-69.333 8 -121 48.333 -155 121c-104 -83.333 -197.667 -125 -281 -125s-150.333 27.333 -201 82c-50 54.667 -75 114.334 -75 179.001
s28 117.667 84 159c38 26 81.667 47.333 131 64s138 41 266 73c27.333 6.66699 46 16 56 28s15.333 36.333 16 73c0 104 -11 170 -33 198c-31.333 39.333 -75.666 59.333 -132.999 60c-82 0 -123 -25.333 -123 -76c0 -30 14.333 -69.667 43 -119l-203 -100
c-38 61.333 -57 114 -57 158s29 86.667 87 128c58.667 41.333 124 77 196 107s131.333 45 178 45c121.333 0 210.666 -38 267.999 -114c22 -28.667 33 -96.334 33 -203.001l-7 -312c0 -106.667 4 -177.667 12 -213s28 -53 60 -53z" />
    <glyph glyph-name="Cacute" unicode="&#x106;" horiz-adv-x="1478" 
d="M958 1925l201.001 -110c-90 -65.333 -234.667 -157 -434 -275l-47 43c81.333 92.667 174.666 206.667 279.999 342zM410.001 741c0 -199.333 45.668 -361.669 137.001 -487.002s205.333 -188 342 -188c109.333 0 195.666 23.333 258.999 70s112 132.334 146 257.001
l95 -12c-24.667 -135.333 -51.334 -244 -80.001 -326c-45.333 -24.667 -110.666 -45 -195.999 -61s-167.666 -23.667 -246.999 -23c-241.333 0 -432 70.667 -572 212s-210 321.666 -210 540.999s71.667 399 215 539s328.333 210 555 210
c126.667 0.666992 233.667 -11.666 321 -36.999s140.666 -41 159.999 -47c12 -139.333 23 -246.666 33 -321.999l-94 -8c-31.333 120 -77 204.333 -137 253c-59.333 48 -152.333 72 -279 72s-233 -57.333 -319 -172s-129 -271.667 -129 -471z" />
    <glyph glyph-name="cacute" unicode="&#x107;" horiz-adv-x="909" 
d="M621 1571l219 -64c-104 -118.667 -219.333 -240 -346 -364l-56 31c59.333 120 120.333 252.333 183 397zM601 176c82.667 0 167 20.667 253 62l43 -60c-134 -138 -259.667 -207 -377 -207c-135.333 0.666992 -245.333 47 -330 139s-127 205.667 -127 341
c-0.666992 88.667 17 171 53 247c64 136 166.333 234 307 294c60.667 26.667 117.667 40 171 40c112.667 0 206 -27.333 280 -82l-145 -194c-78 76.667 -161.333 114.667 -250 114c-130 0 -194.667 -92.667 -194 -278c0 -130.667 32 -232.667 96 -306s137.333 -110 220 -110
z" />
    <glyph glyph-name="Ccircumflex" unicode="&#x108;" horiz-adv-x="1478" 
d="M1124 1538l-286.001 186l-273 -188l-55 49c154 168 242 265.667 264 293h146c14.667 -18 98.334 -113.667 251.001 -287zM409.999 741c0 -199.333 45.668 -361.669 137.001 -487.002s205.333 -188 342 -188c109.333 0 195.666 23.333 258.999 70s112 132.334 146 257.001
l95 -12c-24.667 -135.333 -51.334 -244 -80.001 -326c-45.333 -24.667 -110.666 -45 -195.999 -61s-167.666 -23.667 -246.999 -23c-241.333 0 -432 70.667 -572 212s-210 321.666 -210 540.999s71.667 399 215 539s328.333 210 555 210
c126.667 0.666992 233.667 -11.666 321 -36.999s140.666 -41 159.999 -47c12 -139.333 23 -246.666 33 -321.999l-94 -8c-31.333 120 -77 204.333 -137 253c-59.333 48 -152.333 72 -279 72s-233 -57.333 -319 -172s-129 -271.667 -129 -471z" />
    <glyph glyph-name="ccircumflex" unicode="&#x109;" horiz-adv-x="909" 
d="M768 1133l-233.001 210.001l-236 -215l-57 39c96.667 131.333 178.334 247.666 245.001 348.999h105c40.667 -64 117 -177.333 229 -340zM600.999 176.001c82.667 0 167 20.667 253 62l43 -60c-134 -138 -259.667 -207 -377 -207c-135.333 0.666992 -245.333 47 -330 139
s-127 205.667 -127 341c-0.666992 88.667 17 171 53 247c64 136 166.333 234 307 294c60.667 26.667 117.667 40 171 40c112.667 0 206 -27.333 280 -82l-145 -194c-78 76.667 -161.333 114.667 -250 114c-130 0 -194.667 -92.667 -194 -278c0 -130.667 32 -232.667 96 -306
s137.333 -110 220 -110z" />
    <glyph glyph-name="Cdotaccent" unicode="&#x10a;" horiz-adv-x="1478" 
d="M813 1591c-31.333 0 -58 11 -80 33s-33 48.667 -33 80s11 58.333 33 81s49 34 81 34s58 -11 78 -33s30 -49 30 -81s-10.333 -59 -31 -81s-46.667 -33 -78 -33zM410 741c0 -199.333 45.668 -361.669 137.001 -487.002s205.333 -188 342 -188
c109.333 0 195.666 23.333 258.999 70s112 132.334 146 257.001l95 -12c-24.667 -135.333 -51.334 -244 -80.001 -326c-45.333 -24.667 -110.666 -45 -195.999 -61s-167.666 -23.667 -246.999 -23c-241.333 0 -432 70.667 -572 212s-210 321.666 -210 540.999
s71.667 399 215 539s328.333 210 555 210c126.667 0.666992 233.667 -11.666 321 -36.999s140.666 -41 159.999 -47c12 -139.333 23 -246.666 33 -321.999l-94 -8c-31.333 120 -77 204.333 -137 253c-59.333 48 -152.333 72 -279 72s-233 -57.333 -319 -172
s-129 -271.667 -129 -471z" />
    <glyph glyph-name="cdotaccent" unicode="&#x10b;" horiz-adv-x="909" 
d="M524 1190c-31.333 0 -58 11 -80 33s-32.667 48.667 -32 80c0 31.333 10.667 58.333 32 81s48.333 33.667 81 33c32 0 58 -11 78 -33c20 -21.333 30 -48 30 -80s-10.333 -59 -31 -81s-46.667 -33 -78 -33zM601 176c82.667 0 167 20.667 253 62l43 -60
c-134 -138 -259.667 -207 -377 -207c-135.333 0.666992 -245.333 47 -330 139s-127 205.667 -127 341c-0.666992 88.667 17 171 53 247c64 136 166.333 234 307 294c60.667 26.667 117.667 40 171 40c112.667 0 206 -27.333 280 -82l-145 -194
c-78 76.667 -161.333 114.667 -250 114c-130 0 -194.667 -92.667 -194 -278c0 -130.667 32 -232.667 96 -306s137.333 -110 220 -110z" />
    <glyph glyph-name="Ccaron" unicode="&#x10c;" horiz-adv-x="1478" 
d="M537 1917l286 -186c105.333 75.333 196.333 138 273 188l55 -49c-154 -168 -242 -265.667 -264 -293h-146l-252 287zM410 741c0 -199.333 45.668 -361.669 137.001 -487.002s205.333 -188 342 -188c109.333 0 195.666 23.333 258.999 70s112 132.334 146 257.001l95 -12
c-24.667 -135.333 -51.334 -244 -80.001 -326c-45.333 -24.667 -110.666 -45 -195.999 -61s-167.666 -23.667 -246.999 -23c-241.333 0 -432 70.667 -572 212s-210 321.666 -210 540.999s71.667 399 215 539s328.333 210 555 210
c126.667 0.666992 233.667 -11.666 321 -36.999s140.666 -41 159.999 -47c12 -139.333 23 -246.666 33 -321.999l-94 -8c-31.333 120 -77 204.333 -137 253c-59.333 48 -152.333 72 -279 72s-233 -57.333 -319 -172s-129 -271.667 -129 -471z" />
    <glyph glyph-name="ccaron" unicode="&#x10d;" horiz-adv-x="909" 
d="M279 1528l233 -211l236 215l57 -39c-96.667 -131.333 -178.667 -247.333 -246 -348h-104l-230 340zM601 176c82.667 0 167 20.667 253 62l43 -60c-134 -138 -259.667 -207 -377 -207c-135.333 0.666992 -245.333 47 -330 139s-127 205.667 -127 341
c-0.666992 88.667 17 171 53 247c64 136 166.333 234 307 294c60.667 26.667 117.667 40 171 40c112.667 0 206 -27.333 280 -82l-145 -194c-78 76.667 -161.333 114.667 -250 114c-130 0 -194.667 -92.667 -194 -278c0 -130.667 32 -232.667 96 -306s137.333 -110 220 -110
z" />
    <glyph glyph-name="Dcaron" unicode="&#x10e;" horiz-adv-x="1601" 
d="M393 1917l287 -186l272 188l56 -49c-154 -168 -242.333 -265.667 -265 -293h-145l-252 287zM528 301c0 -70.667 4.33301 -117.668 13 -141.001c18 -46.667 76.667 -70 176 -70c147.333 0 263 53.333 347 160s126 264.334 126 473.001
c0 101.333 -6.33301 186.666 -19 255.999c-29.333 170.667 -104.333 282.334 -225 335.001c-69.333 30.667 -149.333 46 -240 46s-150 -1.33301 -178 -4v-1055zM238 1192c0 65.333 -7 109.67 -21 133.003s-61 37.666 -141 42.999v80c48 -2.66699 153.667 -4 317 -4l318 4
c538 0 807 -233.333 807 -700c0 -250.667 -75.333 -438 -226 -562s-356.667 -186 -618 -186l-281 4c-88.667 0 -194.334 -2 -317.001 -6v80c82 5.33301 129.333 20.666 142 45.999s19.334 68.666 20.001 129.999v938z" />
    <glyph glyph-name="dcaron" unicode="&#x10f;" horiz-adv-x="1234" 
d="M1274 1362c0 46.667 -32 100.001 -96 160.001l161 125c76.667 -76.667 115 -150 115 -220c0 -90.667 -86 -203 -258 -337l-49 49c84.667 79.333 127 153.666 127 222.999zM799 1223c0 75.333 -9 124.334 -27 147.001c-8 10.667 -36 34.667 -84 72v39l340 176l35 -19
c-8 -147.333 -12 -305.666 -12 -474.999v-846c-0.666992 -72.667 6.33301 -118.334 21 -137.001s54 -27.334 118 -26.001v-78l-377 -105l-16 13v141c-39.333 -40.667 -88.333 -74.667 -147 -102s-112.334 -41 -161.001 -41c-122.667 0 -224 42.333 -304 127
s-119.667 198 -119 340c0 166 52.667 304.333 158 415s240.333 166 405 166c58.667 0.666992 115.334 -7.33301 170.001 -24v217zM799 299.002v374.999c0 88.667 -16.333 147.334 -49 176.001c-53.333 45.333 -116 68 -188 68s-132.667 -25.333 -182 -76
c-50 -50.667 -75 -140 -75 -268s31.333 -228 94 -300c62.667 -70.667 134 -106 214 -106s135 18.333 165 55c14 16.667 21 42 21 76z" />
    <glyph glyph-name="Dcroat" unicode="&#x110;" horiz-adv-x="1601" 
d="M913 709l-385 -0.000976562v-408c0 -70.667 4.33301 -117.667 13 -141c18 -46.667 76.667 -70 176 -70c147.333 0 263 53.333 347 160s126 264.334 126 473.001c0 101.333 -6.33301 186.666 -19 255.999c-29.333 170.667 -104.333 282.334 -225 335.001
c-69.333 30.667 -149.333 46 -240 46s-150 -1.33301 -178 -4v-537h385v-110zM238 708.999l-156 0.00390625v110h156v373c0 65.333 -7 109.666 -21 132.999s-61 37.666 -141 42.999v80c48 -2.66699 153.667 -4 317 -4l318 4c538 0 807 -233.333 807 -700
c0 -250.667 -75.333 -438 -226 -562s-356.667 -186 -618 -186l-281 4c-88.667 0 -194.334 -2 -317.001 -6v80c82 5.33301 129.333 20.666 142 45.999s19.334 68.666 20.001 129.999v455z" />
    <glyph glyph-name="dcroat" unicode="&#x111;" horiz-adv-x="1234" 
d="M799 299v374.999c0 88.667 -16.333 147.334 -49 176.001c-53.333 45.333 -116 68 -188 68s-132.667 -25.333 -182 -76c-50 -50.667 -75 -140 -75 -268s31.333 -228 94 -300c62.667 -70.667 134 -106 214 -106s135 18.333 165 55c14 16.667 21 42 21 76zM799 1153
l-277 0.00195312v96h277c-2 59.333 -9 97 -21 113s-42 42.667 -90 80v39l340 176l35 -19c-8 -150 -12 -279.667 -12 -389h131v-96h-131v-836c-0.666992 -72.667 6.33301 -118.334 21 -137.001s54 -27.334 118 -26.001v-78l-377 -105l-16 13v141
c-39.333 -40.667 -88.333 -74.667 -147 -102s-112.334 -41 -161.001 -41c-122.667 0 -224 42.333 -304 127s-119.667 198 -119 340c0 166 52.667 304.333 158 415s240.333 166 405 166c58.667 0 115.334 -8 170.001 -24v147z" />
    <glyph glyph-name="Emacron" unicode="&#x112;" horiz-adv-x="1284" 
d="M350 1585v152h594v-152h-594zM452 4c-128 0 -253.332 -1.99805 -375.999 -5.99805v80c80.667 4 127.667 19 141 45s20.333 69.667 21 131v938c0 61.333 -7 105 -21 131s-61 41 -141 45v80c122.667 -4 284.667 -6 486 -6s388 2 560 6c10.667 -176 18.334 -279 23.001 -309
l-82 -9c-20.667 86 -51.334 147 -92.001 183c-36.667 30 -108.334 45 -215.001 45s-182.667 -1.33301 -228 -4v-553c132.667 -0.666992 218.334 6.33301 257.001 21s67 71.667 85 171h82c-6.66699 -143.333 -10 -245 -10 -305s1.33301 -117.333 4 -172h-82
c-12 94 -37.333 150.333 -76 169s-125.334 28 -260.001 28v-437c0 -58.667 5.66699 -97.334 17 -116.001c12.667 -26 39 -43.333 79 -52s99.667 -13.334 179 -14.001c132.667 0 222 32 268 96c34 48 63.333 102.667 88 164l80 -16c-30 -128.667 -60.667 -242 -92 -340
c-335.333 4 -567 6 -695 6z" />
    <glyph glyph-name="emacron" unicode="&#x113;" horiz-adv-x="1042" 
d="M276 1192v151h553v-151h-553zM538 940c-56.667 0 -103.999 -21 -141.999 -63c-37.333 -42.667 -60.666 -104.334 -69.999 -185.001c148.667 0 248.667 3.33301 300 10s76.666 25.334 75.999 56.001c0 53.333 -13 97 -39 131c-26.667 34 -68.334 51 -125.001 51z
M317.001 555c0.666992 -118.667 30.998 -211 90.998 -277c60 -66.667 140.667 -100 242 -100s198.666 29.333 291.999 88l45 -61c-135.333 -155.333 -281.666 -233 -438.999 -233s-277.666 48 -360.999 144c-82.667 96 -124 222.333 -124 379
c0.666992 156.667 50.334 285.667 149.001 387s222.667 151.333 372 150c116 0 210 -36 282 -108s108.333 -177.333 109 -316l-656 -2c-1.33301 -12 -2 -29 -2 -51z" />
    <glyph glyph-name="Ebreve" unicode="&#x114;" horiz-adv-x="1284" 
d="M635 1550c-84.667 0 -154.332 23.333 -208.999 70s-84.667 119.667 -90 219l70 8c9.33301 -46 34.666 -80.333 75.999 -103s91 -34 149 -34c133.333 0 212.333 45.667 237 137l70 -4c-1.33301 -90 -31 -161.333 -89 -214s-129.333 -79 -214 -79zM452.002 4
c-128 0 -253.332 -1.99805 -375.999 -5.99805v80c80.667 4 127.667 19 141 45s20.333 69.667 21 131v938c0 61.333 -7 105 -21 131s-61 41 -141 45v80c122.667 -4 284.667 -6 486 -6s388 2 560 6c10.667 -176 18.334 -279 23.001 -309l-82 -9
c-20.667 86 -51.334 147 -92.001 183c-36.667 30 -108.334 45 -215.001 45s-182.667 -1.33301 -228 -4v-553c132.667 -0.666992 218.334 6.33301 257.001 21s67 71.667 85 171h82c-6.66699 -143.333 -10 -245 -10 -305s1.33301 -117.333 4 -172h-82
c-12 94 -37.333 150.333 -76 169s-125.334 28 -260.001 28v-437c0 -58.667 5.66699 -97.334 17 -116.001c12.667 -26 39 -43.333 79 -52s99.667 -13.334 179 -14.001c132.667 0 222 32 268 96c34 48 63.333 102.667 88 164l80 -16c-30 -128.667 -60.667 -242 -92 -340
c-335.333 4 -567 6 -695 6z" />
    <glyph glyph-name="ebreve" unicode="&#x115;" horiz-adv-x="1042" 
d="M524 1141c-172 0 -262.667 94 -272 282l70 9c9.33301 -53.333 30 -91.333 62 -114s80 -34 144 -34s111.667 10.333 143 31c30.667 20.667 52 59.667 64 117l70 -5c-1.33301 -90 -28 -160.333 -80 -211s-119 -75.667 -201 -75zM538 940
c-56.667 0 -103.999 -21 -141.999 -63c-37.333 -42.667 -60.666 -104.334 -69.999 -185.001c148.667 0 248.667 3.33301 300 10s76.666 25.334 75.999 56.001c0 53.333 -13 97 -39 131c-26.667 34 -68.334 51 -125.001 51zM317.001 555
c0.666992 -118.667 30.998 -211 90.998 -277c60 -66.667 140.667 -100 242 -100s198.666 29.333 291.999 88l45 -61c-135.333 -155.333 -281.666 -233 -438.999 -233s-277.666 48 -360.999 144c-82.667 96 -124 222.333 -124 379
c0.666992 156.667 50.334 285.667 149.001 387s222.667 151.333 372 150c116 0 210 -36 282 -108s108.333 -177.333 109 -316l-656 -2c-1.33301 -12 -2 -29 -2 -51z" />
    <glyph glyph-name="Edotaccent" unicode="&#x116;" horiz-adv-x="1284" 
d="M649 1591c-31.333 0 -58 11 -80 33s-32.667 48.667 -32 80c0 31.333 10.667 58.333 32 81c22 22.667 49 34 81 34s58 -11 78 -33s30 -49 30 -81s-10.333 -59 -31 -81s-46.667 -33 -78 -33zM452 4c-128 0 -253.332 -1.99805 -375.999 -5.99805v80
c80.667 4 127.667 19 141 45s20.333 69.667 21 131v938c0 61.333 -7 105 -21 131s-61 41 -141 45v80c122.667 -4 284.667 -6 486 -6s388 2 560 6c10.667 -176 18.334 -279 23.001 -309l-82 -9c-20.667 86 -51.334 147 -92.001 183c-36.667 30 -108.334 45 -215.001 45
s-182.667 -1.33301 -228 -4v-553c132.667 -0.666992 218.334 6.33301 257.001 21s67 71.667 85 171h82c-6.66699 -143.333 -10 -245 -10 -305s1.33301 -117.333 4 -172h-82c-12 94 -37.333 150.333 -76 169s-125.334 28 -260.001 28v-437
c0 -58.667 5.66699 -97.334 17 -116.001c12.667 -26 39 -43.333 79 -52s99.667 -13.334 179 -14.001c132.667 0 222 32 268 96c34 48 63.333 102.667 88 164l80 -16c-30 -128.667 -60.667 -242 -92 -340c-335.333 4 -567 6 -695 6z" />
    <glyph glyph-name="edotaccent" unicode="&#x117;" horiz-adv-x="1042" 
d="M543 1190c-31.333 0 -58 11 -80 33s-33 48.667 -33 80s11 58.333 33 81s49 33.667 81 33c32 0 58 -11 78 -33c20 -21.333 30 -48 30 -80s-10.667 -59 -32 -81c-20 -22 -45.667 -33 -77 -33zM538 940c-56.667 0 -103.999 -21 -141.999 -63
c-37.333 -42.667 -60.666 -104.334 -69.999 -185.001c148.667 0 248.667 3.33301 300 10s76.666 25.334 75.999 56.001c0 53.333 -13 97 -39 131c-26.667 34 -68.334 51 -125.001 51zM317.001 555c0.666992 -118.667 30.998 -211 90.998 -277
c60 -66.667 140.667 -100 242 -100s198.666 29.333 291.999 88l45 -61c-135.333 -155.333 -281.666 -233 -438.999 -233s-277.666 48 -360.999 144c-82.667 96 -124 222.333 -124 379c0.666992 156.667 50.334 285.667 149.001 387s222.667 151.333 372 150
c116 0 210 -36 282 -108s108.333 -177.333 109 -316l-656 -2c-1.33301 -12 -2 -29 -2 -51z" />
    <glyph glyph-name="Eogonek" unicode="&#x118;" horiz-adv-x="1284" 
d="M874 -323c0 -38.667 11.001 -68.334 33.001 -89.001c22 -20 53.667 -30 95 -30s85 10.667 131 32l28 -53c-78 -69.333 -154.333 -104 -229 -104s-131 17 -169 51c-37.333 34 -56 82.333 -56 145c0 112.667 83 236.334 249 371.001
c-193.333 2.66699 -357.666 4 -492.999 4s-264.333 -2 -387 -6v80c80.667 4 127.667 19 141 45s20.333 69.667 21 131v938c0 61.333 -7 105 -21 131s-61 41 -141 45v80c122.667 -4 284.667 -6 486 -6s388 2 560 6c10.667 -176 18.334 -279 23.001 -309l-82 -9
c-20.667 86 -51.334 147 -92.001 183c-36.667 30 -108.334 45 -215.001 45s-182.667 -1.33301 -228 -4v-553c132.667 -0.666992 218.334 6.33301 257.001 21s67 71.667 85 171h82c-6.66699 -143.333 -10 -245 -10 -305s1.33301 -117.333 4 -172h-82
c-12 94 -37.333 150.333 -76 169s-125.334 28 -260.001 28v-437c0 -58.667 5.66699 -97.334 17 -116.001c12.667 -26 39 -43.333 79 -52s99.667 -13.334 179 -14.001c132.667 0 222 32 268 96c34 48 63.333 102.667 88 164l80 -16c-30 -128.667 -60.667 -242 -92 -340l-92 2
c-36.667 -39.333 -65.334 -71.666 -86.001 -96.999s-41.667 -59.666 -63 -102.999s-32 -84.333 -32 -123z" />
    <glyph glyph-name="eogonek" unicode="&#x119;" horiz-adv-x="1042" 
d="M538 940c-56.667 0 -103.999 -21 -141.999 -63c-37.333 -42.667 -60.666 -104.334 -69.999 -185.001c148.667 0 248.667 3.33301 300 10s76.666 25.334 75.999 56.001c0 53.333 -13 97 -39 131c-26.667 34 -68.334 51 -125.001 51zM317.001 555
c0.666992 -118.667 30.332 -210.998 88.999 -276.998s134.334 -99.333 227.001 -100c117.333 0 220.333 29.333 309 88l45 -61c-90 -105.333 -182.667 -174.333 -278 -207c-114.667 -117.333 -172 -220.333 -172 -309c-0.666992 -35.333 9.66602 -63 30.999 -83
s51.333 -30 90 -30s80 11 124 33l29 -51c-75.333 -66.667 -148.666 -100 -219.999 -100s-125.333 16 -162 48c-36 32.667 -54 75 -54 127c0 106.667 69 220 207 340c-6.66699 -1.33301 -17.667 -2 -33 -2c-160 0.666992 -281 47.667 -363 141s-123 218.666 -123 375.999
c0.666992 157.333 50.334 287.333 149.001 390c98.667 103.333 222 154.666 370 153.999c116 0 210.667 -36 284 -108s109.666 -177.333 108.999 -316l-656 -2c-1.33301 -12 -2 -29 -2 -51z" />
    <glyph glyph-name="Ecaron" unicode="&#x11a;" horiz-adv-x="1284" 
d="M393 1917l287 -186l272 188l56 -49c-154 -168 -242.333 -265.667 -265 -293h-145l-252 287zM452 4c-128 0 -253.332 -1.99805 -375.999 -5.99805v80c80.667 4 127.667 19 141 45s20.333 69.667 21 131v938c0 61.333 -7 105 -21 131s-61 41 -141 45v80
c122.667 -4 284.667 -6 486 -6s388 2 560 6c10.667 -176 18.334 -279 23.001 -309l-82 -9c-20.667 86 -51.334 147 -92.001 183c-36.667 30 -108.334 45 -215.001 45s-182.667 -1.33301 -228 -4v-553c132.667 -0.666992 218.334 6.33301 257.001 21s67 71.667 85 171h82
c-6.66699 -143.333 -10 -245 -10 -305s1.33301 -117.333 4 -172h-82c-12 94 -37.333 150.333 -76 169s-125.334 28 -260.001 28v-437c0 -58.667 5.66699 -97.334 17 -116.001c12.667 -26 39 -43.333 79 -52s99.667 -13.334 179 -14.001c132.667 0 222 32 268 96
c34 48 63.333 102.667 88 164l80 -16c-30 -128.667 -60.667 -242 -92 -340c-335.333 4 -567 6 -695 6z" />
    <glyph glyph-name="ecaron" unicode="&#x11b;" horiz-adv-x="1042" 
d="M285 1528l233 -211l236 215l57 -39c-96.667 -131.333 -178.667 -247.333 -246 -348h-104l-230 340zM538 940c-56.667 0 -103.999 -21 -141.999 -63c-37.333 -42.667 -60.666 -104.334 -69.999 -185.001c148.667 0 248.667 3.33301 300 10s76.666 25.334 75.999 56.001
c0 53.333 -13 97 -39 131c-26.667 34 -68.334 51 -125.001 51zM317.001 555c0.666992 -118.667 30.998 -211 90.998 -277c60 -66.667 140.667 -100 242 -100s198.666 29.333 291.999 88l45 -61c-135.333 -155.333 -281.666 -233 -438.999 -233s-277.666 48 -360.999 144
c-82.667 96 -124 222.333 -124 379c0.666992 156.667 50.334 285.667 149.001 387s222.667 151.333 372 150c116 0 210 -36 282 -108s108.333 -177.333 109 -316l-656 -2c-1.33301 -12 -2 -29 -2 -51z" />
    <glyph glyph-name="Gcircumflex" unicode="&#x11c;" horiz-adv-x="1572" 
d="M1145 1538l-287 186l-272 -188l-56 49c154 168 242.333 265.667 265 293h145l252 -287zM1143 375c0 61.333 -12.3291 101 -36.9961 119s-75.334 30 -152.001 36v80c98.667 -2.66699 204.667 -4 318 -4s213.666 1.33301 300.999 4v-78
c-72.667 -6.66699 -117.667 -18 -135 -34s-26.333 -59 -27 -129c0 -139.333 5.33301 -239 16 -299c-190 -65.333 -367.333 -98.333 -532 -99c-251.333 0 -449.333 66.333 -594 199s-217 314 -217 544s76.667 414 230 552s346.333 207 579 207c142 0 262 -15.333 360 -46
c5.33301 -1.33301 50.666 -14 135.999 -38c12 -139.333 22.667 -246.666 32 -321.999l-96 -8c-28.667 118.667 -72.667 202.667 -132 252c-59.333 48.667 -158.333 73 -297 73s-254.334 -57.667 -347.001 -173s-139 -266.333 -139 -453s36.667 -344.334 110 -473.001
c38 -66 92 -119 162 -159s156 -60 258 -60s163 23.667 183 71c13.333 30.667 20 110 20 238z" />
    <glyph glyph-name="gcircumflex" unicode="&#x11d;" horiz-adv-x="1034" 
d="M733 1133l-233 210.001l-236 -215l-57 39c96.667 131.333 178.667 247.666 246 348.999h104c40.667 -64 117 -177.333 229 -340zM334 709.001c0 -184 50.332 -276.332 150.999 -276.999c91.333 0 137.333 80 138 240c0 187.333 -47.333 280.666 -142 279.999
c-47.333 0 -83.666 -21 -108.999 -63s-38 -102 -38 -180zM828.999 -206.998c0 109.333 -115.333 164 -346 164c-108 0 -170 -7.66699 -186 -23c-49.333 -44 -74 -93.333 -74 -148s30 -101.667 90 -141s134.667 -59 224 -59s160.333 20 213 60s79 89 79 147zM296.999 280.002
c0 -24 11.6689 -44.333 35.002 -61c22.667 -16.667 86.667 -25 192 -25s184.333 -2 237 -6c52.667 -5.33301 98 -16.666 136 -33.999s70 -47.333 96 -90s39 -92 39 -148c0 -122.667 -58.333 -226.667 -175 -312s-254.334 -128 -413.001 -128
c-126.667 0 -229.667 26.667 -309 80s-119 117.333 -119 192c0 40 14 76 42 108s88.667 74.667 182 128c-52 22 -92 52.667 -120 92s-42 81.666 -42 126.999l184 182c-124 58.667 -186 159 -186 301c0 100 37 183 111 249s171 99 291 99s207.667 -23 263 -69h277v-115h-172
c23.333 -38 35 -89.333 35 -154c0 -102.667 -37.333 -186 -112 -250s-173.334 -96 -296.001 -96l-102 6c-16.667 0 -33 -6.66699 -49 -20s-24.333 -32 -25 -56z" />
    <glyph glyph-name="Gbreve" unicode="&#x11e;" horiz-adv-x="1572" 
d="M829 1550c-84.667 0 -154.33 23.333 -208.997 70s-84.667 119.667 -90 219l70 8c9.33301 -46 34.666 -80.333 75.999 -103s91 -34 149 -34c134 0 213.333 45.667 238 137l70 -4c-0.666992 -90 -30.334 -161.333 -89.001 -214s-130.334 -79 -215.001 -79zM1143 375
c0 61.333 -12.3291 101 -36.9961 119s-75.334 30 -152.001 36v80c98.667 -2.66699 204.667 -4 318 -4s213.666 1.33301 300.999 4v-78c-72.667 -6.66699 -117.667 -18 -135 -34s-26.333 -59 -27 -129c0 -139.333 5.33301 -239 16 -299
c-190 -65.333 -367.333 -98.333 -532 -99c-251.333 0 -449.333 66.333 -594 199s-217 314 -217 544s76.667 414 230 552s346.333 207 579 207c142 0 262 -15.333 360 -46c5.33301 -1.33301 50.666 -14 135.999 -38c12 -139.333 22.667 -246.666 32 -321.999l-96 -8
c-28.667 118.667 -72.667 202.667 -132 252c-59.333 48.667 -158.333 73 -297 73s-254.334 -57.667 -347.001 -173s-139 -266.333 -139 -453s36.667 -344.334 110 -473.001c38 -66 92 -119 162 -159s156 -60 258 -60s163 23.667 183 71c13.333 30.667 20 110 20 238z" />
    <glyph glyph-name="gbreve" unicode="&#x11f;" horiz-adv-x="1034" 
d="M475 1141c-172 0 -262.667 94 -272 282l69 9c9.33301 -53.333 30 -91.333 62 -114s80.333 -34 145 -34c64 0 111.667 10.333 143 31c30.667 20.667 52 59.667 64 117l70 -5c-1.33301 -90 -28 -160.333 -80 -211s-119 -75.667 -201 -75zM334 709
c0 -184 50.332 -276.332 150.999 -276.999c91.333 0 137.333 80 138 240c0 187.333 -47.333 280.666 -142 279.999c-47.333 0 -83.666 -21 -108.999 -63s-38 -102 -38 -180zM828.999 -206.999c0 109.333 -115.333 164 -346 164c-108 0 -170 -7.66699 -186 -23
c-49.333 -44 -74 -93.333 -74 -148s30 -101.667 90 -141s134.667 -59 224 -59s160.333 20 213 60s79 89 79 147zM296.999 280.001c0 -24 11.6689 -44.333 35.002 -61c22.667 -16.667 86.667 -25 192 -25s184.333 -2 237 -6c52.667 -5.33301 98 -16.666 136 -33.999
s70 -47.333 96 -90s39 -92 39 -148c0 -122.667 -58.333 -226.667 -175 -312s-254.334 -128 -413.001 -128c-126.667 0 -229.667 26.667 -309 80s-119 117.333 -119 192c0 40 14 76 42 108s88.667 74.667 182 128c-52 22 -92 52.667 -120 92s-42 81.666 -42 126.999l184 182
c-124 58.667 -186 159 -186 301c0 100 37 183 111 249s171 99 291 99s207.667 -23 263 -69h277v-115h-172c23.333 -38 35 -89.333 35 -154c0 -102.667 -37.333 -186 -112 -250s-173.334 -96 -296.001 -96l-102 6c-16.667 0 -33 -6.66699 -49 -20s-24.333 -32 -25 -56z" />
    <glyph glyph-name="Gdotaccent" unicode="&#x120;" horiz-adv-x="1572" 
d="M874 1591c-32 0 -58.667 11 -80 33s-32 48.667 -32 80s11 58.333 33 81s49 34 81 34s58 -11 78 -33s29.667 -49 29 -81c0 -32 -10.333 -59 -31 -81s-46.667 -33 -78 -33zM1143 375c0 61.333 -12.3291 101 -36.9961 119s-75.334 30 -152.001 36v80
c98.667 -2.66699 204.667 -4 318 -4s213.666 1.33301 300.999 4v-78c-72.667 -6.66699 -117.667 -18 -135 -34s-26.333 -59 -27 -129c0 -139.333 5.33301 -239 16 -299c-190 -65.333 -367.333 -98.333 -532 -99c-251.333 0 -449.333 66.333 -594 199s-217 314 -217 544
s76.667 414 230 552s346.333 207 579 207c142 0 262 -15.333 360 -46c5.33301 -1.33301 50.666 -14 135.999 -38c12 -139.333 22.667 -246.666 32 -321.999l-96 -8c-28.667 118.667 -72.667 202.667 -132 252c-59.333 48.667 -158.333 73 -297 73
s-254.334 -57.667 -347.001 -173s-139 -266.333 -139 -453s36.667 -344.334 110 -473.001c38 -66 92 -119 162 -159s156 -60 258 -60s163 23.667 183 71c13.333 30.667 20 110 20 238z" />
    <glyph glyph-name="gdotaccent" unicode="&#x121;" horiz-adv-x="1034" 
d="M518 1190c-31.333 0 -58 11 -80 33s-32.667 48.667 -32 80c0 31.333 10.667 58.333 32 81s48.333 33.667 81 33c32 0 58 -11 78 -33c20 -21.333 30 -48 30 -80s-10.333 -59 -31 -81s-46.667 -33 -78 -33zM334 709c0 -184 50.332 -276.332 150.999 -276.999
c91.333 0 137.333 80 138 240c0 187.333 -47.333 280.666 -142 279.999c-47.333 0 -83.666 -21 -108.999 -63s-38 -102 -38 -180zM828.999 -206.999c0 109.333 -115.333 164 -346 164c-108 0 -170 -7.66699 -186 -23c-49.333 -44 -74 -93.333 -74 -148s30 -101.667 90 -141
s134.667 -59 224 -59s160.333 20 213 60s79 89 79 147zM296.999 280.001c0 -24 11.6689 -44.333 35.002 -61c22.667 -16.667 86.667 -25 192 -25s184.333 -2 237 -6c52.667 -5.33301 98 -16.666 136 -33.999s70 -47.333 96 -90s39 -92 39 -148
c0 -122.667 -58.333 -226.667 -175 -312s-254.334 -128 -413.001 -128c-126.667 0 -229.667 26.667 -309 80s-119 117.333 -119 192c0 40 14 76 42 108s88.667 74.667 182 128c-52 22 -92 52.667 -120 92s-42 81.666 -42 126.999l184 182c-124 58.667 -186 159 -186 301
c0 100 37 183 111 249s171 99 291 99s207.667 -23 263 -69h277v-115h-172c23.333 -38 35 -89.333 35 -154c0 -102.667 -37.333 -186 -112 -250s-173.334 -96 -296.001 -96l-102 6c-16.667 0 -33 -6.66699 -49 -20s-24.333 -32 -25 -56z" />
    <glyph glyph-name="Gcommaaccent" unicode="&#x122;" horiz-adv-x="1572" 
d="M799 -371c0 44 -29.333 94.665 -88 151.998l151 121c74 -75.333 111 -145.666 111 -210.999c0 -87.333 -82 -195.333 -246 -324l-47 47c79.333 70.667 119 142.334 119 215.001zM1143 374.998c0 61.333 -12.3291 101 -36.9961 119s-75.334 30 -152.001 36v80
c98.667 -2.66699 204.667 -4 318 -4s213.666 1.33301 300.999 4v-78c-72.667 -6.66699 -117.667 -18 -135 -34s-26.333 -59 -27 -129c0 -139.333 5.33301 -239 16 -299c-190 -65.333 -367.333 -98.333 -532 -99c-251.333 0 -449.333 66.333 -594 199s-217 314 -217 544
s76.667 414 230 552s346.333 207 579 207c142 0 262 -15.333 360 -46c5.33301 -1.33301 50.666 -14 135.999 -38c12 -139.333 22.667 -246.666 32 -321.999l-96 -8c-28.667 118.667 -72.667 202.667 -132 252c-59.333 48.667 -158.333 73 -297 73
s-254.334 -57.667 -347.001 -173s-139 -266.333 -139 -453s36.667 -344.334 110 -473.001c38 -66 92 -119 162 -159s156 -60 258 -60s163 23.667 183 71c13.333 30.667 20 110 20 238z" />
    <glyph glyph-name="gcommaaccent" unicode="&#x123;" horiz-adv-x="1034" 
d="M334 709c0 -184 50.332 -276.332 150.999 -276.999c91.333 0 137.333 80 138 240c0 187.333 -47.333 280.666 -142 279.999c-47.333 0 -83.666 -21 -108.999 -63s-38 -102 -38 -180zM828.999 -206.999c0 109.333 -115.333 164 -346 164c-108 0 -170 -7.66699 -186 -23
c-49.333 -44 -74 -93.333 -74 -148s30 -101.667 90 -141s134.667 -59 224 -59s160.333 20 213 60s79 89 79 147zM296.999 280.001c0 -24 11.6689 -44.333 35.002 -61c22.667 -16.667 86.667 -25 192 -25s184.333 -2 237 -6c52.667 -5.33301 98 -16.666 136 -33.999
s70 -47.333 96 -90s39 -92 39 -148c0 -122.667 -58.333 -226.667 -175 -312s-254.334 -128 -413.001 -128c-126.667 0 -229.667 26.667 -309 80s-119 117.333 -119 192c0 40 14 76 42 108s88.667 74.667 182 128c-52 22 -92 52.667 -120 92s-42 81.666 -42 126.999l184 182
c-124 58.667 -186 159 -186 301c0 100 37 183 111 249s171 99 291 99s207.667 -23 263 -69h277v-115h-172c23.333 -38 35 -89.333 35 -154c0 -102.667 -37.333 -186 -112 -250s-173.334 -96 -296.001 -96l-102 6c-16.667 0 -33 -6.66699 -49 -20s-24.333 -32 -25 -56z
M344.001 1348c0 95.333 88.667 210.668 266 346.001l52 -52c-86 -76.667 -129.333 -153 -130 -229c0 -48 32.333 -102 97 -162l-166 -129c-79.333 79.333 -119 154.666 -119 225.999z" />
    <glyph glyph-name="Hcircumflex" unicode="&#x124;" horiz-adv-x="1669" 
d="M1083 1538l-286.001 186l-273 -188l-55 49c154 168 242 265.667 264 293h146c14.667 -18 98.334 -113.667 251.001 -287zM529.999 805l608.999 0.00195312v387c0 61.333 -6.33301 104.333 -19 129c-13.333 24.667 -61 40.334 -143 47.001v80c122.667 -4 227 -6 313 -6
s186.333 2 301 6v-80c-79.333 -6.66699 -126 -20.334 -140 -41.001s-21 -67 -21 -139v-930c0 -68 6.66699 -113.333 20 -136s60.333 -37.334 141 -44.001v-80c-114.667 4 -215 6 -301 6s-190.333 -2 -313 -6v80c82 5.33301 129.333 20 142 44s19.334 68 20.001 132v455h-609
v-451c0 -68 6.66699 -113.333 20 -136s60.666 -37.334 141.999 -44.001v-80c-114.667 4 -215 6 -301 6s-190.333 -2 -313 -6v80c82 5.33301 129.333 20 142 44s19.334 68 20.001 132v938c0 61.333 -6.33301 104.333 -19 129c-13.333 24.667 -61 40.334 -143 47.001v80
c122.667 -4 227 -6 313 -6s186.333 2 301 6v-80c-79.333 -6.66699 -126 -20.334 -140 -41.001s-21.333 -67 -22 -139v-383z" />
    <glyph glyph-name="hcircumflex" unicode="&#x125;" horiz-adv-x="1239" 
d="M618 1642l-286 187l-273 -189l-55 50c154 168 242 265.333 264 292h146l252 -286zM432 1174v-307.997c143.333 110.667 256 166 338 166c42 0 85 -9.33301 129 -28s76 -43.334 96 -74.001c44 -64 66 -174 66 -330v-332c-0.666992 -82.667 6.33301 -134 21 -154
s52.667 -33.333 114 -40v-76c-88 2.66699 -172 4 -252 4s-170.667 -1.33301 -272 -4v76c58.667 6.66699 96 23 112 49s24.333 122.333 25 289c0 166.667 -12 282 -36 346c-23.333 64 -71.666 96 -144.999 96s-129 -19.667 -167 -59
c-19.333 -20.667 -29 -80.334 -29 -179.001v-366c0 -65.333 6.66699 -109 20 -131s52.333 -37 117 -45v-76c-79.333 2.66699 -165.333 4 -258 4s-180 -1.33301 -262 -4v76c63.333 2.66699 101 18.667 113 48s18 70.666 18 123.999v973c0 80.667 -10 133 -30 157
c-10.667 15.333 -37.334 38 -80.001 68v39l340 176l34 -19c-8 -146.667 -12 -302 -12 -466z" />
    <glyph glyph-name="Hbar" unicode="&#x126;" horiz-adv-x="1669" 
d="M530 805h609v194h-609v-194zM1599 999l-169.001 0.00195312v-741c0 -68 6.66699 -113.333 20 -136s60.333 -37.334 141 -44.001v-80c-114.667 4 -215 6 -301 6s-190.333 -2 -313 -6v80c82 5.33301 129.333 20 142 44s19.334 68 20.001 132v455h-609v-451
c0 -68 6.66699 -113.333 20 -136s60.666 -37.334 141.999 -44.001v-80c-114.667 4 -215 6 -301 6s-190.333 -2 -313 -6v80c82 5.33301 129.333 20 142 44s19.334 68 20.001 132v745h-170v103h170v90c0 61.333 -6.33301 104.333 -19 129
c-13.333 24.667 -61 40.334 -143 47.001v80c122.667 -4 227 -6 313 -6s186.333 2 301 6v-80c-79.333 -6.66699 -126 -20.334 -140 -41.001s-21.333 -67 -22 -139v-86h609v90c0 61.333 -6.33301 104.333 -19 129c-13.333 24.667 -61 40.334 -143 47.001v80
c122.667 -4 227 -6 313 -6s186.333 2 301 6v-80c-79.333 -6.66699 -126 -20.334 -140 -41.001s-21 -67 -21 -139v-86h169v-103z" />
    <glyph glyph-name="hbar" unicode="&#x127;" horiz-adv-x="1239" 
d="M180 1153l-133 0.00195312v96h133c-1.33301 60 -9.33301 100 -24 120s-43.334 45 -86.001 75v39l340 176l34 -19c-8 -155.333 -12 -285.666 -12 -390.999h275v-96h-275v-287c143.333 110.667 256 166 338 166c42 0 85 -9.33301 129 -28s76 -43.334 96 -74.001
c44 -64 66 -174 66 -330v-332c-0.666992 -82.667 6.33301 -134 21 -154s52.667 -33.333 114 -40v-76c-88 2.66699 -172 4 -252 4s-170.667 -1.33301 -272 -4v76c58.667 6.66699 96 23 112 49s24.333 122.333 25 289c0 166.667 -12 282 -36 346
c-23.333 64 -71.666 96 -144.999 96s-129 -19.667 -167 -59c-19.333 -20.667 -29 -80.334 -29 -179.001v-366c0 -65.333 6.66699 -109 20 -131s52.333 -37 117 -45v-76c-79.333 2.66699 -165.333 4 -258 4s-180 -1.33301 -262 -4v76c63.333 2.66699 101 18.667 113 48
s18 70.666 18 123.999v907z" />
    <glyph glyph-name="Itilde" unicode="&#x128;" horiz-adv-x="774" 
d="M551 1714c32.667 0 68.001 33.667 106.001 101l60 -25c-64 -151.333 -127 -227 -189 -227c-35.333 0 -80.333 10.667 -135 32l-63 25c-42 16.667 -74.667 25 -98 25c-23.333 -0.666992 -43.333 -7 -60 -19s-34.334 -36 -53.001 -72l-62 23c23.333 60 53.333 112 90 156
s75 65.667 115 65c20.667 0 61.667 -10.333 123 -31l70 -28c38 -16.667 70 -25 96 -25zM535.001 1188l-0.000976562 -930c0 -68 6.66699 -113.333 20 -136s60.333 -37.334 141 -44.001v-80c-114.667 4 -215.667 6 -303 6s-192.333 -2 -315 -6v80
c82 5.33301 129.333 20 142 44s19.334 68 20.001 132v938c0 61.333 -6.33301 104.333 -19 129c-13.333 24.667 -61 40.334 -143 47.001v80c122.667 -4 227.667 -6 315 -6s188.333 2 303 6v-80c-79.333 -6.66699 -126 -20 -140 -40s-21 -66.667 -21 -140z" />
    <glyph glyph-name="itilde" unicode="&#x129;" horiz-adv-x="622" 
d="M193 1403c14.667 0 52.666 -10.333 113.999 -31l66 -29c36.667 -16.667 67.334 -24.667 92.001 -24c30 0 62.667 33.333 98 100l58 -24c-60 -151.333 -119.667 -227.333 -179 -228c-28.667 0 -71 11 -127 33l-59 25c-68 28 -117.333 30 -148 6c-16 -12 -33 -36 -51 -72
l-57 23c22 58.667 50.667 110 86 154s71 66.333 107 67zM437.999 623v-372.997c0 -69.333 7.33301 -114.333 22 -135s53 -34.334 115 -41.001v-76c-79.333 2.66699 -165.333 4 -258 4s-180 -1.33301 -262 -4v76c63.333 2.66699 101 17.667 113 45s18 71.666 18 132.999v344
c0 72.667 -6.33301 123.667 -19 153s-43 59.666 -91 90.999v37l336 186l32 -16c-4 -80.667 -6 -222 -6 -424z" />
    <glyph glyph-name="Imacron" unicode="&#x12a;" horiz-adv-x="774" 
d="M86 1585v152h594v-152h-594zM535 1188l-0.000976562 -930c0 -68 6.66699 -113.333 20 -136s60.333 -37.334 141 -44.001v-80c-114.667 4 -215.667 6 -303 6s-192.333 -2 -315 -6v80c82 5.33301 129.333 20 142 44s19.334 68 20.001 132v938
c0 61.333 -6.33301 104.333 -19 129c-13.333 24.667 -61 40.334 -143 47.001v80c122.667 -4 227.667 -6 315 -6s188.333 2 303 6v-80c-79.333 -6.66699 -126 -20 -140 -40s-21 -66.667 -21 -140z" />
    <glyph glyph-name="imacron" unicode="&#x12b;" horiz-adv-x="622" 
d="M35 1192v151h553v-151h-553zM438 623v-372.997c0 -69.333 7.33301 -114.333 22 -135s53 -34.334 115 -41.001v-76c-79.333 2.66699 -165.333 4 -258 4s-180 -1.33301 -262 -4v76c63.333 2.66699 101 17.667 113 45s18 71.666 18 132.999v344
c0 72.667 -6.33301 123.667 -19 153s-43 59.666 -91 90.999v37l336 186l32 -16c-4 -80.667 -6 -222 -6 -424z" />
    <glyph glyph-name="Ibreve" unicode="&#x12c;" horiz-adv-x="774" 
d="M383 1550c-84.667 0 -154.332 23.333 -208.999 70s-84.667 119.667 -90 219l70 8c9.33301 -46 34.666 -80.333 75.999 -103s91 -34 149 -34c133.333 0 212.333 45.667 237 137l70 -4c-1.33301 -90 -31 -161.333 -89 -214s-129.333 -79 -214 -79zM535.002 1188
l-0.000976562 -930c0 -68 6.66699 -113.333 20 -136s60.333 -37.334 141 -44.001v-80c-114.667 4 -215.667 6 -303 6s-192.333 -2 -315 -6v80c82 5.33301 129.333 20 142 44s19.334 68 20.001 132v938c0 61.333 -6.33301 104.333 -19 129
c-13.333 24.667 -61 40.334 -143 47.001v80c122.667 -4 227.667 -6 315 -6s188.333 2 303 6v-80c-79.333 -6.66699 -126 -20 -140 -40s-21 -66.667 -21 -140z" />
    <glyph glyph-name="ibreve" unicode="&#x12d;" horiz-adv-x="622" 
d="M307 1141c-172 0 -262.667 94 -272 282l69 9c9.33301 -53.333 30 -91.333 62 -114s80.333 -34 145 -34c64 0 111.667 10.333 143 31c30.667 20.667 52 59.667 64 117l70 -5c-1.33301 -90 -28 -160.333 -80 -211s-119 -75.667 -201 -75zM438 623v-372.997
c0 -69.333 7.33301 -114.333 22 -135s53 -34.334 115 -41.001v-76c-79.333 2.66699 -165.333 4 -258 4s-180 -1.33301 -262 -4v76c63.333 2.66699 101 17.667 113 45s18 71.666 18 132.999v344c0 72.667 -6.33301 123.667 -19 153s-43 59.666 -91 90.999v37l336 186l32 -16
c-4 -80.667 -6 -222 -6 -424z" />
    <glyph glyph-name="Iogonek" unicode="&#x12e;" horiz-adv-x="774" 
d="M535 1188v-929.997c0 -68 6.66699 -113.333 20 -136s60.333 -37.334 141 -44.001v-80c-49.333 2.66699 -112 4 -188 4l-87 -96c-21.333 -24.667 -43 -59.334 -65 -104.001c-21.333 -44.667 -32 -86.334 -32 -125.001s10.667 -68.334 32 -89.001
c21.333 -20 52.666 -30 93.999 -30s85.333 10.667 132 32l28 -53c-78 -69.333 -154.333 -104 -229 -104s-131 17 -169 51c-37.333 34 -56 82.333 -56 145c0 113.333 84.667 238.333 254 375h-23c-83.333 0 -186.333 -2 -309 -6v80c82 5.33301 129.333 20 142 44
s19.334 68 20.001 132v938c0 61.333 -6.33301 104.333 -19 129c-13.333 24.667 -61 40.334 -143 47.001v80c122.667 -4 227.667 -6 315 -6s188.333 2 303 6v-80c-79.333 -6.66699 -126 -20 -140 -40s-21 -66.667 -21 -140z" />
    <glyph glyph-name="iogonek" unicode="&#x12f;" horiz-adv-x="622" 
d="M455 1372c0 -42 -14.0029 -76.667 -42.0029 -104c-27.333 -27.333 -61.666 -41 -102.999 -41s-76.666 14 -105.999 42s-44 62.667 -44 104c0 40.667 14.667 75 44 103s64.333 42 105 42s75.334 -13.667 104.001 -41c28 -28 42 -63 42 -105zM253.997 -308
c0 -37.333 10.666 -65.999 31.999 -85.999s51.333 -30 90 -30s80 11 124 33l28 -51c-75.333 -66.667 -148.666 -100 -219.999 -100s-125.333 16 -162 48c-36 32.667 -54 79 -54 139c0 59.333 21.667 118.333 65 177s102.333 118.667 177 180h-17
c-92.667 0 -180 -1.33301 -262 -4v76c63.333 2.66699 101 17.667 113 45s18 71.666 18 132.999v344c0 72.667 -6.33301 123.667 -19 153s-43 59.666 -91 90.999v37l336 186l32 -16c-4 -80.667 -6 -222 -6 -424v-373c0 -69.333 7.33301 -114.333 22 -135
s53 -34.334 115 -41.001v-76c-24 2.66699 -72.333 4 -145 4c-34 -35.333 -61.667 -65.666 -83 -90.999c-22 -25.333 -43 -58.666 -63 -99.999c-20 -42 -30 -81.667 -30 -119z" />
    <glyph glyph-name="Idotaccent" unicode="&#x130;" horiz-adv-x="774" 
d="M395 1591c-31.333 0 -58 11 -80 33s-32.667 48.667 -32 80c0 31.333 10.667 58.333 32 81c22 22.667 49 34 81 34s58 -11 78 -33s30 -49 30 -81s-10.333 -59 -31 -81s-46.667 -33 -78 -33zM535 1188l-0.000976562 -930c0 -68 6.66699 -113.333 20 -136
s60.333 -37.334 141 -44.001v-80c-114.667 4 -215.667 6 -303 6s-192.333 -2 -315 -6v80c82 5.33301 129.333 20 142 44s19.334 68 20.001 132v938c0 61.333 -6.33301 104.333 -19 129c-13.333 24.667 -61 40.334 -143 47.001v80c122.667 -4 227.667 -6 315 -6
s188.333 2 303 6v-80c-79.333 -6.66699 -126 -20 -140 -40s-21 -66.667 -21 -140z" />
    <glyph glyph-name="dotlessi" unicode="&#x131;" horiz-adv-x="622" 
d="M438 623v-372.997c0 -69.333 7.33301 -114.333 22 -135s53 -34.334 115 -41.001v-76c-79.333 2.66699 -165.333 4 -258 4s-180 -1.33301 -262 -4v76c63.333 2.66699 101 17.667 113 45s18 71.666 18 132.999v344c0 72.667 -6.33301 123.667 -19 153
s-43 59.666 -91 90.999v37l336 186l32 -16c-4 -80.667 -6 -222 -6 -424z" />
    <glyph glyph-name="IJ" unicode="&#x132;" horiz-adv-x="1509" 
d="M909 -213c74 0 111 80.666 111 241.999v1147c0 70.667 -6.66699 118 -20 142s-67.333 40.667 -162 50v80c122.667 -4 230.334 -6 323.001 -6s196.667 2 312 6v-80c-80.667 -8 -127.667 -22 -141 -42s-20.333 -66.667 -21 -140v-617l2 -340
c-0.666992 -87.333 -20.334 -169.666 -59.001 -246.999s-85.667 -140.333 -141 -189c-55.333 -48 -111 -86 -167 -114c-56 -27.333 -103.667 -41 -143 -41s-79 5.33301 -119 16l57 170c58.667 -24.667 114.667 -37 168 -37zM535 1188l-0.000976562 -930
c0 -68 6.66699 -113.333 20 -136s60.333 -37.334 141 -44.001v-80c-114.667 4 -215.667 6 -303 6s-192.333 -2 -315 -6v80c82 5.33301 129.333 20 142 44s19.334 68 20.001 132v938c0 61.333 -6.33301 104.333 -19 129c-13.333 24.667 -61 40.334 -143 47.001v80
c122.667 -4 227.667 -6 315 -6s188.333 2 303 6v-80c-79.333 -6.66699 -126 -20 -140 -40s-21 -66.667 -21 -140z" />
    <glyph glyph-name="ij" unicode="&#x133;" horiz-adv-x="1163" 
d="M776 104v492.002c0 72.667 -6.33301 123.667 -19 153s-43 59.666 -91 90.999v37l335 186l33 -16c-4 -80.667 -6 -222 -6 -424l6 -488c0 -80.667 -5 -142.334 -15 -185.001s-28 -86.667 -54 -132c-46.667 -78 -146.334 -175.667 -299.001 -293l-56 61
c94.667 90 147.334 185 158.001 285c5.33301 50 8 127.667 8 233zM1044 1372c0 -42 -14 -76.667 -42 -104s-62.333 -41 -103 -41s-75.667 14 -105 42s-44 62.667 -44 104c0 40.667 14.667 75 44 103s64.333 42 105 42s75 -14 103 -42s42 -62.667 42 -104zM438 623.002
v-372.997c0 -69.333 7.33301 -114.333 22 -135s53 -34.334 115 -41.001v-76c-79.333 2.66699 -165.333 4 -258 4s-180 -1.33301 -262 -4v76c63.333 2.66699 101 17.667 113 45s18 71.666 18 132.999v344c0 72.667 -6.33301 123.667 -19 153s-43 59.666 -91 90.999v37
l336 186l32 -16c-4 -80.667 -6 -222 -6 -424zM455 1372c0 -42 -14.0029 -76.667 -42.0029 -104c-27.333 -27.333 -61.666 -41 -102.999 -41s-76.666 14 -105.999 42s-44 62.667 -44 104c0 40.667 14.667 75 44 103s64.333 42 105 42s75.334 -13.667 104.001 -41
c28 -28 42 -63 42 -105z" />
    <glyph glyph-name="Jcircumflex" unicode="&#x134;" horiz-adv-x="735" 
d="M664 1538l-287 186c-105.333 -75.333 -196.333 -138 -273 -188l-55 49c154 168 242 265.667 264 293h146l252 -287zM135 -213c74 0 111 80.666 111 241.999v1147c0 70.667 -6.66699 118 -20 142s-67.666 40.667 -162.999 50v80c122 -4 229.667 -6 323 -6s197.333 2 312 6
v-80c-80.667 -8 -127.667 -22 -141 -42s-20 -66.667 -20 -140v-617l2 -340c-0.666992 -87.333 -20.334 -169.666 -59.001 -246.999s-85.667 -140.333 -141 -189c-55.333 -48 -111 -86 -167 -114c-56 -27.333 -103.667 -41 -143 -41s-79 5.33301 -119 16l57 170
c58.667 -24.667 114.667 -37 168 -37z" />
    <glyph glyph-name="jcircumflex" unicode="&#x135;" horiz-adv-x="540" 
d="M508 1133l-234.001 210.001l-235 -215l-57 39c96.667 131.333 178.334 247.666 245.001 348.999h105c40.667 -64 117 -177.333 229 -340zM153.999 104.001v492.002c0 72.667 -6.66699 123.667 -20 153s-43.666 59.666 -90.999 90.999v37l336 186l33 -16
c-4 -80.667 -6 -222 -6 -424l6 -488c0 -80.667 -5.33301 -142.334 -16 -185.001s-28.667 -86.667 -54 -132c-46.667 -78 -146.334 -175.667 -299.001 -293l-55 61c94 89.333 146.333 184.333 157 285c6 50 9 127.667 9 233z" />
    <glyph glyph-name="Kcommaaccent" unicode="&#x136;" horiz-adv-x="1542" 
d="M725 -371c0 44 -29.333 94.665 -88 151.998l151 121c74 -75.333 111 -145.666 111 -210.999c0 -87.333 -82 -195.333 -246 -324l-47 47c79.333 70.667 119 142.334 119 215.001zM528 691.998l-0.00195312 -434.001c0 -68 6.66699 -113.333 20 -136
s56.666 -37.334 129.999 -44.001v-80c-114.667 4 -213 6 -295 6s-184.333 -2 -307 -6v80c82 5.33301 129.333 20 142 44s19.334 68 20.001 132v938c0 61.333 -6.33301 104.333 -19 129c-13.333 24.667 -61 40.334 -143 47.001v80c122.667 -4 226.334 -6 311.001 -6
s184.334 2 299.001 6v-80c-76.667 -6.66699 -122 -20.334 -136 -41.001s-21.333 -67 -22 -139v-408c38 0 73.667 13 107 39c80.667 65.333 200 191 358 377c38 46.667 57 82.334 57 107.001s-9 41.334 -27 50.001c-18.667 8.66699 -51 13.667 -97 15v80
c34 -4 108.667 -6 224 -6s203.666 2 264.999 6v-76c-56 -6.66699 -96.333 -17.334 -121 -32.001c-25.333 -14.667 -78.666 -66 -159.999 -154l-311 -330l502 -639c45.333 -57.333 84 -95 116 -113s65 -26.667 99 -26v-80c-141.333 5.33301 -265.333 8 -372 8
s-206.667 -2.66699 -300 -8v80c76.667 2.66699 115 20.334 115 53.001c0 23.333 -21.667 65 -65 125l-232 303c-66 88.667 -118.667 133 -158 133z" />
    </font>
</defs>
</svg>
