<?xml version="1.0" standalone="no"?>
<!DOCTYPE svg PUBLIC "-//W3C//DTD SVG 1.1//EN" "http://www.w3.org/Graphics/SVG/1.1/DTD/svg11.dtd" >
<svg>
<metadata>
Created by FontForge 20090914 at Tue Sep 22 05:03:16 2015
 By www-data
Copyright (c) 2011 by Dieter Hofrichter. All rights reserved.
</metadata>
<defs>
<font id="Erato-LightItalic" horiz-adv-x="749" >
  <font-face 
    font-family="Erato-LightItalic"
    font-weight="300"
    font-style="italic"
    font-stretch="normal"
    units-per-em="2048"
    panose-1="2 0 5 0 0 0 0 9 0 4"
    ascent="1546"
    descent="-502"
    x-height="1001"
    cap-height="1448"
    bbox="-352.005 -616 2367.01 2044"
    underline-thickness="0"
    underline-position="0"
    unicode-range="U+0020-U+FB06"
  />
<missing-glyph horiz-adv-x="1073" 
d="M106 1298v-1093l367 547zM172 106h729l-364 549zM600 752l367 -547v1093zM537 848l364 547h-729zM0 0v1503h1073v-1503h-1073z" />
    <glyph glyph-name="f_f" unicode="ff" horiz-adv-x="1216" 
d="M-172 -551c-45.333 0 -90.335 10.3301 -135.002 30.9971l69 129c37.333 -26 80.666 -39 129.999 -39s90.666 19 123.999 57c56 64 113.333 223 172 477l170 746h-180l25 68c91.333 10.667 147.333 26.334 168 47.001s43 67.667 67 141s46.333 130.666 67 171.999
c21.333 40.667 54.333 86.334 99 137.001c78 87.333 182.667 131 314 131c28.667 0 60.667 -4.33301 96 -13s61.333 -18 78 -28l-82 -137c-56 41.333 -118 62 -186 62s-124.333 -31 -169 -93c-27.333 -42 -58 -130 -92 -264l-33 -129h220c120 0 189.333 9.33301 208 28
s40 68 64 148s49 143.667 75 191c25.333 46.667 63 95 113 145c90 91.333 192.667 137 308 137c62.667 0 115 -11.333 157 -34l-82 -146c-52 38 -110.333 57 -175 57s-119 -30.667 -163 -92c-31.333 -48 -66.666 -149.667 -105.999 -305l-33 -129h227l-28 -94h-221
l-150 -612c-27.333 -116 -59 -216.667 -95 -302s-66.333 -145.666 -91 -180.999s-56 -73.666 -94 -114.999c-37.333 -41.333 -84.666 -74 -141.999 -98s-112.666 -36 -165.999 -36s-101 9.66699 -143 29l61 125c44 -22 90.667 -33 140 -33c86.667 0 152 28.667 196 86
c68 88.667 131 258.667 189 510l145 627h-436l-166 -690c-66.667 -280 -156.667 -478 -270 -594c-75.333 -78 -156.666 -117 -243.999 -117z" />
    <glyph glyph-name="fi" unicode="fi" horiz-adv-x="1196" 
d="M-172 -551c-45.333 0 -90.3291 10.333 -134.996 31l69 129c37.333 -26 80.666 -39 129.999 -39s90.666 19 123.999 57c56 64 113.333 223 172 477l170 746h-180l25 68c91.333 10.667 146.666 25.667 165.999 45s43 71 71 155s53.333 149.333 76 196
c23.333 46 59.666 93.333 108.999 142c90 91.333 189.667 137 299 137s194.666 -21 255.999 -63l-90 -152c-76.667 61.333 -163.667 92 -261 92c-62.667 0 -115.667 -30.667 -159 -92c-31.333 -48 -67 -149.667 -107 -305l-33 -129h150c150 0 250 4.66699 300 14
s75.667 14.333 77 15c26 0 39 -17.667 39 -53s-38.667 -167 -116 -395s-116 -361.333 -116 -400c6 -31.333 43.667 -24.666 113 20.001c42 27.333 85 61.666 129 102.999l43 -43c-161.333 -157.333 -291 -236 -389 -236c-44 0 -66 20 -66 60c0 32.667 18.333 101 55 205
l118 343c42 124.667 63 199.667 63 225s-9 39.333 -27 42c-26 4 -82.667 6 -170 6h-225l-166 -690c-66.667 -280 -156.667 -478 -270 -594c-75.333 -78 -156.666 -117 -243.999 -117z" />
    <glyph glyph-name="fl" unicode="fl" horiz-adv-x="1196" 
d="M-172 -551c-45.333 0 -90.334 10.335 -135.001 31.002l69 129c37.333 -26 80.666 -39 129.999 -39s90.666 19 123.999 57c56 64 113.333 223 172 477l170 746h-180l25 68c82 9.33301 136.667 24.333 164 45c15.333 12.667 36.333 57 63 133s45.667 127.333 57 154
c30 75.333 76 144 138 206c90 91.333 192.333 137 307 137c76.667 0 146.334 -15.667 209.001 -47c26 6.66699 71 21.667 135 45l18 -16c-49.333 -139.333 -80.666 -231 -93.999 -275l-230 -776c-62.667 -214 -93.667 -341.667 -93 -383c0 -23.333 11.333 -35 34 -35
c42 0 113.667 47.333 215 142l43 -43c-161.333 -157.333 -288.333 -236 -381 -236c-21.333 0.666992 -39.333 7.66699 -54 21s-21.667 31.666 -21 54.999c0 53.333 39.333 209.666 118 468.999l216 717c20.667 65.333 31 114 31 146s-23 57.333 -69 76s-97.667 28 -155 28
c-76.667 0 -138 -34.333 -184 -103c-30 -44 -65 -143 -105 -297l-35 -137h228l-29 -94h-221l-166 -690c-66.667 -280 -156.667 -478 -270 -594c-75.333 -78 -156.666 -117 -243.999 -117z" />
    <glyph glyph-name="f_f_i" unicode="ffi" horiz-adv-x="1781" 
d="M-172 -551c-45.333 0 -90.332 10.333 -134.999 31l69 129c37.333 -26 80.666 -39 129.999 -39s90.666 19 123.999 57c56 64 113.333 223 172 477l170 746h-182l27 80c10.667 1.33301 26.667 3 48 5s36 3.66699 44 5l30 5c19.333 3.33301 37 13 53 29s36 60.667 60 134
s46.333 130 67 170c21.333 40.667 54.333 86.334 99 137.001c78 87.333 182.667 131 314 131c28.667 0 60.667 -4.33301 96 -13s61.333 -18 78 -28l-82 -137c-56 41.333 -118 62 -186 62s-124.333 -31 -169 -93c-27.333 -42 -58 -130 -92 -264l-33 -129h220
c120 0 189.333 9.33301 208 28s40 68 64 148s49 143.667 75 191c25.333 46.667 63 95 113 145c90.667 91.333 190.667 137 300 137s194.333 -21 255 -63l-90 -152c-76.667 61.333 -163.334 92 -260.001 92c-62.667 0 -116 -30.667 -160 -92
c-31.333 -48 -66.666 -149.667 -105.999 -305l-33 -129h150c138.667 0 232.667 4.66699 282 14s80.666 14.333 93.999 15c26 0 39 -17.667 39 -53c0.666992 -35.333 -37.666 -167 -114.999 -395s-116 -361.333 -116 -400c0 -14 8.33301 -21 25 -21s46 13.667 88 41
s85 61.666 129 102.999l43 -43c-161.333 -157.333 -291 -236 -389 -236c-44 0 -66 20 -66 60c0 32.667 18.333 101 55 205l118 343c42 124.667 63 199.667 63 225s-9 39.333 -27 42c-26 4 -82.667 6 -170 6h-225l-156 -649c-111.333 -468.667 -282.666 -703 -513.999 -703
c-50.667 0 -98.334 10.333 -143.001 31l69 121c36.667 -26 81 -39 133 -39s95 19 129 57c56 64 113.333 223 172 477l160 705h-436l-166 -690c-66.667 -280 -156.667 -478 -270 -594c-75.333 -78 -156.666 -117 -243.999 -117z" />
    <glyph glyph-name="f_f_l" unicode="ffl" horiz-adv-x="1783" 
d="M-172 -551c-45.333 0 -90.3311 10.3359 -134.998 31.0029l69 129c37.333 -26 80.666 -39 129.999 -39s90.666 19 123.999 57c56 64 113.333 223 172 477l170 746h-180l25 68c91.333 10.667 147.666 26.667 168.999 48s43.333 68 66 140s45 129.333 67 172
c21.333 42 54.333 87.667 99 137c78 87.333 182.667 131 314 131c28.667 0 60.667 -4.33301 96 -13s61.333 -18 78 -28l-82 -137c-56 41.333 -118 62 -186 62s-124.333 -31 -169 -93c-27.333 -42 -58 -130 -92 -264l-33 -129h220c73.333 0 124 2 152 6s48.667 12.667 62 26
s32.666 60.666 57.999 141.999c26 80.667 51.667 144.667 77 192s63 96 113 146c90 91.333 192.667 137 308 137c76.667 0 146.334 -15.667 209.001 -47c26 6.66699 71 21.667 135 45l18 -16c-49.333 -139.333 -80.666 -231 -93.999 -275l-230 -776
c-62.667 -214 -94 -341.667 -94 -383c0 -23.333 11.667 -35 35 -35c42 0 113.667 47.333 215 142l43 -43c-161.333 -157.333 -288.333 -236 -381 -236c-21.333 0.666992 -39.333 7.66699 -54 21s-22 31.666 -22 54.999c0 53.333 39.667 209.666 119 468.999l215 717
c20.667 65.333 31 114 31 146s-23 57.333 -69 76s-97.333 28 -154 28c-76.667 0 -138.334 -34.333 -185.001 -103c-31.333 -45.333 -65.333 -140 -102 -284l-39 -150h227l-28 -94h-221l-156 -649c-111.333 -468.667 -282.666 -703 -513.999 -703
c-50.667 0 -98.334 10.333 -143.001 31l69 121c36.667 -26 81 -39 133 -39s95 19 129 57c56 64 113.333 223 172 477l160 705h-436l-166 -690c-66.667 -280 -156.667 -478 -270 -594c-75.333 -78 -156.666 -117 -243.999 -117z" />
    <glyph glyph-name="T_h" unicode="Th" horiz-adv-x="2144" 
d="M1077 1362c-34 0 -66 -1.33301 -96 -4l-260 -1116c-9.33301 -42 -14 -77 -14 -105c0 -46.667 57.333 -72 172 -76l-15 -63c-93.333 4 -188 6 -284 6s-174.667 -2 -236 -6l14 63c88.667 2.66699 143.334 19.334 164.001 50.001c12 19.333 26.333 61.666 43 126.999
l262 1118c-24.667 2.66699 -77.667 4 -159 4s-139 -3.66699 -173 -11s-61 -18.666 -81 -33.999s-37.667 -35 -53 -59c-14.667 -24 -36.667 -66.667 -66 -128l-66 15l113 358h64c0 -18 5.33301 -30.333 16 -37c16 -14.667 158 -22 426 -22s442.667 1.66699 524 5
s141.333 11 180 23c69.333 22 122.666 66 159.999 132h127c-34 -95.333 -89.667 -265.333 -167 -510s-130.333 -405.334 -159 -482.001l13 -6c74 114.667 156 208.667 246 282s172.333 109.666 247 108.999c39.333 0 69.666 -14 91 -42c21.333 -28 32 -67 32 -117
c0 -135.333 -28.667 -277.666 -86 -426.999s-138.666 -270.666 -243.999 -363.999c-53.333 -46.667 -103 -70 -149 -70s-91 7 -135 21l63 133c48 -23.333 87 -35 117 -35c48 0 92.667 30.667 134 92s76 152.666 104 273.999c28.667 121.333 43 223.333 43 306
c0 64 -23.333 96 -70 96c-50.667 0 -118 -43.667 -202 -131s-149.667 -178 -197 -272c-24.667 -48 -88.334 -203 -191.001 -465l-117 12l414 1387c-48 -20.667 -231 -31 -549 -31z" />
    <glyph glyph-name="Tcaron_h" unicode="&#x164;h" horiz-adv-x="2144" 
d="M692 1841l39 32.999l223 -182l287 182l33 -39c-118.667 -105.333 -219.667 -199.666 -303 -282.999h-78zM1077 1362c-34 0 -66 -1.33301 -96 -4l-260 -1116c-9.33301 -42 -14 -77 -14 -105c0 -46.667 57.333 -72 172 -76l-15 -63c-93.333 4 -188 6 -284 6
s-174.667 -2 -236 -6l14 63c88.667 2.66699 143.334 19.334 164.001 50.001c12 19.333 26.333 61.666 43 126.999l262 1118c-24.667 2.66699 -77.667 4 -159 4s-139 -3.66699 -173 -11s-61 -18.666 -81 -33.999s-37.667 -35 -53 -59c-14.667 -24 -36.667 -66.667 -66 -128
l-66 15l113 358h64c0 -18 5.33301 -30.333 16 -37c16 -14.667 158 -22 426 -22s442.667 1.66699 524 5s141.333 11 180 23c69.333 22 122.666 66 159.999 132h127c-34 -95.333 -89.667 -265.333 -167 -510s-130.333 -405.334 -159 -482.001l13 -6
c74 114.667 156 208.667 246 282s172.333 109.666 247 108.999c39.333 0 69.666 -14 91 -42c21.333 -28 32 -67 32 -117c0 -135.333 -28.667 -277.666 -86 -426.999s-138.666 -270.666 -243.999 -363.999c-53.333 -46.667 -103 -70 -149 -70s-91 7 -135 21l63 133
c48 -23.333 87 -35 117 -35c48 0 92.667 30.667 134 92s76 152.666 104 273.999c28.667 121.333 43 223.333 43 306c0 64 -23.333 96 -70 96c-50.667 0 -118 -43.667 -202 -131s-149.667 -178 -197 -272c-24.667 -48 -88.334 -203 -191.001 -465l-117 12l414 1387
c-48 -20.667 -231 -31 -549 -31z" />
    <glyph glyph-name="f_b" unicode="fb" horiz-adv-x="1662" 
d="M993 72c57.333 0 120.669 28.334 190.002 85.001c68.667 56.667 129.667 136.667 183 240c68 135.333 102 260.333 102 375c0 60 -21 90 -63 90c-56 0 -130.333 -44.333 -223 -133s-164.334 -179.334 -215.001 -272.001c-64 -124 -96.333 -221 -97 -291
c0 -30.667 11.667 -54 35 -70s52.666 -24 87.999 -24zM1497 999.001c86 0 129.005 -65.668 129.005 -197.001c0 -62.667 -17 -142 -51 -238s-81 -183.667 -141 -263c-162.667 -218.667 -330 -328 -502 -328c-54.667 0.666992 -101.334 17 -140.001 49s-58 73.333 -58 124
s17.333 135 52 253l248 832c20.667 65.333 31 114 31 146s-20.333 57.333 -61 76s-89.334 28 -146.001 28c-79.333 0 -142 -34.333 -188 -103c-30 -44 -65 -143 -105 -297l-37 -137h228l-29 -94h-221l-164 -690c-66.667 -280 -156.667 -478 -270 -594
c-75.333 -78 -156.666 -117 -243.999 -117c-45.333 0 -90.333 10.333 -135 31l69 129c37.333 -26 80.666 -39 129.999 -39s90.666 19 123.999 57c56 64 113.333 223 172 477l168 746h-180l25 68c82 9.33301 134.667 23 158 41s47.666 64.333 72.999 139
s43.666 125.334 54.999 152.001c30 75.333 76 144 138 206c90 91.333 193.667 137 311 137c65.333 0 129.333 -15.667 192 -47c26 6.66699 71.333 21.667 136 45l18 -16c-49.333 -139.333 -80.666 -231 -93.999 -275l-131 -417c-39.333 -130 -72.333 -229 -99 -297l11 -6
c68 104 152.667 200 254 288s192.666 131.667 273.999 131z" />
    <glyph glyph-name="f_f_b" unicode="ffb" horiz-adv-x="2250" 
d="M1581 72c57.333 0 120.333 28.334 189 85.001s130 136.667 184 240c68 135.333 102 260.333 102 375c0 60 -21 90 -63 90c-55.333 0 -129.666 -44.333 -222.999 -133s-165.333 -179.334 -216 -272.001c-64 -124 -96 -221 -96 -291c0 -30.667 11.667 -54 35 -70
s52.666 -24 87.999 -24zM2085 999.001c86 0 129.001 -65.6699 129.001 -197.003c0 -62.667 -17 -142 -51 -238s-81.333 -183.667 -142 -263c-162.667 -218.667 -329.667 -328 -501 -328c-54.667 0.666992 -101.334 17 -140.001 49s-58.334 73.333 -59.001 124
c0 50.667 17.667 135 53 253l248 832c20.667 65.333 31 114 31 146c0.666992 32 -19.666 57.333 -60.999 76s-90 28 -146 28c-79.333 0 -142.333 -34.333 -189 -103c-31.333 -45.333 -65.333 -140 -102 -284l-39 -150h227l-28 -94h-221l-156 -649
c-111.333 -468.667 -282.666 -703 -513.999 -703c-50.667 0 -98.334 10.333 -143.001 31l69 121c36.667 -26 81 -39 133 -39s95 19 129 57c56 64 113.333 223 172 477l160 705h-436l-166 -690c-66.667 -280 -156.667 -478 -270 -594
c-75.333 -78 -156.666 -117 -243.999 -117c-45.333 0 -90.333 10.333 -135 31l69 129c37.333 -26 80.666 -39 129.999 -39s90.666 19 123.999 57c56 64 113.333 223 172 477l170 746h-180l25 68c91.333 10.667 147.333 26.334 168 47.001s43 67.667 67 141
s46.333 130.666 67 171.999c21.333 40.667 54.333 86.334 99 137.001c78 87.333 182.667 131 314 131c28.667 0 60.667 -4.33301 96 -13s61.333 -18 78 -28l-82 -137c-56 41.333 -118 62 -186 62s-124.333 -31 -169 -93c-27.333 -42 -58 -130 -92 -264l-33 -129h220
c120 0 189.333 9.33301 208 28s40 67.334 64 146.001s49.333 142.334 76 191.001c26 48 64 97 114 147c90 91.333 194 137 312 137c65.333 0 129.333 -15.667 192 -47c26 6.66699 71 21.667 135 45l19 -16c-49.333 -139.333 -80.666 -231 -93.999 -275l-131 -417
c-39.333 -130 -72.333 -229 -99 -297l10 -6c68 104 152.667 200 254 288s193 131.667 275 131z" />
    <glyph glyph-name="f_f_h" unicode="ffh" horiz-adv-x="2232" 
d="M-172 -551c-45.333 0 -90.3291 10.332 -134.996 30.999l69 129c37.333 -26 80.666 -39 129.999 -39s90.666 19 123.999 57c56 64 113.333 223 172 477l170 746h-180l25 68c91.333 10.667 147.333 26.334 168 47.001s43 67.667 67 141s46.333 130.666 67 171.999
c21.333 40.667 54.333 86.334 99 137.001c78 87.333 182.667 131 314 131c28.667 0 60.667 -4.33301 96 -13s61.333 -18 78 -28l-82 -137c-56 41.333 -118 62 -186 62s-124.333 -31 -169 -93c-27.333 -42 -58 -130 -92 -264l-33 -129h220c120 0 191 11 213 33
c10.667 10.667 29.667 57 57 139s54 146.667 80 194s63.333 96 112 146c90 91.333 192.667 137 308 137c76.667 0 146.334 -15.667 209.001 -47c31.333 8 77 23 137 45l18 -16c-58.667 -166 -99.334 -284.333 -122.001 -355l-80 -251l-63 -201l-29 -95
c-8 -25.333 -15 -46.333 -21 -63l12 -6c74 114.667 156 208.667 246 282s172.667 109.666 248 108.999c39.333 0 69.666 -14 90.999 -42s32 -67 32 -117c0 -135.333 -28.667 -277.666 -86 -426.999s-138.666 -270.666 -243.999 -363.999
c-53.333 -46.667 -103.333 -70 -150 -70s-91.667 7 -135 21l64 133c48 -23.333 86.667 -35 116 -35c47.333 0 91.666 30.667 132.999 92s76.333 152.666 105 273.999s43 223.333 43 306c0 64 -23.333 96 -70 96c-50.667 0 -118 -43.667 -202 -131s-149.667 -178 -197 -272
c-24.667 -48 -88.334 -203 -191.001 -465l-116 12l366 1225c20.667 65.333 31 114 31 146s-23 57.333 -69 76s-97.333 28 -154 28c-76.667 0 -138.334 -34.333 -185.001 -103c-31.333 -45.333 -65.333 -140 -102 -284l-39 -150h227l-28 -94h-221l-156 -649
c-111.333 -468.667 -282.666 -703 -513.999 -703c-50.667 0 -98.334 10.333 -143.001 31l69 121c36.667 -26 81 -39 133 -39s95 19 129 57c56 64 113.333 223 172 477l160 705h-436l-166 -690c-66.667 -280 -156.667 -478 -270 -594
c-75.333 -78 -156.666 -117 -243.999 -117z" />
    <glyph glyph-name="f_f_j" unicode="ffj" horiz-adv-x="1691" 
d="M-172 -551c-45.333 0 -90.335 10.3369 -135.002 31.0039l69 129c37.333 -26 80.666 -39 129.999 -39s90.666 19 123.999 57c56 64 113.333 223 172 477l170 746h-180l25 68c91.333 10.667 148.333 27.334 171 50.001s45.334 69 68.001 139s44.334 126.667 65.001 170
c21.333 43.333 53.666 89.333 96.999 138c78 87.333 182.667 131 314 131c28.667 0 60.667 -4.33301 96 -13s61.333 -18 78 -28l-82 -137c-56 41.333 -118 62 -186 62s-124.333 -31 -169 -93c-27.333 -42 -58 -130 -92 -264l-33 -129h220c120 0 190.333 10.333 211 31
s42.334 69 65.001 145s47 139 73 189c25.333 49.333 62.333 98.333 111 147c90 91.333 192.667 137 308 137c62.667 0 115 -11.333 157 -34l-82 -146c-52 38 -110.333 57 -175 57s-119 -30.667 -163 -92c-31.333 -48 -66.666 -149.667 -105.999 -305l-33 -129h150
c141.333 0 236 4.66699 284 14s76 14.333 84 15c27.333 0 41 -17 41 -51c0.666992 -81.333 -35 -257.333 -107 -528s-145.333 -471 -220 -601c-42.667 -72.667 -96 -131 -160 -175s-132.333 -65.333 -205 -64c-35.333 0 -66.666 4.66699 -93.999 14l59 139
c29.333 -16.667 62.666 -25 99.999 -25s64 3 80 9c16 5.33301 36.333 19.666 61 42.999c49.333 45.333 106 178.666 170 399.999s105.667 385.666 125 492.999s29 169.666 29 186.999c-0.666992 17.333 -11.667 27.666 -33 30.999s-76.333 5 -165 5h-221l-150 -612
c-68 -285.333 -160 -489 -276 -611c-44 -46 -94.333 -81 -151 -105s-111 -36 -163 -36s-99.667 9.66699 -143 29l61 123c40 -20.667 94 -31 162 -31s126 28.667 174 86c61.333 75.333 125 252 191 530l145 627h-436l-166 -690c-66.667 -280 -156.667 -478 -270 -594
c-75.333 -78 -156.666 -117 -243.999 -117z" />
    <glyph glyph-name="f_f_k" unicode="ffk" horiz-adv-x="2199" 
d="M2054 782c0 27.333 -8.33203 51 -24.999 71c-17.333 20 -42 30 -74 30c-32.667 0 -81.667 -30 -147 -90s-117.333 -112.333 -156 -157s-73.334 -105 -104.001 -181c153.333 35.333 276 84.333 368 147s138 122.667 138 180zM1921 -35
c-46.667 0 -80.668 21.3359 -102.001 64.0029c-35.333 69.333 -79 201.666 -131 396.999c-62.667 -19.333 -118 -32.333 -166 -39c-36.667 -98 -82.667 -229 -138 -393l-116 12l366 1225c20.667 65.333 31 114 31 146s-23 57.333 -69 76s-97.333 28 -154 28
c-76.667 0 -138.334 -34.333 -185.001 -103c-30 -44 -64.667 -143 -104 -297l-37 -137h227l-28 -94h-221l-156 -649c-111.333 -468.667 -282.666 -703 -513.999 -703c-50.667 0 -98.334 10.333 -143.001 31l69 121c36.667 -26 81 -39 133 -39s95 19 129 57
c56 64 113.333 223 172 477l160 705h-436l-166 -690c-66.667 -280 -156.667 -478 -270 -594c-75.333 -78 -156.666 -117 -243.999 -117c-45.333 0 -90.333 10.333 -135 31l69 129c37.333 -26 80.666 -39 129.999 -39s90.666 19 123.999 57c56 64 113.333 223 172 477
l170 746h-180l25 68c87.333 9.33301 142 24 164 44s45 66.667 69 140s46.667 131.333 68 174c22 44 55.333 90.333 100 139c78 87.333 182.667 131 314 131c28.667 0 60.667 -4.33301 96 -13s61.333 -18 78 -28l-82 -137c-56 41.333 -118 62 -186 62s-124.333 -31 -169 -93
c-26 -39.333 -57.333 -131.333 -94 -276l-31 -117h220c120 0 191 11 213 33c13.333 13.333 33.333 59.666 60 138.999s52.667 143.666 78 192.999s62.333 98.333 111 147c90 91.333 192.667 137 308 137c76.667 0 146.334 -15.667 209.001 -47l137 45l18 -16
c-49.333 -139.333 -100.666 -295 -153.999 -467s-101 -318.667 -143 -440l6 -4c176.667 226 323 338.333 439 337c50.667 0 91.334 -17.667 122.001 -53s46 -82 46 -140s-27.333 -113.333 -82 -166s-160 -111 -316 -175c62.667 -242 120.667 -363.667 174 -365
c24.667 0 51 8 79 24s72.667 49 134 99l41 -43c-144.667 -144.667 -247.667 -217 -309 -217z" />
    <glyph glyph-name="f_f_t" unicode="fft" horiz-adv-x="1785" 
d="M-172 -551c-45.333 0 -90.332 10.3301 -134.999 30.9971l69 129c37.333 -26 80.666 -39 129.999 -39s90.666 19 123.999 57c56 64 113.333 223 172 477l170 746h-180l25 68c91.333 10.667 147.333 26.334 168 47.001s43 67.667 67 141s46.333 130.666 67 171.999
c21.333 40.667 54.333 86.334 99 137.001c78 87.333 182.667 131 314 131c28.667 0 60.667 -4.33301 96 -13s61.333 -18 78 -28l-82 -137c-56 41.333 -118 62 -186 62s-124.333 -31 -169 -93c-27.333 -42 -58 -130 -92 -264l-33 -129h220c120 0 189.333 9.33301 208 28
s40 68 64 148s49 143.667 75 191c25.333 46.667 63 95 113 145c90 91.333 192.667 137 308 137c62.667 0 115 -11.333 157 -34l-82 -146c-52 38 -110.333 57 -175 57s-119 -30.667 -163 -92c-31.333 -48 -66.666 -149.667 -105.999 -305l-33 -129h219
c101.333 0 169.666 10.333 204.999 31s84 91 146 211l67 -6l-72 -236h222l-27 -94h-219l-88 -295c-67.333 -222.667 -101 -351 -101 -385s11.667 -51 35 -51c49.333 0 121.666 41.667 216.999 125l43 -43c-88.667 -79.333 -164 -136.666 -226 -171.999
s-118.333 -53.333 -169 -54c-20.667 -0.666992 -37.667 5.66602 -51 18.999c-26.667 26 -23.334 100.333 9.99902 223c34 122.667 99 333.667 195 633h-428l-150 -612c-27.333 -116 -59 -216.667 -95 -302s-66.333 -145.666 -91 -180.999s-56 -73.666 -94 -114.999
c-37.333 -41.333 -84.666 -74 -141.999 -98s-112.666 -36 -165.999 -36s-101 9.66699 -143 29l61 123c40.667 -20.667 96.667 -31 168 -31c29.333 0 60 8.33301 92 25s57.333 37 76 61c68 88.667 131 258.667 189 510l145 627h-436l-166 -690
c-66.667 -280 -156.667 -478 -270 -594c-75.333 -78 -156.666 -117 -243.999 -117z" />
    <glyph glyph-name="f_h" unicode="fh" horiz-adv-x="1644" 
d="M-172 -551c-45.333 0 -90.3311 10.332 -134.998 30.999l69 129c37.333 -26 80.666 -39 129.999 -39s90.666 19 123.999 57c56 64 113.333 223 172 477l168 746h-180l25 68c82 9.33301 134.667 23 158 41s47.666 64.333 72.999 139s43.666 125.334 54.999 152.001
c30 75.333 76 144 138 206c90 91.333 192.333 137 307 137c76.667 0 146.334 -15.667 209.001 -47c31.333 8 77 23 137 45l18 -16c-58.667 -166 -99.334 -284.333 -122.001 -355l-79 -251l-63 -201l-30 -95c-8 -25.333 -15 -46.333 -21 -63l12 -6
c74 114.667 156 208.667 246 282s172.667 109.666 248 108.999c39.333 0 69.666 -14 90.999 -42s32 -67 32 -117c0 -135.333 -28.667 -277.666 -86 -426.999s-138.666 -270.666 -243.999 -363.999c-53.333 -46.667 -103.333 -70 -150 -70s-91.667 7 -135 21l64 133
c48 -23.333 87 -35 117 -35c48 0 92.333 30.667 133 92s75.334 152.666 104.001 273.999s43 223.333 43 306c0 64 -23.333 96 -70 96c-50.667 0 -118 -43.667 -202 -131s-149.667 -178 -197 -272c-24.667 -48 -88 -203 -190 -465l-117 12l367 1225
c20.667 65.333 31 114 31 146s-23 57.333 -69 76s-97.667 28 -155 28c-76.667 0 -138 -34.333 -184 -103c-30 -44 -65 -143 -105 -297l-37 -137h228l-29 -94h-221l-164 -690c-66.667 -280 -156.667 -478 -270 -594c-75.333 -78 -156.666 -117 -243.999 -117z" />
    <glyph glyph-name="f_j" unicode="fj" horiz-adv-x="1196" 
d="M-172 -551c-45.333 0 -90.3291 10.332 -134.996 30.999l69 129c37.333 -26 80.666 -39 129.999 -39s90.666 19 123.999 57c56 64 113.333 223 172 477l170 748h-180l25 68c91.333 10.667 146.666 25.667 165.999 45s43 71 71 155s53.333 148.667 76 194
c23.333 46 59.666 93.333 108.999 142c90 91.333 189.667 137 299 137s194.666 -21 255.999 -63l-90 -152c-76.667 61.333 -163.667 92 -261 92c-62.667 0 -115.667 -30.667 -159 -92c-30 -46.667 -66.333 -152.334 -109 -317.001l-31 -115h150
c141.333 0 234.666 4.33301 279.999 13s75 13.334 89 14.001c27.333 0 41 -17 41 -51c0 -80 -36 -256.667 -108 -530s-148.667 -479.666 -230 -618.999c-42.667 -72.667 -96 -131 -160 -175s-132.333 -65.667 -205 -65c-35.333 0 -66.666 4.66699 -93.999 14l59 140
c29.333 -16.667 62 -25 98 -25s63.333 3.66699 82 11c54.667 22 105 86 151 192c46.667 106 99 277.667 157 515c58 236.667 88 381 90 433c0 19.333 -9 30.333 -27 33c-26 4 -82.667 6 -170 6h-225l-166 -692c-66.667 -280 -156.667 -478 -270 -594
c-75.333 -78 -156.666 -117 -243.999 -117z" />
    <glyph glyph-name="f_k" unicode="fk" horiz-adv-x="1611" 
d="M1466 782c0 27.333 -8.33301 51 -25 71c-17.333 20 -42 30 -74 30s-80.667 -30 -146 -90c-66 -60.667 -118.333 -113 -157 -157s-73 -104.333 -103 -181c154 35.333 276.667 84.333 368 147s137 122.667 137 180zM1612 808c0 -58 -27.335 -113.334 -82.002 -166.001
s-160 -111 -316 -175c62.667 -242 121 -363.667 175 -365c24.667 0 51 8 79 24s72.667 49 134 99l40 -43c-144.667 -144.667 -247.667 -217 -309 -217c-48 0 -82 21.333 -102 64c-35.333 69.333 -79 201.666 -131 396.999c-62.667 -19.333 -118 -32.333 -166 -39
c-36.667 -98 -82.334 -229 -137.001 -393l-117 12l367 1225c20.667 65.333 31 114 31 146s-23 57.333 -69 76s-97.667 28 -155 28c-76.667 0 -138 -34.333 -184 -103c-30 -44 -65 -143 -105 -297l-35 -137h228l-29 -94h-221l-166 -690c-66.667 -280 -156.667 -478 -270 -594
c-75.333 -78 -156.666 -117 -243.999 -117c-45.333 0 -90.333 10.333 -135 31l69 129c37.333 -26 80.666 -39 129.999 -39s90.666 19 123.999 57c56 64 113.333 223 172 477l170 746h-180l25 68c82 9.33301 136.667 24.333 164 45c15.333 12.667 36.333 56.334 63 131.001
s45.334 125.334 56.001 152.001c28.667 76 75 146 139 210c90 91.333 192.333 137 307 137c76.667 0 146.334 -15.667 209.001 -47l137 45l18 -16c-37.333 -106.667 -92.666 -275 -165.999 -505s-117 -364 -131 -402l7 -4c176.667 226 322.667 338.333 438 337
c50.667 0 91.334 -17.667 122.001 -53s46 -82 46 -140z" />
    <glyph glyph-name="f_t" unicode="ft" horiz-adv-x="1200" 
d="M782 -25c-47.333 0 -70.999 28.9971 -70.999 86.9971s75 320.667 225 788h-428l-166 -690c-66.667 -280 -156.667 -478 -270 -594c-75.333 -78 -156.666 -117 -243.999 -117c-45.333 0 -90.333 10.333 -135 31l69 129c37.333 -26 80.666 -39 129.999 -39
s90.666 19 123.999 57c56 64 113.333 223 172 477l170 746h-180l25 68c91.333 10.667 146.333 25.334 165 44.001s40 62.334 64 131.001l51 145c10.667 28 29 63 55 105c25.333 42 54.333 79.667 87 113c90 91.333 192.333 137 307 137
c72.667 0 125.334 -11.333 158.001 -34l-82 -146c-52 38 -110.667 57 -176 57s-119.333 -30.667 -162 -92c-31.333 -48 -67 -149.667 -107 -305l-33 -129h220c101.333 0 169.333 10.333 204 31s83.334 91 146.001 211l67 -6l-71 -236h221l-27 -94h-219l-88 -295
c-66.667 -222.667 -100 -351 -100 -385s11.667 -51 35 -51c49.333 0 121.666 41.667 216.999 125l43 -43c-88 -79.333 -163.333 -136.666 -226 -171.999s-119.334 -53.333 -170.001 -54z" />
    <glyph glyph-name="uni0162_h" unicode="&#x162;h" horiz-adv-x="2144" 
d="M1077 1362c-34 0 -66 -1.33301 -96 -4l-260 -1116c-9.33301 -42 -14 -77 -14 -105c0 -46.667 57.333 -72 172 -76l-15 -63c-143.333 4 -217.666 6 -222.999 6l-70 -133c53.333 -4 94.666 -19.333 123.999 -46s44 -62.667 44 -108c0 -120 -91.333 -204.667 -274 -254
c-42 -10.667 -85 -18 -129 -22l-6 86c134.667 0 217.667 21.333 249 64c14.667 20 21.667 45.667 21 77c0 31.333 -12 57.333 -36 78s-61.667 31 -113 31l118 227c-96.667 0 -171.667 -2 -225 -6l14 63c88.667 2.66699 143.334 19.334 164.001 50.001
c12 19.333 26.333 61.666 43 126.999l262 1118c-24.667 2.66699 -77.667 4 -159 4s-139 -3.66699 -173 -11s-61 -18.666 -81 -33.999s-37.667 -35 -53 -59c-14.667 -24 -36.667 -66.667 -66 -128l-66 15l113 358h64c0 -18 5.33301 -30.333 16 -37
c16 -14.667 158 -22 426 -22s442.667 1.66699 524 5s141.333 11 180 23c69.333 22 122.666 66 159.999 132h127c-34 -95.333 -89.667 -265.333 -167 -510s-130.333 -405.334 -159 -482.001l13 -6c74 114.667 156 208.667 246 282s172.333 109.666 247 108.999
c39.333 0 69.666 -14 91 -42c21.333 -28 32 -67 32 -117c0 -135.333 -28.667 -277.666 -86 -426.999s-138.666 -270.666 -243.999 -363.999c-53.333 -46.667 -103 -70 -149 -70s-91 7 -135 21l63 133c48 -23.333 87 -35 117 -35c48 0 92.667 30.667 134 92
s76 152.666 104 273.999c28.667 121.333 43 223.333 43 306c0 64 -23.333 96 -70 96c-50.667 0 -118 -43.667 -202 -131s-149.667 -178 -197 -272c-24.667 -48 -88.334 -203 -191.001 -465l-117 12l414 1387c-48 -20.667 -231 -31 -549 -31z" />
    <glyph glyph-name="uni021A_h" unicode="&#x21a;h" horiz-adv-x="2144" 
d="M551 -334c0 48 -23.333 93.001 -70 135.001l131 101c57.333 -58.667 86 -114 86 -166c0 -104.667 -92 -222 -276 -352l-37 41c110.667 87.333 166 167.666 166 240.999zM1077 1362c-34 0 -66 -1.33301 -96 -4l-260 -1116c-9.33301 -42 -14 -77 -14 -105
c0 -46.667 57.333 -72 172 -76l-15 -63c-93.333 4 -188 6 -284 6s-174.667 -2 -236 -6l14 63c88.667 2.66699 143.334 19.334 164.001 50.001c12 19.333 26.333 61.666 43 126.999l262 1118c-24.667 2.66699 -77.667 4 -159 4s-139 -3.66699 -173 -11
s-61 -18.666 -81 -33.999s-37.667 -35 -53 -59c-14.667 -24 -36.667 -66.667 -66 -128l-66 15l113 358h64c0 -18 5.33301 -30.333 16 -37c16 -14.667 158 -22 426 -22s442.667 1.66699 524 5s141.333 11 180 23c69.333 22 122.666 66 159.999 132h127
c-34 -95.333 -89.667 -265.333 -167 -510s-130.333 -405.334 -159 -482.001l13 -6c74 114.667 156 208.667 246 282s172.333 109.666 247 108.999c39.333 0 69.666 -14 91 -42c21.333 -28 32 -67 32 -117c0 -135.333 -28.667 -277.666 -86 -426.999
s-138.666 -270.666 -243.999 -363.999c-53.333 -46.667 -103 -70 -149 -70s-91 7 -135 21l63 133c48 -23.333 87 -35 117 -35c48 0 92.667 30.667 134 92s76 152.666 104 273.999c28.667 121.333 43 223.333 43 306c0 64 -23.333 96 -70 96
c-50.667 0 -118 -43.667 -202 -131s-149.667 -178 -197 -272c-24.667 -48 -88.334 -203 -191.001 -465l-117 12l414 1387c-48 -20.667 -231 -31 -549 -31z" />
    <glyph glyph-name=".notdef" horiz-adv-x="1073" 
d="M106 1298v-1093l367 547zM172 106h729l-364 549zM600 752l367 -547v1093zM537 848l364 547h-729zM0 0v1503h1073v-1503h-1073z" />
    <glyph glyph-name="space" unicode=" " horiz-adv-x="438" 
 />
    <glyph glyph-name="exclam" unicode="!" horiz-adv-x="583" 
d="M257 -16c-32 0 -58.333 10 -79 30s-31 46.667 -31 80c0 34 11.667 63.333 35 88s51 37 83 37s58 -10.333 78 -31c20 -21.333 30 -48 30 -80s-11.333 -60.667 -34 -86s-50 -38 -82 -38zM352 420h-58.999c76.667 522.667 136.667 877 180 1063h199
c-30.667 -126 -137.334 -480.333 -320.001 -1063z" />
    <glyph glyph-name="quotedbl" unicode="&#x22;" horiz-adv-x="618" 
d="M610 977h-57c30 272 55.333 454.333 76 547h162c-12.667 -58.667 -73 -241 -181 -547zM301 977h-57c30 272 55 454.333 75 547h162c-12 -58.667 -72 -241 -180 -547z" />
    <glyph glyph-name="numbersign" unicode="#" horiz-adv-x="1159" 
d="M565 834l-92 -259h262l90 259h-260zM1010 444h-234l-166 -469h-86l164 469h-260l-166 -469h-86l164 469h-225l20 131h252l90 259h-209l17 131h239l148 419h88l-150 -419h262l148 419h88l-150 -419h222l-17 -131h-250l-92 -259h209z" />
    <glyph glyph-name="dollar" unicode="$" horiz-adv-x="1032" 
d="M442 1032c0 -73.333 46.667 -148.335 140 -225.002l108 467c-88 -1.33301 -151.333 -23.666 -190 -66.999s-58 -101.666 -58 -174.999zM768 345.998c0 76.667 -51.333 153 -154 229l-110 -487c176 5.33301 264 91.333 264 258zM293 992.998
c0 96.667 37.668 180.33 113.001 250.997s177 111.334 305 122.001l43 184h86l-43 -180c120 -6.66699 219 -44.334 297 -113.001l-121 -118c-40.667 62.667 -107 105 -199 127l-119 -514c105.333 -78 176 -143 212 -195s54.333 -109.333 55 -172
c0 -108 -42.333 -197.333 -127 -268s-189.334 -111 -314.001 -121l-41 -180h-86l41 180c-147.333 6.66699 -279 69.334 -395 188.001l137 111c26 -49.333 63.667 -92.666 113 -129.999s105.333 -61.666 168 -72.999l123 535c-165.333 109.333 -248 231.333 -248 366z" />
    <glyph glyph-name="percent" unicode="%" horiz-adv-x="1624" 
d="M1327 1370l-815 -1374h-104l813 1374h106zM1479 566c0 133.333 -46.667 200 -140 200c-64 0 -119 -37 -165 -111c-72.667 -113.333 -109 -251 -109 -413c0 -130 48.333 -195 145 -195c74 0.666992 135.667 50 185 148c56 114 84 237.667 84 371zM1606 532
c0 -147.333 -40 -276 -120 -386s-174.667 -164.667 -284 -164c-80 0 -143.333 28.333 -190 85s-70 132 -70 226c0 143.333 39.667 269.333 119 378s175 163 287 163c84 0 148 -28 192 -84s66 -128.667 66 -218zM672 1117c0 133.333 -46.667 200 -140 200
c-64 0 -119 -37 -165 -111c-72.667 -113.333 -109 -251 -109 -413c0 -130 48.333 -195 145 -195c74 0 135.667 49 185 147c56 114.667 84 238.667 84 372zM799 1083c0 -147.333 -39.999 -276.001 -119.999 -386.001s-174.667 -165 -284 -165
c-79.333 0 -142.333 28.333 -189 85s-70.334 132.334 -71.001 227.001c0 143.333 39.667 269.333 119 378s175 162.667 287 162c84.667 0 149 -27.667 193 -83s65.667 -128 65 -218z" />
    <glyph glyph-name="ampersand" unicode="&#x26;" horiz-adv-x="1921" 
d="M672 815c0 94 -44.333 141.001 -133 141.001c-60.667 0 -120.334 -41.333 -179.001 -124s-90.667 -180.334 -96 -293.001l47 18c142.667 63.333 251.334 125.333 326.001 186c23.333 18 35 42 35 72zM690 102.001c178.667 0 326.664 55.665 443.997 166.998
c116.667 111.333 215.334 266.666 296.001 465.999l-64 39c-24.667 16 -50 31.333 -76 46s-53.333 22 -82 22c-28 0 -52 -7.66699 -72 -23s-30 -40.666 -30 -75.999s10.333 -69.333 31 -102l-107 -47c-12 36.667 -18 68.667 -18 96c0 64 28.333 122 85 174
s114.334 78 173.001 78s146.334 -36.667 263.001 -110s207.667 -110.333 273 -111c24.667 0 45 9.33301 61 28c15.333 18 23 41 23 69s-20.333 72 -61 132l137 58c22 -44 33 -85 33 -123c0 -71.333 -27.667 -135.666 -83 -192.999s-113.333 -86 -174 -86s-141 28 -241 84
c-68.667 -218.667 -180.334 -393.334 -335.001 -524.001s-330.334 -196.334 -527.001 -197.001c-150 0 -275 43 -375 129s-150 201.667 -150 347c0 146 49 281 147 405c97.333 124 217.333 186 360 186c57.333 0 102.333 -16.667 135 -50s51.667 -72.666 57 -117.999
c96.667 76.667 189 163.334 277 260.001c62.667 70.667 94 146 94 226c0 39.333 -16.333 84.333 -49 135l153 82c31.333 -52 47 -106.667 47 -164s-20 -117.666 -60 -180.999s-112.667 -147 -218 -251s-220.666 -196.333 -345.999 -277s-275.666 -159 -450.999 -235
c0 -115.333 41.333 -204.333 124 -267s184.667 -94 306 -94z" />
    <glyph glyph-name="quotesingle" unicode="'" horiz-adv-x="309" 
d="M301 977h-57c30 272 55 454.333 75 547h162c-12 -58.667 -72 -241 -180 -547z" />
    <glyph glyph-name="parenleft" unicode="(" horiz-adv-x="622" 
d="M123 375c0 236.667 63.334 460.333 190.001 671s298 389.667 514 537l43 -53c-193.333 -166.667 -341.333 -345 -444 -535s-154 -405.667 -154 -647c0 -117.333 14.667 -241 44 -371s68.666 -237 117.999 -321l-51 -41c-78 86 -140.667 198.333 -188 337
c-48 138.667 -72 279.667 -72 423z" />
    <glyph glyph-name="parenright" unicode=")" horiz-adv-x="622" 
d="M573 823c0 -237.333 -63.335 -461 -190.002 -671s-298 -389 -514 -537l-43 53c192.667 166.667 340.334 345 443.001 535c103.333 190 155 405.667 155 647c0 117.333 -14.667 241 -44 371s-68.666 237 -117.999 321l51 41c78 -86 141 -198.333 189 -337
s71.667 -279.667 71 -423z" />
    <glyph glyph-name="asterisk" unicode="*" horiz-adv-x="894" 
d="M991 1255l21.0029 -131.003c-56 -9.33301 -168 -20.666 -336 -33.999c65.333 -69.333 128.666 -161.666 189.999 -276.999l-127 -61c-48 87.333 -89.667 191 -125 311c-98 -138 -169 -228.667 -213 -272l-100 90c53.333 56 142.666 131 267.999 225
c-130 36.667 -234.333 72.667 -313 108l63 121c49.333 -23.333 144.333 -80.666 285 -171.999c0 143.333 5.66699 255.333 17 336l135 -16c-12 -78 -40 -186.667 -84 -326c117.333 46 223.666 78.667 318.999 98z" />
    <glyph glyph-name="plus" unicode="+" horiz-adv-x="1497" 
d="M729 74h-123l115 499h-496l27 113h493l115 498h125l-115 -498h494l-27 -113h-493z" />
    <glyph glyph-name="comma" unicode="," horiz-adv-x="479" 
d="M-18 -457l-43 53.999c72.667 64.667 125.667 120.334 159 167.001c74 104 66.667 210 -22 318l147 102c54.667 -72.667 82 -145.667 82 -219c0.666992 -127.333 -107 -268 -323 -422z" />
    <glyph glyph-name="hyphen" unicode="-" horiz-adv-x="636" 
d="M578 455h-476l27 129h475z" />
    <glyph glyph-name="period" unicode="." horiz-adv-x="479" 
d="M183 -16c-32 0 -58.333 10 -79 30c-20 20 -30 46.667 -30 80c0 34 11.667 63.333 35 88s51 37 83 37s58 -10.333 78 -31c20 -21.333 29.667 -48 29 -80c0 -32 -11.333 -60.667 -34 -86s-50 -38 -82 -38z" />
    <glyph glyph-name="slash" unicode="/" horiz-adv-x="638" 
d="M856 1485l-803 -1581h-116l802 1581h117z" />
    <glyph glyph-name="zero" unicode="0" horiz-adv-x="1075" 
d="M723 1307c-58.667 0 -114.667 -26.668 -168 -80.001s-99.666 -130.666 -138.999 -231.999c-96.667 -254 -145.334 -479.333 -146.001 -676c0 -83.333 16 -149 48 -197s79.667 -71.667 143 -71c126.667 0 231 110 313 330c40.667 108 74 223.667 100 347
s39 227.333 39 312c0 178 -63.333 267 -190 267zM1067 987.999c0 -109.333 -14.667 -226.669 -44 -352.002c-62.667 -268 -168.667 -459.667 -318 -575c-78 -60 -160.667 -90 -248 -90c-118.667 0 -204.667 41.333 -258 124s-80 181.667 -80 297s13.667 229 41 341
c28 112.667 68 219.667 120 321s119.333 182.333 202 243s167 91.334 253 92.001c117.333 0 202 -39.333 254 -118c52 -79.333 78 -173.666 78 -282.999z" />
    <glyph glyph-name="one" unicode="1" horiz-adv-x="1075" 
d="M557 140c0 -24 12.001 -40.667 36.001 -50s73.333 -18.333 148 -27l-16 -65c-82 2.66699 -172.333 4 -271 4s-198 -1.33301 -298 -4l16 65c101.333 9.33301 164.666 23 189.999 41s47.333 66.667 66 146l180 756c18 70.667 27 116.667 27 138s-3.33301 35.333 -10 42
c-14 14.667 -75 22 -183 22l15 66c116 15.333 241.667 57 377 125l22 -15c-19.333 -56 -47.333 -159.667 -84 -311l-199 -827c-10.667 -46.667 -16 -82 -16 -106z" />
    <glyph glyph-name="two" unicode="2" horiz-adv-x="1075" 
d="M688 1391c104 0 182.997 -28.334 236.997 -85.001c54 -57.333 81 -126.666 81 -207.999c0 -145.333 -56.333 -290.333 -169 -435c-47.333 -60.667 -108.333 -125 -183 -193s-141.334 -125 -200.001 -171c-58.667 -45.333 -129.334 -97.333 -212.001 -156
c278.667 0 490.334 3.66699 635.001 11l-50 -156c-196.667 2.66699 -355 4 -475 4s-253.667 -1.33301 -401 -4l2 41c136.667 94 227 159 271 195l97 78l113 99c54.667 48.667 95.667 87.667 123 117c94.667 100.667 156.334 178 185.001 232c61.333 116 92 211 92 285
s-18.667 131 -56 171s-87.666 60 -150.999 60c-64 0 -122.667 -17.667 -176 -53s-110.666 -92 -171.999 -170l-64 37c140.667 200.667 298.334 301 473.001 301z" />
    <glyph glyph-name="three" unicode="3" horiz-adv-x="1075" 
d="M922 520c0 -112 -43.6699 -214.331 -131.003 -306.998s-195.666 -164 -324.999 -214s-261.333 -76.333 -396 -79l-9 129c28.667 -4 62.334 -6 101.001 -6c212 0 377.333 63 496 189c63.333 67.333 95.333 148.333 96 243c0 61.333 -18.667 115.666 -56 162.999
s-84 71 -140 71c-56.667 0 -126.667 -15 -210 -45l-18 71c138 44 219 72.667 243 86c150 75.333 225.333 184 226 326c0 42 -14 75.333 -42 100s-65.333 37 -112 37c-90 0 -189.667 -51.333 -299 -154l-49 56c136.667 138 276 207 418 207c72.667 0 132.334 -22 179.001 -66
s69.667 -98 69 -162c-0.666992 -158.667 -102.667 -285.667 -306 -381c78 0 141.667 -25.333 191 -76s74 -113.334 74 -188.001z" />
    <glyph glyph-name="four" unicode="4" horiz-adv-x="1075" 
d="M702 514l156 635l-579 -635h423zM846 514h205l-33 -131h-205l-102 -428h-144l103 428c-251.333 0 -448 -0.666992 -590 -2l-4 49c278.667 310 581 628 907 954l72 -6c-1.33301 -9.33301 -71 -297.333 -209 -864z" />
    <glyph glyph-name="five" unicode="5" horiz-adv-x="1075" 
d="M453 1002c0 -25.333 13.668 -43.332 41.001 -53.999c69.333 -28.667 110 -46.334 122 -53.001c97.333 -48 166.666 -98.333 207.999 -151c41.333 -53.333 62 -122 62 -206s-24.667 -165.667 -74 -245c-91.333 -145.333 -248.333 -251.333 -471 -318
c-100.667 -30 -204.667 -48.333 -312 -55l-9 133c28.667 -4 61.667 -6 99 -6c222.667 0 393 65.667 511 197c63.333 70.667 95 156.667 95 258c0 49.333 -15.333 96 -46 140s-71.667 80.667 -123 110s-103.333 53.333 -156 72s-78.667 43 -78 73c0 22 6.66699 48 20 78
l176 387c286.667 0 463 2.66699 529 8l-52 -143c-92.667 -4 -242.667 -6 -450 -6c-61.333 -120.667 -92 -193.667 -92 -219z" />
    <glyph glyph-name="six" unicode="6" horiz-adv-x="1075" 
d="M689 786c86.667 0 159.003 -31.3311 217.003 -93.998s87 -140.334 87 -233.001c0 -144.667 -45 -262.334 -135 -353.001c-90.667 -90.667 -198.667 -135.667 -324 -135c-125.333 0 -222 39.333 -290 118s-102.333 181.334 -103 308.001c0 236.667 93 455.667 279 657
s416.667 338 692 410l25 -69c-234.667 -71.333 -432.334 -198.333 -593.001 -381s-241 -390.334 -241 -623.001c-0.666992 -106.667 19.666 -189.667 60.999 -249s101 -89 179 -89s145 31.333 201 94s84.333 153 85 271c0 76 -17.667 142 -53 198
c-34.667 56 -83.334 84 -146.001 84s-115 -6 -157 -18l-18 51c69.333 35.333 147.333 53 234 53z" />
    <glyph glyph-name="seven" unicode="7" horiz-adv-x="1075" 
d="M747 1362c173.333 0 308.668 0.666992 406.001 2l12 -27l-938 -1427l-108 43l860 1264c-323.333 0 -565 -2.33301 -725 -7l57 156c117.333 -2.66699 262.666 -4 435.999 -4z" />
    <glyph glyph-name="eight" unicode="8" horiz-adv-x="1075" 
d="M950 1098c0 69.333 -20.667 123.334 -62 162.001s-94 57.667 -158 57s-120 -21.667 -168 -63c-47.333 -41.333 -70.666 -99 -69.999 -173c-0.666992 -103.333 66 -205 200 -305c69.333 27.333 129.666 70.666 180.999 129.999c51.333 58.667 77 122.667 77 192z
M254 322.001c0 -79.333 24 -143.334 72 -192.001s110 -73 186 -73s142.667 26.667 200 80c56.667 53.333 85 122.333 85 207c0 108 -80.667 220 -242 336c-84.667 -32.667 -156 -80.667 -214 -144s-87 -134.666 -87 -213.999zM344 1028
c0 109.333 39.332 197.332 117.999 263.999s171.334 100 278.001 100s190 -25.333 250 -76c60 -51.333 89.667 -120.333 89 -207c0 -86.667 -31.333 -161.667 -94 -225s-141.667 -112.333 -237 -147c132 -117.333 198 -233.333 198 -348s-42.667 -211.667 -128 -291
c-85.333 -78.667 -187.333 -118 -306 -118s-213.667 31.333 -285 94c-70.667 62.667 -106 143.334 -106 242.001c-0.666992 98.667 34.333 182.667 105 252s164 121 280 155c-108 94 -162 195.667 -162 305z" />
    <glyph glyph-name="nine" unicode="9" horiz-adv-x="1075" 
d="M184 901c0 144.667 45 262 135 352s197.667 135 323 135s222.666 -39 291.999 -117c68 -78.667 102 -181.334 102 -308.001c0 -236 -92.667 -455 -278 -657c-186 -201.333 -416.667 -338 -692 -410l-25 69c234.667 71.333 432.334 198.333 593.001 381
s240.667 390.334 240 623.001c0 106.667 -20.333 189.667 -61 249s-100 89 -178 89c-78 -0.666992 -145.333 -32.334 -202 -95.001s-85 -152.667 -85 -270c0 -76.667 19.333 -143 58 -199s94.334 -84 167.001 -84c50 0.666992 94.667 5.66699 134 15l16 -51
c-64 -32.667 -140.667 -49 -230 -49c-88.667 0 -162.334 31.333 -221.001 94s-88 140.334 -88 233.001z" />
    <glyph glyph-name="colon" unicode=":" horiz-adv-x="516" 
d="M193 -16c-32.667 0 -59 10 -79 30s-30 46.667 -30 80c0 34 11.667 63.333 35 88s51 37 83 37s58 -10.333 78 -31c20 -21.333 30 -48 30 -80s-11.667 -60.667 -35 -86c-22.667 -25.333 -50 -38 -82 -38zM365 737c-32.667 0 -59 10.001 -79 30.001s-30 47 -30 81
s11.667 63.333 35 88s51 37 83 37s58 -10.333 78 -31s30 -47.334 30 -80.001s-11.667 -61.667 -35 -87c-22.667 -25.333 -50 -38 -82 -38z" />
    <glyph glyph-name="semicolon" unicode=";" horiz-adv-x="516" 
d="M182 -87c0 52.667 -24.333 108.998 -73 168.998l147 102c54.667 -72.667 82 -145.667 82 -219c0 -127.333 -108 -268 -324 -422l-43 54c72.667 64.667 126 120.334 160 167.001s51 96.334 51 149.001zM365 736.998c-32.667 0 -59 10.001 -79 30.001s-30 47 -30 81
s11.667 63.333 35 88s51 37 83 37s58 -10.333 78 -31s30 -47.334 30 -80.001s-11.667 -61.667 -35 -87c-22.667 -25.333 -50 -38 -82 -38z" />
    <glyph glyph-name="less" unicode="&#x3c;" horiz-adv-x="1497" 
d="M1155 88l-872 469l32 141l1092 480l-33 -148l-952 -409l764 -404z" />
    <glyph glyph-name="equal" unicode="=" horiz-adv-x="1497" 
d="M1376 756h-1108l29 118h1108zM1290 377h-1108l27 117h1108z" />
    <glyph glyph-name="greater" unicode="&#x3e;" horiz-adv-x="1497" 
d="M440 1178l873 -469l-33 -142l-1092 -479l33 148l953 409l-764 404z" />
    <glyph glyph-name="question" unicode="?" horiz-adv-x="761" 
d="M265 -16c-32 0 -58.333 10 -79 30c-20 20 -30 46.667 -30 80c0 34 11.333 63.333 34 88c23.333 24.667 51 37 83 37s58 -10.333 78 -31c20 -21.333 30 -48 30 -80s-11.333 -60.667 -34 -86s-50 -38 -82 -38zM729 1056c0 70.667 -28.6631 131.332 -85.9961 181.999
c-57.333 50 -148 83 -272 99l37 150c125.333 -31.333 231 -88 317 -170c36.667 -35.333 65.667 -79 87 -131s32 -99.333 32 -142c0 -100 -26.333 -174 -79 -222s-146 -95.333 -280 -142c-34.667 -12.667 -56.334 -26.667 -65.001 -42l-18 -30
c-8 -13.333 -14.333 -29.666 -19 -48.999c-3.33301 -18 -8.33301 -39 -15 -63s-11.334 -41.333 -14.001 -52h-71c19.333 131.333 39.666 222.666 60.999 273.999s63.666 85 126.999 101c90 22 155.667 49.333 197 82c40.667 32.667 61 84.334 61 155.001z" />
    <glyph glyph-name="at" unicode="@" horiz-adv-x="1720" 
d="M1080 938c-76 0 -152 -46.998 -228 -140.998c-56 -68.667 -107.333 -148.334 -154 -239.001s-70 -161.334 -70 -212.001s17.333 -76 52 -76c56 0 129 45.333 219 136s161.333 181 214 271c52.667 90.667 79.667 158 81 202c0 39.333 -38 59 -114 59zM1133 276.002
c0.666992 -17.333 11.002 -25.9971 31.002 -25.9971s45 8.66699 75 26c98 58.667 176.333 144.667 235 258s88.334 232.666 89.001 357.999c0 125.333 -44 226.666 -132 303.999s-208 116.333 -360 117c-222.667 0 -408.334 -82.667 -557.001 -248s-223 -375 -223 -629
c0 -174.667 54.333 -315.667 163 -423s251.667 -160.666 429 -159.999c263.333 0 491.333 86.667 684 260l57 -64c-224 -202 -478 -303 -762 -303c-220 0 -394.667 61.667 -524 185s-194.333 289.666 -195 498.999c0 168 40.333 326 121 474s193.667 268 339 360
s305.333 137.667 480 137c113.333 0 211.333 -17 294 -51c83.333 -33.333 145.666 -78 186.999 -134c80 -106.667 119 -218.334 117 -335.001c0 -146 -38 -278 -114 -396c-76.667 -117.333 -178.334 -210.666 -305.001 -279.999
c-76.667 -40.667 -145.667 -61.334 -207 -62.001c-38 0 -57.333 17.333 -58 52c0 50.667 31 157 93 319l-7 4c-90 -118.667 -181.667 -211 -275 -277s-173.333 -99 -240 -99s-99.667 38 -99 114c0 62.667 19.667 140.667 59 234s94 181.333 164 264
c151.333 178.667 301 268 449 268c35.333 0 79 -4 131 -12l37 65l86 -6l-215 -600c-31.333 -84.667 -47 -149 -47 -193z" />
    <glyph glyph-name="A" unicode="A" horiz-adv-x="1449" 
d="M911 1225l-338 -578h404zM1075 4c-64 0 -150.667 -2.00098 -260 -6.00098l19 63c76 2 126.667 9.66699 152 23s38 36.333 38 69s-2.66699 76 -8 130l-31 282h-463l-166 -282c-42 -72.667 -63 -124 -63 -154c0 -39.333 55.333 -62 166 -68l-21 -63
c-94.667 4 -174 6 -238 6s-149 -2 -255 -6l18 63c58.667 6.66699 103 20 133 40s65.667 64 107 132l495 818c121.333 199.333 193 327 215 383l138 32c4 -91.333 17 -228.333 39 -411l94 -805c8 -74 22.667 -122.667 44 -146s65.333 -37.666 132 -42.999l-19 -63
c-113.333 4 -202 6 -266 6z" />
    <glyph glyph-name="B" unicode="B" horiz-adv-x="1275" 
d="M391 150c0 -48 67.999 -72.001 203.999 -72.001c136.667 0 241.667 30.333 315 91s110 148.334 110 263.001c0 68 -20.667 124.667 -62 170s-89.666 76 -144.999 92c-54.667 16 -111 23.667 -169 23c-58 0 -103.333 -0.666992 -136 -2l-92 -404
c-16.667 -74 -25 -127.667 -25 -161zM595.999 796.999c152.667 -0.666992 272.666 23.667 359.999 73s131 135.333 131 258c0 82.667 -28.667 144 -86 184s-124 60 -200 60c-39.333 0 -85.666 -2 -138.999 -6l-132 -567c9.33301 -1.33301 31.333 -2 66 -2zM1260 1141
c0 -190 -124.999 -315.666 -374.999 -376.999c88.667 -13.333 162.334 -49.333 221.001 -108s88 -127.667 88 -207c0 -106 -30.667 -193.667 -92 -263s-138 -118 -230 -146s-196.333 -42 -313 -42l-276 6c-32.667 0 -112.667 -2 -240 -6l14 63
c76.667 3.33301 123 17.666 139 42.999s32 70 48 134l227 970c9.33301 44 13.666 79 12.999 105s-11.334 44 -32.001 54c-21.333 10 -61.333 15.667 -120 17l16 64c68 -2.66699 152 -4 252 -4l229 2c124.667 0 227.667 -24.333 309 -73s122 -126 122 -232z" />
    <glyph glyph-name="C" unicode="C" horiz-adv-x="1468" 
d="M373 522c0 -144.667 40.667 -257.998 122 -339.998s183.666 -123 306.999 -123s217 24 281 72c72.667 52 135.667 141.333 189 268l82 -12c-39.333 -146 -73 -253 -101 -321c-148.667 -62.667 -310.667 -94 -486 -94s-314.333 49.333 -417 148s-154 232.667 -154 402
s38.333 326.666 115 471.999s184.334 261.666 323.001 348.999s293.334 131.333 464.001 132c128 0 260.333 -22 397 -66c-13.333 -61.333 -31 -184.333 -53 -369h-84c1.33301 26 2 63 2 111c-2.66699 84.667 -28.334 146 -77.001 184s-125 57 -229 57
s-200 -26.333 -288 -79c-88.667 -53.333 -161 -122.333 -217 -207s-99.333 -178 -130 -280s-46 -203.333 -46 -304z" />
    <glyph glyph-name="D" unicode="D" horiz-adv-x="1548" 
d="M406 194c0 -44 15.334 -74.334 46.001 -91.001c30.667 -17.333 81.334 -25.666 152.001 -24.999c120 0 227.333 20.333 322 61c175.333 75.333 295.666 209.666 360.999 402.999c29.333 86.667 44 178.334 44 275.001c0 186 -45 324.667 -135 416s-233.333 137 -430 137
c-34.667 0 -70.334 -2.66699 -107.001 -8l-233 -1018c-13.333 -56 -20 -106 -20 -150zM1509 824.999c0 -228 -74.666 -420.668 -223.999 -578.001c-73.333 -77.333 -169.666 -138.666 -288.999 -183.999s-254 -67.666 -404 -66.999l-295 8c-42 0 -126.667 -2 -254 -6l14 63
c76.667 3.33301 123 17.666 139 42.999s32 70 48 134l227 970c9.33301 44 13.666 79 12.999 105s-11.334 44 -32.001 54c-21.333 10 -61.333 15.667 -120 17l16 64c102.667 -4 186.667 -6 252 -6l223 2c457.333 0 686 -206.333 686 -619z" />
    <glyph glyph-name="E" unicode="E" horiz-adv-x="1259" 
d="M790 1442c192 0 339.004 2.66699 441.004 8c-10.667 -92.667 -17.667 -195 -21 -307h-65c-0.666992 96.667 -21 158.334 -61 185.001s-108 40 -204 40s-168 -2 -216 -6l-136 -569c187.333 0 298.666 5 333.999 15s63.666 28.333 84.999 55s41 66 59 118h73
c-54.667 -170.667 -92 -327.667 -112 -471h-70c2.66699 54.667 4 93.667 4 117c-1.33301 48 -32 75 -92 81s-159.667 9 -299 9l-88 -400c-15.333 -62.667 -22.333 -110.667 -21 -144c0.666992 -33.333 20.334 -57 59.001 -71c38.667 -13.333 107.334 -20 206.001 -20
s167.667 4.66699 207 14c79.333 19.333 157.666 98 234.999 236l61 -23c-40.667 -128.667 -79.334 -233.667 -116.001 -315c-42 2.66699 -298.667 6 -770 10c-32.667 0 -112.667 -2 -240 -6l14 63c76.667 3.33301 123 17.666 139 42.999s32 70 48 134l227 970
c9.33301 44 13.666 79 12.999 105s-11.334 44 -32.001 54c-21.333 10 -61.333 15.667 -120 17l16 64c102.667 -4 250 -6 442 -6z" />
    <glyph glyph-name="F" unicode="F" horiz-adv-x="1224" 
d="M312 4c-52 0 -141.664 -2 -268.997 -6l14 63c76.667 3.33301 123 17.666 139 42.999s32 70 48 134l227 970c9.33301 44 13.666 79 12.999 105s-11.334 44 -32.001 54c-21.333 10 -61.333 15.667 -120 17l16 64c102.667 -4 255 -6 457 -6s353.667 2.66699 455 8
c-8 -91.333 -15 -193.666 -21 -306.999h-68c0.666992 9.33301 1 30.333 1 63c-0.666992 70 -27.334 114.333 -80.001 133c-52.667 18 -119.334 27 -200.001 27c-80 0 -156 -2.66699 -228 -8l-140 -578c202.667 0 322 5.33301 358 16s65 29 87 55c22 26.667 41 66 57 118h74
c-56 -190 -93.667 -347 -113 -471h-69c2.66699 32.667 4 64.667 4 96c0 61.333 -31.667 95.333 -95 102c-38 6 -144.333 9 -319 9l-107 -457c-9.33301 -40 -13.666 -75.333 -12.999 -106s14 -51 40 -61s71 -16.667 135 -20l-14 -63c-106 4 -185 6 -237 6z" />
    <glyph glyph-name="G" unicode="G" horiz-adv-x="1581" 
d="M786 -31c-182.667 0.666992 -326.664 50.3281 -431.997 148.995s-158 233.334 -158 404.001s38.333 328.667 115 474s184.334 261.333 323.001 348s286.667 130.334 444 131.001c157.333 0 304.666 -22 441.999 -66c-18 -95.333 -36 -218.333 -54 -369h-84
c1.33301 26 2 63 2 111c-5.33301 159.333 -108.666 239.666 -309.999 240.999c-254 0.666992 -449.333 -129.666 -586 -390.999c-78 -152 -116.667 -307.667 -116 -467s43.667 -279 129 -359c84.667 -80 193 -120 325 -120c183.333 0 292.666 40 327.999 120
c10.667 22.667 22.667 64.667 36 126s19.666 108 18.999 140s-12 55.333 -34 70c-22.667 14.667 -72.334 23.334 -149.001 26.001l16 63c74 -2.66699 152.667 -4 236 -4s168.666 1.33301 255.999 4l-18 -63c-57.333 -1.33301 -95 -11.666 -113 -30.999
c-18 -20 -39.667 -82.667 -65 -188s-39.333 -186.666 -42 -243.999c-157.333 -70 -327.333 -105 -510 -105z" />
    <glyph glyph-name="H" unicode="H" horiz-adv-x="1619" 
d="M1489 1442c68 0 151.339 1.99707 250.006 5.99707l-17 -64c-80 -6.66699 -129.333 -19.667 -148 -39s-36.667 -66.333 -54 -141l-226 -962c-9.33301 -44 -14 -80 -14 -108s12.667 -46.333 38 -55s71.333 -14.667 138 -18l-14 -63c-106.667 4 -188 6 -244 6
s-147.333 -2 -274 -6l14 63c79.333 4 131.333 21.333 156 52c13.333 16.667 28.333 58.334 45 125.001l110 475h-739l-111 -471c-9.33301 -41.333 -14 -76.666 -14 -105.999s12.667 -48.333 38 -57s71.333 -14.667 138 -18l-14 -63c-106 4 -187 6 -243 6
s-147.667 -2 -275 -6l14 63c79.333 4 131.333 21.333 156 52c13.333 16.667 28.333 58.334 45 125.001l227 970c9.33301 44 13.666 79 12.999 105s-13.334 44 -38.001 54s-66 15.667 -124 17l16 64c102.667 -4 188 -6 256 -6s151.333 2 250 6l-17 -64
c-80.667 -6.66699 -130.334 -19.667 -149.001 -39s-36.334 -66.333 -53.001 -141l-95 -405h740l96 409c9.33301 44 13.666 79 12.999 105s-13.334 44 -38.001 54s-66 15.667 -124 17l16 64c102.667 -4 188 -6 256 -6z" />
    <glyph glyph-name="I" unicode="I" horiz-adv-x="727" 
d="M301 4c-46 0 -132.666 -1.99805 -259.999 -5.99805l14 63c78 3.33301 125 17.666 141 42.999s32 70 48 134l227 970c9.33301 44 13.666 79 12.999 105s-11.334 44 -32.001 54c-21.333 10 -61.333 15.667 -120 17l16 64c102.667 -4 183.667 -6 243 -6s140.333 2 243 6
l-17 -64c-74 -5.33301 -121 -19.666 -141 -42.999c-14.667 -14.667 -31.667 -60.334 -51 -137.001l-226 -962c-10.667 -48 -15.667 -84.333 -15 -109s12.334 -42.334 35.001 -53.001s64.667 -17 126 -19l-15 -63c-106.667 4 -183 6 -229 6z" />
    <glyph glyph-name="J" unicode="J" horiz-adv-x="700" 
d="M510 1302c0 28 -11.0029 48.001 -33.0029 60.001s-65.667 19.333 -131 22l16 64c62.667 -4 146.334 -6 251.001 -6s188.334 2 251.001 6l-16 -64c-80.667 -5.33301 -129.334 -19 -146.001 -41s-33.667 -68.333 -51 -139c-75.333 -316.667 -152.333 -662 -231 -1036
c-34 -148.667 -102.333 -274.334 -205 -377.001s-196.334 -153.667 -281.001 -153c-35.333 0 -74.666 6 -117.999 18l57 139c36.667 -18 78.334 -27 125.001 -27s82.334 8.66699 107.001 26c55.333 38 114 190.667 176 458l217 956c8 34.667 12 66 12 94z" />
    <glyph glyph-name="K" unicode="K" horiz-adv-x="1411" 
d="M301 4c-44.667 0 -130.665 -1.99805 -257.998 -5.99805l14 63c76.667 3.33301 123 17.666 139 42.999s32 70 48 134l227 970c9.33301 44 13.666 79 12.999 105s-11.334 44 -32.001 54c-21.333 10 -61.333 15.667 -120 17l16 64c102.667 -4 183.667 -6 243 -6
s140.333 2 243 6l-17 -64c-74 -5.33301 -121 -19.666 -141 -42.999c-16.667 -16.667 -33.667 -62.334 -51 -137.001l-99 -420c49.333 0 88.333 10.333 117 31c88.667 65.333 233.334 196.333 434.001 393c64 64 96.333 110 97 138c-1.33301 14.667 -9.66602 24 -24.999 28
s-49.333 7.33301 -102 10l16 64c86 -4 165.667 -6 239 -6s151.333 2 234 6l-16 -64c-57.333 -6.66699 -102 -18.667 -134 -36s-70 -45.333 -114 -84l-230 -208l-321 -290l399 -545c45.333 -61.333 84 -102.666 116 -123.999s76 -33.333 132 -36l-14 -63
c-102.667 4 -177.334 6 -224.001 6s-141.334 -2 -284.001 -6l14 63c56 3.33301 91.333 7.66602 106 12.999c38.667 15.333 25.334 68.333 -39.999 159l-310 424c-26.667 40 -62 60 -106 60l-111 -475c-10.667 -48 -15.667 -84.333 -15 -109s12 -42.334 34 -53.001
s63.667 -17 125 -19l-15 -63c-106.667 4 -182.334 6 -227.001 6z" />
    <glyph glyph-name="L" unicode="L" horiz-adv-x="1255" 
d="M606 1442c69.333 0 148.671 2.00098 238.004 6.00098l-17 -64c-80.667 -6.66699 -130.334 -20 -149.001 -40s-36.334 -66 -53.001 -138l-203 -889c-15.333 -62.667 -22.333 -110.667 -21 -144c0.666992 -33.333 20.334 -57 59.001 -71c38.667 -13.333 110 -20 214 -20
s176.667 5 218 15s80.666 31.667 117.999 65s78.333 91.333 123 174l61 -27c-35.333 -112 -74.333 -217 -117 -315c-38 2.66699 -302.667 6 -794 10c-32.667 0 -112.667 -2 -240 -6l14 63c76.667 3.33301 123 17.666 139 42.999s32 70 48 134l227 970
c9.33301 44 13.666 79 12.999 105s-11.334 44 -32.001 54c-21.333 10 -61.333 15.667 -120 17l16 64c102.667 -4 188.667 -6 258 -6z" />
    <glyph glyph-name="M" unicode="M" horiz-adv-x="1875" 
d="M1840 1444c62 0 114.999 1.33008 158.999 3.99707l-17 -64c-75.333 -1.33301 -126.333 -14 -153 -38s-51.667 -108.667 -75 -254l-140 -842c-6.66699 -41.333 -9.66699 -76.666 -9 -105.999s12.334 -49.333 35.001 -60s65 -18.334 127 -23.001l-14 -63
c-76.667 2.66699 -164 4 -262 4s-189.333 -1.33301 -274 -4l14 63c82 6.66699 135.667 20 161 40c25.333 20.667 47.333 78.334 66 173.001s44.667 240.334 78 437.001l90 506c-394.667 -592.667 -656.667 -1001 -786 -1225h-70c-18 160 -51.667 384.333 -101 673l-89 533
l-126 -428c-63.333 -214.667 -112.333 -392.667 -147 -534c-6.66699 -28.667 -10 -58.334 -10 -89.001c0 -30 14.333 -51 43 -63s77 -19.667 145 -23l-14 -63c-131.333 2.66699 -229 4 -293 4s-138.333 -1.33301 -223 -4l14 63c68 2.66699 116.333 15 145 37
c28 22 53.333 70 76 144c198.667 636 300.667 967.333 306 994s8 51.334 8 74.001s-14 39.334 -42 50.001s-76.333 18.667 -145 24l17 64c65.333 -2.66699 124.333 -4 177 -4s122.667 1.33301 210 4c2.66699 -93.333 16 -212.666 40 -357.999l136 -820l627 967
c42 61.333 83.667 131.666 125 210.999c65.333 -2.66699 129 -4 191 -4z" />
    <glyph glyph-name="N" unicode="N" horiz-adv-x="1642" 
d="M200 2c-97.333 0 -163.998 -1.33398 -199.998 -4.00098l12 63c82 6 135.667 24.333 161 55s53 109.334 83 236.001c121.333 504 185.666 772.667 192.999 806s11 62 11 86s-6.66699 48.333 -20 73s-31.333 41 -54 49s-64.667 14 -126 18l16 64
c54.667 -2.66699 106.667 -4 156 -4s98.666 1.33301 147.999 4c112 -216.667 238.333 -443.667 379 -681l286 -486c84.667 349.333 151 637.333 199 864c12 60 17.667 108.333 17 145c-0.666992 37.333 -13.667 61.333 -39 72s-72 18 -140 22l16 64
c98.667 -2.66699 179.334 -4 242.001 -4s146 1.33301 250 4l-16 -64c-76.667 -4 -126.667 -18.667 -150 -44s-48 -89.666 -74 -192.999c-126.667 -509.333 -212 -896.333 -256 -1161l-71 -6c-40.667 89.333 -263.334 484.333 -668.001 1185
c-70 -274 -135 -551.667 -195 -833c-16 -66.667 -24 -121.334 -24 -164.001s14 -70.667 42 -84c28 -12 75.333 -19.667 142 -23l-14 -63c-106.667 2.66699 -208.667 4 -306 4z" />
    <glyph glyph-name="O" unicode="O" horiz-adv-x="1492" 
d="M944 1391c-91.333 -0.666992 -175.334 -31 -252.001 -91c-133.333 -104.667 -228.666 -276.667 -285.999 -516c-24.667 -100 -37 -194.667 -37 -284c0 -144.667 31 -255 93 -331c61.333 -76 144 -114 248 -114s193 28.333 267 85c130 99.333 221 270.333 273 513
c22.667 102.667 34 210 34 322s-27.667 209.333 -83 292s-141 124 -257 124zM951.999 1473c164 0 289.333 -55.333 376 -166s130 -261 130 -451c0 -140.667 -30 -278 -90 -412c-60 -133.333 -147.667 -245.333 -263 -336s-248.333 -136 -399 -136s-272.667 54 -366 162
c-94 108 -141 248.667 -141 422s35.333 329.333 106 468s164 248 280 328c116 80.667 238.333 121 367 121z" />
    <glyph glyph-name="P" unicode="P" horiz-adv-x="1236" 
d="M1270 1098c0 -143.333 -52.3311 -256.333 -156.998 -339s-244.334 -124 -419.001 -124c-42 0 -82.333 2 -121 6l17 84c27.333 -4 60 -6 98 -6c124 0 223.333 31 298 93s112 154.667 112 278c0 188.667 -111.333 282.667 -334 282c-40 0 -75 -1.33301 -105 -4l-258 -1120
c-9.33301 -40 -13.666 -74.667 -12.999 -104s13 -50 37 -62s66.667 -19 128 -21l-14 -63c-107.333 4 -185 6 -233 6s-135.667 -2 -263 -6l14 63c76.667 3.33301 123 17.666 139 42.999s32 70 48 134l227 970c9.33301 44 13.666 79 12.999 105s-11.334 44 -32.001 54
c-21.333 10 -61.333 15.667 -120 17l16 64c102.667 -4 186.667 -6 252 -6l209 4c155.333 0 271 -30.667 347 -92s114 -146.666 114 -255.999z" />
    <glyph glyph-name="Q" unicode="Q" horiz-adv-x="1492" 
d="M1284 975c0 112 -27.668 209.334 -83.001 292.001s-141 124 -257 124c-91.333 -0.666992 -175.333 -31 -252 -91c-133.333 -104.667 -228.666 -276.667 -285.999 -516c-24.667 -100 -37 -194.667 -37 -284c0 -144.667 31.667 -255.334 95 -332.001
c62.667 -76.667 146 -115 250 -115s193 28.667 267 86s132 131.333 174 222s74 187.667 96 291s33 211 33 323zM951.999 1473c166.667 0 292.666 -54.9961 377.999 -164.996c85.333 -109.333 128 -253.333 128 -432s-43.667 -345.334 -131 -500.001
s-200.666 -267.667 -339.999 -339c-91.333 -46.667 -191 -84.334 -299 -113.001s-187.667 -45.667 -239 -51c68 -12.667 228 -51.667 480 -117s419.333 -98 502 -98s150.334 32 203.001 96l54 -41c-49.333 -56 -104.333 -101 -165 -135s-121.667 -51 -183 -51
c-99.333 0 -300.333 49.667 -603 149s-533.334 152.666 -692.001 159.999l78 109c76.667 -10.667 125.667 -16.334 147 -17.001c122.667 0 245 18 367 54c-136.667 20 -244 82 -322 186s-117 238 -117 402s35.667 315.333 107 454c70.667 138.667 164 248 280 328
c116 80.667 238.333 121 367 121z" />
    <glyph glyph-name="R" unicode="R" horiz-adv-x="1394" 
d="M1071 1106c0 178.667 -104.336 268.002 -313.003 268.002c-18 0 -49.333 -2 -94 -6l-142 -606c24.667 -4 60.334 -6 107.001 -6c144.667 1.33301 254.334 32.666 329.001 93.999s112.334 146.666 113.001 255.999zM1247 1118
c0 -106.667 -34.666 -195.33 -103.999 -265.997s-167 -119.667 -293 -147c128.667 -296.667 240 -490.334 334 -581.001c35.333 -34.667 75 -63 119 -85l-17 -53c-130.667 4 -234.667 54.333 -312 151s-170.666 279 -279.999 547c-15.333 -1.33301 -43.333 -2 -84 -2
s-76 1.33301 -106 4l-105 -444c-10.667 -46.667 -15.667 -83.334 -15 -110.001s13 -44.667 37 -54s66 -15 126 -17l-15 -63c-102.667 4 -178 6 -226 6s-135.667 -2 -263 -6l14 63c75.333 3.33301 121.666 17.666 138.999 42.999s33.333 70 48 134l227 970
c9.33301 44 13.666 79 12.999 105s-11.334 44 -32.001 54c-21.333 10 -61.333 15.667 -120 17l16 64c102.667 -4 187.334 -6 254.001 -6l209 4c290.667 0 436 -109.333 436 -328z" />
    <glyph glyph-name="S" unicode="S" horiz-adv-x="1060" 
d="M1028 1153c0 161.333 -82.6699 241.999 -248.003 241.999c-88.667 0 -161 -21.667 -217 -65s-84 -98.666 -84 -165.999s15.333 -125.666 46 -174.999c31.333 -50 97 -114.333 197 -193s169.333 -148.334 208 -209.001s57.667 -120.334 57 -179.001
c0 -131.333 -44.333 -237.333 -133 -318c-89.333 -80.667 -208.666 -121 -357.999 -121s-292.666 41.667 -429.999 125c22 88.667 44.333 203.334 67 344.001h76c-4 -28 -5.33301 -76 -4 -144s31.333 -124.667 90 -170s134.334 -68.333 227.001 -69
c92.667 0 166.667 27.667 222 83c55.333 54.667 83 118 83 190s-14.667 130.333 -44 175c-30 44.667 -94.333 107 -193 187s-167.667 150.333 -207 211c-39.333 60 -59 125.667 -59 197c0 116 42.333 208 127 276s195 102 331 102s258.333 -25 367 -75
c-18.667 -94.667 -35.667 -202.667 -51 -324h-72c1.33301 18 2 43.333 2 76z" />
    <glyph glyph-name="T" unicode="T" horiz-adv-x="1394" 
d="M707 137c0 -46.667 57.334 -72.001 172.001 -76.001l-15 -63c-93.333 4 -188 6 -284 6s-174.667 -2 -236 -6l14 63c88.667 2.66699 143.334 19.334 164.001 50.001c12 19.333 26.333 61.666 43 126.999l262 1118c-24.667 2.66699 -77.667 4 -159 4
s-139 -3.66699 -173 -11s-61 -18.666 -81 -33.999s-37.667 -35 -53 -59c-14.667 -24 -36.667 -66.667 -66 -128l-66 15l113 358h64c0 -18 5.33301 -30.333 16 -37c15.333 -14.667 184.333 -22 507 -22s495.667 3 519 9s41.666 23.333 54.999 52l64 -6
c-42 -134 -75.667 -258.333 -101 -373h-65c4 35.333 6 75 6 119c0.666992 44.667 -20.333 75.667 -63 93s-128.334 26 -257.001 26c-26.667 0 -62 -1.33301 -106 -4l-260 -1116c-9.33301 -42 -14 -77 -14 -105z" />
    <glyph glyph-name="U" unicode="U" horiz-adv-x="1576" 
d="M681 -31c-120.667 0 -227.998 30.999 -321.998 92.999c-93.333 62 -140 155.333 -140 280c0 75.333 12.333 164 37 266l143 600c9.33301 39.333 14.333 76.333 15 111c-2.66699 39.333 -53.334 61 -152.001 65l17 64c122 -4 207.667 -6 257 -6s127.333 2 234 6l-16 -64
c-82 -5.33301 -131.333 -18.333 -148 -39c-17.333 -20.667 -34.666 -64.334 -51.999 -131.001s-43 -172.667 -77 -318l-73 -310c-14.667 -61.333 -22.334 -127.666 -23.001 -198.999c0 -111.333 34.333 -189.666 103 -234.999s154.334 -68 257.001 -68
c143.333 0 249.333 26.333 318 79c26 20.667 47.667 39 65 55c30 27.333 58.667 72 86 134s58.333 166.667 93 314c76.667 322 114.667 526.667 114 614c0 40 -13 66.667 -39 80s-70.333 21.333 -133 24l17 64c98.667 -2.66699 180 -4 244 -4s147.667 1.33301 251 4l-16 -64
c-76.667 -4 -127.334 -19.333 -152.001 -46s-46.334 -78 -65.001 -154c-18.667 -76.667 -42.667 -187.667 -72 -333c-30 -145.333 -56.333 -258 -79 -338s-50 -151.667 -82 -215s-73.333 -121.333 -124 -174c-51.333 -52.667 -115 -91.667 -191 -117s-174.333 -38 -295 -38z
" />
    <glyph glyph-name="V" unicode="V" horiz-adv-x="1490" 
d="M1466 1442c94 0 167.996 1.99902 221.996 5.99902l-17 -64c-47.333 -2.66699 -83.666 -11.334 -108.999 -26.001s-61.333 -59.667 -108 -135c-501.333 -801.333 -760 -1216.67 -776 -1246h-78c-9.33301 92.667 -79 518 -209 1276
c-5.33301 46.667 -17.666 79.667 -36.999 99c-26 22 -69 32.667 -129 32l17 64c102.667 -4 192 -6 268 -6s163.333 2 262 6l-16 -64l-135 -12c-26 -5.33301 -43 -15.333 -51 -30s-12.333 -34.667 -13 -60c0.666992 -25.333 6.33398 -83.666 17.001 -174.999
c10.667 -92 57.667 -388.667 141 -890l585 959c64.667 111.333 76.334 175.333 35.001 192c-22 10.667 -69.667 16 -143 16l16 64c78 -4 164 -6 258 -6z" />
    <glyph glyph-name="W" unicode="W" horiz-adv-x="2136" 
d="M2082 1442c85.333 0 165.335 1.99805 240.002 5.99805l-16 -64c-80.667 -2.66699 -140.667 -33.334 -180 -92.001l-846 -1315h-78c-12 80.667 -48 285 -108 613l-387 -613h-78c-27.333 191.333 -108.666 618 -243.999 1280c-6.66699 40.667 -17.667 72.334 -33 95.001
c-16.667 22 -59 32.667 -127 32l17 64c102.667 -4 194 -6 274 -6s152.333 2 217 6l-16 -64c-35.333 -1.33301 -63.666 -3.66602 -84.999 -6.99902s-41 -12.333 -59 -27s-27 -34.334 -27 -59.001c0 -24 3 -56.333 9 -97c44 -258 106.667 -584.333 188 -979l324 496
c-26 143.333 -62.333 325.333 -109 546c-6.66699 40.667 -17.334 72.334 -32.001 95.001c-16.667 22 -54.334 32.667 -113.001 32l16 64c114.667 -4 188.334 -6 221.001 -6c33.333 0 76.666 1 129.999 3s81.333 3 84 3l-17 -64c-50 -1.33301 -85 -7.66602 -105 -18.999
s-30 -37 -30 -77c0 -8 3.33301 -39.333 10 -94c13.333 -79.333 34 -191.333 62 -336l202 322c46.667 70.667 70 121 70 151c-2.66699 35.333 -38.667 53 -108 53l16 64c49.333 -4 115.333 -6 198 -6s154.667 2 216 6l-17 -64c-68 -2.66699 -116.667 -20.334 -146 -53.001
s-90.333 -118.667 -183 -258s-168 -247 -226 -323l107 -537c327.333 500 521.666 804.333 582.999 913c61.333 108 92 173.333 92 196s-9.33301 38.334 -28 47.001c-18 8.66699 -52 13.667 -102 15l16 64c53.333 -4 122.666 -6 207.999 -6z" />
    <glyph glyph-name="X" unicode="X" horiz-adv-x="1431" 
d="M224 4c-52 0 -147.664 -2.00586 -286.997 -6.00586l12 63c54.667 2.66699 100.667 14.334 138 35.001s89 64.334 155 131.001l471 500l-228 494c-30 65.333 -58.667 108 -86 128s-69.666 31.667 -126.999 35l17 64c147.333 -4 243.666 -6 288.999 -6s108.666 2 189.999 6
l-16 -64c-57.333 -1.33301 -94.333 -6.66602 -111 -15.999s-25 -24.666 -25 -45.999s20 -75 60 -161l143 -321c92.667 96.667 203.334 219.334 332.001 368.001c53.333 64 80 105.667 80 125s-8.66699 32.333 -26 39s-53 10.667 -107 12l16 64c86 -4 168.667 -6 248 -6
s153.666 2 222.999 6l-16 -64c-46.667 -4 -88.334 -16.667 -125.001 -38s-91.334 -69.333 -164.001 -144c-15.333 -15.333 -154.666 -164.666 -417.999 -447.999l246 -529c33.333 -71.333 68.333 -115 105 -131s80 -27 130 -33l-12 -63c-86 4 -152.333 6 -199 6
s-154.334 -2 -323.001 -6l12 63c96.667 2.66699 145.334 26 146.001 70c-0.666992 22 -18 74.667 -52 158l-155 350l-286 -306c-98.667 -110 -147.334 -182 -146.001 -216s50.333 -52.667 147 -56l-12 -63c-107.333 4 -187 6 -239 6z" />
    <glyph glyph-name="Y" unicode="Y" horiz-adv-x="1335" 
d="M616 4c-49.333 0 -147.331 -2 -293.998 -6l14 63c91.333 1.33301 148 17.333 170 48c15.333 26 29.666 69 42.999 129l88 387l-215 600c-24.667 66.667 -49 109 -73 127s-62.667 28.667 -116 32l17 64c131.333 -4 225.333 -6 282 -6s123.667 2 201 6l-16 -64
c-32.667 -1.33301 -58 -3 -76 -5c-50.667 -5.33301 -76 -25.333 -76 -60c0 -24.667 7.66699 -59.667 23 -105c84.667 -262 139.334 -426.333 164.001 -493c80.667 91.333 204.667 248.333 372 471c53.333 70.667 79.666 116.334 78.999 137.001s-9.66699 34.667 -27 42
c-18 7.33301 -55 11.666 -111 12.999l16 64c48 -4 113.333 -6 196 -6s169 2 259 6l-16 -64c-46.667 -4 -84 -15.333 -112 -34s-75.333 -68 -142 -148l-465 -561l-96 -399c-10 -45.333 -15 -81 -15 -107s11.667 -44.333 35 -55s67.666 -17 132.999 -19l-14 -63
c-102.667 4 -178.667 6 -228 6z" />
    <glyph glyph-name="Z" unicode="Z" horiz-adv-x="1400" 
d="M871 1362c-144.667 0 -240.999 -5.33203 -288.999 -15.999s-88.667 -32 -122 -64s-72 -89.333 -116 -172l-76 27c36.667 78 84 198.667 142 362h79c3.33301 -19.333 9.66602 -32.333 18.999 -39s34 -11 74 -13s166 -3 378 -3s372.667 2 482 6l10 -33l-1151 -1311
c62 -5.33301 171.667 -8 329 -8s268 2 332 6s114 15 150 33c58.667 28.667 122.334 104.667 191.001 228l77 -21c-36.667 -84.667 -82.334 -201.334 -137.001 -350.001l-602 10c-218.667 0 -420 -3.33301 -604 -10l-10 37l1175 1327c-76.667 2.66699 -187 4 -331 4z" />
    <glyph glyph-name="bracketleft" unicode="[" horiz-adv-x="591" 
d="M551 1458l-397 -1722h235l-18 -78h-375l434 1878h379l-18 -78h-240z" />
    <glyph glyph-name="backslash" unicode="\" horiz-adv-x="751" 
d="M571 -96l-331 1581h104l332 -1581h-105z" />
    <glyph glyph-name="bracketright" unicode="]" horiz-adv-x="591" 
d="M125 -262l397 1722h-235l18 78h375l-434 -1878h-379l18 78h240z" />
    <glyph glyph-name="asciicircum" unicode="^" horiz-adv-x="1497" 
d="M1292 604h-133l-182 721l-514 -721h-144l611 842h139z" />
    <glyph glyph-name="underscore" unicode="_" horiz-adv-x="1024" 
d="M922 -422h-1063l28 121h1063z" />
    <glyph glyph-name="grave" unicode="`" horiz-adv-x="604" 
d="M119 1475l167.999 49c52 -109.333 119.333 -234.333 202 -375l-36 -23c-65.333 58 -176.666 174.333 -333.999 349z" />
    <glyph glyph-name="a" unicode="a" horiz-adv-x="1169" 
d="M899 805c0 22 -14.332 38.667 -42.999 50s-63.334 17 -104.001 17c-92.667 0 -179.334 -53 -260.001 -159c-58.667 -79.333 -112 -171 -160 -275s-72 -188 -72 -252c0 -24 6 -43.333 18 -58s27.333 -22 46 -22c65.333 0 151.333 54.333 258 163
s191.334 221.667 254.001 339c42 83.333 63 149 63 197zM862.001 135c0 -19.333 9.66699 -29.002 29 -29.002c38 0 111.667 50.667 221 152l43 -45c-162.667 -160 -287 -240 -373 -240c-46.667 0 -70 27 -70 81s28.333 169 85 345l-6 4
c-96.667 -134 -196 -239.667 -298 -317s-187.667 -115.666 -257 -114.999c-87.333 0 -131.333 50 -132 150c0 72.667 21.333 160.334 64 263.001s100 199.334 172 290.001c158.667 199.333 319.667 299 483 299c49.333 -0.666992 99.333 -5.66699 150 -15l39 76l100 -8
l-207 -670c-28.667 -92.667 -43 -166.334 -43 -221.001z" />
    <glyph glyph-name="b" unicode="b" horiz-adv-x="1087" 
d="M420 72c57.333 0 120.335 28.334 189.002 85.001s130 136.667 184 240c68 135.333 102 260.333 102 375c0 60 -21.333 90 -64 90c-56 0 -130.333 -44.333 -223 -133s-164.334 -179.334 -215.001 -272.001c-64 -124 -96 -221 -96 -291c0 -30.667 11.667 -54 35 -70
s52.666 -24 87.999 -24zM924.002 999.001c86 0 129.003 -65.668 129.003 -197.001c0.666992 -62.667 -16.333 -142 -51 -238s-82 -183.667 -142 -263c-162.667 -218.667 -330 -328 -502 -328c-54.667 0.666992 -101.334 17 -140.001 49s-58 73.333 -58 124
s17.667 135 53 253l248 832c23.333 82 34.666 134.333 33.999 157s-8.33398 39 -23.001 49s-45 20.333 -91 31l12 43c94 16.667 193 43.334 297 80.001l19 -16l-95 -275l-131 -417c-39.333 -130 -72 -229 -98 -297l10 -6c68 104 152.667 200 254 288s193 131.667 275 131z
" />
    <glyph glyph-name="c" unicode="c" horiz-adv-x="768" 
d="M300 -29c-134.667 0 -202 74.001 -202 222.001c0 88.667 17.333 185.667 52 291s83.667 197.333 147 276c130 161.333 270 241.666 420 240.999c53.333 0 105 -15 155 -45l-88 -143c-58.667 45.333 -121.334 68 -188.001 68c-82 0 -154.333 -56 -217 -168
c-87.333 -157.333 -131 -315 -131 -473c0 -98 41.667 -147.333 125 -148c92.667 0 196.334 52 311.001 156l45 -41c-151.333 -157.333 -294.333 -236 -429 -236z" />
    <glyph glyph-name="d" unicode="d" horiz-adv-x="1169" 
d="M905 805c0 22 -13 40.333 -39 55s-62.667 21.667 -110 21c-91.333 0 -180.333 -56.667 -267 -170c-59.333 -79.333 -112.333 -171 -159 -275s-70 -185 -70 -243s22.667 -87 68 -87c49.333 0 117.333 38.333 204 115s175.667 182 267 316c70.667 108 106 197.333 106 268z
M893 106c36.667 0 109.667 50.6631 219 151.996l43 -47c-155.333 -158.667 -279 -238 -371 -238c-46.667 0 -70 26.333 -70 79s29 164.334 87 335.001l-10 6c-104.667 -135.333 -206.334 -239.666 -305.001 -312.999s-182 -109.666 -250 -108.999
c-87.333 0 -131.333 48.667 -132 146c0 75.333 20.667 165 62 269s99.333 200.667 174 290c166.667 203.333 328.334 305 485.001 305c41.333 0 87.333 -4.66699 138 -14l79 264c23.333 79.333 34.666 131 33.999 155s-8.33398 41 -23.001 51
c-15.333 10 -45.333 20.333 -90 31l12 43c94 16.667 193 43.334 297 80.001l18 -16c-49.333 -139.333 -80.666 -231 -93.999 -275l-291 -944c-27.333 -90 -41 -164.333 -41 -223c2.66699 -18 12.334 -27 29.001 -27z" />
    <glyph glyph-name="e" unicode="e" horiz-adv-x="804" 
d="M636 907c-50.667 0.666992 -109.333 -35 -176 -107s-119.667 -164 -159 -276c146 39.333 251 84 315 134s96.333 107.667 97 173c0 50.667 -25.667 76 -77 76zM246.001 240c0 -98 42.334 -147.333 127.001 -148c92.667 0 197 52 313 156l43 -41
c-150 -157.333 -292.667 -236 -428 -236s-203 76 -203 228c0 80.667 19.333 175.667 58 285s94.667 207.333 168 294c125.333 148.667 255.666 223 390.999 223c43.333 -0.666992 78.333 -13.667 105 -39s40 -61.333 40 -108c0 -92 -47 -169.333 -141 -232
s-239.333 -115 -436 -157c-24.667 -68 -37 -143 -37 -225z" />
    <glyph glyph-name="f" unicode="f" horiz-adv-x="630" 
d="M932 1593c72.667 0 125.333 -11.3301 158 -33.9971l-82 -146c-52 38 -110.667 57 -176 57s-119.333 -30.667 -162 -92c-31.333 -50.667 -68.333 -156.334 -111 -317.001l-31 -117h228l-29 -94h-221l-164 -690c-66.667 -280 -156.667 -478 -270 -594
c-75.333 -78 -156.666 -117 -243.999 -117c-45.333 0 -90.333 10.333 -135 31l69 129c37.333 -26 80.666 -39 129.999 -39s90.666 19 123.999 57c56 64 113.333 223 172 477l168 746h-180l25 68c87.333 9.33301 141.666 23.666 162.999 42.999s43.333 61.333 66 126l50 141
c10.667 29.333 29.334 66.666 56.001 111.999s56.334 84 89.001 116c90 91.333 192.333 137 307 137z" />
    <glyph glyph-name="g" unicode="g" horiz-adv-x="958" 
d="M428 -477c93.333 0 170.003 19.333 230.003 58c60 38 90.667 86.333 92 145s-18.667 104 -60 136s-88.333 59.333 -141 82s-100.334 34 -143.001 34s-108.334 -26.667 -197.001 -80c-71.333 -42.667 -107 -96 -107 -160s31.333 -116 94 -156
c61.333 -40 138.666 -59.667 231.999 -59zM729.003 791c0 90 -42.332 135 -126.999 135c-54.667 0 -103.334 -23.333 -146.001 -70s-74 -98.667 -94 -156c-18.667 -57.333 -28 -110 -28 -158s12 -85 36 -111c24 -26.667 60 -40 108 -40s92.667 25 134 75
c42 50 72 104.333 90 163s27 112.667 27 162zM864.004 750c0 -125.333 -49.001 -232.002 -147.001 -320.002c-48 -44 -119.667 -82.333 -215 -115c-69.333 -26 -104.333 -56.667 -105 -92c0 -49.333 37 -89.666 111 -120.999c152.667 -64 257.667 -120.667 315 -170
s86 -106.666 86 -171.999c0 -84.667 -45.333 -158.334 -136 -221.001c-91.333 -62.667 -207 -94 -347 -94s-252 27.333 -336 82c-83.333 54 -125 116.333 -125 187s27.333 130 82 178s154.334 96.333 299.001 145c-68 32.667 -102.667 85.334 -104 158.001l153 127
c-131.333 35.333 -197 114.333 -197 237s41.667 227 125 313c82.667 86 175 129 277 129s177.667 -37.333 227 -112c139.333 0 220 2 242 6l-33 -98c-9.33301 -1.33301 -27 -2 -53 -2s-67 2 -123 6c2.66699 -8 4 -25 4 -51z" />
    <glyph glyph-name="h" unicode="h" horiz-adv-x="1069" 
d="M721 1575l-314.997 -965.001l12 -6c74 114.667 156 208.667 246 282s172.333 109.666 247 108.999c39.333 0 69.666 -14 90.999 -42s32 -67 32 -117c0 -135.333 -28.667 -277.666 -86 -426.999s-138.333 -270.666 -243 -363.999
c-52.667 -46.667 -102.334 -70 -149.001 -70s-92 7 -136 21l63 133c48 -23.333 87 -35 117 -35c48 0 92.667 30.667 134 92s76 152.666 104 273.999c28.667 121.333 43 223.333 43 306c0 64 -23.333 96 -70 96c-50.667 0 -118 -43.667 -202 -131s-149.667 -178 -197 -272
c-24.667 -48 -88.334 -203 -191.001 -465l-117 12l367 1225c23.333 79.333 34.666 131 33.999 155s-8.66699 41 -24 51s-45.333 20.333 -90 31l12 43c96.667 16.667 196.334 43.334 299.001 80.001z" />
    <glyph glyph-name="i" unicode="i" horiz-adv-x="632" 
d="M565 934c0 -37.333 -10.001 -86.0029 -30.001 -146.003l-39 -122c-6.66699 -21.333 -37.667 -107 -93 -257c-55.333 -150.667 -83.333 -245.334 -84 -284.001c6 -31.333 43.667 -24.666 113 20.001c42 27.333 85 61.666 129 102.999l43 -43
c-161.333 -157.333 -291 -236 -389 -236c-44 0 -65.667 20 -65 60c0 32.667 10 80.334 30 143.001c20.667 62.667 63.667 178.334 129 347.001s98.333 271.334 99 308.001c0 19.333 -9 29 -27 29c-28.667 0 -90.667 -46.333 -186 -139l-41 43
c66.667 73.333 131.334 132 194.001 176s112 65.667 148 65c46 0.666992 69 -21.666 69 -66.999zM591.999 1507c28 -0.666992 50.001 -8.99902 66.001 -24.999s24 -39.333 24 -70s-10.333 -59.334 -31 -86.001s-45.334 -40 -74.001 -40s-51 8.33301 -67 25
s-24.333 39.667 -25 69c0 29.333 11 58 33 86c22 27.333 46.667 41 74 41z" />
    <glyph glyph-name="j" unicode="j" horiz-adv-x="516" 
d="M616 1412c0 -30.667 -9.99902 -59.332 -29.999 -85.999s-44.667 -40 -74 -40c-28.667 0 -51.334 8.33301 -68.001 25c-16 16.667 -24 39.667 -24 69s11 58 33 86c22 27.333 46.333 41 73 41s48.667 -8 66 -24c16 -16.667 24 -40.334 24 -71.001zM492.001 934.002
c0 -97.333 -40 -292.668 -120 -586.001s-157.667 -505.666 -233 -636.999c-42 -72.667 -94.667 -131 -158 -175s-130 -65.333 -200 -64c-31.333 0 -60.666 4.66699 -87.999 14l59 133c38.667 -22 76.667 -33 114 -33s66.666 6.66699 87.999 20
c48.667 30 112.667 177.333 192 442c79.333 265.333 136 487 170 665c12 60.667 18 99.667 18 117s-9 26 -27 26c-28.667 0 -90.667 -46.333 -186 -139l-41 43c66.667 73.333 131 132 193 176s111 65.667 147 65c48 0 72 -22.333 72 -67z" />
    <glyph glyph-name="k" unicode="k" horiz-adv-x="1050" 
d="M905 782c0 27.333 -8.33301 51 -25 71c-17.333 20 -42 30 -74 30s-80.667 -30 -146 -90s-117.666 -112.333 -156.999 -157c-38.667 -44.667 -73.334 -105 -104.001 -181c154 35.333 277 84.333 369 147s137.667 122.667 137 180zM1051 808
c0 -58 -27.333 -113.333 -82 -166s-160 -111 -316 -175c62.667 -242 120.667 -363.667 174 -365c24.667 0 51 8 79 24s72.667 49 134 99l41 -43c-144.667 -144.667 -247.667 -217 -309 -217c-48 0 -82 21.333 -102 64c-35.333 69.333 -79 201.666 -131 396.999
c-62.667 -19.333 -118 -32.333 -166 -39c-36.667 -98 -82.334 -229 -137.001 -393l-117 12l366 1225c23.333 79.333 34.666 131 33.999 155s-8.33398 41 -23.001 51c-15.333 10 -45.333 20.333 -90 31l12 43c96.667 16.667 196.334 43.334 299.001 80.001l18 -16
c-38 -106.667 -91.667 -269 -161 -487s-114.666 -358 -135.999 -420l6 -4c176.667 226 323 338.333 439 337c50.667 0 91.334 -17.667 122.001 -53s46 -82 46 -140z" />
    <glyph glyph-name="l" unicode="l" horiz-adv-x="634" 
d="M227 -31c-22 0.666992 -40.3301 7.66797 -54.9971 21.001s-21.334 31.666 -20.001 54.999c0 53.333 39.333 209.666 118 468.999l215 717c23.333 74 34.666 124.333 33.999 151s-8.33398 45 -23.001 55c-15.333 10 -45.333 20.333 -90 31l12 43
c94 16.667 193 43.334 297 80.001l18 -16c-49.333 -139.333 -80.666 -231 -93.999 -275l-229 -776c-62.667 -214 -94.334 -341.667 -95.001 -383c0 -23.333 11.667 -35 35 -35c42 0.666992 113.667 48 215 142l43 -43c-161.333 -157.333 -288.333 -236 -381 -236z" />
    <glyph glyph-name="m" unicode="m" horiz-adv-x="1724" 
d="M1454 34c-72 -44 -129.334 -65.667 -172.001 -65c-43.333 0.666992 -65 20.334 -65 59.001c0 20 8.66699 57.333 26 112c18 56 59.667 174 125 354s98 290.333 98 331c0 23.333 -15 35 -45 35s-77.333 -25.333 -142 -76s-133 -122 -205 -214s-164.333 -284 -277 -576
l-113 12l164 533c45.333 139.333 67.666 236.666 66.999 291.999c0 23.333 -12.667 35 -38 35c-76.667 0 -191.667 -98.333 -345 -295c-64 -82 -154.667 -274.333 -272 -577l-117 12l207 674c23.333 80 35 129.333 35 148s-9 28 -27 28c-28.667 0 -90.667 -46.333 -186 -139
l-41 43c67.333 73.333 132.333 132 195 176s111.667 65.667 147 65c45.333 0 68 -23 68 -69c0.666992 -31.333 -5.66602 -66.333 -18.999 -105c-13.333 -38 -23 -66.667 -29 -86s-16.667 -50 -32 -92s-25.666 -71.333 -30.999 -88l12 -4l75 104
c30 42.667 68 87.334 114 134.001c136.667 138 247.334 206.667 332.001 206c30 -0.666992 54.333 -9.66699 73 -27s27.667 -45.333 27 -84c0 -38.667 -32 -148.334 -96 -329.001l12 -4c3.33301 3.33301 24.333 32.333 63 87s81.667 105 129 151
c139.333 134 255.666 200.667 348.999 200c65.333 0 98 -34.667 98 -104c0 -56.667 -39.333 -193.667 -118 -411s-118 -334.333 -118 -351c2.66699 -13.333 11 -20 25 -20c45.333 0 120.333 47.667 225 143l43 -43c-75.333 -72.667 -149 -131 -221 -175z" />
    <glyph glyph-name="n" unicode="n" horiz-adv-x="1196" 
d="M993 1001c67.333 0.666992 101.002 -38.334 101.002 -117.001c0 -42.667 -40 -175.334 -120 -398.001c-80 -221.333 -120 -340.333 -120 -357c0 -13.333 9 -20 27 -20s48.667 13.667 92 41s87.666 61.333 132.999 102l39 -41c-165.333 -161.333 -296.333 -242 -393 -242
c-40.667 0 -61.334 18 -62.001 54c0 40.667 42 176.334 126 407.001s126 361 126 391s-13 45 -39 45c-32.667 0 -84 -26.667 -154 -80s-140.667 -125.666 -212 -216.999s-163.666 -283 -276.999 -575l-117 12l207 674c23.333 77.333 35 126 35 146s-9 30 -27 30
c-32.667 0 -95.334 -45.667 -188.001 -137l-39 39c66 72 131 130.667 195 176s113.667 67.666 149 66.999c44 0 66 -23 66 -69c0.666992 -28.667 -3 -55.667 -11 -81s-16 -53.666 -24 -84.999s-19 -63 -33 -95c-14 -32.667 -30.333 -76.667 -49 -132l8 -4
c76.667 109.333 147 196 211 260c138 138 254.667 206.667 350 206z" />
    <glyph glyph-name="o" unicode="o" horiz-adv-x="983" 
d="M248 242c0 -128.667 51.666 -193 154.999 -193c48 0 93.667 18.667 137 56c42.667 36.667 78 83 106 139s57.667 130 89 222s47 183.667 47 275c0 121.333 -49 182.333 -147 183c-67.333 0 -131.666 -36 -192.999 -108s-109 -160.333 -143 -265s-51 -207.667 -51 -309z
M398.999 -29c-87.333 0.666992 -157.999 33.6689 -211.999 99.002s-81 150 -81 254c0 177.333 55 334.666 165 471.999s236.667 205.666 380 204.999c83.333 0 150.666 -30.333 201.999 -91s77 -143.334 77 -248.001c0 -170.667 -54 -328.667 -162 -474
s-231 -217.666 -369 -216.999z" />
    <glyph glyph-name="p" unicode="p" horiz-adv-x="1024" 
d="M10 -518c-30.667 0 -98.999 -2 -204.999 -6l15 67c69.333 1.33301 117.666 14.333 144.999 39c15.333 15.333 37.333 68 66 158l338 1120c-66.667 -10.667 -133 -25.667 -199 -45l-18 64c65.333 24.667 144.333 45 237 61l68 199l131 24l-58 -200
c44 2.66699 79.667 4 107 4c226.667 0 340 -97.667 340 -293c0 -74 -16 -150 -48 -228c-72 -175.333 -187 -302.333 -345 -381c-86 -43.333 -177 -65 -273 -65c-22.667 -0 -43.667 1.33301 -63 4l-78 -258c-19.333 -60 -29 -106.333 -29 -139
c2.66699 -40.667 56.667 -62 162 -64l-14 -67c-155.333 4 -248.333 6 -279 6zM311.001 154c0 -39.333 35 -59.332 105 -59.999c98 0 189.667 59.667 275 179s128 254.333 128 405c0 135.333 -82.667 203 -248 203c-21.333 0 -43 -1.33301 -65 -4l-123 -406
c-48 -162.667 -72 -268.334 -72 -317.001z" />
    <glyph glyph-name="q" unicode="q" horiz-adv-x="1126" 
d="M899 813c0 22 -14.001 38.668 -42.001 50.001s-62.333 17.333 -103 18c-90 0 -178.333 -56.667 -265 -170c-59.333 -79.333 -112.333 -171 -159 -275s-70 -188 -70 -252c0 -22.667 6 -41.334 18 -56.001s27.333 -22 46 -22c83.333 0 199.666 90 348.999 270
c64.667 78.667 118.334 158 161.001 238s64.334 146.333 65.001 199zM585.999 -517.999c-108 0 -188.666 -2.00098 -241.999 -6.00098l14 67c83.333 2.66699 136.666 15 159.999 37s47.333 75.333 72 160c92.667 306 160.334 521 203.001 645l-11 6
c-97.333 -132.667 -195.333 -235.667 -294 -309s-182.667 -110.333 -252 -111c-87.333 0 -131.333 46 -132 138c0 80.667 20.667 171.667 62 273s101.666 201.333 180.999 300c80 97.333 158 171.333 234 222s157.333 76.334 244 77.001c49.333 0 99.333 -4.66699 150 -14
l37 75h102l-385 -1296c-19.333 -66.667 -29 -113 -29 -139c2.66699 -40.667 50.667 -62 144 -64l-15 -67c-54 4 -135 6 -243 6z" />
    <glyph glyph-name="r" unicode="r" horiz-adv-x="854" 
d="M338 856c-35.333 0 -99.001 -46.332 -191.001 -138.999l-45 43c151.333 161.333 267.666 241.666 348.999 240.999c22 0 39.667 -6.33301 53 -19s20 -30 20 -52c0 -67.333 -28 -189 -84 -365l13 -6c65.333 121.333 130.333 223.666 195 306.999s134.667 125 210 125
c36.667 0 77.667 -13 123 -39l-88 -153c-34 26 -68.333 39 -103 39s-68 -17.333 -100 -52c-54.667 -61.333 -104.667 -132 -150 -212s-80.666 -149.333 -105.999 -208c-24.667 -58 -73 -183.333 -145 -376l-117 20c130 452.667 195.667 722.334 197 809.001
c-1.33301 24.667 -11.666 37 -30.999 37z" />
    <glyph glyph-name="s" unicode="s" horiz-adv-x="677" 
d="M486 895c-60.667 0 -103.668 -13.998 -129.001 -41.998c-25.333 -27.333 -38 -60.333 -38 -99s29.667 -88 89 -148l112 -119c69.333 -75.333 104.333 -142.666 105 -201.999c0.666992 -84.667 -31.666 -158.334 -96.999 -221.001s-150.666 -94.334 -255.999 -95.001
c-38 0 -82 8.66699 -132 26s-93.333 43 -130 77l86 127c34 -38 74.667 -69.667 122 -95c46.667 -25.333 92 -38 136 -38s81.333 14 112 42s46 62.667 46 104s-34.667 99.666 -104 174.999l-105 111c-66.667 72.667 -100 138.667 -100 198c0 84.667 36.333 156.667 109 216
c73.333 59.333 150 89 230 89s147 -17.667 201 -53l-84 -129c-54.667 50.667 -112.334 76 -173.001 76z" />
    <glyph glyph-name="t" unicode="t" horiz-adv-x="641" 
d="M223 -25c-47.333 0 -71 28.999 -71 86.999s75 320.667 225 788h-178l22 68c79.333 6.66699 134.333 18 165 34s82.334 94 155.001 234l67 -6l-71 -236h221l-27 -94h-219l-88 -295c-66.667 -222.667 -100 -351 -100 -385s11.333 -51 34 -51
c49.333 0 121.666 41.667 216.999 125l43 -43c-88.667 -79.333 -164 -136.666 -226 -171.999s-118.333 -53.333 -169 -54z" />
    <glyph glyph-name="u" unicode="u" horiz-adv-x="1196" 
d="M145 61c-0.666992 52 44.999 187 136.999 405c92 217.333 138 336.666 138 357.999s-9 32 -27 32c-40.667 0 -109.667 -46.333 -207 -139l-41 43c66.667 69.333 136.667 127 210 173s128.333 68.667 165 68c46.667 0 70 -23 70 -69c0 -33.333 -11.333 -78.333 -34 -135
l-103 -248c-91.333 -212 -137.333 -341.667 -138 -389c0 -22 9 -33 27 -33c46.667 0 111.667 39.333 195 118s171.333 190.334 264 335.001c46.667 72.667 117 205 211 397l114 -12l-202 -674c-22 -72.667 -32.667 -121 -32 -145s10 -35.667 28 -35
c31.333 0 94 44.333 188 133l41 -41c-151.333 -155.333 -270 -233.333 -356 -234c-46.667 0 -70 25.667 -70 77s18.667 126.333 56 225l28 76c6.66699 20 18 50.333 34 91l38 99l-13 6c-113.333 -161.333 -206.666 -280.333 -279.999 -357
c-138 -140.667 -254.667 -211 -350 -211c-26 0 -47.667 7.66699 -65 23s-26 36.333 -26 63z" />
    <glyph glyph-name="v" unicode="v" horiz-adv-x="1067" 
d="M1063 860c0 -196.667 -87.999 -396 -263.999 -598c-75.333 -86 -155 -156 -239 -210s-162 -81 -234 -81c-66.667 0 -100.334 42.333 -101.001 127c0 61.333 9.66699 128 29 200l89 330l31 114c12 42.667 17.667 72.334 17 89.001c0 16.667 -8 25 -24 25
c-28.667 0 -91 -46.333 -187 -139l-41 43c67.333 73.333 132.333 132 195 176s111.667 65.667 147 65c45.333 0 68 -21.667 68 -65c0 -27.333 -43 -202.666 -129 -525.999c-30 -114.667 -45 -194 -45 -238s16.333 -66.667 49 -68c41.333 0 92 20.667 152 62
s116 92.666 168 153.999c52 60.667 93.333 130.667 124 210c32 78.667 48 154.667 48 228s-9.66699 135.333 -29 186l153 62c15.333 -32.667 23 -81.334 23 -146.001z" />
    <glyph glyph-name="w" unicode="w" horiz-adv-x="1558" 
d="M913 193c0 -58.667 20.0029 -88.3311 60.0029 -88.998c46 0 95 19.333 147 58c119.333 88.667 202.333 210 249 364c25.333 81.333 38 158.666 38 231.999s-9.66699 135.333 -29 186l154 62c15.333 -32.667 22.666 -81.334 21.999 -146.001
c0 -214.667 -75.667 -416.667 -227 -606c-66.667 -84.667 -139.334 -153 -218.001 -205c-79.333 -52 -154.333 -78 -225 -78s-106 48 -106 144c0 66.667 8.33301 145 25 235l-10 4c-72.667 -120 -149.667 -213.667 -231 -281s-160 -101.333 -236 -102
c-32.667 0 -59.334 11 -80.001 33c-20.667 21.333 -31 55.333 -31 102s9.33301 106 28 178c54.667 210.667 91.667 350.334 111 419.001s29 110 29 124c0 19.333 -9 29 -27 29c-28.667 0 -90.667 -46.333 -186 -139l-41 43c67.333 73.333 132.333 132 195 176
s111.667 65.667 147 65c48 0 72 -21.667 72 -65c0 -34.667 -12 -94.334 -36 -179.001c-24 -85.333 -42.667 -153.666 -56 -204.999l-53 -200c-22 -82.667 -33 -144.667 -33 -186s15.667 -62 47 -62c39.333 0 85.666 23 138.999 69c52.667 46 105 107 157 183
s94.333 171 127 285c32.667 113.333 59.334 217 80.001 311l129 11c-87.333 -354.667 -131 -611.334 -131 -770.001z" />
    <glyph glyph-name="x" unicode="x" horiz-adv-x="1052" 
d="M124 131c32 -0.666992 61.668 5.66406 89.001 18.9971c56.667 26.667 157.667 137 303 331l-54 148c-26.667 74 -47.334 128.333 -62.001 163s-33.334 52 -56.001 52c-34 0 -89.333 -40.333 -166 -121l-43 39c76.667 92.667 135 155.667 175 189s73.333 50 100 50
c26.667 -0.666992 48 -11.667 64 -33c17.333 -21.333 36 -63.333 56 -126l84 -256c113.333 168 200.666 279.333 261.999 334s123 81.667 185 81c20.667 0 44.667 -5.33301 72 -16l-60 -164c-27.333 14 -57.333 21 -90 21s-71.667 -20.667 -117 -62
s-120.333 -131.333 -225 -270c20.667 -61.333 50.334 -142.666 89.001 -243.999s74.667 -151.666 108 -150.999c18.667 0.666992 38 8.33398 58 23.001s54.333 45 103 91l41 -39c-66.667 -78.667 -120.667 -134.667 -162 -168s-79.333 -50.333 -114 -51
c-50.667 0 -95 57.333 -133 172l-90 263c-111.333 -169.333 -199.666 -283 -264.999 -341s-131.333 -87.333 -198 -88c-23.333 0 -50 5.66699 -80 17l45 153c22 -10.667 49 -16 81 -16z" />
    <glyph glyph-name="y" unicode="y" horiz-adv-x="1069" 
d="M469 1001c36.667 0 55.001 -23.332 55.001 -69.999c0 -22.667 -10 -74.334 -30 -155.001l-101 -401c-24.667 -106 -37.334 -167.667 -38.001 -185s3 -30.666 11 -39.999s16.333 -14.333 25 -15c49.333 0 106 28 170 84c108 98 181.667 187.667 221 269
s98 240.333 176 477l132 8l-312 -932c-54.667 -158.667 -125 -291.667 -211 -399c-104 -130 -221.333 -195 -352 -195c-65.333 0 -131 14.333 -197 43l74 135c60 -39.333 125.333 -59 196 -59s124.667 24 162 72c38.667 48 77 117.667 115 209s94.667 238.666 170 441.999
l-6 2c-82 -96.667 -161.667 -170.667 -239 -222s-141.666 -77 -192.999 -77c-61.333 0 -92 33.333 -92 100c0 39.333 13.667 110.333 41 213l96 381c18 62.667 27 106 27 130s-7.66699 36 -23 36c-32.667 0 -97.334 -44.333 -194.001 -133l-43 45
c172 158.667 292 237.667 360 237z" />
    <glyph glyph-name="z" unicode="z" horiz-adv-x="905" 
d="M779 954c60.667 0 98.332 3.33496 112.999 10.002s30 20.667 46 42l51 -37c-147.333 -182.667 -406 -451 -776 -805c9.33301 1.33301 29.333 2 60 2s102 -12 214 -36s188.667 -36.667 230 -38c52 0 101 56.667 147 170l51 -18c-42 -117.333 -76.333 -196 -103 -236
s-57 -59.667 -91 -59c-34 0 -135 17.333 -303 52s-265.333 52 -292 52s-62 -16.333 -106 -49l-38 43l788 782c-32.667 -2.66699 -155.667 -4 -369 -4c-62 0.666992 -99.667 -6.33301 -113 -21s-31.666 -46.334 -54.999 -95.001l-51 12c42 131.333 68 216.666 78 255.999
c285.333 -15.333 458.333 -23 519 -23z" />
    <glyph glyph-name="braceleft" unicode="{" horiz-adv-x="665" 
d="M385 420c0 -38 -5.33301 -78.999 -16 -122.999l-70 -299c-12 -52 -18 -100.667 -18 -146c0 -96 66.667 -143.667 200 -143l-16 -69c-217.333 0 -326 77 -326 231c0 30 6.33301 72.333 19 127l67 293c28 124 22.667 207.333 -16 250c-23.333 26 -62.333 41.667 -117 47
l14 61c86.667 7.33301 146.667 31.666 180 72.999s63.666 120 90.999 236l59 263c27.333 117.333 73 202 137 254s174.667 77.667 332 77l-14 -67c-101.333 0 -172.333 -17.333 -213 -52s-74 -109.667 -100 -225l-70 -313c-22 -96.667 -51.667 -165 -89 -205
s-97.666 -66 -180.999 -78c98 -23.333 147 -87.333 147 -192z" />
    <glyph glyph-name="bar" unicode="|" horiz-adv-x="497" 
d="M561 1556l-448 -1945h-125l448 1945h125z" />
    <glyph glyph-name="braceright" unicode="}" horiz-adv-x="665" 
d="M338 772c0 38 5.33301 78.999 16 122.999l70 299c12 50.667 18 98.667 18 144c0 96 -66.667 144.333 -200 145l16 69c217.333 0 326 -77 326 -231c0 -30 -6.33301 -72.333 -19 -127l-67 -293c-28 -124 -22.667 -207.333 16 -250c23.333 -26 62.333 -41.667 117 -47
l-15 -61c-86 -7.33301 -145.667 -31.666 -179 -72.999s-63.666 -120.333 -90.999 -237l-59 -262c-27.333 -117.333 -73 -202 -137 -254s-174.667 -77.667 -332 -77l14 67c101.333 0 172.333 17.333 213 52s74 109.667 100 225l70 313c22 96.667 51.667 165 89 205
s97.666 66 180.999 78c-98 23.333 -147 87.333 -147 192z" />
    <glyph glyph-name="asciitilde" unicode="~" horiz-adv-x="1497" 
d="M562 778c61.333 0 140.666 -29.332 237.999 -87.999s169.333 -88 216 -88c86 0 176.667 58 272 174l86 -74c-66.667 -76.667 -129 -133.334 -187 -170.001s-121 -55 -189 -55s-149.333 30 -244 90s-165.667 90 -213 90c-84 0.666992 -173.667 -54.333 -269 -165l-82 71
c72.667 78 137.334 133.333 194.001 166s116 49 178 49z" />
    <glyph glyph-name="uni00A0" unicode="&#xa0;" horiz-adv-x="438" 
 />
    <glyph glyph-name="exclamdown" unicode="&#xa1;" horiz-adv-x="583" 
d="M360 989c32 0 58 -10 78 -30c20 -20.667 30.333 -47.667 31 -81c0 -33.333 -11.667 -62.333 -35 -87s-51 -37 -83 -37s-58 10 -78 30c-19.333 20 -29 46.667 -29 80c0 32.667 11.333 61.667 34 87s50 38 82 38zM264 553h60c-76.667 -522.667 -137 -877 -181 -1063h-198
c30 126 136.333 480.333 319 1063z" />
    <glyph glyph-name="cent" unicode="&#xa2;" horiz-adv-x="995" 
d="M315 434c0 -74.667 14 -138.667 42 -192s66 -90.333 114 -111l188 817c-90 -12 -169.667 -68.667 -239 -170s-104.333 -216 -105 -344zM158 369c0 163.333 48.6699 309 146.003 437s222.666 204 375.999 228l43 189h86l-43 -181h10c100 0 182.667 -28.667 248 -86
l-102 -112c-50.667 56 -110.334 90 -179.001 102l-190 -833h8c83.333 0 190.666 42.333 321.999 127l37 -45c-153.333 -127.333 -285.333 -194.333 -396 -201l-41 -184h-86l43 186c-84 12 -152 52.667 -204 122s-78 153 -78 251z" />
    <glyph glyph-name="sterling" unicode="&#xa3;" horiz-adv-x="1159" 
d="M966 1405c111.333 0 201.665 -25.999 270.998 -77.999l-100 -129c-68 69.333 -151.333 104.333 -250 105c-56 0 -108.667 -23.667 -158 -71s-82 -123.333 -98 -228c-2 -8 -7.66699 -56 -17 -144s-17.333 -152 -24 -192h311l-22 -90h-310
c-22 -102.667 -53.333 -188.667 -94 -258s-106 -130.333 -196 -183l329 2c165.333 0 266.333 7 303 21c52 19.333 97.333 74.666 136 165.999l63 -7c-48 -132.667 -85 -239.667 -111 -321l-528 4c-237.333 0 -395.666 -1.33301 -474.999 -4l49 121
c39.333 4 79 11.333 119 22c58.667 16.667 111.334 63.667 158.001 141s78.667 176 96 296h-217l22 90h209c2.66699 22 7 68.333 13 139s11.333 119.667 16 147c20.667 132.667 82 241 184 325c102.667 84 209.667 126 321 126z" />
    <glyph glyph-name="currency" unicode="&#xa4;" horiz-adv-x="1363" 
d="M340 625c0 -111.333 33 -202.333 99 -273s153 -106 261 -106s202.333 41 283 123s121 177.333 121 286s-32.333 198 -97 268s-152.667 105 -264 105s-206.333 -39.333 -285 -118s-118 -173.667 -118 -285zM205 596c0 142 48.334 263.667 145.001 365l-133 151l102 86
l132 -151c98 66.667 204.667 100 320 100s218.666 -40.333 309.999 -121l160 139l80 -86l-162 -141c52 -74 78 -157.333 78 -250c0 -155.333 -50.667 -281.666 -152 -378.999l134 -155l-99 -82l-131 153c-90 -64 -195.667 -96 -317 -96s-225.333 39 -312 117l-157 -140
l-84 87l166 141c-53.333 75.333 -80 162.666 -80 261.999z" />
    <glyph glyph-name="yen" unicode="&#xa5;" horiz-adv-x="1351" 
d="M686 125c0 -35.333 57.3359 -56.667 172.003 -64l-16 -63c-102.667 4 -180.334 6 -233.001 6s-152.667 -2 -300 -6l17 63c98 4 157.333 20.667 178 50c16.667 19.333 32.334 62.333 47.001 129l51 229h-377l19 80h377l4 18l-54 148h-288l18 80h242l-125 344
c-24.667 66.667 -49.334 109.667 -74.001 129s-64.334 31 -119.001 35l15 63c65.333 -4 146.666 -6 243.999 -6s184.333 2 261 6l-14 -63c-40.667 -0.666992 -70.334 -2.33398 -89.001 -5.00098c-47.333 -6 -71 -28.333 -71 -67c0 -28.667 7 -61.334 21 -98.001
c88.667 -262 140.667 -417 156 -465c42 48 161.333 192 358 432c57.333 68 86 118.333 86 151s-47.667 50 -143 52l14 63c50 -4 116.333 -6 199 -6s169.334 2 260.001 6l-15 -63c-46 -4 -82.333 -15.667 -109 -35s-75 -68.666 -145 -147.999l-286 -325h229l-18 -80h-279
c-75.333 -87.333 -117 -136.666 -125 -147.999l-4 -18h369l-19 -80h-368l-52 -225c-9.33301 -39.333 -14 -79 -14 -119z" />
    <glyph glyph-name="brokenbar" unicode="&#xa6;" horiz-adv-x="497" 
d="M133 -297h-125l166 719h125zM371 727h-125l164 719h125z" />
    <glyph glyph-name="section" unicode="&#xa7;" horiz-adv-x="980" 
d="M707 -66c0 -92.667 -38.3311 -174.334 -114.998 -245.001c-76.667 -71.333 -179.334 -107 -308.001 -107s-236.334 35.667 -323.001 107l98 116c35.333 -34 79.666 -62.333 132.999 -85s110 -34 170 -34c58.667 0 106 19.667 142 59c35.333 38 53 89.667 53 155
s-44.333 158 -133 278l-143 191c-79.333 104.667 -119 196.334 -119 275.001s24 145 72 199c48.667 54 123 104 223 150c-42 57.333 -63.333 121.666 -64 192.999c0 96.667 39.333 177.334 118 242.001c78.667 65.333 174.334 98 287.001 98s203 -30 271 -90l-94 -113
c-76.667 74 -156 111 -238 111c-56 0 -102.333 -18.667 -139 -56s-55 -89.333 -55 -156s40.333 -149.667 121 -249l122 -152c94 -116 141.333 -210 142 -282c0 -151.333 -101.667 -277 -305 -377c56 -86 84 -162 84 -228zM782.002 493
c0 54.667 -33.998 125.333 -101.998 212c-113.333 142 -175.333 220.333 -186 235c-122.667 -56 -184.334 -137.333 -185.001 -244c0 -64 23.333 -129 70 -195c46 -66 89 -125 129 -177s65.333 -86.333 76 -103c81.333 44 134.666 86.667 159.999 128s38 89.333 38 144z" />
    <glyph glyph-name="dieresis" unicode="&#xa8;" horiz-adv-x="598" 
d="M553 1299c0 -27.333 -9.33496 -53.334 -28.002 -78.001c-18 -24.667 -39.667 -37 -65 -37s-45.666 7.33301 -60.999 22s-23 35.334 -23 62.001c0 27.333 10 53.333 30 78c20 24 42 36 66 36s43.333 -7 58 -21s22.334 -34.667 23.001 -62zM220.998 1299
c0.666992 -27.333 -8.33301 -53.334 -27 -78.001s-40.667 -37 -66 -37s-45.333 7.33301 -60 22s-22.334 35.334 -23.001 62.001c0 27.333 9.66699 53.333 29 78c20 24 42 36 66 36s43.333 -7 58 -21s22.334 -34.667 23.001 -62z" />
    <glyph glyph-name="copyright" unicode="&#xa9;" horiz-adv-x="1689" 
d="M997 1151c-80.667 0 -151.667 -28.667 -213 -86s-106 -126.666 -134 -207.999s-42 -167 -42 -257s22.333 -160.333 67 -211s101.667 -76 171 -76s124.666 15.667 165.999 47c44 36.667 78.667 92.667 104 168l55 -8c-27.333 -98 -45 -166.333 -53 -205
c-90 -40.667 -187 -61 -291 -61s-190.333 33.667 -259 101s-103 155 -103 263c0 168 49.667 308.333 149 421c100 112.667 231.333 169 394 169c96.667 0 178.334 -13.667 245.001 -41c-15.333 -70.667 -25.333 -148.334 -30 -233.001h-58c1.33301 16.667 2 40 2 70
c-1.33301 98 -58 147 -170 147zM918 39c188.667 -0.666992 346.667 65.001 474 197.001s191 294.667 191 488s-63 356 -189 488s-285.333 197.667 -478 197c-192.667 0 -354 -66 -484 -198c-129.333 -132.667 -194 -294.334 -194 -485.001s66 -352.667 198 -486
s292.667 -200.333 482 -201zM1669 728.001c0 -210.667 -72.3311 -389.998 -216.998 -537.998c-145.333 -147.333 -325.333 -221 -540 -221s-395 72.667 -541 218c-146 146 -219 325 -219 537s73.667 390.667 221 536s326.666 217.666 537.999 216.999
c211.333 0 390.666 -72 537.999 -216c146.667 -144.667 220 -322.334 220 -533.001z" />
    <glyph glyph-name="ordfeminine" unicode="&#xaa;" horiz-adv-x="651" 
d="M582 1094c0 28.667 -29.999 42.999 -89.999 42.999c-42 -0.666992 -85.667 -29.667 -131 -87s-82 -116 -110 -176s-42 -108.333 -42 -145s10.333 -55 31 -55c39.333 0 89.666 31.333 150.999 94s111.333 130.334 150 203.001c27.333 58.667 41 99.667 41 123z
M575.001 685.999c0 -12 6.33496 -18 19.002 -18c23.333 0 67.666 30.667 132.999 92l27 -29c-101.333 -104 -180.666 -156 -237.999 -156c-32.667 0.666992 -49 18.334 -49 53.001s16.333 106 49 214l-6 2c-58.667 -87.333 -118.334 -154 -179.001 -200s-115 -69 -163 -69
c-54.667 0 -82 31.667 -82 95c0 45.333 12.667 99.666 38 162.999s59.666 123 102.999 179c100 126.667 205.333 190 316 190c24.667 0 54.667 -2.66699 90 -8l22 47l74 -6l-127 -410c-18 -60 -27 -106.333 -27 -139z" />
    <glyph glyph-name="guillemotleft" unicode="&#xab;" horiz-adv-x="952" 
d="M766 133l-289 347.999l10 45c130 92.667 279.667 205.334 449 338.001l31 -37l-328 -329l172 -342zM444 132.999l-288 347.999l10 45c130 92.667 279.333 205.334 448 338.001l31 -37l-328 -329l172 -342z" />
    <glyph glyph-name="logicalnot" unicode="&#xac;" horiz-adv-x="1497" 
d="M1202 74h-123l115 497h-989l26 117h1112z" />
    <glyph glyph-name="uni00AD" unicode="&#xad;" horiz-adv-x="636" 
d="M578 455h-476l27 129h475z" />
    <glyph glyph-name="registered" unicode="&#xae;" horiz-adv-x="1689" 
d="M809 793c13.333 -2.66699 33 -4.33301 59 -5c181.333 0 272.333 72.667 273 218c0 110.667 -63.667 165.667 -191 165c-15.333 0 -32.333 -1.33301 -51 -4zM1280 1010c0 -66.667 -23.001 -123.332 -69.001 -169.999s-109.667 -79.667 -191 -99
c48 -106.667 95.333 -196.334 142 -269.001s97 -121.334 151 -146.001l-17 -45c-98 2.66699 -172.667 35.334 -224 98.001s-111.666 178 -180.999 346c-52 0 -84 1.33301 -96 4l-62 -270c-8 -31.333 -12 -56 -12 -74c1.33301 -27.333 37.333 -41.666 108 -42.999l-14 -53
l-174 4c-60 0 -118.667 -1.33301 -176 -4l14 53c48 1.33301 78.667 11.666 92 30.999c8 10.667 17.667 38.667 29 84l143 608c15.333 58 11.666 92.333 -11.001 103c-13.333 6.66699 -39.666 10.667 -78.999 12l11 49c46.667 -2.66699 108.667 -4 186 -4l137 2
c195.333 0 293 -72.333 293 -217zM917.999 39.0029c188.667 -0.666992 346.667 65.001 474 197.001s191 294.667 191 488s-63 356 -189 488s-285.333 197.667 -478 197c-192.667 0 -354 -66 -484 -198c-129.333 -132.667 -194 -294.334 -194 -485.001s66 -352.667 198 -486
s292.667 -200.333 482 -201zM1669 728.004c0 -210.667 -72.3311 -389.998 -216.998 -537.998c-145.333 -147.333 -325.333 -221 -540 -221s-395 72.667 -541 218c-146 146 -219 325 -219 537s73.667 390.667 221 536s326.666 217.666 537.999 216.999
c211.333 0 390.666 -72 537.999 -216c146.667 -144.667 220 -322.334 220 -533.001z" />
    <glyph glyph-name="macron" unicode="&#xaf;" horiz-adv-x="598" 
d="M25 1190l24 113h524l-24 -113h-524z" />
    <glyph glyph-name="degree" unicode="&#xb0;" horiz-adv-x="702" 
d="M535 1391c-54 0.666992 -98.3311 -19.6689 -132.998 -61.002s-52 -91.666 -52 -150.999s14.667 -106.333 44 -141s70.666 -51.667 123.999 -51c53.333 0 97.666 19 132.999 57c35.333 38.667 53 87.334 53 146.001s-14.333 106.667 -43 144
c-29.333 37.333 -71.333 56.333 -126 57zM535.002 1470c80.667 0 147.001 -22.6699 199.001 -68.0029s78.333 -111.666 79 -198.999c0 -88 -30.333 -159.333 -91 -214s-130.334 -82 -209.001 -82s-144 23 -196 69c-51.333 46.667 -77 113.334 -77 200.001
s29 157.334 87 212.001s127.333 82 208 82z" />
    <glyph glyph-name="plusminus" unicode="&#xb1;" horiz-adv-x="1497" 
d="M1241 0h-1112l27 115h1112zM766 244h-123l113 487h-496l27 113h493l111 485h125l-111 -485h494l-27 -113h-493z" />
    <glyph glyph-name="twosuperior" unicode="&#xb2;" 
d="M600 1767c74 0 130.669 -19 170.002 -57s59 -85 59 -141c0 -109.333 -50.333 -211 -151 -305c-52 -49.333 -96.333 -88.333 -133 -117s-89.334 -67.667 -158.001 -117c168 0 310 2 426 6l-39 -114c-134.667 2.66699 -240 4 -316 4s-163 -1.33301 -261 -4v36
c188.667 134 319.667 245 393 333s109.333 175.667 108 263c0 38 -9.66699 71 -29 99c-20 27.333 -51.333 41 -94 41c-76.667 -0.666992 -148.334 -48 -215.001 -142l-51 29c78 124 175 186 291 186z" />
    <glyph glyph-name="threesuperior" unicode="&#xb3;" 
d="M301 954c104 0 189.004 19.332 255.004 57.999s99 100.667 99 186c0 40.667 -11.667 73.667 -35 99c-24 25.333 -56.667 38 -98 38s-86.333 -6.66699 -135 -20l-14 57c59.333 12 112.333 29 159 51s79 46.333 97 73s27 57 27 91s-9.33301 60 -28 78
s-44.334 27 -77.001 27c-50.667 0 -111.334 -33 -182.001 -99l-39 41c87.333 88.667 176 133 266 133c64 0 111.667 -14 143 -42s47 -63.667 47 -107c0.666992 -103.333 -66 -177 -200 -221c65.333 0 115.666 -16 150.999 -48s53 -79.333 53 -142
c0 -63.333 -30 -122.333 -90 -177c-110 -99.333 -262 -156.666 -456 -171.999l-4 100c27.333 -2.66699 47.666 -4 60.999 -4z" />
    <glyph glyph-name="acute" unicode="&#xb4;" horiz-adv-x="604" 
d="M338 1524l171.999 -49.001c-135.333 -135.333 -261.666 -251.666 -378.999 -348.999l-37 23c94.667 130 176 255 244 375z" />
    <glyph glyph-name="mu" unicode="&#xb5;" horiz-adv-x="1196" 
d="M428 822c0 22.667 -8.99805 34 -26.998 34c-40.667 0 -109.334 -46.333 -206.001 -139l-41 43c66.667 69.333 136.667 127 210 173s128 68.667 164 68c46.667 0 70 -23 70 -69c0 -35.333 -11.333 -81.333 -34 -138l-50 -125l-50 -120
c-86.667 -204 -130 -325.333 -130 -364s14.333 -58 43 -58c38 0 94.667 39 170 117s148.333 171.667 219 281s152.667 260 246 452l114 -12l-202 -674c-22 -72.667 -32.667 -121 -32 -145s10 -35.667 28 -35c31.333 0 94 44.333 188 133l41 -41
c-151.333 -155.333 -270 -233.333 -356 -234c-46.667 0 -70 25.667 -70 77s18.667 126.333 56 225l28 76c6.66699 20 18 50.333 34 91l38 99l-13 6c-109.333 -164.667 -195.333 -281.667 -258 -351s-114.334 -121 -155.001 -155s-80 -51 -118 -51s-63.667 16.333 -77 49
c-100 -276 -156.667 -447.333 -170 -514l-156 -21c162 452 285.333 779.667 370 983c84 203.333 126 316.333 126 339z" />
    <glyph glyph-name="paragraph" unicode="&#xb6;" horiz-adv-x="1224" 
d="M440 -358c90 0 155.335 39.332 196.002 117.999c40 79.333 91.667 255 155 527c144.667 596.667 217 930.334 217 1001c0 28 -6 48 -18 60s-31.333 18 -58 18c-88.667 0 -156.334 -49 -203.001 -147c-38 -78 -68.667 -165.667 -92 -263s-35 -188 -35 -272
c0 -136.667 60.667 -205.667 182 -207l-18 -69c-32.667 -4 -79.667 -6.33301 -141 -7c-118.667 -0.666992 -218 33 -298 101s-120 164.333 -120 289c0 199.333 65.333 358.333 196 477c131.333 118.667 298.666 178 501.999 178l197 -2c76.667 0 162.667 2 258 6l-17 -68
c-69.333 0 -115 -11.333 -137 -34s-44.333 -84.334 -67 -185.001c-6 -24.667 -25 -108.667 -57 -252l-100 -453l-76 -346c-16 -70.667 -44 -147 -84 -229c-38.667 -82 -78.667 -145.667 -120 -191s-93 -87 -155 -125c-61.333 -37.333 -126 -56.666 -194 -57.999
c-67.333 -0.666992 -124.333 11.333 -171 36l86 142c46.667 -30 104 -45 172 -45z" />
    <glyph glyph-name="periodcentered" unicode="&#xb7;" horiz-adv-x="479" 
d="M259 422c-32 0 -58.333 10 -79 30c-20 20 -30 46.667 -30 80s11.333 63 34 89c23.333 24.667 51 37 83 37s58 -10.667 78 -32c20 -20 30 -46.333 30 -79s-11.333 -61.667 -34 -87s-50 -38 -82 -38z" />
    <glyph glyph-name="cedilla" unicode="&#xb8;" horiz-adv-x="598" 
d="M500 -270c0 -42.667 -13 -81.667 -39 -117c-42.667 -58 -119 -100 -229 -126c-42 -10.667 -84 -18 -126 -22l-6 82c134 0 215.333 20.667 244 62c13.333 19.333 20.333 44 21 74c0 30 -12 55 -36 75s-60.667 29.667 -110 29l117 219h70l-70 -129
c52 -4 92.333 -18.667 121 -44c28.667 -26 43 -60.333 43 -103z" />
    <glyph glyph-name="onesuperior" unicode="&#xb9;" 
d="M561 1030c0 -20.667 9.33203 -34.332 27.999 -40.999s53.667 -12 105 -16l-14 -53c-57.333 2.66699 -121.333 4 -192 4s-139.667 -1.33301 -207 -4l14 53c64 5.33301 103.667 13.333 119 24s28.333 40 39 88l102 443c9.33301 45.333 14 74 14 86
c-0.666992 12 -9 20.667 -25 26s-51.333 9 -106 11l13 51c102.667 12 191.334 36.667 266.001 74l14 -11c-10.667 -28.667 -27 -91.334 -49 -188.001l-107 -459c-9.33301 -38 -14 -67.333 -14 -88z" />
    <glyph glyph-name="ordmasculine" unicode="&#xba;" horiz-adv-x="608" 
d="M229 745c0 -79.333 35 -118.669 105 -118.002c36.667 0 71 16.667 103 50c50.667 52.667 90.667 139.334 120 260.001c10.667 44.667 16 83 16 115s-9 57.333 -27 76c-18.667 19.333 -43 29 -73 29c-64 0.666992 -120.667 -43.666 -170 -132.999s-74 -182.333 -74 -279z
M324 574.997c-60 0.666992 -108.667 21 -146 61s-56.333 92.333 -57 157c0.666992 110 37.667 207 111 291s159 126 257 126c59.333 0 107 -19 143 -57s54 -89.333 54 -154c0 -105.333 -36.667 -202.333 -110 -291s-157.333 -133 -252 -133z" />
    <glyph glyph-name="guillemotright" unicode="&#xbb;" horiz-adv-x="952" 
d="M264 862l289 -347.999l-10 -45c-130 -92.667 -279.667 -205.334 -449 -338.001l-31 37l328 330l-172 342zM586 862.001l288 -347.999l-10 -45c-130 -92.667 -279.333 -205.334 -448 -338.001l-31 37l328 330l-172 342z" />
    <glyph glyph-name="onequarter" unicode="&#xbc;" horiz-adv-x="1624" 
d="M1260 346l77 330l-325 -330h248zM1372 346l131 -0.000976562l-20 -90h-131l-60 -256h-112l59 256c-151.333 0 -275 -0.666992 -371 -2l-2 35l578 561l45 -2c0 -1.33301 -39 -168.666 -117 -501.999zM469 650.999c0 -20.667 9.33398 -34.333 28.001 -41
s53.667 -12 105 -16l-14 -53c-57.333 2.66699 -121.333 4 -192 4s-140 -1.33301 -208 -4l15 53c64 5.33301 103.667 13.333 119 24s28 40.334 38 89.001l103 442c9.33301 44.667 14 73 14 85s-8 21 -24 27c-16.667 6 -52.334 9.66699 -107.001 11l12 51
c102.667 12 191.667 36.667 267 74l14 -11c-10.667 -28.667 -27 -91.334 -49 -188.001l-107 -459c-9.33301 -38 -14 -67.333 -14 -88zM1327 1370l-815 -1374h-104l813 1374h106z" />
    <glyph glyph-name="onehalf" unicode="&#xbd;" horiz-adv-x="1624" 
d="M1556 647c0 -109.333 -50.3311 -210.999 -150.998 -304.999c-52 -49.333 -96.333 -88.333 -133 -117s-89.334 -67.334 -158.001 -116.001c166.667 0 308.667 2 426 6l-39 -115c-134 2.66699 -239 4 -315 4s-163.333 -1.33301 -262 -4v37c188 134 318.667 245 392 333
s109.666 175.667 108.999 263c0 38 -9.66699 70.667 -29 98c-20 27.333 -51 41 -93 41c-77.333 0 -149.333 -47 -216 -141l-51 28c78 124 175 186.333 291 187c74 0 130.667 -19.333 170 -58s59 -85.667 59 -141zM469.002 651.001c0 -20.667 9.33398 -34.333 28.001 -41
s53.667 -12 105 -16l-14 -53c-57.333 2.66699 -121.333 4 -192 4s-140 -1.33301 -208 -4l15 53c64 5.33301 103.667 13.333 119 24s28 40.334 38 89.001l103 442c9.33301 44.667 14 73 14 85s-8 21 -24 27c-16.667 6 -52.334 9.66699 -107.001 11l12 51
c102.667 12 191.667 36.667 267 74l14 -11c-10.667 -28.667 -27 -91.334 -49 -188.001l-107 -459c-9.33301 -38 -14 -67.333 -14 -88zM1327 1370l-815 -1374h-104l813 1374h106z" />
    <glyph glyph-name="threequarters" unicode="&#xbe;" horiz-adv-x="1624" 
d="M698 828c0 -62.667 -30.332 -121.333 -90.999 -176c-109.333 -99.333 -261 -157 -455 -173l-5 101c27.333 -2.66699 48 -4.33398 62 -5.00098c104 -0.666992 189 18.333 255 57s99 101 99 187c0 40.667 -12 73.667 -36 99c-40 42.667 -117.333 48.667 -232 18l-14 57
c58.667 12 111.667 30 159 54c46.667 20.667 79 43.667 97 69s27 56 27 92c-0.666992 70.667 -35.667 105.667 -105 105c-50.667 0 -111.667 -33 -183 -99l-38 41c87.333 88.667 176 133.334 266 134.001c64 0 111.667 -14 143 -42s47 -64 47 -108
c0.666992 -103.333 -66 -177 -200 -221c65.333 0 115.666 -16 150.999 -48s53 -79.333 53 -142zM1251 346.001l78 330l-325 -330h247zM1364 346.001l131 -0.000976562l-20 -90h-132l-59 -256h-113l60 256c-151.333 0 -275 -0.666992 -371 -2l-2 35l578 561l45 -2
c0 -1.33301 -39 -168.666 -117 -501.999zM1327 1370l-815 -1374h-104l813 1374h106z" />
    <glyph glyph-name="questiondown" unicode="&#xbf;" horiz-adv-x="761" 
d="M542 989c32 0 58.333 -10 79 -30c20.667 -20.667 31 -47.667 31 -81s-12 -62.333 -36 -87c-23.333 -24.667 -51 -37 -83 -37c-31.333 0 -57 10 -77 30s-30 46.667 -30 80c0 32.667 11.333 61.667 34 87s50 38 82 38zM78 -84c0 -70.667 28.665 -131 85.998 -181
s148 -83.333 272 -100l-37 -149c-125.333 31.333 -231 88 -317 170c-36.667 35.333 -65.667 79 -87 131s-32 99 -32 141c0 100 26.333 174.333 79 223s146 96 280 142c34.667 12.667 56.334 26.667 65.001 42l19 31c9.33301 15.333 15.666 31.666 18.999 48.999
c3.33301 18 8 38.667 14 62c6.66699 23.333 11.334 40.333 14.001 51h71c-19.333 -131.333 -39 -220.666 -59 -267.999c-22 -54.667 -65 -90 -129 -106c-89.333 -22 -154.666 -49.333 -195.999 -82c-41.333 -33.333 -62 -85.333 -62 -156z" />
    <glyph glyph-name="Agrave" unicode="&#xc0;" horiz-adv-x="1449" 
d="M696 1815l151.999 83c54.667 -78 137.334 -187.667 248.001 -329l-31 -31c-130 92 -253 184.333 -369 277zM910.999 1225l-338 -578h404zM1075 4c-64 0 -150.667 -2.00098 -260 -6.00098l19 63c76 2 126.667 9.66699 152 23s38 36.333 38 69s-2.66699 76 -8 130l-31 282
h-463l-166 -282c-42 -72.667 -63 -124 -63 -154c0 -39.333 55.333 -62 166 -68l-21 -63c-94.667 4 -174 6 -238 6s-149 -2 -255 -6l18 63c58.667 6.66699 103 20 133 40s65.667 64 107 132l495 818c121.333 199.333 193 327 215 383l138 32c4 -91.333 17 -228.333 39 -411
l94 -805c8 -74 22.667 -122.667 44 -146s65.333 -37.666 132 -42.999l-19 -63c-113.333 4 -202 6 -266 6z" />
    <glyph glyph-name="Aacute" unicode="&#xc1;" horiz-adv-x="1449" 
d="M1188 1888l154.999 -84c-131.333 -83.333 -286.666 -172 -465.999 -266l-27 35c165.333 148.667 278 253.667 338 315zM910.999 1225l-338 -578h404zM1075 4c-64 0 -150.667 -2.00098 -260 -6.00098l19 63c76 2 126.667 9.66699 152 23s38 36.333 38 69
s-2.66699 76 -8 130l-31 282h-463l-166 -282c-42 -72.667 -63 -124 -63 -154c0 -39.333 55.333 -62 166 -68l-21 -63c-94.667 4 -174 6 -238 6s-149 -2 -255 -6l18 63c58.667 6.66699 103 20 133 40s65.667 64 107 132l495 818c121.333 199.333 193 327 215 383l138 32
c4 -91.333 17 -228.333 39 -411l94 -805c8 -74 22.667 -122.667 44 -146s65.333 -37.666 132 -42.999l-19 -63c-113.333 4 -202 6 -266 6z" />
    <glyph glyph-name="Acircumflex" unicode="&#xc2;" horiz-adv-x="1449" 
d="M1286 1552l-39 -32l-223 182l-287 -182l-32 39c118.667 105.333 219.667 199.333 303 282h77zM911 1225l-338 -578h404zM1075 4c-64 0 -150.667 -2.00098 -260 -6.00098l19 63c76 2 126.667 9.66699 152 23s38 36.333 38 69s-2.66699 76 -8 130l-31 282h-463l-166 -282
c-42 -72.667 -63 -124 -63 -154c0 -39.333 55.333 -62 166 -68l-21 -63c-94.667 4 -174 6 -238 6s-149 -2 -255 -6l18 63c58.667 6.66699 103 20 133 40s65.667 64 107 132l495 818c121.333 199.333 193 327 215 383l138 32c4 -91.333 17 -228.333 39 -411l94 -805
c8 -74 22.667 -122.667 44 -146s65.333 -37.666 132 -42.999l-19 -63c-113.333 4 -202 6 -266 6z" />
    <glyph glyph-name="Atilde" unicode="&#xc3;" horiz-adv-x="1449" 
d="M915 1798c20.667 0 58.333 -10.333 113 -31l72 -28c36.667 -16.667 70.334 -25 101.001 -25s70 35 118 105l43 -21c-75.333 -139.333 -141.666 -209 -198.999 -209c-24.667 0 -66.334 11 -125.001 33l-67 27c-38 15.333 -68.333 23 -91 23s-43.334 -8 -62.001 -24
c-18.667 -14.667 -40 -41 -64 -79l-43 18c72.667 140.667 140.667 211 204 211zM910.999 1225l-338 -578h404zM1075 4c-64 0 -150.667 -2.00098 -260 -6.00098l19 63c76 2 126.667 9.66699 152 23s38 36.333 38 69s-2.66699 76 -8 130l-31 282h-463l-166 -282
c-42 -72.667 -63 -124 -63 -154c0 -39.333 55.333 -62 166 -68l-21 -63c-94.667 4 -174 6 -238 6s-149 -2 -255 -6l18 63c58.667 6.66699 103 20 133 40s65.667 64 107 132l495 818c121.333 199.333 193 327 215 383l138 32c4 -91.333 17 -228.333 39 -411l94 -805
c8 -74 22.667 -122.667 44 -146s65.333 -37.666 132 -42.999l-19 -63c-113.333 4 -202 6 -266 6z" />
    <glyph glyph-name="Adieresis" unicode="&#xc4;" horiz-adv-x="1449" 
d="M1202 1792c24 0 44 -7.33301 60 -22c14.667 -14.667 22 -35.334 22 -62.001c0 -27.333 -9.33301 -53.333 -28 -78s-40.667 -37 -66 -37s-45.333 7.33301 -60 22c-14.667 15.333 -22 36.333 -22 63s9.66699 52.334 29 77.001s41 37 65 37zM830 1792
c24.667 0 44.334 -7.33301 59.001 -22s22 -35.334 22 -62.001c0.666992 -27.333 -8.33301 -53.333 -27 -78s-40.667 -37 -66 -37s-45.333 7.33301 -60 22c-14.667 15.333 -22.334 36.333 -23.001 63c0 26.667 9.66699 52.334 29 77.001s41.333 37 66 37zM911 1225l-338 -578
h404zM1075 4c-64 0 -150.667 -2.00098 -260 -6.00098l19 63c76 2 126.667 9.66699 152 23s38 36.333 38 69s-2.66699 76 -8 130l-31 282h-463l-166 -282c-42 -72.667 -63 -124 -63 -154c0 -39.333 55.333 -62 166 -68l-21 -63c-94.667 4 -174 6 -238 6s-149 -2 -255 -6
l18 63c58.667 6.66699 103 20 133 40s65.667 64 107 132l495 818c121.333 199.333 193 327 215 383l138 32c4 -91.333 17 -228.333 39 -411l94 -805c8 -74 22.667 -122.667 44 -146s65.333 -37.666 132 -42.999l-19 -63c-113.333 4 -202 6 -266 6z" />
    <glyph glyph-name="Aring" unicode="&#xc5;" horiz-adv-x="1449" 
d="M1021 1864c-32 0 -59.333 -13 -82 -39s-34 -58.333 -34 -97s9 -68 27 -88s43.333 -30 76 -30s61 13 85 39c23.333 26 35 58 35 96s-9.66699 67.333 -29 88c-20 20.667 -46 31 -78 31zM821 1722c0.666992 56 20.999 104.667 60.999 146s88.667 61.666 146 60.999
c57.333 0 102 -15.667 134 -47s48 -75.666 48 -132.999s-19.667 -106 -59 -146c-39.333 -40.667 -87.666 -61 -144.999 -61s-102.333 16 -135 48c-33.333 32 -50 76 -50 132zM910.999 1225l-338 -578h404zM1075 4c-64 0 -150.667 -2.00098 -260 -6.00098l19 63
c76 2 126.667 9.66699 152 23s38 36.333 38 69s-2.66699 76 -8 130l-31 282h-463l-166 -282c-42 -72.667 -63 -124 -63 -154c0 -39.333 55.333 -62 166 -68l-21 -63c-94.667 4 -174 6 -238 6s-149 -2 -255 -6l18 63c58.667 6.66699 103 20 133 40s65.667 64 107 132l495 818
c121.333 199.333 193 327 215 383l138 32c4 -91.333 17 -228.333 39 -411l94 -805c8 -74 22.667 -122.667 44 -146s65.333 -37.666 132 -42.999l-19 -63c-113.333 4 -202 6 -266 6z" />
    <glyph glyph-name="AE" unicode="&#xc6;" horiz-adv-x="2070" 
d="M1307 1317c0.666992 12 -4.33301 18 -15 18s-31.667 -19.667 -63 -59l-506 -604h436l144 618c2.66699 10.667 4 19.667 4 27zM1210 173c0 -33.333 20.001 -56.9961 60.001 -70.9961c40 -13.333 109.333 -20 208 -20s167.334 4.66699 206.001 14s76.667 32 114 68
s77.666 93.333 120.999 172l61 -27c-52 -135.333 -90.667 -240.333 -116 -315c-125.333 6.66699 -297.666 10 -516.999 10s-392.666 -2 -519.999 -6l17 65c90 6 145 21.667 165 47s37.333 68.666 52 129.999l80 350h-482l-204 -246
c-95.333 -114.667 -143 -182.334 -143 -203.001s2 -34.667 6 -42c12 -19.333 63.667 -32 155 -38l-16 -63c-98 4 -183 6 -255 6s-162 -2 -270 -6l17 63c60 7.33301 109.667 25 149 53s106.333 97.333 201 208l588 692c109.333 125.333 175.666 206 198.999 242
c22.667 36 34 61.333 34 76c0 13.333 -8 24.666 -24 33.999s-63.333 15.333 -142 18l17 64c119.333 -4 302.333 -6 549 -6s420.667 2.66699 522 8c-10.667 -92.667 -17.667 -195 -21 -307h-67c1.33301 9.33301 2 27.666 2 54.999c-1.33301 69.333 -26 115 -74 137
s-115.333 33 -202 33s-155 -2 -205 -6l-136 -569c187.333 0 298.666 5 333.999 15s63.666 28.333 84.999 55s41 66 59 118h73c-54.667 -170.667 -92 -327.667 -112 -471h-70c2.66699 54.667 4 93.667 4 117c-1.33301 48 -32 75 -92 81s-159.667 9 -299 9l-88 -400
c-15.333 -62.667 -23 -110.667 -23 -144z" />
    <glyph glyph-name="Ccedilla" unicode="&#xc7;" horiz-adv-x="1468" 
d="M373 522c0 -144.667 40.668 -257.999 122.001 -339.999s183.666 -123 306.999 -123s217 24 281 72c72.667 52 135.667 141.333 189 268l82 -12c-39.333 -146 -73 -253 -101 -321c-146 -60 -303.667 -91.667 -473 -95l-53 -100c53.333 -4 94.666 -19.333 123.999 -46
s44 -62.667 44 -108c0 -120 -91.333 -204.667 -274 -254c-42 -10.667 -85 -18 -129 -22l-7 86c136 0 219 21.333 249 64c14.667 20 22 45.667 22 77s-12 57.333 -36 78s-62 31 -114 31l103 198c-160 10 -285.333 63.667 -376 161s-136 228.333 -136 393s38 319.667 114 465
c76.667 145.333 184.334 261.666 323.001 348.999s293.334 131.333 464.001 132c128 0 260.333 -22 397 -66c-13.333 -61.333 -31 -184.333 -53 -369h-84c1.33301 26 2 63 2 111c-2.66699 84.667 -28.334 146 -77.001 184s-125 57 -229 57s-200 -26.333 -288 -79
c-88.667 -53.333 -161 -122.333 -217 -207s-99.333 -178 -130 -280s-46 -203.333 -46 -304z" />
    <glyph glyph-name="Egrave" unicode="&#xc8;" horiz-adv-x="1259" 
d="M553 1815l152 83c54.667 -78 137 -187.667 247 -329l-30 -31c-130 92 -253 184.333 -369 277zM790 1442c192 0 339.004 2.66699 441.004 8c-10.667 -92.667 -17.667 -195 -21 -307h-65c-0.666992 96.667 -21 158.334 -61 185.001s-108 40 -204 40s-168 -2 -216 -6
l-136 -569c187.333 0 298.666 5 333.999 15s63.666 28.333 84.999 55s41 66 59 118h73c-54.667 -170.667 -92 -327.667 -112 -471h-70c2.66699 54.667 4 93.667 4 117c-1.33301 48 -32 75 -92 81s-159.667 9 -299 9l-88 -400c-15.333 -62.667 -22.333 -110.667 -21 -144
c0.666992 -33.333 20.334 -57 59.001 -71c38.667 -13.333 107.334 -20 206.001 -20s167.667 4.66699 207 14c79.333 19.333 157.666 98 234.999 236l61 -23c-40.667 -128.667 -79.334 -233.667 -116.001 -315c-42 2.66699 -298.667 6 -770 10c-32.667 0 -112.667 -2 -240 -6
l14 63c76.667 3.33301 123 17.666 139 42.999s32 70 48 134l227 970c9.33301 44 13.666 79 12.999 105s-11.334 44 -32.001 54c-21.333 10 -61.333 15.667 -120 17l16 64c102.667 -4 250 -6 442 -6z" />
    <glyph glyph-name="Eacute" unicode="&#xc9;" horiz-adv-x="1259" 
d="M1073 1888l156 -84c-131.333 -83.333 -287 -172 -467 -266l-27 35c165.333 148.667 278 253.667 338 315zM790 1442c192 0 339.004 2.66699 441.004 8c-10.667 -92.667 -17.667 -195 -21 -307h-65c-0.666992 96.667 -21 158.334 -61 185.001s-108 40 -204 40
s-168 -2 -216 -6l-136 -569c187.333 0 298.666 5 333.999 15s63.666 28.333 84.999 55s41 66 59 118h73c-54.667 -170.667 -92 -327.667 -112 -471h-70c2.66699 54.667 4 93.667 4 117c-1.33301 48 -32 75 -92 81s-159.667 9 -299 9l-88 -400
c-15.333 -62.667 -22.333 -110.667 -21 -144c0.666992 -33.333 20.334 -57 59.001 -71c38.667 -13.333 107.334 -20 206.001 -20s167.667 4.66699 207 14c79.333 19.333 157.666 98 234.999 236l61 -23c-40.667 -128.667 -79.334 -233.667 -116.001 -315
c-42 2.66699 -298.667 6 -770 10c-32.667 0 -112.667 -2 -240 -6l14 63c76.667 3.33301 123 17.666 139 42.999s32 70 48 134l227 970c9.33301 44 13.666 79 12.999 105s-11.334 44 -32.001 54c-21.333 10 -61.333 15.667 -120 17l16 64c102.667 -4 250 -6 442 -6z" />
    <glyph glyph-name="Ecircumflex" unicode="&#xca;" horiz-adv-x="1259" 
d="M1120 1552l-39.001 -32l-223 182l-287 -182l-32 39c118.667 105.333 219.667 199.333 303 282h78c18.667 -28.667 85.334 -125 200.001 -289zM789.999 1442c192 0 339.004 2.66699 441.004 8c-10.667 -92.667 -17.667 -195 -21 -307h-65
c-0.666992 96.667 -21 158.334 -61 185.001s-108 40 -204 40s-168 -2 -216 -6l-136 -569c187.333 0 298.666 5 333.999 15s63.666 28.333 84.999 55s41 66 59 118h73c-54.667 -170.667 -92 -327.667 -112 -471h-70c2.66699 54.667 4 93.667 4 117c-1.33301 48 -32 75 -92 81
s-159.667 9 -299 9l-88 -400c-15.333 -62.667 -22.333 -110.667 -21 -144c0.666992 -33.333 20.334 -57 59.001 -71c38.667 -13.333 107.334 -20 206.001 -20s167.667 4.66699 207 14c79.333 19.333 157.666 98 234.999 236l61 -23
c-40.667 -128.667 -79.334 -233.667 -116.001 -315c-42 2.66699 -298.667 6 -770 10c-32.667 0 -112.667 -2 -240 -6l14 63c76.667 3.33301 123 17.666 139 42.999s32 70 48 134l227 970c9.33301 44 13.666 79 12.999 105s-11.334 44 -32.001 54
c-21.333 10 -61.333 15.667 -120 17l16 64c102.667 -4 250 -6 442 -6z" />
    <glyph glyph-name="Edieresis" unicode="&#xcb;" horiz-adv-x="1259" 
d="M1057 1792c24.667 0 44.332 -7.33301 58.999 -22s22.334 -35.334 23.001 -62.001c0 -27.333 -9.33301 -53.333 -28 -78s-40.667 -37 -66 -37c-26 0 -46.333 7.33301 -61 22c-14.667 15.333 -22 36.333 -22 63s9.66699 52.334 29 77.001s41.333 37 66 37zM683.998 1792
c25.333 0 45.333 -7.33301 60 -22s22 -35.334 22 -62.001c0 -27.333 -9.33301 -53.333 -28 -78s-40.667 -37 -66 -37s-45.333 7.33301 -60 22c-14.667 15.333 -22 36.333 -22 63s9.33301 52.334 28 77.001c19.333 24.667 41.333 37 66 37zM789.998 1442
c192 0 339.004 2.66699 441.004 8c-10.667 -92.667 -17.667 -195 -21 -307h-65c-0.666992 96.667 -21 158.334 -61 185.001s-108 40 -204 40s-168 -2 -216 -6l-136 -569c187.333 0 298.666 5 333.999 15s63.666 28.333 84.999 55s41 66 59 118h73
c-54.667 -170.667 -92 -327.667 -112 -471h-70c2.66699 54.667 4 93.667 4 117c-1.33301 48 -32 75 -92 81s-159.667 9 -299 9l-88 -400c-15.333 -62.667 -22.333 -110.667 -21 -144c0.666992 -33.333 20.334 -57 59.001 -71c38.667 -13.333 107.334 -20 206.001 -20
s167.667 4.66699 207 14c79.333 19.333 157.666 98 234.999 236l61 -23c-40.667 -128.667 -79.334 -233.667 -116.001 -315c-42 2.66699 -298.667 6 -770 10c-32.667 0 -112.667 -2 -240 -6l14 63c76.667 3.33301 123 17.666 139 42.999s32 70 48 134l227 970
c9.33301 44 13.666 79 12.999 105s-11.334 44 -32.001 54c-21.333 10 -61.333 15.667 -120 17l16 64c102.667 -4 250 -6 442 -6z" />
    <glyph glyph-name="Igrave" unicode="&#xcc;" horiz-adv-x="727" 
d="M307 1815l151.999 83c54.667 -78 137.334 -187.667 248.001 -329l-31 -31c-130 92 -253 184.333 -369 277zM300.999 4c-46 0 -132.666 -1.99805 -259.999 -5.99805l14 63c78 3.33301 125 17.666 141 42.999s32 70 48 134l227 970c9.33301 44 13.666 79 12.999 105
s-11.334 44 -32.001 54c-21.333 10 -61.333 15.667 -120 17l16 64c102.667 -4 183.667 -6 243 -6s140.333 2 243 6l-17 -64c-74 -5.33301 -121 -19.666 -141 -42.999c-14.667 -14.667 -31.667 -60.334 -51 -137.001l-226 -962c-10.667 -48 -15.667 -84.333 -15 -109
s12.334 -42.334 35.001 -53.001s64.667 -17 126 -19l-15 -63c-106.667 4 -183 6 -229 6z" />
    <glyph glyph-name="Iacute" unicode="&#xcd;" horiz-adv-x="727" 
d="M864 1888l156 -84c-131.333 -83.333 -287 -172 -467 -266l-27 35c165.333 148.667 278 253.667 338 315zM301 4c-46 0 -132.666 -1.99805 -259.999 -5.99805l14 63c78 3.33301 125 17.666 141 42.999s32 70 48 134l227 970c9.33301 44 13.666 79 12.999 105
s-11.334 44 -32.001 54c-21.333 10 -61.333 15.667 -120 17l16 64c102.667 -4 183.667 -6 243 -6s140.333 2 243 6l-17 -64c-74 -5.33301 -121 -19.666 -141 -42.999c-14.667 -14.667 -31.667 -60.334 -51 -137.001l-226 -962c-10.667 -48 -15.667 -84.333 -15 -109
s12.334 -42.334 35.001 -53.001s64.667 -17 126 -19l-15 -63c-106.667 4 -183 6 -229 6z" />
    <glyph glyph-name="Icircumflex" unicode="&#xce;" horiz-adv-x="727" 
d="M907 1552l-39.001 -32l-223 182l-287 -182l-32 39c118.667 105.333 219.667 199.333 303 282h78c18.667 -28.667 85.334 -125 200.001 -289zM300.999 4c-46 0 -132.666 -1.99805 -259.999 -5.99805l14 63c78 3.33301 125 17.666 141 42.999s32 70 48 134l227 970
c9.33301 44 13.666 79 12.999 105s-11.334 44 -32.001 54c-21.333 10 -61.333 15.667 -120 17l16 64c102.667 -4 183.667 -6 243 -6s140.333 2 243 6l-17 -64c-74 -5.33301 -121 -19.666 -141 -42.999c-14.667 -14.667 -31.667 -60.334 -51 -137.001l-226 -962
c-10.667 -48 -15.667 -84.333 -15 -109s12.334 -42.334 35.001 -53.001s64.667 -17 126 -19l-15 -63c-106.667 4 -183 6 -229 6z" />
    <glyph glyph-name="Idieresis" unicode="&#xcf;" horiz-adv-x="727" 
d="M838 1792c25.333 0 45.334 -7.33301 60.001 -22s22 -35.334 22 -62.001c0 -27.333 -9.33301 -53.333 -28 -78s-40.667 -37 -66 -37s-45.333 7.33301 -60 22c-14.667 15.333 -22.334 36.333 -23.001 63c0 26.667 9.66699 52.334 29 77.001s41.333 37 66 37zM465.001 1792
c24.667 0 44.332 -7.33301 58.999 -22s22.334 -35.334 23.001 -62.001c0 -27.333 -9.33301 -53.333 -28 -78s-40.667 -37 -66 -37c-26 0 -46.333 7.33301 -61 22c-14.667 15.333 -22 36.333 -22 63s9.66699 52.334 29 77.001s41.333 37 66 37zM300.999 4
c-46 0 -132.666 -1.99805 -259.999 -5.99805l14 63c78 3.33301 125 17.666 141 42.999s32 70 48 134l227 970c9.33301 44 13.666 79 12.999 105s-11.334 44 -32.001 54c-21.333 10 -61.333 15.667 -120 17l16 64c102.667 -4 183.667 -6 243 -6s140.333 2 243 6l-17 -64
c-74 -5.33301 -121 -19.666 -141 -42.999c-14.667 -14.667 -31.667 -60.334 -51 -137.001l-226 -962c-10.667 -48 -15.667 -84.333 -15 -109s12.334 -42.334 35.001 -53.001s64.667 -17 126 -19l-15 -63c-106.667 4 -183 6 -229 6z" />
    <glyph glyph-name="Eth" unicode="&#xd0;" horiz-adv-x="1548" 
d="M406 194c0 -44 15.333 -74.334 46 -91.001c30.667 -17.333 81.334 -25.666 152.001 -24.999c120 0 227.333 20.333 322 61c175.333 75.333 295.666 209.666 360.999 402.999c29.333 86.667 44 178.334 44 275.001c0 186 -45 324.667 -135 416s-233.333 137 -430 137
c-34 0 -69.667 -2.66699 -107 -8l-127 -553h492l-25 -94h-489l-84 -371c-13.333 -56 -20 -106 -20 -150zM1509 824.999c0 -228 -74.666 -420.668 -223.999 -578.001c-73.333 -77.333 -169.666 -138.666 -288.999 -183.999s-254 -67.666 -404 -66.999l-295 8
c-42 0 -126.667 -2 -254 -6l14 63c76.667 3.33301 123 17.666 139 42.999s32 70 48 134l110 477h-188l24 94h187l94 399c9.33301 44 13.666 79 12.999 105s-11.334 44 -32.001 54c-21.333 10 -61.333 15.667 -120 17l16 64c102.667 -4 186.667 -6 252 -6l223 2
c457.333 0 686 -206.333 686 -619z" />
    <glyph glyph-name="Ntilde" unicode="&#xd1;" horiz-adv-x="1642" 
d="M1204 1589c-24.667 0 -66.335 11 -125.002 33l-67 27c-38 15.333 -68.333 23 -91 23s-43.334 -8 -62.001 -24c-18.667 -14.667 -40 -41 -64 -79l-43 18c72.667 140.667 140.667 211 204 211c20.667 0 58.334 -10.333 113.001 -31l72 -28
c36.667 -16.667 70.334 -25 101.001 -25s70 35 118 105l43 -21c-75.333 -139.333 -141.666 -209 -198.999 -209zM199.999 2c-97.333 0 -163.998 -1.33398 -199.998 -4.00098l12 63c82 6 135.667 24.333 161 55s53 109.334 83 236.001
c121.333 504 185.666 772.667 192.999 806s11 62 11 86s-6.66699 48.333 -20 73s-31.333 41 -54 49s-64.667 14 -126 18l16 64c54.667 -2.66699 106.667 -4 156 -4s98.666 1.33301 147.999 4c112 -216.667 238.333 -443.667 379 -681l286 -486
c84.667 349.333 151 637.333 199 864c12 60 17.667 108.333 17 145c-0.666992 37.333 -13.667 61.333 -39 72s-72 18 -140 22l16 64c98.667 -2.66699 179.334 -4 242.001 -4s146 1.33301 250 4l-16 -64c-76.667 -4 -126.667 -18.667 -150 -44s-48 -89.666 -74 -192.999
c-126.667 -509.333 -212 -896.333 -256 -1161l-71 -6c-40.667 89.333 -263.334 484.333 -668.001 1185c-70 -274 -135 -551.667 -195 -833c-16 -66.667 -24 -121.334 -24 -164.001s14 -70.667 42 -84c28 -12 75.333 -19.667 142 -23l-14 -63
c-106.667 2.66699 -208.667 4 -306 4z" />
    <glyph glyph-name="Ograve" unicode="&#xd2;" horiz-adv-x="1492" 
d="M676 1815l150.999 83c54.667 -78 137.334 -187.667 248.001 -329l-31 -31c-129.333 92 -252 184.333 -368 277zM943.999 1391c-91.333 -0.666992 -175.334 -31 -252.001 -91c-133.333 -104.667 -228.666 -276.667 -285.999 -516c-24.667 -100 -37 -194.667 -37 -284
c0 -144.667 31 -255 93 -331c61.333 -76 144 -114 248 -114s193 28.333 267 85c130 99.333 221 270.333 273 513c22.667 102.667 34 210 34 322s-27.667 209.333 -83 292s-141 124 -257 124zM951.998 1473c164 0 289.333 -55.333 376 -166s130 -261 130 -451
c0 -140.667 -30 -278 -90 -412c-60 -133.333 -147.667 -245.333 -263 -336s-248.333 -136 -399 -136s-272.667 54 -366 162c-94 108 -141 248.667 -141 422s35.333 329.333 106 468s164 248 280 328c116 80.667 238.333 121 367 121z" />
    <glyph glyph-name="Oacute" unicode="&#xd3;" horiz-adv-x="1492" 
d="M1151 1888l156 -84c-131.333 -83.333 -287 -172 -467 -266l-27 35c165.333 148.667 278 253.667 338 315zM944 1391c-91.333 -0.666992 -175.334 -31 -252.001 -91c-133.333 -104.667 -228.666 -276.667 -285.999 -516c-24.667 -100 -37 -194.667 -37 -284
c0 -144.667 31 -255 93 -331c61.333 -76 144 -114 248 -114s193 28.333 267 85c130 99.333 221 270.333 273 513c22.667 102.667 34 210 34 322s-27.667 209.333 -83 292s-141 124 -257 124zM951.999 1473c164 0 289.333 -55.333 376 -166s130 -261 130 -451
c0 -140.667 -30 -278 -90 -412c-60 -133.333 -147.667 -245.333 -263 -336s-248.333 -136 -399 -136s-272.667 54 -366 162c-94 108 -141 248.667 -141 422s35.333 329.333 106 468s164 248 280 328c116 80.667 238.333 121 367 121z" />
    <glyph glyph-name="Ocircumflex" unicode="&#xd4;" horiz-adv-x="1492" 
d="M1249 1552l-39.001 -32l-223 182l-287 -182l-32 39c118.667 105.333 219.667 199.333 303 282h78c18.667 -28.667 85.334 -125 200.001 -289zM943.999 1391c-91.333 -0.666992 -175.334 -31 -252.001 -91c-133.333 -104.667 -228.666 -276.667 -285.999 -516
c-24.667 -100 -37 -194.667 -37 -284c0 -144.667 31 -255 93 -331c61.333 -76 144 -114 248 -114s193 28.333 267 85c130 99.333 221 270.333 273 513c22.667 102.667 34 210 34 322s-27.667 209.333 -83 292s-141 124 -257 124zM951.998 1473
c164 0 289.333 -55.333 376 -166s130 -261 130 -451c0 -140.667 -30 -278 -90 -412c-60 -133.333 -147.667 -245.333 -263 -336s-248.333 -136 -399 -136s-272.667 54 -366 162c-94 108 -141 248.667 -141 422s35.333 329.333 106 468s164 248 280 328
c116 80.667 238.333 121 367 121z" />
    <glyph glyph-name="Otilde" unicode="&#xd5;" horiz-adv-x="1492" 
d="M1135 1589c-24.667 0 -66.333 11 -125 33l-68 27c-68 27.333 -118.667 27.333 -152 0c-18.667 -15.333 -40.334 -42 -65.001 -80l-43 18c72.667 140.667 141 211 205 211c20 0 57.333 -10.333 112 -31l72 -28c36.667 -16.667 70.334 -25 101.001 -25s70 35 118 105
l43 -21c-75.333 -139.333 -141.333 -209 -198 -209zM944.001 1391c-91.333 -0.666992 -175.334 -31 -252.001 -91c-133.333 -104.667 -228.666 -276.667 -285.999 -516c-24.667 -100 -37 -194.667 -37 -284c0 -144.667 31 -255 93 -331c61.333 -76 144 -114 248 -114
s193 28.333 267 85c130 99.333 221 270.333 273 513c22.667 102.667 34 210 34 322s-27.667 209.333 -83 292s-141 124 -257 124zM952 1473c164 0 289.333 -55.333 376 -166s130 -261 130 -451c0 -140.667 -30 -278 -90 -412c-60 -133.333 -147.667 -245.333 -263 -336
s-248.333 -136 -399 -136s-272.667 54 -366 162c-94 108 -141 248.667 -141 422s35.333 329.333 106 468s164 248 280 328c116 80.667 238.333 121 367 121z" />
    <glyph glyph-name="Odieresis" unicode="&#xd6;" horiz-adv-x="1492" 
d="M1211 1792c24.667 0 44.334 -7.33301 59.001 -22s22 -35.334 22 -62.001c0 -27.333 -9.33301 -53.333 -28 -78s-40.334 -37 -65.001 -37c-26 0 -46.333 7.33301 -61 22c-14.667 15.333 -22 36.333 -22 63s9.66699 52.334 29 77.001s41.333 37 66 37zM838 1792
c25.333 0 45.334 -7.33301 60.001 -22s22 -35.334 22 -62.001c0 -27.333 -9.33301 -53.333 -28 -78s-40.667 -37 -66 -37s-45.333 7.33301 -60 22c-14.667 15.333 -22.334 36.333 -23.001 63c0 26.667 9.66699 52.334 29 77.001s41.333 37 66 37zM944.001 1391
c-91.333 -0.666992 -175.334 -31 -252.001 -91c-133.333 -104.667 -228.666 -276.667 -285.999 -516c-24.667 -100 -37 -194.667 -37 -284c0 -144.667 31 -255 93 -331c61.333 -76 144 -114 248 -114s193 28.333 267 85c130 99.333 221 270.333 273 513
c22.667 102.667 34 210 34 322s-27.667 209.333 -83 292s-141 124 -257 124zM952 1473c164 0 289.333 -55.333 376 -166s130 -261 130 -451c0 -140.667 -30 -278 -90 -412c-60 -133.333 -147.667 -245.333 -263 -336s-248.333 -136 -399 -136s-272.667 54 -366 162
c-94 108 -141 248.667 -141 422s35.333 329.333 106 468s164 248 280 328c116 80.667 238.333 121 367 121z" />
    <glyph glyph-name="multiply" unicode="&#xd7;" horiz-adv-x="1497" 
d="M1184 260l-90 -80l-322 367l-426 -373l-67 80l423 375l-329 381l94 82l330 -381l426 381l71 -80l-428 -383z" />
    <glyph glyph-name="Oslash" unicode="&#xd8;" horiz-adv-x="1492" 
d="M369 507c0 -85.333 8.66797 -155.333 26.001 -210l830 932c-60 108 -153.667 162 -281 162c-91.333 -0.666992 -175.333 -31 -252 -91s-137.334 -136 -182.001 -228c-94 -190.667 -141 -379 -141 -565zM1284 932c0 83.333 -8 153.667 -24 211l-830 -928
c60 -106.667 159 -160 297 -160c92.667 0 176 28.333 250 85c130 99.333 221 270.333 273 513c22.667 102.667 34 195.667 34 279zM1458 872.001c0 -151.333 -30.001 -294.001 -90.001 -428.001c-60 -133.333 -147.667 -245.333 -263 -336s-246.666 -136 -393.999 -136
s-268.333 51 -363 153l-141 -160l-64 49l156 174c-66.667 102.667 -100 233 -100 391s35.333 306.333 106 445c71.333 138.667 165 248 281 328c116 80.667 244 121 384 121s253.667 -49.333 341 -148l145 164l64 -53l-158 -179c64 -105.333 96 -233.666 96 -384.999z" />
    <glyph glyph-name="Ugrave" unicode="&#xd9;" horiz-adv-x="1576" 
d="M680 1815l150.999 83c54.667 -78 137.334 -187.667 248.001 -329l-30 -31c-130 92 -253 184.333 -369 277zM680.999 -31c-120.667 0 -227.998 30.999 -321.998 92.999c-93.333 62 -140 155.333 -140 280c0 75.333 12.333 164 37 266l143 600
c9.33301 39.333 14.333 76.333 15 111c-2.66699 39.333 -53.334 61 -152.001 65l17 64c122 -4 207.667 -6 257 -6s127.333 2 234 6l-16 -64c-82 -5.33301 -131.333 -18.333 -148 -39c-17.333 -20.667 -34.666 -64.334 -51.999 -131.001s-43 -172.667 -77 -318l-73 -310
c-14.667 -61.333 -22.334 -127.666 -23.001 -198.999c0 -111.333 34.333 -189.666 103 -234.999s154.334 -68 257.001 -68c143.333 0 249.333 26.333 318 79c26 20.667 47.667 39 65 55c30 27.333 58.667 72 86 134s58.333 166.667 93 314
c76.667 322 114.667 526.667 114 614c0 40 -13 66.667 -39 80s-70.333 21.333 -133 24l17 64c98.667 -2.66699 180 -4 244 -4s147.667 1.33301 251 4l-16 -64c-76.667 -4 -127.334 -19.333 -152.001 -46s-46.334 -78 -65.001 -154
c-18.667 -76.667 -42.667 -187.667 -72 -333c-30 -145.333 -56.333 -258 -79 -338s-50 -151.667 -82 -215s-73.333 -121.333 -124 -174c-51.333 -52.667 -115 -91.667 -191 -117s-174.333 -38 -295 -38z" />
    <glyph glyph-name="Uacute" unicode="&#xda;" horiz-adv-x="1576" 
d="M1233 1888l156 -84c-131.333 -83.333 -287 -172 -467 -266l-27 35c165.333 148.667 278 253.667 338 315zM681 -31c-120.667 0 -227.998 30.999 -321.998 92.999c-93.333 62 -140 155.333 -140 280c0 75.333 12.333 164 37 266l143 600
c9.33301 39.333 14.333 76.333 15 111c-2.66699 39.333 -53.334 61 -152.001 65l17 64c122 -4 207.667 -6 257 -6s127.333 2 234 6l-16 -64c-82 -5.33301 -131.333 -18.333 -148 -39c-17.333 -20.667 -34.666 -64.334 -51.999 -131.001s-43 -172.667 -77 -318l-73 -310
c-14.667 -61.333 -22.334 -127.666 -23.001 -198.999c0 -111.333 34.333 -189.666 103 -234.999s154.334 -68 257.001 -68c143.333 0 249.333 26.333 318 79c26 20.667 47.667 39 65 55c30 27.333 58.667 72 86 134s58.333 166.667 93 314
c76.667 322 114.667 526.667 114 614c0 40 -13 66.667 -39 80s-70.333 21.333 -133 24l17 64c98.667 -2.66699 180 -4 244 -4s147.667 1.33301 251 4l-16 -64c-76.667 -4 -127.334 -19.333 -152.001 -46s-46.334 -78 -65.001 -154
c-18.667 -76.667 -42.667 -187.667 -72 -333c-30 -145.333 -56.333 -258 -79 -338s-50 -151.667 -82 -215s-73.333 -121.333 -124 -174c-51.333 -52.667 -115 -91.667 -191 -117s-174.333 -38 -295 -38z" />
    <glyph glyph-name="Ucircumflex" unicode="&#xdb;" horiz-adv-x="1576" 
d="M1315 1552l-39 -32l-223 182l-287 -182l-33 39c118.667 105.333 219.667 199.333 303 282h78zM681 -31c-120.667 0 -227.998 30.999 -321.998 92.999c-93.333 62 -140 155.333 -140 280c0 75.333 12.333 164 37 266l143 600c9.33301 39.333 14.333 76.333 15 111
c-2.66699 39.333 -53.334 61 -152.001 65l17 64c122 -4 207.667 -6 257 -6s127.333 2 234 6l-16 -64c-82 -5.33301 -131.333 -18.333 -148 -39c-17.333 -20.667 -34.666 -64.334 -51.999 -131.001s-43 -172.667 -77 -318l-73 -310
c-14.667 -61.333 -22.334 -127.666 -23.001 -198.999c0 -111.333 34.333 -189.666 103 -234.999s154.334 -68 257.001 -68c143.333 0 249.333 26.333 318 79c26 20.667 47.667 39 65 55c30 27.333 58.667 72 86 134s58.333 166.667 93 314
c76.667 322 114.667 526.667 114 614c0 40 -13 66.667 -39 80s-70.333 21.333 -133 24l17 64c98.667 -2.66699 180 -4 244 -4s147.667 1.33301 251 4l-16 -64c-76.667 -4 -127.334 -19.333 -152.001 -46s-46.334 -78 -65.001 -154
c-18.667 -76.667 -42.667 -187.667 -72 -333c-30 -145.333 -56.333 -258 -79 -338s-50 -151.667 -82 -215s-73.333 -121.333 -124 -174c-51.333 -52.667 -115 -91.667 -191 -117s-174.333 -38 -295 -38z" />
    <glyph glyph-name="Udieresis" unicode="&#xdc;" horiz-adv-x="1576" 
d="M1242 1792c24 0 43.3311 -7.33301 57.998 -22s22.334 -35.334 23.001 -62.001c0 -27.333 -9.33301 -53.333 -28 -78c-18 -24.667 -39.667 -37 -65 -37s-45.666 7.33301 -60.999 22c-15.333 15.333 -23 36.333 -23 63s10 52.334 30 77.001s42 37 66 37zM867.998 1792
c24 0 44.001 -7.33301 60.001 -22c14.667 -14.667 22 -35.334 22 -62.001c0 -27.333 -9.33301 -53.333 -28 -78s-40.334 -37 -65.001 -37c-26 0 -46.333 7.33301 -61 22c-14.667 15.333 -22 36.333 -22 63s9.66699 52.334 29 77.001s41 37 65 37zM680.999 -31
c-120.667 0 -227.998 30.999 -321.998 92.999c-93.333 62 -140 155.333 -140 280c0 75.333 12.333 164 37 266l143 600c9.33301 39.333 14.333 76.333 15 111c-2.66699 39.333 -53.334 61 -152.001 65l17 64c122 -4 207.667 -6 257 -6s127.333 2 234 6l-16 -64
c-82 -5.33301 -131.333 -18.333 -148 -39c-17.333 -20.667 -34.666 -64.334 -51.999 -131.001s-43 -172.667 -77 -318l-73 -310c-14.667 -61.333 -22.334 -127.666 -23.001 -198.999c0 -111.333 34.333 -189.666 103 -234.999s154.334 -68 257.001 -68
c143.333 0 249.333 26.333 318 79c26 20.667 47.667 39 65 55c30 27.333 58.667 72 86 134s58.333 166.667 93 314c76.667 322 114.667 526.667 114 614c0 40 -13 66.667 -39 80s-70.333 21.333 -133 24l17 64c98.667 -2.66699 180 -4 244 -4s147.667 1.33301 251 4l-16 -64
c-76.667 -4 -127.334 -19.333 -152.001 -46s-46.334 -78 -65.001 -154c-18.667 -76.667 -42.667 -187.667 -72 -333c-30 -145.333 -56.333 -258 -79 -338s-50 -151.667 -82 -215s-73.333 -121.333 -124 -174c-51.333 -52.667 -115 -91.667 -191 -117s-174.333 -38 -295 -38z
" />
    <glyph glyph-name="Yacute" unicode="&#xdd;" horiz-adv-x="1335" 
d="M1130 1888l156 -84c-131.333 -83.333 -287 -172 -467 -266l-26 35c164.667 148.667 277 253.667 337 315zM616 4c-49.333 0 -147.331 -2 -293.998 -6l14 63c91.333 1.33301 148 17.333 170 48c15.333 26 29.666 69 42.999 129l88 387l-215 600
c-24.667 66.667 -49 109 -73 127s-62.667 28.667 -116 32l17 64c131.333 -4 225.333 -6 282 -6s123.667 2 201 6l-16 -64c-32.667 -1.33301 -58 -3 -76 -5c-50.667 -5.33301 -76 -25.333 -76 -60c0 -24.667 7.66699 -59.667 23 -105
c84.667 -262 139.334 -426.333 164.001 -493c80.667 91.333 204.667 248.333 372 471c53.333 70.667 79.666 116.334 78.999 137.001s-9.66699 34.667 -27 42c-18 7.33301 -55 11.666 -111 12.999l16 64c48 -4 113.333 -6 196 -6s169 2 259 6l-16 -64
c-46.667 -4 -84 -15.333 -112 -34s-75.333 -68 -142 -148l-465 -561l-96 -399c-10 -45.333 -15 -81 -15 -107s11.667 -44.333 35 -55s67.666 -17 132.999 -19l-14 -63c-102.667 4 -178.667 6 -228 6z" />
    <glyph glyph-name="Thorn" unicode="&#xde;" horiz-adv-x="1236" 
d="M739 1151c155.333 0 271.001 -30.665 347.001 -91.998s114 -146.666 114 -255.999c0 -142 -53.667 -254.333 -161 -337s-249 -124 -425 -124c-40.667 0 -80.667 2 -120 6l16 84c27.333 -4 60 -6 98 -6c125.333 0 226.666 30.667 303.999 92s116 153.666 116 276.999
c0 188.667 -111.333 282.667 -334 282c-52 0 -86 -1.33301 -102 -4l-191 -825c-9.33301 -40 -13.666 -74.667 -12.999 -104s13 -50 37 -62s66.667 -19 128 -21l-14 -63c-107.333 4 -185 6 -233 6s-135.667 -2 -263 -6l14 63c76.667 3.33301 123 17.666 139 42.999
s32 70 48 134l227 970c9.33301 44 13.666 79 12.999 105s-13.334 44 -38.001 54s-66 15.667 -124 17l16 64c102.667 -4 187.667 -6 255 -6s150.333 2 249 6l-17 -64c-80.667 -6.66699 -129.667 -19.334 -147 -38.001s-35.666 -66 -54.999 -142l-15 -57
c65.333 2.66699 109 4 131 4z" />
    <glyph glyph-name="germandbls" unicode="&#xdf;" horiz-adv-x="1087" 
d="M712 -29c-101.333 0 -183.668 32.3281 -247.001 96.9951l84 104c60 -69.333 139 -104 237 -104c48 0 85.333 14.667 112 44s40 64.333 40 105c0 62.667 -45 154.334 -135 275.001l-82 110c-40 56.667 -60.333 102.667 -61 138c-1.33301 55.333 23 110.333 73 165
c24.667 26.667 78.667 77.334 162 152.001c82 79.333 123 163.333 123 252c0 58.667 -13.667 104.334 -41 137.001s-67 49 -119 49c-84.667 0 -153.667 -57.333 -207 -172c-42 -87.333 -87.667 -233.333 -137 -438l-170 -725c-65.333 -278.667 -155.333 -476.667 -270 -594
c-75.333 -78 -156.666 -117 -243.999 -117c-45.333 0 -90.333 10.333 -135 31l69 129c37.333 -26 80.666 -39 129.999 -39s90.666 19 123.999 57c60 68 116.667 219.667 170 455l164 735h-180l25 68c79.333 10.667 125.666 20.667 138.999 30
c31.333 22 62.333 81.667 93 179s60 173 88 227c28 54.667 70 106.667 126 156c88.667 78 183.667 116.667 285 116c66.667 0.666992 122.334 -22.333 167.001 -69s67 -105.667 67 -177s-22.667 -137 -68 -197s-106.666 -122 -183.999 -186
c-77.333 -63.333 -116 -117.666 -116 -162.999c0 -44.667 46 -125.667 138 -243c90.667 -117.333 136 -208.666 136 -273.999s-28.333 -128 -85 -188c-79.333 -83.333 -169.666 -125 -270.999 -125z" />
    <glyph glyph-name="agrave" unicode="&#xe0;" horiz-adv-x="1169" 
d="M545 1475l167.999 49c52 -109.333 119.333 -234.333 202 -375l-36 -23c-65.333 58 -176.666 174.333 -333.999 349zM898.999 805c0 22 -14.332 38.667 -42.999 50s-63.334 17 -104.001 17c-92.667 0 -179.334 -53 -260.001 -159c-58.667 -79.333 -112 -171 -160 -275
s-72 -188 -72 -252c0 -24 6 -43.333 18 -58s27.333 -22 46 -22c65.333 0 151.333 54.333 258 163s191.334 221.667 254.001 339c42 83.333 63 149 63 197zM862 135c0 -19.333 9.66699 -29.002 29 -29.002c38 0 111.667 50.667 221 152l43 -45
c-162.667 -160 -287 -240 -373 -240c-46.667 0 -70 27 -70 81s28.333 169 85 345l-6 4c-96.667 -134 -196 -239.667 -298 -317s-187.667 -115.666 -257 -114.999c-87.333 0 -131.333 50 -132 150c0 72.667 21.333 160.334 64 263.001s100 199.334 172 290.001
c158.667 199.333 319.667 299 483 299c49.333 -0.666992 99.333 -5.66699 150 -15l39 76l100 -8l-207 -670c-28.667 -92.667 -43 -166.334 -43 -221.001z" />
    <glyph glyph-name="aacute" unicode="&#xe1;" horiz-adv-x="1169" 
d="M1006 1524l171.999 -49.001c-135.333 -135.333 -261.666 -251.666 -378.999 -348.999l-37 23c94.667 130 176 255 244 375zM898.999 804.999c0 22 -14.332 38.667 -42.999 50s-63.334 17 -104.001 17c-92.667 0 -179.334 -53 -260.001 -159
c-58.667 -79.333 -112 -171 -160 -275s-72 -188 -72 -252c0 -24 6 -43.333 18 -58s27.333 -22 46 -22c65.333 0 151.333 54.333 258 163s191.334 221.667 254.001 339c42 83.333 63 149 63 197zM862 134.999c0 -19.333 9.66699 -29.002 29 -29.002
c38 0 111.667 50.667 221 152l43 -45c-162.667 -160 -287 -240 -373 -240c-46.667 0 -70 27 -70 81s28.333 169 85 345l-6 4c-96.667 -134 -196 -239.667 -298 -317s-187.667 -115.666 -257 -114.999c-87.333 0 -131.333 50 -132 150c0 72.667 21.333 160.334 64 263.001
s100 199.334 172 290.001c158.667 199.333 319.667 299 483 299c49.333 -0.666992 99.333 -5.66699 150 -15l39 76l100 -8l-207 -670c-28.667 -92.667 -43 -166.334 -43 -221.001z" />
    <glyph glyph-name="acircumflex" unicode="&#xe2;" horiz-adv-x="1169" 
d="M1106 1112l-39 -20l-184 223l-297 -223l-33 32c117.333 116 226 233 326 351h61c22 -53.333 77.333 -174.333 166 -363zM899 805c0 22 -14.332 38.667 -42.999 50s-63.334 17 -104.001 17c-92.667 0 -179.334 -53 -260.001 -159c-58.667 -79.333 -112 -171 -160 -275
s-72 -188 -72 -252c0 -24 6 -43.333 18 -58s27.333 -22 46 -22c65.333 0 151.333 54.333 258 163s191.334 221.667 254.001 339c42 83.333 63 149 63 197zM862.001 135c0 -19.333 9.66699 -29.002 29 -29.002c38 0 111.667 50.667 221 152l43 -45
c-162.667 -160 -287 -240 -373 -240c-46.667 0 -70 27 -70 81s28.333 169 85 345l-6 4c-96.667 -134 -196 -239.667 -298 -317s-187.667 -115.666 -257 -114.999c-87.333 0 -131.333 50 -132 150c0 72.667 21.333 160.334 64 263.001s100 199.334 172 290.001
c158.667 199.333 319.667 299 483 299c49.333 -0.666992 99.333 -5.66699 150 -15l39 76l100 -8l-207 -670c-28.667 -92.667 -43 -166.334 -43 -221.001z" />
    <glyph glyph-name="atilde" unicode="&#xe3;" horiz-adv-x="1169" 
d="M1061 1278c35.333 0 73.668 33.333 115.001 100l43 -22c-70.667 -134 -133.667 -201 -189 -201c-27.333 0 -66.333 12.333 -117 37l-57 27c-38 18 -66 26.667 -84 26c-42 0 -83.667 -32.667 -125 -98l-43 20c70.667 138 137 207 199 207c17.333 0 53.333 -13 108 -39
l62 -30c35.333 -18 64.666 -27 87.999 -27zM899.002 805c0 22 -14.332 38.667 -42.999 50s-63.334 17 -104.001 17c-92.667 0 -179.334 -53 -260.001 -159c-58.667 -79.333 -112 -171 -160 -275s-72 -188 -72 -252c0 -24 6 -43.333 18 -58s27.333 -22 46 -22
c65.333 0 151.333 54.333 258 163s191.334 221.667 254.001 339c42 83.333 63 149 63 197zM862.003 135c0 -19.333 9.66699 -29.002 29 -29.002c38 0 111.667 50.667 221 152l43 -45c-162.667 -160 -287 -240 -373 -240c-46.667 0 -70 27 -70 81s28.333 169 85 345l-6 4
c-96.667 -134 -196 -239.667 -298 -317s-187.667 -115.666 -257 -114.999c-87.333 0 -131.333 50 -132 150c0 72.667 21.333 160.334 64 263.001s100 199.334 172 290.001c158.667 199.333 319.667 299 483 299c49.333 -0.666992 99.333 -5.66699 150 -15l39 76l100 -8
l-207 -670c-28.667 -92.667 -43 -166.334 -43 -221.001z" />
    <glyph glyph-name="adieresis" unicode="&#xe4;" horiz-adv-x="1169" 
d="M1206 1299c0 -27.333 -9.33203 -53.334 -27.999 -78.001s-40.334 -37 -65.001 -37c-26 0 -46.333 7.33301 -61 22s-22 35.334 -22 62.001c0 27.333 9.66699 53.333 29 78c19.333 24 41 36 65 36s44 -7 60 -21c14.667 -14 22 -34.667 22 -62zM874.001 1299
c0 -27.333 -9.33301 -53.334 -28 -78.001s-40.334 -37 -65.001 -37c-26 0 -46.333 7.33301 -61 22s-22 35.334 -22 62.001c0 27.333 9.66699 53.333 29 78c19.333 24 41.333 36 66 36s44.334 -7 59.001 -21s22 -34.667 22 -62zM899.001 804.998
c0 22 -14.332 38.667 -42.999 50s-63.334 17 -104.001 17c-92.667 0 -179.334 -53 -260.001 -159c-58.667 -79.333 -112 -171 -160 -275s-72 -188 -72 -252c0 -24 6 -43.333 18 -58s27.333 -22 46 -22c65.333 0 151.333 54.333 258 163s191.334 221.667 254.001 339
c42 83.333 63 149 63 197zM862.002 134.998c0 -19.333 9.66699 -29.002 29 -29.002c38 0 111.667 50.667 221 152l43 -45c-162.667 -160 -287 -240 -373 -240c-46.667 0 -70 27 -70 81s28.333 169 85 345l-6 4c-96.667 -134 -196 -239.667 -298 -317
s-187.667 -115.666 -257 -114.999c-87.333 0 -131.333 50 -132 150c0 72.667 21.333 160.334 64 263.001s100 199.334 172 290.001c158.667 199.333 319.667 299 483 299c49.333 -0.666992 99.333 -5.66699 150 -15l39 76l100 -8l-207 -670
c-28.667 -92.667 -43 -166.334 -43 -221.001z" />
    <glyph glyph-name="aring" unicode="&#xe5;" horiz-adv-x="1169" 
d="M933 1438c-33.333 0 -61.667 -13.332 -85 -39.999s-35 -59.334 -35 -98.001s9.33301 -69.334 28 -92.001c18.667 -21.333 45 -32 79 -32s63.333 13.333 88 40c24 26.667 36 59.334 36 98.001c0 40 -10 70.667 -30 92c-20.667 21.333 -47.667 32 -81 32zM728.999 1292
c0.666992 57.333 21.667 106.666 63 147.999s91 62.333 149 63c58 0 103.333 -16.333 136 -49s49 -78 49 -136c0 -57.333 -20.333 -106.666 -61 -147.999s-89.667 -62 -147 -62s-103.333 16.333 -138 49c-34 32.667 -51 77.667 -51 135zM898.999 805.001
c0 22 -14.332 38.667 -42.999 50s-63.334 17 -104.001 17c-92.667 0 -179.334 -53 -260.001 -159c-58.667 -79.333 -112 -171 -160 -275s-72 -188 -72 -252c0 -24 6 -43.333 18 -58s27.333 -22 46 -22c65.333 0 151.333 54.333 258 163s191.334 221.667 254.001 339
c42 83.333 63 149 63 197zM862 135.001c0 -19.333 9.66699 -29.002 29 -29.002c38 0 111.667 50.667 221 152l43 -45c-162.667 -160 -287 -240 -373 -240c-46.667 0 -70 27 -70 81s28.333 169 85 345l-6 4c-96.667 -134 -196 -239.667 -298 -317
s-187.667 -115.666 -257 -114.999c-87.333 0 -131.333 50 -132 150c0 72.667 21.333 160.334 64 263.001s100 199.334 172 290.001c158.667 199.333 319.667 299 483 299c49.333 -0.666992 99.333 -5.66699 150 -15l39 76l100 -8l-207 -670
c-28.667 -92.667 -43 -166.334 -43 -221.001z" />
    <glyph glyph-name="ae" unicode="&#xe6;" horiz-adv-x="1445" 
d="M1277 907c-51.333 0.666992 -110.332 -35 -176.999 -107s-119.334 -164 -158.001 -276c146 39.333 251 84 315 134s96.333 107.667 97 173c0 50.667 -25.667 76 -77 76zM905.001 817c0 22 -14.333 38.667 -43 50s-63.334 17.333 -104.001 18
c-146.667 0 -288.667 -149 -426 -447c-48 -104 -72 -188 -72 -252c0 -24 6 -43.333 18 -58s27.333 -22 46 -22c65.333 0 151.333 54.333 258 163s187.334 215 242.001 319s81.667 180.333 81 229zM889.001 240c0 -98 41.665 -147.335 124.998 -148.002
c92.667 0 197 52 313 156l43 -41c-150 -157.333 -288.667 -236 -416 -236c-132.667 0 -198.667 76 -198 228c0 56 8.66699 119.333 26 190l-6 4c-96 -134 -192.667 -237.667 -290 -311s-180.666 -110.333 -249.999 -111c-87.333 0 -131.333 50 -132 150
c0 72.667 21.333 160.334 64 263.001s100 199.334 172 290.001c162.667 204.667 324.334 307 485.001 307c49.333 0 99.333 -4.66699 150 -14l47 88l96 -8l-59 -183c102.667 91.333 201.667 137 297 137c44 -0.666992 79.333 -13.667 106 -39s39.667 -61.333 39 -108
c0 -92 -46.667 -169.333 -140 -232s-238.333 -115 -435 -157c-24.667 -68 -37 -143 -37 -225z" />
    <glyph glyph-name="ccedilla" unicode="&#xe7;" horiz-adv-x="768" 
d="M596 881c-94 0 -181.332 -84.666 -261.999 -253.999c-57.333 -120 -86 -249 -86 -387c0 -98 41.667 -147.333 125 -148c92.667 0 196.334 52 311.001 156l45 -41c-126.667 -131.333 -249.667 -208 -369 -230l-53 -100c52 -4 92.333 -18.667 121 -44
c28.667 -26 43 -60.333 43 -103s-13 -81.667 -39 -117c-42.667 -58 -118.667 -100 -228 -126c-42 -10.667 -84 -18 -126 -22l-6 82c133.333 0 214.333 20.667 243 62c13.333 19.333 20.333 44 21 74c0 30 -12 55 -36 75s-60.667 29.667 -110 29l99 184
c-126.667 4 -190.334 78 -191.001 222c0 88.667 17.333 185.667 52 291s83.667 197.333 147 276c130 161.333 270 241.666 420 240.999c53.333 0 105 -15 155 -45l-88 -143c-58.667 45.333 -121.334 68 -188.001 68z" />
    <glyph glyph-name="egrave" unicode="&#xe8;" horiz-adv-x="804" 
d="M401 1475l167.999 49c52 -109.333 119.667 -234.333 203 -375l-37 -23c-65.333 58 -176.666 174.333 -333.999 349zM635.999 907c-50.667 0.666992 -109.333 -35 -176 -107s-119.667 -164 -159 -276c146 39.333 251 84 315 134s96.333 107.667 97 173
c0 50.667 -25.667 76 -77 76zM246 240c0 -98 42.334 -147.333 127.001 -148c92.667 0 197 52 313 156l43 -41c-150 -157.333 -292.667 -236 -428 -236s-203 76 -203 228c0 80.667 19.333 175.667 58 285s94.667 207.333 168 294c125.333 148.667 255.666 223 390.999 223
c43.333 -0.666992 78.333 -13.667 105 -39s40 -61.333 40 -108c0 -92 -47 -169.333 -141 -232s-239.333 -115 -436 -157c-24.667 -68 -37 -143 -37 -225z" />
    <glyph glyph-name="eacute" unicode="&#xe9;" horiz-adv-x="804" 
d="M889 1524l171.999 -49.001c-135.333 -135.333 -261.666 -251.666 -378.999 -348.999l-37 23c94.667 130 176 255 244 375zM635.999 906.999c-50.667 0.666992 -109.333 -35 -176 -107s-119.667 -164 -159 -276c146 39.333 251 84 315 134s96.333 107.667 97 173
c0 50.667 -25.667 76 -77 76zM246 239.999c0 -98 42.334 -147.333 127.001 -148c92.667 0 197 52 313 156l43 -41c-150 -157.333 -292.667 -236 -428 -236s-203 76 -203 228c0 80.667 19.333 175.667 58 285s94.667 207.333 168 294
c125.333 148.667 255.666 223 390.999 223c43.333 -0.666992 78.333 -13.667 105 -39s40 -61.333 40 -108c0 -92 -47 -169.333 -141 -232s-239.333 -115 -436 -157c-24.667 -68 -37 -143 -37 -225z" />
    <glyph glyph-name="ecircumflex" unicode="&#xea;" horiz-adv-x="804" 
d="M973 1112l-38.999 -20l-184 223l-297 -223l-33 32c117.333 116 225.666 233 324.999 351h62c22 -53.333 77.333 -174.333 166 -363zM636.001 907c-50.667 0.666992 -109.333 -35 -176 -107s-119.667 -164 -159 -276c146 39.333 251 84 315 134s96.333 107.667 97 173
c0 50.667 -25.667 76 -77 76zM246.002 240c0 -98 42.334 -147.333 127.001 -148c92.667 0 197 52 313 156l43 -41c-150 -157.333 -292.667 -236 -428 -236s-203 76 -203 228c0 80.667 19.333 175.667 58 285s94.667 207.333 168 294
c125.333 148.667 255.666 223 390.999 223c43.333 -0.666992 78.333 -13.667 105 -39s40 -61.333 40 -108c0 -92 -47 -169.333 -141 -232s-239.333 -115 -436 -157c-24.667 -68 -37 -143 -37 -225z" />
    <glyph glyph-name="edieresis" unicode="&#xeb;" horiz-adv-x="804" 
d="M1026 1299c0 -27.333 -9.33301 -53.334 -28 -78.001s-40.667 -37 -66 -37s-45.333 7.33301 -60 22s-22 35.334 -22 62.001c0 27.333 9.66699 53.333 29 78c19.333 24 41 36 65 36s44 -7 60 -21c14.667 -14 22 -34.667 22 -62zM694 1299
c0 -27.333 -9.33203 -53.334 -27.999 -78.001s-40.334 -37 -65.001 -37c-26 0 -46.333 7.33301 -61 22s-22 35.334 -22 62.001c0 27.333 9.66699 53.333 29 78c19.333 24 41 36 65 36s44 -7 60 -21c14.667 -14 22 -34.667 22 -62zM636.001 906.998
c-50.667 0.666992 -109.333 -35 -176 -107s-119.667 -164 -159 -276c146 39.333 251 84 315 134s96.333 107.667 97 173c0 50.667 -25.667 76 -77 76zM246.002 239.998c0 -98 42.334 -147.333 127.001 -148c92.667 0 197 52 313 156l43 -41
c-150 -157.333 -292.667 -236 -428 -236s-203 76 -203 228c0 80.667 19.333 175.667 58 285s94.667 207.333 168 294c125.333 148.667 255.666 223 390.999 223c43.333 -0.666992 78.333 -13.667 105 -39s40 -61.333 40 -108c0 -92 -47 -169.333 -141 -232
s-239.333 -115 -436 -157c-24.667 -68 -37 -143 -37 -225z" />
    <glyph glyph-name="igrave" unicode="&#xec;" horiz-adv-x="632" 
d="M193 1475l167 49c52 -109.333 119.667 -234.333 203 -375l-37 -23c-64.667 58 -175.667 174.333 -333 349zM565 934c0 -37.333 -10.001 -86.0029 -30.001 -146.003l-39 -122c-6.66699 -21.333 -37.667 -107 -93 -257c-55.333 -150.667 -83.333 -245.334 -84 -284.001
c6 -31.333 43.667 -24.666 113 20.001c42 27.333 85 61.666 129 102.999l43 -43c-161.333 -157.333 -291 -236 -389 -236c-44 0 -65.667 20 -65 60c0 32.667 10 80.334 30 143.001c20.667 62.667 63.667 178.334 129 347.001s98.333 271.334 99 308.001
c0 19.333 -9 29 -27 29c-28.667 0 -90.667 -46.333 -186 -139l-41 43c66.667 73.333 131.334 132 194.001 176s112 65.667 148 65c46 0.666992 69 -21.666 69 -66.999z" />
    <glyph glyph-name="iacute" unicode="&#xed;" horiz-adv-x="632" 
d="M639 1524l171.999 -49.001c-135.333 -135.333 -261.666 -251.666 -378.999 -348.999l-37 23c94.667 130 176 255 244 375zM564.999 933.999c0 -37.333 -10.001 -86.0029 -30.001 -146.003l-39 -122c-6.66699 -21.333 -37.667 -107 -93 -257
c-55.333 -150.667 -83.333 -245.334 -84 -284.001c6 -31.333 43.667 -24.666 113 20.001c42 27.333 85 61.666 129 102.999l43 -43c-161.333 -157.333 -291 -236 -389 -236c-44 0 -65.667 20 -65 60c0 32.667 10 80.334 30 143.001
c20.667 62.667 63.667 178.334 129 347.001s98.333 271.334 99 308.001c0 19.333 -9 29 -27 29c-28.667 0 -90.667 -46.333 -186 -139l-41 43c66.667 73.333 131.334 132 194.001 176s112 65.667 148 65c46 0.666992 69 -21.666 69 -66.999z" />
    <glyph glyph-name="icircumflex" unicode="&#xee;" horiz-adv-x="632" 
d="M756 1112l-38.999 -20l-185 223l-296 -223l-33 32c117.333 116 225.666 233 324.999 351h62c22 -53.333 77.333 -174.333 166 -363zM565.001 934c0 -37.333 -10.001 -86.0029 -30.001 -146.003l-39 -122c-6.66699 -21.333 -37.667 -107 -93 -257
c-55.333 -150.667 -83.333 -245.334 -84 -284.001c6 -31.333 43.667 -24.666 113 20.001c42 27.333 85 61.666 129 102.999l43 -43c-161.333 -157.333 -291 -236 -389 -236c-44 0 -65.667 20 -65 60c0 32.667 10 80.334 30 143.001
c20.667 62.667 63.667 178.334 129 347.001s98.333 271.334 99 308.001c0 19.333 -9 29 -27 29c-28.667 0 -90.667 -46.333 -186 -139l-41 43c66.667 73.333 131.334 132 194.001 176s112 65.667 148 65c46 0.666992 69 -21.666 69 -66.999z" />
    <glyph glyph-name="idieresis" unicode="&#xef;" horiz-adv-x="632" 
d="M780 1299c0 -27.333 -9.33301 -53.334 -28 -78.001s-40.334 -37 -65.001 -37c-26 0 -46.333 7.33301 -61 22s-22 35.334 -22 62.001c0 27.333 9.66699 53.333 29 78c19.333 24 41.333 36 66 36s44.334 -7 59.001 -21s22 -34.667 22 -62zM449 1299
c0 -27.333 -9.33496 -53.334 -28.002 -78.001s-40.667 -37 -66 -37c-26 0 -46.333 7.33301 -61 22s-22 35.334 -22 62.001c0 27.333 9.66699 53.333 29 78c19.333 24 41.333 36 66 36s44.334 -7 59.001 -21s22.334 -34.667 23.001 -62zM564.998 933.998
c0 -37.333 -10.001 -86.0029 -30.001 -146.003l-39 -122c-6.66699 -21.333 -37.667 -107 -93 -257c-55.333 -150.667 -83.333 -245.334 -84 -284.001c6 -31.333 43.667 -24.666 113 20.001c42 27.333 85 61.666 129 102.999l43 -43c-161.333 -157.333 -291 -236 -389 -236
c-44 0 -65.667 20 -65 60c0 32.667 10 80.334 30 143.001c20.667 62.667 63.667 178.334 129 347.001s98.333 271.334 99 308.001c0 19.333 -9 29 -27 29c-28.667 0 -90.667 -46.333 -186 -139l-41 43c66.667 73.333 131.334 132 194.001 176s112 65.667 148 65
c46 0.666992 69 -21.666 69 -66.999z" />
    <glyph glyph-name="eth" unicode="&#xf0;" horiz-adv-x="983" 
d="M248 242c0 -128.667 51.666 -192.999 154.999 -192.999c58.667 0 113.667 28 165 84c82.667 90 145 224 187 402s39.667 289.667 -7 335c-26 24.667 -63.667 37 -113 37c-103.333 0.666992 -193.666 -70.333 -270.999 -213s-116 -293.334 -116 -452.001zM943.999 770.001
c0 -134 -24.333 -262.333 -73 -385s-115 -222.334 -199 -299.001s-172.667 -115 -266 -115c-92 0.666992 -165 33.667 -219 99s-81 150 -81 254c0 176 55 330 165 462s236.667 198.333 380 199c31.333 0 61.333 -6 90 -18s50 -28.333 64 -49
c-12 106.667 -40.667 200.667 -86 282l-252 -125l-35 70l244 121c-61.333 82 -144 141.333 -248 178l29 57c132.667 -35.333 237.667 -98 315 -188l186 92l35 -66l-174 -88c83.333 -125.333 125 -285.666 125 -480.999z" />
    <glyph glyph-name="ntilde" unicode="&#xf1;" horiz-adv-x="1196" 
d="M950 1278c35.333 0 73.6689 33.333 115.002 100l43 -22c-70.667 -134 -133.334 -201 -188.001 -201c-27.333 0 -66.333 12.333 -117 37l-58 27c-38 18 -65.667 26.667 -83 26c-42 0 -83.667 -32.667 -125 -98l-43 20c70.667 138 136.667 207 198 207
c18 0 54.333 -13 109 -39l61 -30c35.333 -18 64.666 -27 87.999 -27zM993.003 1001c67.333 0.666992 101.002 -38.334 101.002 -117.001c0 -42.667 -40 -175.334 -120 -398.001c-80 -221.333 -120 -340.333 -120 -357c0 -13.333 9 -20 27 -20s48.667 13.667 92 41
s87.666 61.333 132.999 102l39 -41c-165.333 -161.333 -296.333 -242 -393 -242c-40.667 0 -61.334 18 -62.001 54c0 40.667 42 176.334 126 407.001s126 361 126 391s-13 45 -39 45c-32.667 0 -84 -26.667 -154 -80s-140.667 -125.666 -212 -216.999
s-163.666 -283 -276.999 -575l-117 12l207 674c23.333 77.333 35 126 35 146s-9 30 -27 30c-32.667 0 -95.334 -45.667 -188.001 -137l-39 39c66 72 131 130.667 195 176s113.667 67.666 149 66.999c44 0 66 -23 66 -69c0.666992 -28.667 -3 -55.667 -11 -81
s-16 -53.666 -24 -84.999s-19 -63 -33 -95c-14 -32.667 -30.333 -76.667 -49 -132l8 -4c76.667 109.333 147 196 211 260c138 138 254.667 206.667 350 206z" />
    <glyph glyph-name="ograve" unicode="&#xf2;" horiz-adv-x="983" 
d="M371 1475l167.999 49c52 -109.333 119.333 -234.333 202 -375l-36 -23c-65.333 58 -176.666 174.333 -333.999 349zM247.999 242c0 -128.667 51.666 -193 154.999 -193c48 0 93.667 18.667 137 56c42.667 36.667 78 83 106 139s57.667 130 89 222s47 183.667 47 275
c0 121.333 -49 182.333 -147 183c-67.333 0 -131.666 -36 -192.999 -108s-109 -160.333 -143 -265s-51 -207.667 -51 -309zM398.998 -29c-87.333 0.666992 -157.999 33.6689 -211.999 99.002s-81 150 -81 254c0 177.333 55 334.666 165 471.999s236.667 205.666 380 204.999
c83.333 0 150.666 -30.333 201.999 -91s77 -143.334 77 -248.001c0 -170.667 -54 -328.667 -162 -474s-231 -217.666 -369 -216.999z" />
    <glyph glyph-name="oacute" unicode="&#xf3;" horiz-adv-x="983" 
d="M823 1524l171.999 -49.001c-135.333 -135.333 -261.666 -251.666 -378.999 -348.999l-36 23c94 130 175 255 243 375zM247.999 241.999c0 -128.667 51.666 -193 154.999 -193c48 0 93.667 18.667 137 56c42.667 36.667 78 83 106 139s57.667 130 89 222
s47 183.667 47 275c0 121.333 -49 182.333 -147 183c-67.333 0 -131.666 -36 -192.999 -108s-109 -160.333 -143 -265s-51 -207.667 -51 -309zM398.998 -29.001c-87.333 0.666992 -157.999 33.6689 -211.999 99.002s-81 150 -81 254c0 177.333 55 334.666 165 471.999
s236.667 205.666 380 204.999c83.333 0 150.666 -30.333 201.999 -91s77 -143.334 77 -248.001c0 -170.667 -54 -328.667 -162 -474s-231 -217.666 -369 -216.999z" />
    <glyph glyph-name="ocircumflex" unicode="&#xf4;" horiz-adv-x="983" 
d="M956 1112l-38 -20l-185 223l-297 -223l-33 32c117.333 116 226 233 326 351h62c21.333 -53.333 76.333 -174.333 165 -363zM248 242c0 -128.667 51.666 -193 154.999 -193c48 0 93.667 18.667 137 56c42.667 36.667 78 83 106 139s57.667 130 89 222s47 183.667 47 275
c0 121.333 -49 182.333 -147 183c-67.333 0 -131.666 -36 -192.999 -108s-109 -160.333 -143 -265s-51 -207.667 -51 -309zM398.999 -29c-87.333 0.666992 -157.999 33.6689 -211.999 99.002s-81 150 -81 254c0 177.333 55 334.666 165 471.999s236.667 205.666 380 204.999
c83.333 0 150.666 -30.333 201.999 -91s77 -143.334 77 -248.001c0 -170.667 -54 -328.667 -162 -474s-231 -217.666 -369 -216.999z" />
    <glyph glyph-name="otilde" unicode="&#xf5;" horiz-adv-x="983" 
d="M866 1278c35.333 0 73.6689 33.333 115.002 100l43 -22c-70.667 -134 -133.334 -201 -188.001 -201c-27.333 0 -66.333 12.333 -117 37l-57 27c-38 18 -66 26.667 -84 26c-42 0 -83.667 -32.667 -125 -98l-43 20c70.667 138 136.667 207 198 207c18 0 54.333 -13 109 -39
l61 -30c35.333 -18 64.666 -27 87.999 -27zM248.003 242c0 -128.667 51.666 -193 154.999 -193c48 0 93.667 18.667 137 56c42.667 36.667 78 83 106 139s57.667 130 89 222s47 183.667 47 275c0 121.333 -49 182.333 -147 183c-67.333 0 -131.666 -36 -192.999 -108
s-109 -160.333 -143 -265s-51 -207.667 -51 -309zM399.002 -29c-87.333 0.666992 -157.999 33.6689 -211.999 99.002s-81 150 -81 254c0 177.333 55 334.666 165 471.999s236.667 205.666 380 204.999c83.333 0 150.666 -30.333 201.999 -91s77 -143.334 77 -248.001
c0 -170.667 -54 -328.667 -162 -474s-231 -217.666 -369 -216.999z" />
    <glyph glyph-name="odieresis" unicode="&#xf6;" horiz-adv-x="983" 
d="M991 1299c0.666992 -27.333 -8.33301 -53.334 -27 -78.001s-40.667 -37 -66 -37s-45.333 7.33301 -60 22s-22.334 35.334 -23.001 62.001c0 27.333 9.66699 53.333 29 78c20 24 42 36 66 36s43.333 -7 58 -21s22.334 -34.667 23.001 -62zM659 1299
c0.666992 -27.333 -8.33301 -53.334 -27 -78.001s-40.667 -37 -66 -37s-45.333 7.33301 -60 22s-22.334 35.334 -23.001 62.001c0 27.333 9.66699 53.333 29 78c19.333 24 41.333 36 66 36s44.334 -7 59.001 -21s22 -34.667 22 -62zM248 241.998
c0 -128.667 51.666 -193 154.999 -193c48 0 93.667 18.667 137 56c42.667 36.667 78 83 106 139s57.667 130 89 222s47 183.667 47 275c0 121.333 -49 182.333 -147 183c-67.333 0 -131.666 -36 -192.999 -108s-109 -160.333 -143 -265s-51 -207.667 -51 -309z
M398.999 -29.002c-87.333 0.666992 -157.999 33.6689 -211.999 99.002s-81 150 -81 254c0 177.333 55 334.666 165 471.999s236.667 205.666 380 204.999c83.333 0 150.666 -30.333 201.999 -91s77 -143.334 77 -248.001c0 -170.667 -54 -328.667 -162 -474
s-231 -217.666 -369 -216.999z" />
    <glyph glyph-name="divide" unicode="&#xf7;" horiz-adv-x="1497" 
d="M714 375c26.667 0 48.668 -8.66699 66.001 -26c17.333 -16.667 25.666 -39 24.999 -67c0.666992 -28 -8.33301 -52.333 -27 -73s-41.334 -31 -68.001 -31s-48.667 8.66699 -66 26s-26 40 -26 68s9.33301 52 28 72c18.667 20.667 41.334 31 68.001 31zM967.001 984
c0 -28 -9.33203 -51.999 -27.999 -71.999s-41.334 -30.333 -68.001 -31c-26 -0.666992 -47.667 7.66602 -65 24.999s-26 40 -26 68s9.33301 52.333 28 73s41.334 31 68.001 31s48.667 -8.66699 66 -26s25.666 -40 24.999 -68zM1337 571.001h-1112l27 115h1112z" />
    <glyph glyph-name="oslash" unicode="&#xf8;" horiz-adv-x="983" 
d="M635 924c-102 0 -191.668 -74.667 -269.001 -224s-116.666 -304 -117.999 -464l508 626c-26 41.333 -66.333 62 -121 62zM402.999 49c48 0 93.667 18.667 137 56c42.667 36.667 78 83 106 139s57.667 130 89 222s47 183.667 47 275c0 3.33301 -0.333008 9 -1 17
s-1 13.333 -1 16l-516 -639c22 -57.333 68.333 -86 139 -86zM398.999 -29c-82 0 -148.667 28.001 -200 84.001l-111 -135l-61 43l127 156c-31.333 58.667 -47.333 127 -48 205c0 177.333 55 334.666 165 471.999s236.667 205.666 380 204.999c65.333 0 122 -19.667 170 -59
l119 148l61 -43l-131 -162c39.333 -56 59.333 -130.333 60 -223c0 -170.667 -54 -328.667 -162 -474s-231 -217.666 -369 -216.999z" />
    <glyph glyph-name="ugrave" unicode="&#xf9;" horiz-adv-x="1196" 
d="M494 1475l168 49c52 -109.333 119.333 -234.333 202 -375l-37 -23c-64.667 58 -175.667 174.333 -333 349zM428 827c0 19.333 -8.99902 28.999 -26.999 28.999c-40.667 0 -109.334 -46.333 -206.001 -139l-41 43c66.667 69.333 136.667 127 210 173s128 68.667 164 68
c46.667 0 70 -23 70 -69c0 -33.333 -11.333 -78.333 -34 -135l-56 -139c-14.667 -36.667 -50.334 -120.667 -107.001 -252s-85 -210.666 -85 -237.999s8.66699 -41 26 -41c46.667 0 111.667 39.333 195 118s171.333 190.334 264 335.001c46.667 72.667 117 205 211 397
l114 -12l-202 -674c-22 -72.667 -32.667 -121 -32 -145s10 -35.667 28 -35c31.333 0 94 44.333 188 133l41 -41c-151.333 -155.333 -270 -233.333 -356 -234c-46.667 0 -70 25.667 -70 77s18.667 126.333 56 225l28 76c6.66699 20 18 50.333 34 91l38 99l-13 6
c-113.333 -160.667 -204 -276.334 -272 -347.001s-133.333 -125 -196 -163s-112.667 -57 -150 -57c-69.333 -0.666992 -103.666 28.333 -102.999 87c-0.666992 48.667 46.333 179.667 141 393s142 337 142 371z" />
    <glyph glyph-name="uacute" unicode="&#xfa;" horiz-adv-x="1196" 
d="M961 1524l171.999 -49.001c-135.333 -135.333 -261.666 -251.666 -378.999 -348.999l-37 23c94.667 130 176 255 244 375zM427.999 826.999c0 19.333 -8.99902 28.999 -26.999 28.999c-40.667 0 -109.334 -46.333 -206.001 -139l-41 43
c66.667 69.333 136.667 127 210 173s128 68.667 164 68c46.667 0 70 -23 70 -69c0 -33.333 -11.333 -78.333 -34 -135l-56 -139c-14.667 -36.667 -50.334 -120.667 -107.001 -252s-85 -210.666 -85 -237.999s8.66699 -41 26 -41c46.667 0 111.667 39.333 195 118
s171.333 190.334 264 335.001c46.667 72.667 117 205 211 397l114 -12l-202 -674c-22 -72.667 -32.667 -121 -32 -145s10 -35.667 28 -35c31.333 0 94 44.333 188 133l41 -41c-151.333 -155.333 -270 -233.333 -356 -234c-46.667 0 -70 25.667 -70 77s18.667 126.333 56 225
l28 76c6.66699 20 18 50.333 34 91l38 99l-13 6c-113.333 -160.667 -204 -276.334 -272 -347.001s-133.333 -125 -196 -163s-112.667 -57 -150 -57c-69.333 -0.666992 -103.666 28.333 -102.999 87c-0.666992 48.667 46.333 179.667 141 393s142 337 142 371z" />
    <glyph glyph-name="ucircumflex" unicode="&#xfb;" horiz-adv-x="1196" 
d="M1081 1112l-39 -20l-184 223l-297 -223l-33 32c117.333 116 226 233 326 351h61c22 -53.333 77.333 -174.333 166 -363zM428 827c0 19.333 -8.99902 28.999 -26.999 28.999c-40.667 0 -109.334 -46.333 -206.001 -139l-41 43c66.667 69.333 136.667 127 210 173
s128 68.667 164 68c46.667 0 70 -23 70 -69c0 -33.333 -11.333 -78.333 -34 -135l-56 -139c-14.667 -36.667 -50.334 -120.667 -107.001 -252s-85 -210.666 -85 -237.999s8.66699 -41 26 -41c46.667 0 111.667 39.333 195 118s171.333 190.334 264 335.001
c46.667 72.667 117 205 211 397l114 -12l-202 -674c-22 -72.667 -32.667 -121 -32 -145s10 -35.667 28 -35c31.333 0 94 44.333 188 133l41 -41c-151.333 -155.333 -270 -233.333 -356 -234c-46.667 0 -70 25.667 -70 77s18.667 126.333 56 225l28 76
c6.66699 20 18 50.333 34 91l38 99l-13 6c-113.333 -160.667 -204 -276.334 -272 -347.001s-133.333 -125 -196 -163s-112.667 -57 -150 -57c-69.333 -0.666992 -103.666 28.333 -102.999 87c-0.666992 48.667 46.333 179.667 141 393s142 337 142 371z" />
    <glyph glyph-name="udieresis" unicode="&#xfc;" horiz-adv-x="1196" 
d="M1098 1299c0 -27.333 -9.33301 -53.334 -28 -78.001s-40.667 -37 -66 -37s-45.333 7.33301 -60 22s-22 35.334 -22 62.001c0 27.333 9.33301 53.333 28 78c19.333 24 41.333 36 66 36c25.333 0 45.333 -7 60 -21s22 -34.667 22 -62zM766 1299
c0 -27.333 -9.33301 -53.334 -28 -78.001s-40.667 -37 -66 -37s-45.333 7.33301 -60 22s-22 35.334 -22 62.001c0 27.333 9.33301 53.333 28 78c19.333 24 41.333 36 66 36c25.333 0 45.333 -7 60 -21s22 -34.667 22 -62zM428 826.998
c0 19.333 -8.99902 28.999 -26.999 28.999c-40.667 0 -109.334 -46.333 -206.001 -139l-41 43c66.667 69.333 136.667 127 210 173s128 68.667 164 68c46.667 0 70 -23 70 -69c0 -33.333 -11.333 -78.333 -34 -135l-56 -139c-14.667 -36.667 -50.334 -120.667 -107.001 -252
s-85 -210.666 -85 -237.999s8.66699 -41 26 -41c46.667 0 111.667 39.333 195 118s171.333 190.334 264 335.001c46.667 72.667 117 205 211 397l114 -12l-202 -674c-22 -72.667 -32.667 -121 -32 -145s10 -35.667 28 -35c31.333 0 94 44.333 188 133l41 -41
c-151.333 -155.333 -270 -233.333 -356 -234c-46.667 0 -70 25.667 -70 77s18.667 126.333 56 225l28 76c6.66699 20 18 50.333 34 91l38 99l-13 6c-113.333 -160.667 -204 -276.334 -272 -347.001s-133.333 -125 -196 -163s-112.667 -57 -150 -57
c-69.333 -0.666992 -103.666 28.333 -102.999 87c-0.666992 48.667 46.333 179.667 141 393s142 337 142 371z" />
    <glyph glyph-name="yacute" unicode="&#xfd;" horiz-adv-x="1069" 
d="M918 1524l171.999 -49.001c-135.333 -135.333 -261.666 -251.666 -378.999 -348.999l-37 23c94.667 130 176 255 244 375zM468.999 1001c36.667 0 55.001 -23.332 55.001 -69.999c0 -22.667 -10 -74.334 -30 -155.001l-101 -401
c-24.667 -106 -37.334 -167.667 -38.001 -185s3 -30.666 11 -39.999s16.333 -14.333 25 -15c49.333 0 106 28 170 84c108 98 181.667 187.667 221 269s98 240.333 176 477l132 8l-312 -932c-54.667 -158.667 -125 -291.667 -211 -399c-104 -130 -221.333 -195 -352 -195
c-65.333 0 -131 14.333 -197 43l74 135c60 -39.333 125.333 -59 196 -59s124.667 24 162 72c38.667 48 77 117.667 115 209s94.667 238.666 170 441.999l-6 2c-82 -96.667 -161.667 -170.667 -239 -222s-141.666 -77 -192.999 -77c-61.333 0 -92 33.333 -92 100
c0 39.333 13.667 110.333 41 213l96 381c18 62.667 27 106 27 130s-7.66699 36 -23 36c-32.667 0 -97.334 -44.333 -194.001 -133l-43 45c172 158.667 292 237.667 360 237z" />
    <glyph glyph-name="thorn" unicode="&#xfe;" horiz-adv-x="1024" 
d="M311 154c0 -39.333 35 -59.332 105 -59.999c98 0 189.667 59.667 275 179s128 254.333 128 405c0 135.333 -82.667 203 -248 203c-21.333 0 -43 -1.33301 -65 -4l-123 -406c-48 -162.667 -72 -268.334 -72 -317.001zM637 967.001
c226.667 0 340.001 -97.668 340.001 -293.001c0 -74 -16 -150 -48 -228c-72 -175.333 -187 -302.333 -345 -381c-86 -43.333 -177 -65 -273 -65c-23.333 -0 -44.333 1.33301 -63 4l-78 -258c-19.333 -60 -29 -106.333 -29 -139c2.66699 -40.667 56.667 -62 162 -64l-14 -67
c-155.333 4 -248.333 6 -279 6s-99 -2 -205 -6l15 67c69.333 1.33301 117.666 14.333 144.999 39c15.333 15.333 37.333 68 66 158l338 1120c-66.667 -10.667 -133 -25.667 -199 -45l-18 64c65.333 24.667 144.333 45 237 61l88 291c23.333 74 34.666 124.333 33.999 151
s-8.66699 45 -24 55s-45.333 20.333 -90 31l13 43c94 16.667 193 43.334 297 80.001l18 -16c-49.333 -139.333 -80.666 -231 -93.999 -275l-103 -337c44 2.66699 80.333 4 109 4z" />
    <glyph glyph-name="ydieresis" unicode="&#xff;" horiz-adv-x="1069" 
d="M1034 1299c0 -27.333 -9.33203 -53.334 -27.999 -78.001s-40.334 -37 -65.001 -37c-26 0 -46.333 7.33301 -61 22s-22 35.334 -22 62.001c0 27.333 9.66699 53.333 29 78c19.333 24 41 36 65 36s44 -7 60 -21c14.667 -14 22 -34.667 22 -62zM702.001 1299
c0 -27.333 -9.33301 -53.334 -28 -78.001s-40.334 -37 -65.001 -37c-26 0 -46.333 7.33301 -61 22s-22 35.334 -22 62.001c0 27.333 9.66699 53.333 29 78c19.333 24 41.333 36 66 36s44.334 -7 59.001 -21s22 -34.667 22 -62zM469.001 1001
c36.667 0 55.001 -23.332 55.001 -69.999c0 -22.667 -10 -74.334 -30 -155.001l-101 -401c-24.667 -106 -37.334 -167.667 -38.001 -185s3 -30.666 11 -39.999s16.333 -14.333 25 -15c49.333 0 106 28 170 84c108 98 181.667 187.667 221 269s98 240.333 176 477l132 8
l-312 -932c-54.667 -158.667 -125 -291.667 -211 -399c-104 -130 -221.333 -195 -352 -195c-65.333 0 -131 14.333 -197 43l74 135c60 -39.333 125.333 -59 196 -59s124.667 24 162 72c38.667 48 77 117.667 115 209s94.667 238.666 170 441.999l-6 2
c-82 -96.667 -161.667 -170.667 -239 -222s-141.666 -77 -192.999 -77c-61.333 0 -92 33.333 -92 100c0 39.333 13.667 110.333 41 213l96 381c18 62.667 27 106 27 130s-7.66699 36 -23 36c-32.667 0 -97.334 -44.333 -194.001 -133l-43 45
c172 158.667 292 237.667 360 237z" />
    <glyph glyph-name="Amacron" unicode="&#x100;" horiz-adv-x="1449" 
d="M709 1610l26 114h563l-26 -114h-563zM911 1225l-338 -578h404zM1075 4c-64 0 -150.667 -2.00098 -260 -6.00098l19 63c76 2 126.667 9.66699 152 23s38 36.333 38 69s-2.66699 76 -8 130l-31 282h-463l-166 -282c-42 -72.667 -63 -124 -63 -154
c0 -39.333 55.333 -62 166 -68l-21 -63c-94.667 4 -174 6 -238 6s-149 -2 -255 -6l18 63c58.667 6.66699 103 20 133 40s65.667 64 107 132l495 818c121.333 199.333 193 327 215 383l138 32c4 -91.333 17 -228.333 39 -411l94 -805c8 -74 22.667 -122.667 44 -146
s65.333 -37.666 132 -42.999l-19 -63c-113.333 4 -202 6 -266 6z" />
    <glyph glyph-name="amacron" unicode="&#x101;" horiz-adv-x="1169" 
d="M651 1190l25 113h524l-24 -113h-525zM899 805c0 22 -14.332 38.667 -42.999 50s-63.334 17 -104.001 17c-92.667 0 -179.334 -53 -260.001 -159c-58.667 -79.333 -112 -171 -160 -275s-72 -188 -72 -252c0 -24 6 -43.333 18 -58s27.333 -22 46 -22
c65.333 0 151.333 54.333 258 163s191.334 221.667 254.001 339c42 83.333 63 149 63 197zM862.001 135c0 -19.333 9.66699 -29.002 29 -29.002c38 0 111.667 50.667 221 152l43 -45c-162.667 -160 -287 -240 -373 -240c-46.667 0 -70 27 -70 81s28.333 169 85 345l-6 4
c-96.667 -134 -196 -239.667 -298 -317s-187.667 -115.666 -257 -114.999c-87.333 0 -131.333 50 -132 150c0 72.667 21.333 160.334 64 263.001s100 199.334 172 290.001c158.667 199.333 319.667 299 483 299c49.333 -0.666992 99.333 -5.66699 150 -15l39 76l100 -8
l-207 -670c-28.667 -92.667 -43 -166.334 -43 -221.001z" />
    <glyph glyph-name="Abreve" unicode="&#x102;" horiz-adv-x="1449" 
d="M1012 1677c128 0 215.332 55.333 261.999 166l57 -4c-15.333 -83.333 -54.333 -151 -117 -203s-135 -77.667 -217 -77c-164 0 -245.667 71 -245 213c0 26 2 47 6 63l57 8c1.33301 -49.333 20.333 -89.333 57 -120s83.334 -46 140.001 -46zM910.999 1225l-338 -578h404z
M1075 4c-64 0 -150.667 -2.00098 -260 -6.00098l19 63c76 2 126.667 9.66699 152 23s38 36.333 38 69s-2.66699 76 -8 130l-31 282h-463l-166 -282c-42 -72.667 -63 -124 -63 -154c0 -39.333 55.333 -62 166 -68l-21 -63c-94.667 4 -174 6 -238 6s-149 -2 -255 -6l18 63
c58.667 6.66699 103 20 133 40s65.667 64 107 132l495 818c121.333 199.333 193 327 215 383l138 32c4 -91.333 17 -228.333 39 -411l94 -805c8 -74 22.667 -122.667 44 -146s65.333 -37.666 132 -42.999l-19 -63c-113.333 4 -202 6 -266 6z" />
    <glyph glyph-name="abreve" unicode="&#x103;" horiz-adv-x="1169" 
d="M725 1432c2.66699 -108 64.668 -162 186.001 -162c57.333 0 105.333 12 144 36c38 24 68 66 90 126l51 -11c-14.667 -88.667 -48.667 -156.334 -102 -203.001s-117.333 -69.667 -192 -69c-74.667 0 -132.334 18.333 -173.001 55s-61 91.334 -61 164.001
c0 10.667 1.33301 29.667 4 57zM899.001 805c0 22 -14.332 38.667 -42.999 50s-63.334 17 -104.001 17c-92.667 0 -179.334 -53 -260.001 -159c-58.667 -79.333 -112 -171 -160 -275s-72 -188 -72 -252c0 -24 6 -43.333 18 -58s27.333 -22 46 -22
c65.333 0 151.333 54.333 258 163s191.334 221.667 254.001 339c42 83.333 63 149 63 197zM862.002 135c0 -19.333 9.66699 -29.002 29 -29.002c38 0 111.667 50.667 221 152l43 -45c-162.667 -160 -287 -240 -373 -240c-46.667 0 -70 27 -70 81s28.333 169 85 345l-6 4
c-96.667 -134 -196 -239.667 -298 -317s-187.667 -115.666 -257 -114.999c-87.333 0 -131.333 50 -132 150c0 72.667 21.333 160.334 64 263.001s100 199.334 172 290.001c158.667 199.333 319.667 299 483 299c49.333 -0.666992 99.333 -5.66699 150 -15l39 76l100 -8
l-207 -670c-28.667 -92.667 -43 -166.334 -43 -221.001z" />
    <glyph glyph-name="Aogonek" unicode="&#x104;" horiz-adv-x="1449" 
d="M911 1225l-338 -578h404zM1008 -342c0 -66.667 36.6709 -100 110.004 -100c45.333 0 93.333 10.667 144 32l22 -39c-80.667 -66.667 -163.334 -100 -248.001 -100c-54.667 0 -97 14.333 -127 43s-45 65.667 -45 111c0 76.667 26.667 145.667 80 207
s126.333 124.666 219 189.999c-22 1.33301 -58.333 2 -109 2s-130.334 -2 -239.001 -6l19 63c76 2 126.667 9.66699 152 23s38 36.333 38 69s-2.66699 76 -8 130l-31 282h-463l-166 -282c-42 -72.667 -63 -124 -63 -154c0 -39.333 55.333 -62 166 -68l-21 -63
c-94.667 4 -174 6 -238 6s-149 -2 -255 -6l18 63c58.667 6.66699 103 20 133 40s65.667 64 107 132l495 818c121.333 199.333 193 327 215 383l138 32c4 -91.333 17 -228.333 39 -411l94 -805c8 -74 22.667 -122.667 44 -146s65.333 -37.666 132 -42.999l-19 -63l-100 4
c-44.667 -39.333 -80.334 -72.333 -107.001 -99s-54.334 -63.667 -83.001 -111s-43 -92 -43 -134z" />
    <glyph glyph-name="aogonek" unicode="&#x105;" horiz-adv-x="1169" 
d="M899 805c0 22 -14.332 38.667 -42.999 50s-63.334 17 -104.001 17c-92.667 0 -179.334 -53 -260.001 -159c-58.667 -79.333 -112 -171 -160 -275s-72 -188 -72 -252c0 -24 6 -43.333 18 -58s27.333 -22 46 -22c65.333 0 151.333 54.333 258 163
s191.334 221.667 254.001 339c42 83.333 63 149 63 197zM670.001 -532c-113.333 0 -170.001 55.3311 -170.001 165.998c0 56.667 23 113 69 169c46.667 56 110.334 113.333 191.001 172c-31.333 6.66699 -47 35 -47 85s28 163 84 339l-6 4
c-96.667 -134 -196 -239.667 -298 -317s-187.667 -115.666 -257 -114.999c-87.333 0 -131.333 50 -132 150c0 72.667 21.333 160.334 64 263.001s100 199.334 172 290.001c158.667 199.333 319.667 299 483 299c49.333 -0.666992 99.333 -5.66699 150 -15l39 76l100 -8
l-207 -670c-28.667 -92.667 -43 -166.334 -43 -221.001c0 -19.333 9.66699 -29 29 -29c38 0 111.667 50.667 221 152l43 -45c-118.667 -117.333 -215 -190.333 -289 -219c-44 -36.667 -79.333 -68 -106 -94s-53 -61.333 -79 -106c-26.667 -44.667 -40 -86.667 -40 -126
c0 -65.333 36.333 -98 109 -98c46.667 0 93 11 139 33l22 -37c-80.667 -65.333 -161 -98 -241 -98z" />
    <glyph glyph-name="Cacute" unicode="&#x106;" horiz-adv-x="1468" 
d="M1315 1888l154.999 -84c-131.333 -83.333 -286.666 -172 -465.999 -266l-27 35c165.333 148.667 278 253.667 338 315zM372.999 522c0 -144.667 40.667 -257.998 122 -339.998s183.666 -123 306.999 -123s217 24 281 72c72.667 52 135.667 141.333 189 268l82 -12
c-39.333 -146 -73 -253 -101 -321c-148.667 -62.667 -310.667 -94 -486 -94s-314.333 49.333 -417 148s-154 232.667 -154 402s38.333 326.666 115 471.999s184.334 261.666 323.001 348.999s293.334 131.333 464.001 132c128 0 260.333 -22 397 -66
c-13.333 -61.333 -31 -184.333 -53 -369h-84c1.33301 26 2 63 2 111c-2.66699 84.667 -28.334 146 -77.001 184s-125 57 -229 57s-200 -26.333 -288 -79c-88.667 -53.333 -161 -122.333 -217 -207s-99.333 -178 -130 -280s-46 -203.333 -46 -304z" />
    <glyph glyph-name="cacute" unicode="&#x107;" horiz-adv-x="768" 
d="M868 1524l172 -49.001c-135.333 -135.333 -261.333 -251.666 -378 -348.999l-37 23c94 130 175 255 243 375zM300 -29.001c-134.667 0 -202 74.001 -202 222.001c0 88.667 17.333 185.667 52 291s83.667 197.333 147 276c130 161.333 270 241.666 420 240.999
c53.333 0 105 -15 155 -45l-88 -143c-58.667 45.333 -121.334 68 -188.001 68c-82 0 -154.333 -56 -217 -168c-87.333 -157.333 -131 -315 -131 -473c0 -98 41.667 -147.333 125 -148c92.667 0 196.334 52 311.001 156l45 -41c-151.333 -157.333 -294.333 -236 -429 -236z
" />
    <glyph glyph-name="Ccircumflex" unicode="&#x108;" horiz-adv-x="1468" 
d="M1421 1552l-39.001 -32l-223 182l-287 -182l-32 39c118.667 105.333 219.667 199.333 303 282h78c18.667 -28.667 85.334 -125 200.001 -289zM372.999 522c0 -144.667 40.667 -257.998 122 -339.998s183.666 -123 306.999 -123s217 24 281 72
c72.667 52 135.667 141.333 189 268l82 -12c-39.333 -146 -73 -253 -101 -321c-148.667 -62.667 -310.667 -94 -486 -94s-314.333 49.333 -417 148s-154 232.667 -154 402s38.333 326.666 115 471.999s184.334 261.666 323.001 348.999s293.334 131.333 464.001 132
c128 0 260.333 -22 397 -66c-13.333 -61.333 -31 -184.333 -53 -369h-84c1.33301 26 2 63 2 111c-2.66699 84.667 -28.334 146 -77.001 184s-125 57 -229 57s-200 -26.333 -288 -79c-88.667 -53.333 -161 -122.333 -217 -207s-99.333 -178 -130 -280s-46 -203.333 -46 -304z
" />
    <glyph glyph-name="ccircumflex" unicode="&#x109;" horiz-adv-x="768" 
d="M977 1112l-39 -20l-184 223l-297 -223l-33 32c117.333 116 226 233 326 351h61c22 -53.333 77.333 -174.333 166 -363zM300 -29c-134.667 0 -202 74.001 -202 222.001c0 88.667 17.333 185.667 52 291s83.667 197.333 147 276c130 161.333 270 241.666 420 240.999
c53.333 0 105 -15 155 -45l-88 -143c-58.667 45.333 -121.334 68 -188.001 68c-82 0 -154.333 -56 -217 -168c-87.333 -157.333 -131 -315 -131 -473c0 -98 41.667 -147.333 125 -148c92.667 0 196.334 52 311.001 156l45 -41c-151.333 -157.333 -294.333 -236 -429 -236z
" />
    <glyph glyph-name="Cdotaccent" unicode="&#x10a;" horiz-adv-x="1468" 
d="M1084 1792c24.667 0 44.334 -7.33301 59.001 -22s22 -35.334 22 -62.001c0.666992 -27.333 -8.33301 -53.333 -27 -78s-40.667 -37 -66 -37s-45.333 7.33301 -60 22c-14.667 15.333 -22.334 36.333 -23.001 63c0 26.667 9.66699 52.334 29 77.001s41.333 37 66 37z
M373 522c0 -144.667 40.667 -257.998 122 -339.998s183.666 -123 306.999 -123s217 24 281 72c72.667 52 135.667 141.333 189 268l82 -12c-39.333 -146 -73 -253 -101 -321c-148.667 -62.667 -310.667 -94 -486 -94s-314.333 49.333 -417 148s-154 232.667 -154 402
s38.333 326.666 115 471.999s184.334 261.666 323.001 348.999s293.334 131.333 464.001 132c128 0 260.333 -22 397 -66c-13.333 -61.333 -31 -184.333 -53 -369h-84c1.33301 26 2 63 2 111c-2.66699 84.667 -28.334 146 -77.001 184s-125 57 -229 57
s-200 -26.333 -288 -79c-88.667 -53.333 -161 -122.333 -217 -207s-99.333 -178 -130 -280s-46 -203.333 -46 -304z" />
    <glyph glyph-name="cdotaccent" unicode="&#x10b;" horiz-adv-x="768" 
d="M782 1299c0 -27.333 -9.33301 -53.334 -28 -78.001s-40.334 -37 -65.001 -37c-26 0 -46.333 7.33301 -61 22s-22 35.334 -22 62.001c0 27.333 9.66699 53.333 29 78c19.333 24 41.333 36 66 36s44.334 -7 59.001 -21s22 -34.667 22 -62zM300 -29.001
c-134.667 0 -202 74.001 -202 222.001c0 88.667 17.333 185.667 52 291s83.667 197.333 147 276c130 161.333 270 241.666 420 240.999c53.333 0 105 -15 155 -45l-88 -143c-58.667 45.333 -121.334 68 -188.001 68c-82 0 -154.333 -56 -217 -168
c-87.333 -157.333 -131 -315 -131 -473c0 -98 41.667 -147.333 125 -148c92.667 0 196.334 52 311.001 156l45 -41c-151.333 -157.333 -294.333 -236 -429 -236z" />
    <glyph glyph-name="Ccaron" unicode="&#x10c;" horiz-adv-x="1468" 
d="M868 1841l39 32.999l223 -182l287 182l33 -39c-118.667 -105.333 -219.667 -199.666 -303 -282.999h-78zM373 521.999c0 -144.667 40.667 -257.998 122 -339.998s183.666 -123 306.999 -123s217 24 281 72c72.667 52 135.667 141.333 189 268l82 -12
c-39.333 -146 -73 -253 -101 -321c-148.667 -62.667 -310.667 -94 -486 -94s-314.333 49.333 -417 148s-154 232.667 -154 402s38.333 326.666 115 471.999s184.334 261.666 323.001 348.999s293.334 131.333 464.001 132c128 0 260.333 -22 397 -66
c-13.333 -61.333 -31 -184.333 -53 -369h-84c1.33301 26 2 63 2 111c-2.66699 84.667 -28.334 146 -77.001 184s-125 57 -229 57s-200 -26.333 -288 -79c-88.667 -53.333 -161 -122.333 -217 -207s-99.333 -178 -130 -280s-46 -203.333 -46 -304z" />
    <glyph glyph-name="ccaron" unicode="&#x10d;" horiz-adv-x="768" 
d="M471 1460l39 20.999l184 -224l297 224l33 -33c-117.333 -116 -226 -232.667 -326 -350h-61c-22 52.667 -77.333 173.334 -166 362.001zM300 -29.001c-134.667 0 -202 74.001 -202 222.001c0 88.667 17.333 185.667 52 291s83.667 197.333 147 276
c130 161.333 270 241.666 420 240.999c53.333 0 105 -15 155 -45l-88 -143c-58.667 45.333 -121.334 68 -188.001 68c-82 0 -154.333 -56 -217 -168c-87.333 -157.333 -131 -315 -131 -473c0 -98 41.667 -147.333 125 -148c92.667 0 196.334 52 311.001 156l45 -41
c-151.333 -157.333 -294.333 -236 -429 -236z" />
    <glyph glyph-name="Dcaron" unicode="&#x10e;" horiz-adv-x="1548" 
d="M643 1841l39 32.999l223 -182l287 182l33 -39c-118.667 -105.333 -219.667 -199.666 -303 -282.999h-78zM406 193.999c0 -44 15.334 -74.334 46.001 -91.001c30.667 -17.333 81.334 -25.666 152.001 -24.999c120 0 227.333 20.333 322 61
c175.333 75.333 295.666 209.666 360.999 402.999c29.333 86.667 44 178.334 44 275.001c0 186 -45 324.667 -135 416s-233.333 137 -430 137c-34.667 0 -70.334 -2.66699 -107.001 -8l-233 -1018c-13.333 -56 -20 -106 -20 -150zM1509 824.998
c0 -228 -74.666 -420.668 -223.999 -578.001c-73.333 -77.333 -169.666 -138.666 -288.999 -183.999s-254 -67.666 -404 -66.999l-295 8c-42 0 -126.667 -2 -254 -6l14 63c76.667 3.33301 123 17.666 139 42.999s32 70 48 134l227 970c9.33301 44 13.666 79 12.999 105
s-11.334 44 -32.001 54c-21.333 10 -61.333 15.667 -120 17l16 64c102.667 -4 186.667 -6 252 -6l223 2c457.333 0 686 -206.333 686 -619z" />
    <glyph glyph-name="dcaron" unicode="&#x10f;" horiz-adv-x="1169" 
d="M1434 1298c0 46.667 -23.333 91.334 -70 134.001l131 98c58.667 -58.667 88 -113.334 88 -164.001c0.666992 -99.333 -92 -214 -278 -344l-37 39c110.667 86 166 165 166 237zM905 805c0 22 -13 40.333 -39 55s-62.667 21.667 -110 21
c-91.333 0 -180.333 -56.667 -267 -170c-59.333 -79.333 -112.333 -171 -159 -275s-70 -185 -70 -243s22.667 -87 68 -87c49.333 0 117.333 38.333 204 115s175.667 182 267 316c70.667 108 106 197.333 106 268zM893 106c36.667 0 109.667 50.6631 219 151.996l43 -47
c-155.333 -158.667 -279 -238 -371 -238c-46.667 0 -70 26.333 -70 79s29 164.334 87 335.001l-10 6c-104.667 -135.333 -206.334 -239.666 -305.001 -312.999s-182 -109.666 -250 -108.999c-87.333 0 -131.333 48.667 -132 146c0 75.333 20.667 165 62 269
s99.333 200.667 174 290c166.667 203.333 328.334 305 485.001 305c41.333 0 87.333 -4.66699 138 -14l79 264c23.333 79.333 34.666 131 33.999 155s-8.33398 41 -23.001 51c-15.333 10 -45.333 20.333 -90 31l12 43c94 16.667 193 43.334 297 80.001l18 -16
c-49.333 -139.333 -80.666 -231 -93.999 -275l-291 -944c-27.333 -90 -41 -164.333 -41 -223c2.66699 -18 12.334 -27 29.001 -27z" />
    <glyph glyph-name="Dcroat" unicode="&#x110;" horiz-adv-x="1548" 
d="M406 194c0 -44 15.333 -74.334 46 -91.001c30.667 -17.333 81.334 -25.666 152.001 -24.999c120 0 227.333 20.333 322 61c175.333 75.333 295.666 209.666 360.999 402.999c29.333 86.667 44 178.334 44 275.001c0 186 -45 324.667 -135 416s-233.333 137 -430 137
c-34 0 -69.667 -2.66699 -107 -8l-127 -553h492l-25 -94h-489l-84 -371c-13.333 -56 -20 -106 -20 -150zM1509 824.999c0 -228 -74.666 -420.668 -223.999 -578.001c-73.333 -77.333 -169.666 -138.666 -288.999 -183.999s-254 -67.666 -404 -66.999l-295 8
c-42 0 -126.667 -2 -254 -6l14 63c76.667 3.33301 123 17.666 139 42.999s32 70 48 134l110 477h-188l24 94h187l94 399c9.33301 44 13.666 79 12.999 105s-11.334 44 -32.001 54c-21.333 10 -61.333 15.667 -120 17l16 64c102.667 -4 186.667 -6 252 -6l223 2
c457.333 0 686 -206.333 686 -619z" />
    <glyph glyph-name="dcroat" unicode="&#x111;" horiz-adv-x="1169" 
d="M905 805c0 22 -13 40.333 -39 55s-62.667 21.667 -110 21c-91.333 0 -180.333 -56.667 -267 -170c-59.333 -79.333 -112.333 -171 -159 -275s-70 -185 -70 -243s22.667 -87 68 -87c49.333 0 117.333 38.333 204 115s175.667 182 267 316c70.667 108 106 197.333 106 268z
M893 106c36.667 0 109.666 50.6631 218.999 151.996l43 -47c-155.333 -158.667 -279 -238 -371 -238c-46.667 0 -70 26.333 -70 79s29 164.334 87 335.001l-10 6c-104.667 -135.333 -206.334 -239.666 -305.001 -312.999s-182 -109.666 -250 -108.999
c-87.333 0 -131.333 48.667 -132 146c0 75.333 20.667 165 62 269s99.333 200.667 174 290c166.667 203.333 328.334 305 485.001 305c40.667 0 86.667 -4.66699 138 -14l55 186h-283l21 84h288c22 78 32.667 128.333 32 151s-8.33398 39 -23.001 49
c-15.333 10 -45.333 20.333 -90 31l12 43c94 16.667 193 43.334 297 80.001l18 -16c-49.333 -139.333 -80.666 -231 -93.999 -275l-20 -63h170l-21 -84h-174l-246 -797c-27.333 -90 -41 -164.333 -41 -223c2.66699 -18 12.334 -27 29.001 -27z" />
    <glyph glyph-name="Emacron" unicode="&#x112;" horiz-adv-x="1259" 
d="M557 1610l27 114h563l-27 -114h-563zM790 1442c192 0 339.004 2.66699 441.004 8c-10.667 -92.667 -17.667 -195 -21 -307h-65c-0.666992 96.667 -21 158.334 -61 185.001s-108 40 -204 40s-168 -2 -216 -6l-136 -569c187.333 0 298.666 5 333.999 15
s63.666 28.333 84.999 55s41 66 59 118h73c-54.667 -170.667 -92 -327.667 -112 -471h-70c2.66699 54.667 4 93.667 4 117c-1.33301 48 -32 75 -92 81s-159.667 9 -299 9l-88 -400c-15.333 -62.667 -22.333 -110.667 -21 -144c0.666992 -33.333 20.334 -57 59.001 -71
c38.667 -13.333 107.334 -20 206.001 -20s167.667 4.66699 207 14c79.333 19.333 157.666 98 234.999 236l61 -23c-40.667 -128.667 -79.334 -233.667 -116.001 -315c-42 2.66699 -298.667 6 -770 10c-32.667 0 -112.667 -2 -240 -6l14 63
c76.667 3.33301 123 17.666 139 42.999s32 70 48 134l227 970c9.33301 44 13.666 79 12.999 105s-11.334 44 -32.001 54c-21.333 10 -61.333 15.667 -120 17l16 64c102.667 -4 250 -6 442 -6z" />
    <glyph glyph-name="emacron" unicode="&#x113;" horiz-adv-x="804" 
d="M465 1190l24 113h525l-25 -113h-524zM636 907c-50.667 0.666992 -109.333 -35 -176 -107s-119.667 -164 -159 -276c146 39.333 251 84 315 134s96.333 107.667 97 173c0 50.667 -25.667 76 -77 76zM246.001 240c0 -98 42.334 -147.333 127.001 -148
c92.667 0 197 52 313 156l43 -41c-150 -157.333 -292.667 -236 -428 -236s-203 76 -203 228c0 80.667 19.333 175.667 58 285s94.667 207.333 168 294c125.333 148.667 255.666 223 390.999 223c43.333 -0.666992 78.333 -13.667 105 -39s40 -61.333 40 -108
c0 -92 -47 -169.333 -141 -232s-239.333 -115 -436 -157c-24.667 -68 -37 -143 -37 -225z" />
    <glyph glyph-name="Ebreve" unicode="&#x114;" horiz-adv-x="1259" 
d="M838 1677c128 0 215.332 55.333 261.999 166l57 -4c-15.333 -83.333 -54.333 -151 -117 -203s-135 -77.667 -217 -77c-164 0 -245.667 71 -245 213c0 26 2 47 6 63l57 8c1.33301 -49.333 20.333 -89.333 57 -120s83.334 -46 140.001 -46zM789.999 1442
c192 0 339.004 2.66699 441.004 8c-10.667 -92.667 -17.667 -195 -21 -307h-65c-0.666992 96.667 -21 158.334 -61 185.001s-108 40 -204 40s-168 -2 -216 -6l-136 -569c187.333 0 298.666 5 333.999 15s63.666 28.333 84.999 55s41 66 59 118h73
c-54.667 -170.667 -92 -327.667 -112 -471h-70c2.66699 54.667 4 93.667 4 117c-1.33301 48 -32 75 -92 81s-159.667 9 -299 9l-88 -400c-15.333 -62.667 -22.333 -110.667 -21 -144c0.666992 -33.333 20.334 -57 59.001 -71c38.667 -13.333 107.334 -20 206.001 -20
s167.667 4.66699 207 14c79.333 19.333 157.666 98 234.999 236l61 -23c-40.667 -128.667 -79.334 -233.667 -116.001 -315c-42 2.66699 -298.667 6 -770 10c-32.667 0 -112.667 -2 -240 -6l14 63c76.667 3.33301 123 17.666 139 42.999s32 70 48 134l227 970
c9.33301 44 13.666 79 12.999 105s-11.334 44 -32.001 54c-21.333 10 -61.333 15.667 -120 17l16 64c102.667 -4 250 -6 442 -6z" />
    <glyph glyph-name="ebreve" unicode="&#x115;" horiz-adv-x="804" 
d="M522 1432c2.66699 -108 64.665 -162 185.998 -162c57.333 0 105.333 12 144 36c38 24 68 66 90 126l51 -11c-15.333 -88.667 -49.666 -156.334 -102.999 -203.001s-116.666 -69.667 -189.999 -69c-74.667 0 -132.667 18.333 -174 55
c-40.667 36.667 -61 91.334 -61 164.001c0 10.667 1.33301 29.667 4 57zM635.998 907c-50.667 0.666992 -109.333 -35 -176 -107s-119.667 -164 -159 -276c146 39.333 251 84 315 134s96.333 107.667 97 173c0 50.667 -25.667 76 -77 76zM245.999 240
c0 -98 42.334 -147.333 127.001 -148c92.667 0 197 52 313 156l43 -41c-150 -157.333 -292.667 -236 -428 -236s-203 76 -203 228c0 80.667 19.333 175.667 58 285s94.667 207.333 168 294c125.333 148.667 255.666 223 390.999 223
c43.333 -0.666992 78.333 -13.667 105 -39s40 -61.333 40 -108c0 -92 -47 -169.333 -141 -232s-239.333 -115 -436 -157c-24.667 -68 -37 -143 -37 -225z" />
    <glyph glyph-name="Edotaccent" unicode="&#x116;" horiz-adv-x="1259" 
d="M858 1792c24 0 44 -7.33301 60 -22c14.667 -14.667 22 -35.334 22 -62.001c0 -27.333 -9.33301 -53.333 -28 -78s-40.667 -37 -66 -37s-45.333 7.33301 -60 22c-14.667 15.333 -22 36.333 -22 63s9.66699 52.334 29 77.001s41 37 65 37zM790 1442
c192 0 339.004 2.66699 441.004 8c-10.667 -92.667 -17.667 -195 -21 -307h-65c-0.666992 96.667 -21 158.334 -61 185.001s-108 40 -204 40s-168 -2 -216 -6l-136 -569c187.333 0 298.666 5 333.999 15s63.666 28.333 84.999 55s41 66 59 118h73
c-54.667 -170.667 -92 -327.667 -112 -471h-70c2.66699 54.667 4 93.667 4 117c-1.33301 48 -32 75 -92 81s-159.667 9 -299 9l-88 -400c-15.333 -62.667 -22.333 -110.667 -21 -144c0.666992 -33.333 20.334 -57 59.001 -71c38.667 -13.333 107.334 -20 206.001 -20
s167.667 4.66699 207 14c79.333 19.333 157.666 98 234.999 236l61 -23c-40.667 -128.667 -79.334 -233.667 -116.001 -315c-42 2.66699 -298.667 6 -770 10c-32.667 0 -112.667 -2 -240 -6l14 63c76.667 3.33301 123 17.666 139 42.999s32 70 48 134l227 970
c9.33301 44 13.666 79 12.999 105s-11.334 44 -32.001 54c-21.333 10 -61.333 15.667 -120 17l16 64c102.667 -4 250 -6 442 -6z" />
    <glyph glyph-name="edotaccent" unicode="&#x117;" horiz-adv-x="804" 
d="M838 1299c0 -27.333 -9.33301 -53.334 -28 -78.001s-40.667 -37 -66 -37s-45.333 7.33301 -60 22s-22 35.334 -22 62.001c0 27.333 9.33301 53.333 28 78c19.333 24 41.333 36 66 36c25.333 0 45.333 -7 60 -21s22 -34.667 22 -62zM636 906.999
c-50.667 0.666992 -109.333 -35 -176 -107s-119.667 -164 -159 -276c146 39.333 251 84 315 134s96.333 107.667 97 173c0 50.667 -25.667 76 -77 76zM246.001 239.999c0 -98 42.334 -147.333 127.001 -148c92.667 0 197 52 313 156l43 -41
c-150 -157.333 -292.667 -236 -428 -236s-203 76 -203 228c0 80.667 19.333 175.667 58 285s94.667 207.333 168 294c125.333 148.667 255.666 223 390.999 223c43.333 -0.666992 78.333 -13.667 105 -39s40 -61.333 40 -108c0 -92 -47 -169.333 -141 -232
s-239.333 -115 -436 -157c-24.667 -68 -37 -143 -37 -225z" />
    <glyph glyph-name="Eogonek" unicode="&#x118;" horiz-adv-x="1259" 
d="M741 -342c0 -66.667 37.0029 -99.9961 111.003 -99.9961c45.333 0 93 10.667 143 32l23 -39c-80.667 -66.667 -163.334 -100 -248.001 -100c-54.667 0 -97 14.333 -127 43s-45 65.667 -45 111c0 75.333 26 143.333 78 204s123 123.667 213 189c-106 0 -308 2 -606 6
c-32.667 0 -112.667 -2 -240 -6l14 63c76.667 3.33301 123 17.666 139 42.999s32 70 48 134l227 970c9.33301 44 13.666 79 12.999 105s-11.334 44 -32.001 54c-21.333 10 -61.333 15.667 -120 17l16 64c102.667 -4 250 -6 442 -6s339 2.66699 441 8
c-10.667 -92.667 -17.667 -195 -21 -307h-67c1.33301 9.33301 2 27.666 2 54.999c-1.33301 69.333 -26 115 -74 137s-115.667 33 -203 33s-155.333 -2 -204 -6l-136 -569c187.333 0 298.666 5 333.999 15s63.666 28.333 84.999 55s41 66 59 118h73
c-54.667 -170.667 -92 -327.667 -112 -471h-70c2.66699 54.667 4 93.667 4 117c-1.33301 48 -32 75 -92 81s-159.667 9 -299 9l-88 -400c-15.333 -62.667 -22.333 -110.667 -21 -144c0.666992 -33.333 20.334 -57 59.001 -71c38.667 -13.333 107.334 -20 206.001 -20
s167.667 4.66699 207 14c38 9.33301 75.667 32 113 68s78 93.333 122 172l61 -27c-52 -152.667 -90.667 -257.667 -116 -315l-84 4c-45.333 -39.333 -81 -72.333 -107 -99s-52.667 -63.334 -80 -110.001s-41 -90.334 -41 -131.001z" />
    <glyph glyph-name="eogonek" unicode="&#x119;" horiz-adv-x="804" 
d="M636 907c-50.667 0.666992 -109.333 -35 -176 -107s-119.667 -164 -159 -276c146 39.333 251 84 315 134s96.333 107.667 97 173c0 50.667 -25.667 76 -77 76zM246.001 240c0 -98 42.335 -147.332 127.002 -147.999c92.667 0 197 52 313 156l43 -41
c-100 -104 -199.667 -174.333 -299 -211c-44 -36.667 -79.333 -68 -106 -94s-53.334 -61.333 -80.001 -106c-27.333 -44.667 -41 -87.334 -41 -128.001c0 -65.333 36 -98 108 -98c46.667 0 93.334 11 140.001 33l22 -37c-80.667 -65.333 -161.334 -98 -242.001 -98
c-53.333 0 -95 13.333 -125 40s-45 63 -45 109c0 114.667 84.667 232.667 254 354h-12c-136.667 0 -205 76 -205 228c0 80.667 19.333 175.667 58 285s94.667 207.333 168 294c125.333 148.667 255.666 223 390.999 223c43.333 -0.666992 78.333 -13.667 105 -39
s40 -61.333 40 -108c0 -92 -47 -169.333 -141 -232s-239.333 -115 -436 -157c-24.667 -68 -37 -143 -37 -225z" />
    <glyph glyph-name="Ecaron" unicode="&#x11a;" horiz-adv-x="1259" 
d="M582 1841l39.001 32.999l223 -182l286 182l33 -39c-118.667 -105.333 -219.667 -199.666 -303 -282.999h-78c-18.667 28.667 -85.334 125 -200.001 289zM790.001 1442c192 0 339.004 2.66699 441.004 8c-10.667 -92.667 -17.667 -195 -21 -307h-65
c-0.666992 96.667 -21 158.334 -61 185.001s-108 40 -204 40s-168 -2 -216 -6l-136 -569c187.333 0 298.666 5 333.999 15s63.666 28.333 84.999 55s41 66 59 118h73c-54.667 -170.667 -92 -327.667 -112 -471h-70c2.66699 54.667 4 93.667 4 117c-1.33301 48 -32 75 -92 81
s-159.667 9 -299 9l-88 -400c-15.333 -62.667 -22.333 -110.667 -21 -144c0.666992 -33.333 20.334 -57 59.001 -71c38.667 -13.333 107.334 -20 206.001 -20s167.667 4.66699 207 14c79.333 19.333 157.666 98 234.999 236l61 -23
c-40.667 -128.667 -79.334 -233.667 -116.001 -315c-42 2.66699 -298.667 6 -770 10c-32.667 0 -112.667 -2 -240 -6l14 63c76.667 3.33301 123 17.666 139 42.999s32 70 48 134l227 970c9.33301 44 13.666 79 12.999 105s-11.334 44 -32.001 54
c-21.333 10 -61.333 15.667 -120 17l16 64c102.667 -4 250 -6 442 -6z" />
    <glyph glyph-name="ecaron" unicode="&#x11b;" horiz-adv-x="804" 
d="M494 1460l38 20.999l185 -224l297 224l33 -33c-117.333 -116 -226 -232.667 -326 -350h-62c-21.333 52.667 -76.333 173.334 -165 362.001zM636 906.999c-50.667 0.666992 -109.333 -35 -176 -107s-119.667 -164 -159 -276c146 39.333 251 84 315 134
s96.333 107.667 97 173c0 50.667 -25.667 76 -77 76zM246.001 239.999c0 -98 42.334 -147.333 127.001 -148c92.667 0 197 52 313 156l43 -41c-150 -157.333 -292.667 -236 -428 -236s-203 76 -203 228c0 80.667 19.333 175.667 58 285s94.667 207.333 168 294
c125.333 148.667 255.666 223 390.999 223c43.333 -0.666992 78.333 -13.667 105 -39s40 -61.333 40 -108c0 -92 -47 -169.333 -141 -232s-239.333 -115 -436 -157c-24.667 -68 -37 -143 -37 -225z" />
    <glyph glyph-name="Gcircumflex" unicode="&#x11c;" horiz-adv-x="1581" 
d="M1382 1552l-39.001 -32l-223 182l-286 -182l-33 39c118.667 105.333 219.667 199.333 303 282h78c18.667 -28.667 85.334 -125 200.001 -289zM785.999 -31c-182.667 0.666992 -326.664 50.3281 -431.997 148.995s-158 233.334 -158 404.001s38.333 328.667 115 474
s184.334 261.333 323.001 348s286.667 130.334 444 131.001c157.333 0 304.666 -22 441.999 -66c-18 -95.333 -36 -218.333 -54 -369h-84c1.33301 26 2 63 2 111c-5.33301 159.333 -108.666 239.666 -309.999 240.999c-254 0.666992 -449.333 -129.666 -586 -390.999
c-78 -152 -116.667 -307.667 -116 -467s43.667 -279 129 -359c84.667 -80 193 -120 325 -120c183.333 0 292.666 40 327.999 120c10.667 22.667 22.667 64.667 36 126s19.666 108 18.999 140s-12 55.333 -34 70c-22.667 14.667 -72.334 23.334 -149.001 26.001l16 63
c74 -2.66699 152.667 -4 236 -4s168.666 1.33301 255.999 4l-18 -63c-57.333 -1.33301 -95 -11.666 -113 -30.999c-18 -20 -39.667 -82.667 -65 -188s-39.333 -186.666 -42 -243.999c-157.333 -70 -327.333 -105 -510 -105z" />
    <glyph glyph-name="gcircumflex" unicode="&#x11d;" horiz-adv-x="958" 
d="M920 1112l-38.999 -20l-185 223l-297 -223l-32 32c117.333 116 225.666 233 324.999 351h62c22 -53.333 77.333 -174.333 166 -363zM428.001 -477c93.333 0 170.003 19.333 230.003 58c60 38 90.667 86.333 92 145s-18.667 104 -60 136s-88.333 59.333 -141 82
s-100.334 34 -143.001 34s-108.334 -26.667 -197.001 -80c-71.333 -42.667 -107 -96 -107 -160s31.333 -116 94 -156c61.333 -40 138.666 -59.667 231.999 -59zM729.004 791c0 90 -42.332 135 -126.999 135c-54.667 0 -103.334 -23.333 -146.001 -70s-74 -98.667 -94 -156
c-18.667 -57.333 -28 -110 -28 -158s12 -85 36 -111c24 -26.667 60 -40 108 -40s92.667 25 134 75c42 50 72 104.333 90 163s27 112.667 27 162zM864.005 750c0 -125.333 -49.001 -232.002 -147.001 -320.002c-48 -44 -119.667 -82.333 -215 -115
c-69.333 -26 -104.333 -56.667 -105 -92c0 -49.333 37 -89.666 111 -120.999c152.667 -64 257.667 -120.667 315 -170s86 -106.666 86 -171.999c0 -84.667 -45.333 -158.334 -136 -221.001c-91.333 -62.667 -207 -94 -347 -94s-252 27.333 -336 82
c-83.333 54 -125 116.333 -125 187s27.333 130 82 178s154.334 96.333 299.001 145c-68 32.667 -102.667 85.334 -104 158.001l153 127c-131.333 35.333 -197 114.333 -197 237s41.667 227 125 313c82.667 86 175 129 277 129s177.667 -37.333 227 -112
c139.333 0 220 2 242 6l-33 -98c-9.33301 -1.33301 -27 -2 -53 -2s-67 2 -123 6c2.66699 -8 4 -25 4 -51z" />
    <glyph glyph-name="Gbreve" unicode="&#x11e;" horiz-adv-x="1581" 
d="M829 1772c0 26 2.33203 47 6.99902 63l57 8c1.33301 -49.333 20.333 -89.333 57 -120s83.334 -46 140.001 -46c128 0 215.333 55.333 262 166l57 -4c-15.333 -83.333 -54.333 -151 -117 -203s-135 -77.667 -217 -77c-164 0 -246 71 -246 213zM785.999 -31
c-182.667 0.666992 -326.664 50.3281 -431.997 148.995s-158 233.334 -158 404.001s38.333 328.667 115 474s184.334 261.333 323.001 348s286.667 130.334 444 131.001c157.333 0 304.666 -22 441.999 -66c-18 -95.333 -36 -218.333 -54 -369h-84c1.33301 26 2 63 2 111
c-5.33301 159.333 -108.666 239.666 -309.999 240.999c-254 0.666992 -449.333 -129.666 -586 -390.999c-78 -152 -116.667 -307.667 -116 -467s43.667 -279 129 -359c84.667 -80 193 -120 325 -120c183.333 0 292.666 40 327.999 120c10.667 22.667 22.667 64.667 36 126
s19.666 108 18.999 140s-12 55.333 -34 70c-22.667 14.667 -72.334 23.334 -149.001 26.001l16 63c74 -2.66699 152.667 -4 236 -4s168.666 1.33301 255.999 4l-18 -63c-57.333 -1.33301 -95 -11.666 -113 -30.999c-18 -20 -39.667 -82.667 -65 -188
s-39.333 -186.666 -42 -243.999c-157.333 -70 -327.333 -105 -510 -105z" />
    <glyph glyph-name="gbreve" unicode="&#x11f;" horiz-adv-x="958" 
d="M477 1432c2.66699 -108 64.668 -162 186.001 -162c57.333 0 105.333 12 144 36c38 24 68 66 90 126l51 -11c-14.667 -88.667 -48.667 -156.334 -102 -203.001s-117.333 -69.667 -192 -69c-74.667 0 -132.334 18.333 -173.001 55s-61 91.334 -61 164.001
c0 10.667 1.33301 29.667 4 57zM428.001 -477c93.333 0 170.003 19.333 230.003 58c60 38 90.667 86.333 92 145s-18.667 104 -60 136s-88.333 59.333 -141 82s-100.334 34 -143.001 34s-108.334 -26.667 -197.001 -80c-71.333 -42.667 -107 -96 -107 -160
s31.333 -116 94 -156c61.333 -40 138.666 -59.667 231.999 -59zM729.004 791c0 90 -42.332 135 -126.999 135c-54.667 0 -103.334 -23.333 -146.001 -70s-74 -98.667 -94 -156c-18.667 -57.333 -28 -110 -28 -158s12 -85 36 -111c24 -26.667 60 -40 108 -40
s92.667 25 134 75c42 50 72 104.333 90 163s27 112.667 27 162zM864.005 750c0 -125.333 -49.001 -232.002 -147.001 -320.002c-48 -44 -119.667 -82.333 -215 -115c-69.333 -26 -104.333 -56.667 -105 -92c0 -49.333 37 -89.666 111 -120.999
c152.667 -64 257.667 -120.667 315 -170s86 -106.666 86 -171.999c0 -84.667 -45.333 -158.334 -136 -221.001c-91.333 -62.667 -207 -94 -347 -94s-252 27.333 -336 82c-83.333 54 -125 116.333 -125 187s27.333 130 82 178s154.334 96.333 299.001 145
c-68 32.667 -102.667 85.334 -104 158.001l153 127c-131.333 35.333 -197 114.333 -197 237s41.667 227 125 313c82.667 86 175 129 277 129s177.667 -37.333 227 -112c139.333 0 220 2 242 6l-33 -98c-9.33301 -1.33301 -27 -2 -53 -2s-67 2 -123 6c2.66699 -8 4 -25 4 -51
z" />
    <glyph glyph-name="Gdotaccent" unicode="&#x120;" horiz-adv-x="1581" 
d="M1106 1792c25.333 0 45.333 -7.33301 60 -22s22 -35.334 22 -62.001c0 -27.333 -9.33301 -53.333 -28 -78s-40.667 -37 -66 -37s-45.333 7.33301 -60 22c-14.667 15.333 -22 36.333 -22 63s9.33301 52.334 28 77.001c19.333 24.667 41.333 37 66 37zM786 -31
c-182.667 0.666992 -326.664 50.3281 -431.997 148.995s-158 233.334 -158 404.001s38.333 328.667 115 474s184.334 261.333 323.001 348s286.667 130.334 444 131.001c157.333 0 304.666 -22 441.999 -66c-18 -95.333 -36 -218.333 -54 -369h-84c1.33301 26 2 63 2 111
c-5.33301 159.333 -108.666 239.666 -309.999 240.999c-254 0.666992 -449.333 -129.666 -586 -390.999c-78 -152 -116.667 -307.667 -116 -467s43.667 -279 129 -359c84.667 -80 193 -120 325 -120c183.333 0 292.666 40 327.999 120c10.667 22.667 22.667 64.667 36 126
s19.666 108 18.999 140s-12 55.333 -34 70c-22.667 14.667 -72.334 23.334 -149.001 26.001l16 63c74 -2.66699 152.667 -4 236 -4s168.666 1.33301 255.999 4l-18 -63c-57.333 -1.33301 -95 -11.666 -113 -30.999c-18 -20 -39.667 -82.667 -65 -188
s-39.333 -186.666 -42 -243.999c-157.333 -70 -327.333 -105 -510 -105z" />
    <glyph glyph-name="gdotaccent" unicode="&#x121;" horiz-adv-x="958" 
d="M739 1299c0.666992 -27.333 -8.33301 -53.334 -27 -78.001s-40.667 -37 -66 -37s-45.333 7.33301 -60 22s-22.334 35.334 -23.001 62.001c0 27.333 9.66699 53.333 29 78c19.333 24 41.333 36 66 36s44.334 -7 59.001 -21s22 -34.667 22 -62zM428 -477.001
c93.333 0 170.003 19.333 230.003 58c60 38 90.667 86.333 92 145s-18.667 104 -60 136s-88.333 59.333 -141 82s-100.334 34 -143.001 34s-108.334 -26.667 -197.001 -80c-71.333 -42.667 -107 -96 -107 -160s31.333 -116 94 -156c61.333 -40 138.666 -59.667 231.999 -59z
M729.003 790.999c0 90 -42.332 135 -126.999 135c-54.667 0 -103.334 -23.333 -146.001 -70s-74 -98.667 -94 -156c-18.667 -57.333 -28 -110 -28 -158s12 -85 36 -111c24 -26.667 60 -40 108 -40s92.667 25 134 75c42 50 72 104.333 90 163s27 112.667 27 162z
M864.004 749.999c0 -125.333 -49.001 -232.002 -147.001 -320.002c-48 -44 -119.667 -82.333 -215 -115c-69.333 -26 -104.333 -56.667 -105 -92c0 -49.333 37 -89.666 111 -120.999c152.667 -64 257.667 -120.667 315 -170s86 -106.666 86 -171.999
c0 -84.667 -45.333 -158.334 -136 -221.001c-91.333 -62.667 -207 -94 -347 -94s-252 27.333 -336 82c-83.333 54 -125 116.333 -125 187s27.333 130 82 178s154.334 96.333 299.001 145c-68 32.667 -102.667 85.334 -104 158.001l153 127
c-131.333 35.333 -197 114.333 -197 237s41.667 227 125 313c82.667 86 175 129 277 129s177.667 -37.333 227 -112c139.333 0 220 2 242 6l-33 -98c-9.33301 -1.33301 -27 -2 -53 -2s-67 2 -123 6c2.66699 -8 4 -25 4 -51z" />
    <glyph glyph-name="Gcommaaccent" unicode="&#x122;" horiz-adv-x="1581" 
d="M735 -334c0 48 -23 93.001 -69 135.001l131 101c57.333 -58.667 86 -114 86 -166c-0.666992 -104.667 -93 -222 -277 -352l-37 41c110.667 87.333 166 167.666 166 240.999zM786 -30.999c-182.667 0.666992 -326.664 50.3281 -431.997 148.995s-158 233.334 -158 404.001
s38.333 328.667 115 474s184.334 261.333 323.001 348s286.667 130.334 444 131.001c157.333 0 304.666 -22 441.999 -66c-18 -95.333 -36 -218.333 -54 -369h-84c1.33301 26 2 63 2 111c-5.33301 159.333 -108.666 239.666 -309.999 240.999
c-254 0.666992 -449.333 -129.666 -586 -390.999c-78 -152 -116.667 -307.667 -116 -467s43.667 -279 129 -359c84.667 -80 193 -120 325 -120c183.333 0 292.666 40 327.999 120c10.667 22.667 22.667 64.667 36 126s19.666 108 18.999 140s-12 55.333 -34 70
c-22.667 14.667 -72.334 23.334 -149.001 26.001l16 63c74 -2.66699 152.667 -4 236 -4s168.666 1.33301 255.999 4l-18 -63c-57.333 -1.33301 -95 -11.666 -113 -30.999c-18 -20 -39.667 -82.667 -65 -188s-39.333 -186.666 -42 -243.999
c-157.333 -70 -327.333 -105 -510 -105z" />
    <glyph glyph-name="gcommaaccent" unicode="&#x123;" horiz-adv-x="958" 
d="M698 1356c0 -48 23.333 -93.001 70 -135.001l-131 -101c-57.333 58.667 -86 114 -86 166c0 104.667 92 222 276 352l37 -41c-110.667 -87.333 -166 -167.666 -166 -240.999zM428 -477.001c93.333 0 170.003 19.333 230.003 58c60 38 90.667 86.333 92 145
s-18.667 104 -60 136s-88.333 59.333 -141 82s-100.334 34 -143.001 34s-108.334 -26.667 -197.001 -80c-71.333 -42.667 -107 -96 -107 -160s31.333 -116 94 -156c61.333 -40 138.666 -59.667 231.999 -59zM729.003 790.999c0 90 -42.332 135 -126.999 135
c-54.667 0 -103.334 -23.333 -146.001 -70s-74 -98.667 -94 -156c-18.667 -57.333 -28 -110 -28 -158s12 -85 36 -111c24 -26.667 60 -40 108 -40s92.667 25 134 75c42 50 72 104.333 90 163s27 112.667 27 162zM864.004 749.999
c0 -125.333 -49.001 -232.002 -147.001 -320.002c-48 -44 -119.667 -82.333 -215 -115c-69.333 -26 -104.333 -56.667 -105 -92c0 -49.333 37 -89.666 111 -120.999c152.667 -64 257.667 -120.667 315 -170s86 -106.666 86 -171.999
c0 -84.667 -45.333 -158.334 -136 -221.001c-91.333 -62.667 -207 -94 -347 -94s-252 27.333 -336 82c-83.333 54 -125 116.333 -125 187s27.333 130 82 178s154.334 96.333 299.001 145c-68 32.667 -102.667 85.334 -104 158.001l153 127
c-131.333 35.333 -197 114.333 -197 237s41.667 227 125 313c82.667 86 175 129 277 129s177.667 -37.333 227 -112c139.333 0 220 2 242 6l-33 -98c-9.33301 -1.33301 -27 -2 -53 -2s-67 2 -123 6c2.66699 -8 4 -25 4 -51z" />
    </font>
</defs>
</svg>
