<?xml version="1.0" encoding="utf-8"?>
<!-- Generator: Adobe Illustrator 16.0.0, SVG Export Plug-In . SVG Version: 6.00 Build 0)  -->
<!DOCTYPE svg PUBLIC "-//W3C//DTD SVG 1.1//EN" "http://www.w3.org/Graphics/SVG/1.1/DTD/svg11.dtd">
<svg version="1.1" id="Layer_1" xmlns:sketch="http://www.bohemiancoding.com/sketch/ns"
	 xmlns="http://www.w3.org/2000/svg" xmlns:xlink="http://www.w3.org/1999/xlink" x="0px" y="0px" width="623px" height="45px"
	 viewBox="0 0 623 45" enable-background="new 0 0 623 45" xml:space="preserve">
<g id="by" transform="translate(573.000000, 1.000000)" sketch:type="MSShapeGroup">
	<path id="y" fill="#FFFFFF" d="M30.96,10l-1.968,14.064c-0.433,3.119,1.056,5.711,3.744,6.959c0.527,0.24,1.536,0.192,1.536,0.192
		l-0.049,0.192c0,0-1.872,0.624-2.544,1.008c-1.92,1.057-3.023,2.832-3.312,4.752c-0.48,3.648,2.832,5.952,7.104,5.952
		c5.376,0,9.504-3.408,10.128-7.728L49.152,10h-3.84l-1.921,13.775c-0.336,2.4-3.216,4.561-5.903,4.561
		c-2.688,0-4.944-2.16-4.608-4.561L34.8,10H30.96z M41.76,35.104c-0.336,2.4-2.928,4.561-5.808,4.561h-0.288
		c-2.112,0-3.6-1.296-3.408-2.641c0.145-1.008,0.72-1.68,1.393-2.159l7.056-3.696c0.672-0.384,1.392-0.863,1.824-1.344L41.76,35.104
		z"/>
	<path id="b" fill="#FFFFFF" d="M0.032,32.848c2.016,0.864,5.664,1.633,9.071,1.633c5.137,0,9.648-3.457,10.272-7.776l1.296-9.408
		c0.624-4.272-2.928-7.776-8.063-7.776c-2.017,0-4.896,1.056-5.761,1.968L8.432,0.4h-3.84L0.032,32.848z M15.536,26.416
		c-0.336,2.4-3.312,4.561-5.952,4.561c-2.016,0-4.08-0.289-5.328-0.865l1.729-12.527c0.336-2.4,3.407-4.56,6.096-4.56
		c2.688,0,5.04,2.16,4.704,4.56L15.536,26.416z"/>
</g>
<g id="stopping" transform="translate(313.000000, 1.000000)" sketch:type="MSShapeGroup">
	<path id="g" fill="#FFFFFF" d="M205.728,32.416c-2.111,1.152-3.359,3.359-3.359,5.52c0,3.217,3.168,5.185,7.151,5.185
		c5.377,0,9.456-3.408,10.08-7.728l3.408-24.241c-2.016-0.864-5.472-1.632-8.88-1.632c-5.136,0-9.552,3.456-10.176,7.776
		l-0.96,6.769c-0.048,0.336-0.096,0.72-0.096,1.056c0,2.784,1.968,6.048,5.376,6.096v0.192
		C208.272,31.408,206.4,32.032,205.728,32.416L205.728,32.416z M207.744,17.584c0.336-2.4,3.264-4.56,5.904-4.56
		c2.016,0,3.84,0.288,5.136,0.864l-1.393,9.887c-0.336,2.4-3.168,4.561-5.855,4.561c-2.496,0-4.704-1.872-4.704-4.08
		c0-0.145,0-0.336,0.048-0.48L207.744,17.584z M215.808,35.104c-0.336,2.4-2.928,4.561-5.808,4.561h-0.288
		c-2.016,0-3.456-1.152-3.456-2.4c0-1.104,0.72-1.92,1.44-2.399l7.056-3.696c0.672-0.336,1.392-0.863,1.776-1.344L215.808,35.104z"
		/>
	<path id="n" fill="#FFFFFF" d="M191.464,34l2.208-15.696c0.672-4.896-2.544-8.784-7.824-8.784c-2.832,0-5.231,1.296-6.527,2.448
		L179.608,10h-3.744l-3.36,24h3.84l2.256-16.08c0.336-2.352,3.456-4.944,6.576-4.944s4.992,2.304,4.608,5.184L187.576,34H191.464z"
		/>
	<path id="i" fill="#FFFFFF" d="M147.776,13.456h8.159l-2.399,17.088h-8.16L144.896,34h19.344l0.479-3.456h-7.344L160.256,10h-12
		L147.776,13.456z M156.704,4.672h4.416l0.576-4.272h-4.416L156.704,4.672z"/>
	<path id="p" fill="#FFFFFF" d="M86.12,42.641h3.696l1.439-10.369c1.296,1.393,3.264,2.256,5.28,2.256h0.576
		c5.04,0,9.695-3.983,10.368-8.879l1.056-7.344c0.672-4.896-2.832-8.784-7.872-8.784h-0.672c-2.017,0-4.225,0.672-5.952,2.16
		L94.28,10H90.68L86.12,42.641z M103.544,25.84c-0.432,2.881-3.024,5.184-6.048,5.184h-0.528c-3.023,0-5.088-2.303-4.656-5.184
		l1.057-7.68c0.432-2.88,3.12-5.232,6.144-5.232h0.528c3.024,0,4.944,2.304,4.56,5.184L103.544,25.84z"/>
	<path id="p-copy" fill="#FFFFFF" d="M115.12,42.641h3.696l1.439-10.369c1.296,1.393,3.264,2.256,5.28,2.256h0.576
		c5.04,0,9.695-3.983,10.368-8.879l1.056-7.344c0.672-4.896-2.832-8.784-7.872-8.784h-0.672c-2.017,0-4.225,0.672-5.952,2.16
		l0.24-1.68h-3.601L115.12,42.641z M132.544,25.84c-0.432,2.881-3.024,5.184-6.048,5.184h-0.528c-3.023,0-5.088-2.303-4.656-5.184
		l1.057-7.68c0.432-2.88,3.12-5.232,6.144-5.232h0.528c3.024,0,4.944,2.304,4.56,5.184L132.544,25.84z"/>
	<path id="o" fill="#FFFFFF" d="M79.152,18.304c0.672-4.896-2.832-8.832-7.873-8.832h-0.815c-5.088,0-9.696,3.936-10.368,8.832
		L59.088,25.6c-0.72,4.896,2.784,8.881,7.872,8.881h0.815c5.041,0,9.648-3.937,10.32-8.832L79.152,18.304z M74.16,25.889
		c-0.432,2.879-3.023,5.184-6.049,5.184h-0.527c-3.023,0-5.088-2.352-4.656-5.232l1.057-7.68c0.432-2.88,3.072-5.184,6.096-5.184
		h0.527c3.024,0,4.992,2.304,4.608,5.184L74.16,25.889z"/>
	<path id="t" fill="#FFFFFF" d="M32.536,26.752c-0.624,4.271,1.92,7.775,7.151,7.775h0.48c5.473,0,8.928-3.504,9.553-8.063h-3.937
		c-0.336,2.4-2.593,4.56-4.992,4.56h-0.479c-2.641,0-4.225-2.159-3.889-4.56l1.872-13.008h12.192L50.968,10H38.775l0.961-6.816
		h-3.889L34.889,10h-4.416l-0.48,3.456h4.416L32.536,26.752z"/>
	<path id="s" fill="#FFFFFF" d="M19.712,16.864c0.433-3.072-1.536-7.344-6.769-7.344h-0.911c-4.177,0-8.017,2.688-8.593,6.672
		c-1.104,7.824,11.473,6.192,10.752,11.281c-0.287,2.016-2.352,3.551-4.56,3.551H8.768c-2.399,0-4.176-1.92-3.84-4.176l0.049-0.432
		h-3.84L1.04,26.992c-0.528,3.792,2.256,7.488,7.104,7.488H9.2c4.176,0,8.399-3.072,8.928-6.912
		c1.2-8.688-11.28-6.816-10.608-11.665c0.24-1.68,2.112-2.928,3.984-2.928h0.912c2.064,0,3.6,1.872,3.312,3.888H19.712z"/>
</g>
<g id="for" transform="translate(201.000000, 0.000000)" sketch:type="MSShapeGroup">
	<path id="r" fill="#FFFFFF" d="M70.872,10.52c-2.304,0-4.32,1.008-5.664,2.544L65.496,11h-3.744l-2.88,20.544h-5.04L53.352,35
		h18.912l0.48-3.456H62.712l1.776-12.864c0.336-2.4,3.072-4.704,5.76-4.704c2.16,0,3.456,1.824,3.168,3.888h3.888
		C77.736,14.792,75.912,10.52,70.872,10.52L70.872,10.52z"/>
	<path id="o_1_" fill="#FFFFFF" d="M47.152,19.304c0.672-4.896-2.832-8.832-7.872-8.832h-0.816c-5.088,0-9.696,3.936-10.368,8.832
		L27.088,26.6c-0.72,4.896,2.784,8.881,7.872,8.881h0.816c5.04,0,9.648-3.937,10.32-8.832L47.152,19.304z M42.16,26.889
		c-0.432,2.879-3.024,5.184-6.048,5.184h-0.528c-3.024,0-5.088-2.352-4.656-5.232l1.056-7.68c0.432-2.88,3.072-5.184,6.096-5.184
		h0.528c3.024,0,4.992,2.304,4.608,5.184L42.16,26.889z"/>
	<path id="f" fill="#FFFFFF" d="M6.008,43.641l4.032-29.185h8.976L19.496,11H10.52l0.288-2.112c0.336-2.4,2.544-4.464,5.088-4.464
		h0.288c2.592,0,3.552,1.008,3.552,1.008l2.544-2.88c0,0-1.584-1.632-5.424-1.632H16.28c-4.608,0-8.784,3.696-9.408,8.112L6.584,11
		H1.256l-0.48,3.456h5.328L2.072,43.641H6.008z"/>
</g>
<g id="thanks" transform="translate(0.000000, 1.000000)" sketch:type="MSShapeGroup">
	<path id="T" fill="#FFFFFF" d="M0.584,4.24h7.104L3.512,34h4.176l4.176-29.76h7.152l0.528-3.84H1.112L0.584,4.24z"/>
	<path id="h" fill="#FFFFFF" d="M43.704,34l2.208-15.696c0.672-4.896-2.496-8.784-7.776-8.784c-2.832,0-5.136,1.248-6.432,2.352
		L33.288,0.4h-3.84L24.744,34h3.84l2.256-16.08c0.336-2.352,3.456-4.944,6.576-4.944s5.04,2.304,4.608,5.184L39.816,34H43.704z"/>
	<path id="a" fill="#FFFFFF" d="M74.432,11.152C72.416,10.288,69.44,9.52,66.08,9.52c-5.04,0-8.928,3.456-9.552,7.776l-1.344,9.408
		c-0.576,4.272,2.352,7.776,7.392,7.776c1.968,0,4.416-0.912,6.144-2.881c0.768,1.44,2.256,2.4,4.128,2.4h0.48l0.48-3.552h-0.48
		c-0.912,0-1.536-0.769-1.392-1.681L74.432,11.152z M60.224,17.584c0.336-2.4,2.736-4.56,5.328-4.56
		c1.968,0,3.504,0.288,4.752,0.864l-1.776,12.528c-0.336,2.4-2.784,4.561-5.424,4.561s-4.464-2.16-4.128-4.561L60.224,17.584z"/>
	<path id="n_1_" fill="#FFFFFF" d="M101.464,34l2.208-15.696c0.672-4.896-2.544-8.784-7.824-8.784c-2.832,0-5.232,1.296-6.528,2.448
		L89.608,10h-3.744l-3.36,24h3.84L88.6,17.92c0.336-2.352,3.456-4.944,6.576-4.944c3.12,0,4.992,2.304,4.608,5.184L97.576,34
		H101.464z"/>
	<path id="k" fill="#FFFFFF" d="M113.52,34h3.84l4.704-33.6h-3.84L113.52,34z M128.352,34h4.896l-9.456-12.624L136.08,10h-4.896
		l-12.048,11.328L128.352,34z"/>
	<path id="s_1_" fill="#FFFFFF" d="M160.712,16.864c0.432-3.072-1.536-7.344-6.768-7.344h-0.912c-4.176,0-8.016,2.688-8.592,6.672
		c-1.104,7.824,11.472,6.192,10.752,11.281c-0.288,2.016-2.352,3.551-4.56,3.551h-0.864c-2.4,0-4.176-1.92-3.84-4.176l0.048-0.432
		h-3.84l-0.096,0.576c-0.528,3.792,2.256,7.488,7.104,7.488h1.056c4.176,0,8.4-3.072,8.928-6.912
		c1.2-8.688-11.28-6.816-10.608-11.665c0.24-1.68,2.112-2.928,3.984-2.928h0.912c2.064,0,3.6,1.872,3.312,3.888H160.712z"/>
</g>
</svg>
