<?xml version="1.0" encoding="UTF-8" standalone="no"?>
<svg width="125px" height="125px" viewBox="0 0 125 125" version="1.1" xmlns="http://www.w3.org/2000/svg" xmlns:xlink="http://www.w3.org/1999/xlink" xmlns:sketch="http://www.bohemiancoding.com/sketch/ns">
    <!-- Generator: Sketch 3.4.2 (15855) - http://www.bohemiancoding.com/sketch -->
    <title>Logo</title>
    <desc>Created with Sketch.</desc>
    <defs></defs>
    <g id="Page-1" stroke="none" stroke-width="1" fill="none" fill-rule="evenodd" sketch:type="MSPage">
        <g id="Home-" sketch:type="MSArtboardGroup" transform="translate(-48.000000, -39.000000)">
            <g id="Header" sketch:type="MSLayerGroup" transform="translate(-305.000000, -317.000000)">
                <g id="Logo" transform="translate(354.073529, 357.205882)" sketch:type="MSShapeGroup">
                    <g id="Group" transform="translate(24.000000, 23.816176)">
                        <path d="M4.54438123,4.29016985 L62.5707072,4.29016985 C62.5707072,4.29016985 72.5833333,4.29016985 72.5833333,21.5849503 C72.5833333,38.8797308 62.5707072,38.8797308 62.5707072,38.8797308 L4.54438123,38.8797308 M4.54438123,73.4131525 L60.5112119,73.4131525 M60.5112119,38.8797308 C60.5112119,38.8797308 72.5833333,38.8797308 72.5833333,56.1745112 C72.5833333,73.4692917 60.5112119,73.4692917 60.5112119,73.4692917" id="Stroke-1" stroke="#FFFFFF" stroke-width="3" stroke-linecap="round" stroke-linejoin="round"></path>
                        <path d="M3.47225977,75.2126055 C3.47225977,75.2126055 2.10766168,75.2126055 2.10766168,76.9420836 C2.10766168,77.8068226 0.00520838965,77.7635856 0.00520838965,76.8988466 C0.00520838965,75.1693686 1.13803314,73.4692917 1.13803314,73.4692917 L3.47225977,73.4692917 L3.47225977,75.2126055" id="Fill-2" fill="#FFFFFF"></path>
                        <path d="M3.47225977,71.7709442 C3.47225977,71.7709442 2.10766168,71.5789722 2.10766168,69.8494941 C2.10766168,68.9847551 0.00520838965,69.1014949 0.00520838965,69.9662339 C0.00520838965,71.6957119 1.13803314,73.4692917 1.13803314,73.4692917 L3.47225977,73.4692917 L3.47225977,71.7709442" id="Fill-3" fill="#FFFFFF"></path>
                        <path d="M3.47225977,40.6230446 C3.47225977,40.6230446 2.10766168,40.6230446 2.10766168,42.3525227 C2.10766168,43.2172617 0.00520838965,43.1740247 0.00520838965,42.3092857 C0.00520838965,40.5798077 1.13803314,38.8797308 1.13803314,38.8797308 L3.47225977,38.8797308 L3.47225977,40.6230446" id="Fill-4" fill="#FFFFFF"></path>
                        <path d="M3.47225977,37.1813833 C3.47225977,37.1813833 2.10766168,36.9894112 2.10766168,35.2599332 C2.10766168,34.3951942 0.00520838965,34.5119339 0.00520838965,35.376673 C0.00520838965,37.106151 1.13803314,38.8797308 1.13803314,38.8797308 L3.47225977,38.8797308 L3.47225977,37.1813833" id="Fill-5" fill="#FFFFFF"></path>
                        <path d="M3.47225977,6.03348372 C3.47225977,6.03348372 2.10766168,6.03348372 2.10766168,7.76296176 C2.10766168,8.62770078 0.00520838965,8.58446383 0.00520838965,7.71972481 C0.00520838965,5.99024677 1.13803314,4.29016985 1.13803314,4.29016985 L3.47225977,4.29016985 L3.47225977,6.03348372" id="Fill-6" fill="#FFFFFF"></path>
                        <path d="M3.47225977,2.59182241 C3.47225977,2.59182241 2.10766168,2.3989856 2.10766168,0.670372298 C2.10766168,-0.195231464 0.00520838965,-0.0776269569 0.00520838965,0.787112066 C0.00520838965,2.51659011 1.13803314,4.29016985 1.13803314,4.29016985 L3.47225977,4.29016985 L3.47225977,2.59182241" id="Fill-7" fill="#FFFFFF"></path>
                    </g>
                    <g id="Group" transform="translate(71.529412, 16.000000)">
                        <path d="M4.89705882,3.45895609 L4.89705882,89.9328584" id="Stroke-8" stroke="#FFFFFF" stroke-width="3" stroke-linecap="round" stroke-linejoin="round"></path>
                        <path d="M2.99452472,89.9328584 C2.99452472,89.9328584 2.99452472,91.2256432 1.25839483,91.2256432 C0.390329891,91.2256432 0.427656684,93.2863163 1.29572163,93.2863163 C3.03185151,93.2863163 4.7306546,92.1215128 4.7306546,92.1215128 L4.7306546,89.9328584 L2.99452472,89.9328584" id="Fill-9" fill="#FFFFFF"></path>
                        <path d="M6.45029125,89.9328584 C6.45029125,89.9328584 6.64300167,91.2256432 8.37913155,91.2256432 C9.24719649,91.2256432 9.12219514,93.2863163 8.2541302,93.2863163 C6.51800032,93.2863163 4.7306546,92.1215128 4.7306546,92.1215128 L4.7306546,89.9328584 L6.45029125,89.9328584" id="Fill-10" fill="#FFFFFF"></path>
                        <path d="M2.99452472,3.45895609 C2.99452472,3.45895609 2.99452472,2.37803231 1.25839483,2.37803231 C0.390329891,2.37803231 0.427656684,0.423722121 1.29572163,0.423722121 C3.03185151,0.423722121 4.7306546,1.69402375 4.7306546,1.69402375 L4.7306546,3.45895609 L2.99452472,3.45895609" id="Fill-11" fill="#FFFFFF"></path>
                        <path d="M6.45029125,3.45895609 C6.45029125,3.45895609 6.64300167,2.37803231 8.37913155,2.37803231 C9.24719649,2.37803231 9.12219514,0.423722121 8.2541302,0.423722121 C6.51800032,0.423722121 4.7306546,1.69402375 4.7306546,1.69402375 L4.7306546,3.45895609 L6.45029125,3.45895609" id="Fill-12" fill="#FFFFFF"></path>
                    </g>
                    <g id="Group" transform="translate(44.448529, 16.000000)">
                        <path d="M4,3.45895609 L4,89.9328584" id="Stroke-13" stroke="#FFFFFF" stroke-width="3" stroke-linecap="round" stroke-linejoin="round"></path>
                        <path d="M2.59341885,3.45895609 C2.59341885,3.45895609 2.59341885,2.37803231 0.857288963,2.37803231 C-0.0107759786,2.37803231 0.0265508139,0.423722121 0.894615756,0.423722121 C2.63074564,0.423722121 4.32954873,1.69402375 4.32954873,1.69402375 L4.32954873,3.45895609 L2.59341885,3.45895609" id="Fill-14" fill="#FFFFFF"></path>
                        <path d="M6.04918538,3.45895609 C6.04918538,3.45895609 6.2418958,2.37803231 7.97802568,2.37803231 C8.84609062,2.37803231 8.72108927,0.423722121 7.85302433,0.423722121 C6.11689445,0.423722121 4.32954873,1.69402375 4.32954873,1.69402375 L4.32954873,3.45895609 L6.04918538,3.45895609" id="Fill-15" fill="#FFFFFF"></path>
                        <path d="M2.59341885,89.9328584 C2.59341885,89.9328584 2.59341885,91.2256432 0.857288963,91.2256432 C-0.0107759786,91.2256432 0.0265508139,93.2863163 0.894615756,93.2863163 C2.63074564,93.2863163 4.32954873,92.1215128 4.32954873,92.1215128 L4.32954873,89.9328584 L2.59341885,89.9328584" id="Fill-16" fill="#FFFFFF"></path>
                        <path d="M6.04918538,89.9328584 C6.04918538,89.9328584 6.2418958,91.2256432 7.97802568,91.2256432 C8.84609062,91.2256432 8.72108927,93.2863163 7.85302433,93.2863163 C6.11689445,93.2863163 4.32954873,92.1215128 4.32954873,92.1215128 L4.32954873,89.9328584 L6.04918538,89.9328584" id="Fill-17" fill="#FFFFFF"></path>
                    </g>
                    <g id="Stroke-18-+-Fill-21-+-Fill-22" transform="translate(31.816176, 16.000000)">
                        <path d="M4.21029412,3.45895609 L4.21029412,89.9328584" id="Stroke-18" stroke="#FFFFFF" stroke-width="3" stroke-linecap="round" stroke-linejoin="round"></path>
                        <path d="M2.46866778,3.45895609 C2.46866778,3.45895609 2.46866778,2.37803231 0.732537891,2.37803231 C-0.135527051,2.37803231 -0.0982002584,0.423722121 0.769864684,0.423722121 C2.50599457,0.423722121 4.20479766,1.69402375 4.20479766,1.69402375 L4.20479766,3.45895609 L2.46866778,3.45895609" id="Fill-21" fill="#FFFFFF"></path>
                        <path d="M5.92443431,3.45895609 C5.92356624,3.45895609 6.11714473,2.37803231 7.85327461,2.37803231 C8.72133955,2.37803231 8.5963382,0.423722121 7.72827326,0.423722121 C5.99214337,0.423722121 4.20479766,1.69402375 4.20479766,1.69402375 L4.20479766,3.45895609 L5.92443431,3.45895609" id="Fill-22" fill="#FFFFFF"></path>
                        <path d="M2.46866778,89.9328584 C2.46866778,89.9328584 2.46866778,91.2256432 0.732537891,91.2256432 C-0.135527051,91.2256432 -0.0982002584,93.2863163 0.769864684,93.2863163 C2.50599457,93.2863163 4.20479766,92.1215128 4.20479766,92.1215128 L4.20479766,89.9328584 L2.46866778,89.9328584" id="Fill-19" fill="#FFFFFF"></path>
                        <path d="M5.92443431,89.9328584 C5.92356624,89.9328584 6.11714473,91.2256432 7.85327461,91.2256432 C8.72133955,91.2256432 8.5963382,93.2863163 7.72827326,93.2863163 C5.99214337,93.2863163 4.20479766,92.1215128 4.20479766,92.1215128 L4.20479766,89.9328584 L5.92443431,89.9328584" id="Fill-20" fill="#FFFFFF"></path>
                    </g>
                    <circle id="Oval-2" stroke="#FFFFFF" stroke-width="3" cx="61.4264706" cy="61.2941176" r="60.5"></circle>
                </g>
            </g>
        </g>
    </g>
</svg>