<?xml version="1.0" standalone="no"?>
<!DOCTYPE svg PUBLIC "-//W3C//DTD SVG 1.1//EN" "http://www.w3.org/Graphics/SVG/1.1/DTD/svg11.dtd" >
<svg xmlns="http://www.w3.org/2000/svg">
<metadata></metadata>
<defs>
<font id="decima_monoitalic" horiz-adv-x="1228" >
<font-face units-per-em="2048" ascent="1536" descent="-512" />
<missing-glyph horiz-adv-x="500" />
<glyph horiz-adv-x="0" />
<glyph unicode="&#xd;" horiz-adv-x="681" />
<glyph unicode=" " />
<glyph unicode="!" d="M463 0l29 201h200l-28 -201h-201zM526 338l154 1096h166l-154 -1096h-166z" />
<glyph unicode="&#x22;" d="M373 950l67 484h146l-68 -484h-145zM641 950l68 484h145l-68 -484h-145z" />
<glyph unicode="#" d="M139 393l21 154h192l92 323h-172l21 154h194l115 410h156l-117 -410h219l117 410h160l-117 -410h164l-21 -154h-184l-94 -323h166l-21 -154h-188l-111 -393h-158l109 393h-217l-111 -393h-155l110 393h-170zM506 547h219l92 323h-217z" />
<glyph unicode="$" d="M223 373l10 61h170l-10 -61q-12 -90 39 -152.5t141 -62.5h25q88 0 155.5 58t77.5 140q14 102 -37 172t-131.5 113t-160.5 89t-129 129t-33 206q18 131 114.5 233.5t227.5 131.5l14 102h162l-14 -102q131 -27 197.5 -130.5t43.5 -259.5h-172q16 102 -30.5 168t-139.5 66 q-88 0 -152.5 -57.5t-74.5 -141.5q-10 -80 42 -137t133 -99t160 -92.5t126 -144.5t29 -229q-20 -145 -122 -249t-241 -122l-14 -100h-162l14 100q-135 18 -207.5 122.5t-50.5 248.5z" />
<glyph unicode="%" d="M88 457l16 116l1080 396l-15 -113zM244 1053l26 186q12 90 89 152.5t171 62.5h15q92 0 151 -62.5t47 -152.5l-26 -186q-12 -90 -88 -151.5t-170 -61.5h-15q-92 0 -152.5 62.5t-47.5 150.5zM373 1053q-6 -43 21.5 -73t72.5 -30q43 0 79 30t42 73l26 186q6 43 -21.5 72.5 t-74.5 29.5q-43 0 -77.5 -29.5t-41.5 -72.5zM530 193l27 186q12 90 89 152.5t171 62.5h14q92 0 151.5 -62.5t47.5 -152.5l-26 -186q-12 -90 -89 -151.5t-172 -61.5h-14q-92 0 -151.5 62t-47.5 151zM659 193q-6 -43 22 -73t73 -30q43 0 78.5 30t41.5 73l27 186 q6 43 -21.5 72.5t-74.5 29.5q-43 0 -78 -29.5t-41 -72.5z" />
<glyph unicode="&#x26;" d="M178 358l41 293q14 98 74.5 175t148.5 116l-82 272l31 220h641l-22 -162h-471l-2 -15l223 -761l47 -199l14 57l43 318h170l-43 -316q-23 -145 -121 -237l37 -119h-186l-8 29q-98 -49 -193 -49h-12q-160 0 -256 110.5t-74 267.5zM350 356q-14 -90 41.5 -152.5t147.5 -62.5 q90 0 133 25l-185 625q-82 -49 -96 -142z" />
<glyph unicode="'" d="M506 934l67 483h148l-68 -483h-147z" />
<glyph unicode="(" d="M373 -10l151 1089q23 158 156 267.5t301 109.5l-23 -166q-100 0 -175.5 -61.5t-88.5 -151.5l-153 -1089q-12 -92 46 -153.5t158 -61.5l-22 -162q-168 0 -270.5 110.5t-79.5 268.5z" />
<glyph unicode=")" d="M319 -389l23 162q100 0 174 61.5t86 153.5l154 1089q12 92 -44.5 152.5t-156.5 60.5l23 166q168 0 270 -110.5t82 -266.5l-152 -1089q-20 -156 -155.5 -267.5t-303.5 -111.5z" />
<glyph unicode="*" d="M352 1192l60 131l145 -43l21 152h139l-21 -148l156 47l22 -125l-157 -55l76 -123l-123 -80l-74 119l-96 -119l-105 76l103 125z" />
<glyph unicode="+" d="M178 520l23 166h381l51 371h170l-51 -371h381l-23 -166h-381l-53 -375h-170l53 375h-381z" />
<glyph unicode="," d="M481 -240l103 240h-66l29 201h201l-27 -187l-121 -254h-119z" />
<glyph unicode="-" d="M395 520l23 160h500l-23 -160h-500z" />
<glyph unicode="." d="M506 0l29 201h200l-28 -201h-201z" />
<glyph unicode="/" d="M59 -369l938 1803h172l-940 -1803h-170z" />
<glyph unicode="0" d="M242 358l100 719q23 158 143.5 267.5t274.5 109.5h14q152 0 244 -109.5t69 -267.5l-102 -721q-20 -156 -144 -266t-276 -110h-14q-154 0 -243 110.5t-66 267.5zM408 356q-12 -90 39 -152.5t137 -62.5q84 0 151.5 61.5t79.5 151.5l103 721q12 90 -38.5 153.5t-136.5 63.5 q-84 0 -152.5 -63.5t-80.5 -153.5z" />
<glyph unicode="1" d="M170 0l23 158h305l155 1114l-284 -43l22 162l275 43h182l-178 -1276h307l-23 -158h-784z" />
<glyph unicode="2" d="M170 0l20 150q16 115 76 215t137.5 167.5t166.5 138t166 128t132.5 134.5t67.5 159q12 84 -42 142t-140 58q-92 0 -163 -72t-87 -176h-172q27 176 155.5 293t290.5 117q160 0 255 -107.5t75 -267.5q-12 -88 -57 -166.5t-107.5 -140t-136.5 -119t-147.5 -113t-135 -110.5 t-105.5 -123.5t-54 -144.5h614l-23 -162h-786z" />
<glyph unicode="3" d="M223 356l6 41h172l-6 -43q-14 -90 41.5 -151.5t147.5 -61.5q90 0 162.5 62.5t84.5 152.5l39 287q10 66 -30.5 114t-108.5 48h-153l22 153l279 314h-449l23 162h667l-22 -152l-289 -317q109 -14 180.5 -105.5t54.5 -214.5l-40 -287q-23 -158 -150 -268t-287 -110h-14 q-160 0 -256 110.5t-74 265.5z" />
<glyph unicode="4" d="M195 303l22 160l594 971h184l-581 -965h334l51 369h172l-51 -369h118l-22 -166h-119l-43 -303h-172l43 303h-530z" />
<glyph unicode="5" d="M225 356l6 41h172l-6 -43q-14 -90 41.5 -151.5t147.5 -61.5q90 0 160.5 62.5t84.5 152.5l33 234q12 88 -42 151.5t-144 63.5h-14q-61 0 -113.5 -34t-75.5 -75l-151 47l157 691h625l-25 -166h-460l-82 -338q74 37 155 37h13q160 0 256 -108.5t73 -266.5l-32 -234 q-23 -158 -150 -268t-287 -110h-12q-160 0 -256.5 110t-73.5 266z" />
<glyph unicode="6" d="M223 356l103 719q23 158 145.5 268.5t282.5 110.5h10q160 0 254 -110.5t72 -270.5h-175q12 92 -39 154.5t-143 62.5q-88 0 -156.5 -62.5t-80.5 -154.5l-29 -194q100 88 223 88h15q160 0 256 -109.5t75 -265.5l-32 -234q-23 -158 -151 -268t-288 -110h-14 q-160 0 -255 109.5t-73 266.5zM393 354q-12 -90 43.5 -151.5t147.5 -61.5q90 0 161.5 62.5t83.5 152.5l33 234q14 88 -41 151.5t-145 63.5h-12q-78 0 -152 -64.5t-86 -150.5z" />
<glyph unicode="7" d="M354 1272l23 162h717l-21 -150q-10 -76 -82.5 -236.5t-155.5 -322.5t-162.5 -366.5t-99.5 -358.5h-176q23 166 102 375t160.5 367.5t154.5 312t85 217.5h-545z" />
<glyph unicode="8" d="M225 358l11 86q20 180 192 301q-119 100 -94 277l10 74q23 150 143.5 254t270.5 104h18q152 0 243 -104t68 -254l-10 -76q-25 -168 -168 -275q133 -117 105 -301l-13 -88q-23 -158 -147.5 -267t-284.5 -109h-18q-158 0 -251 110.5t-75 267.5zM395 356 q-12 -90 44.5 -152.5t148.5 -62.5q88 0 158.5 61.5t82.5 151.5l13 88q14 90 -41.5 153.5t-145.5 63.5t-161.5 -63.5t-85.5 -153.5zM506 1020q-10 -80 35 -139.5t129 -59.5h18q78 0 141.5 56.5t75.5 140.5l10 69q10 86 -39 145.5t-135 59.5q-84 0 -149.5 -59t-75.5 -146z" />
<glyph unicode="9" d="M240 360h174q-14 -92 37 -154.5t143 -62.5q88 0 157 62.5t83 154.5l26 195q-100 -88 -223 -88h-14q-160 0 -256.5 109.5t-73.5 265.5l33 233q23 158 149.5 268.5t286.5 110.5h14q160 0 255 -109.5t73 -267.5l-100 -719q-23 -158 -147 -268t-284 -110h-10 q-160 0 -253 110.5t-70 269.5zM465 844q-12 -90 42 -152.5t144 -62.5h13q78 0 151.5 64.5t85.5 150.5l33 235q12 90 -43 151.5t-145.5 61.5t-163 -62.5t-84.5 -152.5z" />
<glyph unicode=":" d="M442 0l29 201h201l-29 -201h-201zM557 823l29 201h200l-28 -201h-201z" />
<glyph unicode=";" d="M424 -240l102 240h-65l28 201h201l-26 -187l-121 -254h-119zM578 823l26 201h201l-27 -201h-200z" />
<glyph unicode="&#x3c;" d="M190 522l21 150l901 383l-25 -176l-681 -283l604 -281l-27 -178z" />
<glyph unicode="=" d="M164 342l22 160h908l-23 -160h-907zM215 694l23 160h907l-23 -160h-907z" />
<glyph unicode="&#x3e;" d="M166 137l27 178l681 281l-604 283l25 176l795 -383l-21 -150z" />
<glyph unicode="?" d="M276 1065q25 176 150 281.5t289 105.5q166 0 262 -103.5t74 -271.5q-14 -104 -59.5 -180t-100.5 -124t-110.5 -99t-101.5 -135t-63 -201h-170q18 135 66.5 234.5t103 155.5t108.5 103.5t96 110t54 145.5q12 86 -41 142.5t-141 56.5q-94 0 -163 -60.5t-83 -160.5h-170z M381 0l29 203h206l-28 -203h-207z" />
<glyph unicode="@" d="M90 143l113 811q29 207 183.5 353.5t348.5 146.5h31q193 0 300.5 -141.5t78.5 -347.5l-135 -965h-146l6 55q-88 -72 -184 -71q-131 0 -209 85t-59 216l63 448q18 127 121 215t232 88q92 0 159 -71q18 141 -50.5 238t-197.5 97h-30q-131 0 -238.5 -103t-128.5 -243 l-112 -811q-20 -139 51 -241.5t198 -102.5h37l-22 -153h-31q-195 0 -301.5 146.5t-77.5 350.5zM571 293q-8 -66 32 -115t104 -49q72 0 127 48t65 116l62 436q10 66 -33 113t-113 47q-63 0 -117.5 -47t-64.5 -113z" />
<glyph unicode="A" d="M168 0l86 612l362 822h293l133 -826l-86 -608h-174l64 457h-443l-63 -457h-172zM434 616h430l-104 656h-39z" />
<glyph unicode="B" d="M199 0l200 1434h375q145 0 228 -94q68 -77 68 -180q0 -22 -3 -46l-14 -113q-20 -137 -152 -243q98 -89 97 -215q0 -25 -3 -51l-20 -148q-20 -147 -141 -245.5t-267 -98.5h-368zM393 162h197q80 0 141.5 54t71.5 128l20 148q1 10 1 21q0 51 -32 101q-40 62 -130 62h-197z M487 831h207q70 0 125 47.5t66 114.5l16 115q2 13 2 24q-1 50 -35 89q-42 47 -112 47h-207z" />
<glyph unicode="C" d="M221 358l101 719q23 158 151.5 267.5t290.5 109.5h10q162 0 259 -110q79 -90 79 -212q0 -28 -4 -57h-172q2 16 2 30q0 69 -46 121q-56 62 -147 62q-94 0 -165.5 -61.5t-83.5 -151.5l-103 -719q-2 -16 -2 -31q-1 -69 45 -121q56 -62 150 -63q90 0 162.5 62.5t85.5 150.5 l6 43h172l-6 -41q-23 -158 -151 -267t-290 -109h-10q-162 0 -259 110q-79 90 -79 212q0 27 4 56z" />
<glyph unicode="D" d="M180 0l201 1434h379q162 0 260 -110q79 -89 78 -209q0 -28 -4 -58l-95 -680q-20 -156 -149 -266.5t-291 -110.5h-379zM375 162h200q92 0 164 61.5t86 151.5l95 680q2 16 2 32q0 69 -44 119q-54 62 -147 62h-201z" />
<glyph unicode="E" d="M205 0l201 1434h700l-23 -162h-528l-61 -436h479l-23 -160h-479l-72 -514h545l-22 -162h-717z" />
<glyph unicode="F" d="M213 0l201 1434h700l-22 -162h-529l-61 -436h479l-23 -160h-479l-94 -676h-172z" />
<glyph unicode="G" d="M207 358l100 719q23 158 152 267.5t291 109.5h34q162 0 260 -110q80 -91 80 -214q0 -27 -4 -55h-176q2 16 2 32q0 69 -44 119q-54 62 -148 62h-23q-94 0 -165.5 -61.5t-84.5 -151.5l-102 -719q-2 -16 -2 -31q0 -70 45 -121q55 -63 149 -63h23q92 0 163.5 61.5t84.5 151.5 l30 221h-208l24 162h385l-55 -381q-20 -156 -150.5 -266t-292.5 -110h-34q-162 0 -259 110q-79 90 -79 210q0 28 4 58z" />
<glyph unicode="H" d="M168 0l201 1434h172l-84 -598h442l84 598h174l-201 -1434h-174l95 676h-443l-94 -676h-172z" />
<glyph unicode="I" d="M152 0l22 160h309l156 1114h-309l22 160h791l-23 -160h-309l-156 -1114h310l-23 -160h-790z" />
<glyph unicode="J" d="M188 356l15 111h172l-15 -113q-2 -14 -2 -27q0 -73 46 -125q55 -61 145 -61q94 0 166.5 62.5t85.5 152.5l129 920h-531l23 160h704l-151 -1078q-23 -158 -152 -268t-291 -110h-10q-162 0 -258 110q-79 90 -79 213q0 26 3 53z" />
<glyph unicode="K" d="M182 0l201 1434h174l-201 -1434h-174zM463 760l549 674h200l-550 -680l372 -754h-198z" />
<glyph unicode="L" d="M238 0l200 1434h174l-178 -1272h555l-22 -162h-729z" />
<glyph unicode="M" d="M145 0l201 1434h219l113 -582h8l277 582h219l-201 -1434h-174l147 1044l19 97l-8 2l-41 -96l-187 -369h-159l-80 366l-17 99l-8 -2l-6 -97l-148 -1044h-174z" />
<glyph unicode="N" d="M168 0l201 1434h192l250 -1006l20 -123h9l6 131l139 998h172l-201 -1434h-192l-250 999l-20 125h-9l-6 -135l-139 -989h-172z" />
<glyph unicode="O" d="M207 358l100 719q23 158 152 267.5t291 109.5h34q162 0 260 -110q80 -89 80 -209q0 -28 -4 -58l-102 -721q-20 -156 -150.5 -266t-292.5 -110h-34q-161 0 -259 110q-79 89 -79 210q0 28 4 58zM379 356q-2 -16 -2 -31q0 -69 45 -121q55 -62 149 -63h23q92 0 164 61.5 t84 151.5l102 721q2 16 2 32q0 69 -44 119q-54 62 -148 62h-23q-94 0 -165.5 -61.5t-84.5 -151.5z" />
<glyph unicode="P" d="M223 0l201 1434h391q137 0 219 -94q67 -77 67 -179q0 -23 -3 -47l-41 -295q-18 -135 -127 -228t-246 -93h-219l-70 -498h-172zM487 659h211q68 0 121.5 45.5t63.5 108.5l41 299q2 13 2 25q0 50 -33 86q-41 45 -109 45h-211z" />
<glyph unicode="Q" d="M188 358l101 719q23 158 151.5 267.5t290.5 109.5h35q162 0 260 -110q80 -90 80 -210q0 -27 -4 -57l-101 -721q-16 -109 -86 -194l80 -103l-133 -108l-76 94q-102 -65 -223 -65h-4h-35q-162 0 -260 110q-80 91 -80 212q0 27 4 56zM358 322q109 102 234 102t217 -123 q10 18 16 53l101 721q2 16 2 32q0 69 -44 119q-55 62 -147 62h-22q-94 0 -167 -61.5t-85 -151.5l-101 -719q-4 -25 -4 -34zM422 186q53 -47 137 -47q76 0 133 31q-59 100 -125 100q-82 0 -145 -84z" />
<glyph unicode="R" d="M203 0l200 1434h392q137 0 219 -94q67 -76 66 -177q0 -24 -3 -49l-37 -272q-14 -98 -74.5 -175t-152.5 -116l156 -551h-187l-149 522h-184l-74 -522h-172zM471 682h213q66 0 118 45.5t62 108.5l39 276q1 10 1 21q0 51 -33 89q-40 46 -105 46h-213z" />
<glyph unicode="S" d="M205 356l8 56h174l-8 -56q-2 -16 -2 -31q0 -69 45 -121q55 -62 149 -63h23q92 0 163.5 58.5t82.5 140.5q3 21 3 42q-1 52 -19 94q-26 60 -74 99t-109 73t-121.5 72t-109 83t-72.5 115q-15 45 -15 99q0 30 5 62q23 160 151.5 267.5t290.5 107.5t258 -110q79 -91 80 -217 q0 -26 -4 -54h-170q2 14 2 27q0 70 -45 124q-53 64 -146 64q-90 0 -160.5 -57t-80.5 -141q-2 -14 -2 -28q0 -54 30 -98q38 -56 102 -90t138 -81.5t136 -96.5t94 -137q22 -59 21 -130q0 -35 -5 -73q-20 -156 -150.5 -266t-289.5 -110h-37q-163 0 -261 110q-80 89 -79 208 q0 28 4 58z" />
<glyph unicode="T" d="M324 1270l22 164h787l-23 -164h-305l-178 -1270h-178l178 1270h-303z" />
<glyph unicode="U" d="M190 358l152 1076h174l-151 -1078q-2 -16 -2 -31q0 -69 45 -121q55 -62 147 -63h23q92 0 163.5 61.5t85.5 151.5l152 1080h176l-151 -1078q-23 -158 -152 -267t-291 -109h-35q-162 0 -260 110q-80 90 -80 212q0 27 4 56z" />
<glyph unicode="V" d="M252 821l86 613h172l-82 -592l107 -680h38l297 680l82 592h174l-84 -609l-364 -825h-293z" />
<glyph unicode="W" d="M209 0l35 823l86 611h174l-84 -596l-47 -672h33l135 536h237l-18 -536h33l143 672l84 596h176l-86 -611l-197 -823h-288l20 506h-24l-121 -506h-291z" />
<glyph unicode="X" d="M96 0l465 745l-237 689h190l166 -508l311 508h189l-430 -689l258 -745h-189l-188 563l-346 -563h-189z" />
<glyph unicode="Y" d="M262 1434h191l196 -539l346 539h193l-481 -756l-95 -678h-178l94 678z" />
<glyph unicode="Z" d="M166 0l24 172l742 1100h-557l22 162h762l-24 -172l-744 -1100h588l-23 -162h-790z" />
<glyph unicode="[" d="M322 -367l253 1801h404l-25 -166h-233l-207 -1473h234l-23 -162h-403z" />
<glyph unicode="\" d="M342 1434h170l446 -1803h-172z" />
<glyph unicode="]" d="M322 -367l22 162h234l206 1473h-233l24 166h404l-254 -1801h-403z" />
<glyph unicode="^" d="M276 676l396 756h139l182 -756h-151l-135 541l-279 -541h-152z" />
<glyph unicode="_" d="M-66 -291l21 137h1231l-21 -137h-1231z" />
<glyph unicode="`" d="M410 1454h233l217 -303h-182z" />
<glyph unicode="a" d="M221 311l58 402q20 141 134.5 236t272.5 95h5q191 0 351 -69l-106 -752q-4 -29 13.5 -50t45.5 -21h21l-21 -152h-20q-121 0 -176 102q-108 -122 -260 -122h-2q-158 0 -246 96q-73 80 -73 189q0 22 3 46zM383 324q-2 -13 -2 -25q0 -63 43 -111q51 -58 135 -58.5t152.5 58 t79.5 136.5l75 534q-80 37 -202 37q-82 0 -150 -58.5t-78 -136.5z" />
<glyph unicode="b" d="M172 49l195 1385h163l-67 -473q29 31 105.5 57t140.5 26q164 0 264 -97q83 -81 83 -189q0 -22 -3 -45l-56 -402q-20 -139 -147 -235t-291 -96h-6q-221 0 -381 69zM352 166q80 -37 228 -37q86 0 165 59.5t89 135.5l53 376q1 10 1 21q0 65 -54 115q-62 60 -148 59 q-88 0 -169 -59.5t-91 -135.5z" />
<glyph unicode="c" d="M240 358l43 312q23 158 151.5 267.5t290.5 109.5h35q160 1 250 -105q72 -84 71 -199q0 -29 -4 -61h-168q2 18 2 35q0 67 -38 117q-48 62 -142 63h-22q-96 0 -171 -64.5t-89 -156.5l-46 -328q-3 -18 -2 -35q1 -71 47 -123q58 -66 154 -65h12q96 0 170 63.5t86 151.5h168 q-20 -145 -149 -252.5t-289 -107.5h-25q-162 0 -260 110q-79 89 -79 210q0 28 4 58z" />
<glyph unicode="d" d="M135 356l43 314q23 158 152 267.5t291 109.5h24q139 0 225 -97l70 484h158l-203 -1434h-154l11 72q-104 -92 -252 -92h-29q-162 0 -260 110q-80 90 -80 211q0 27 4 55zM301 346q-2 -16 -2 -32q0 -72 46 -124q56 -64 153 -65h22q96 0 172 65.5t88 157.5l47 328q2 16 2 31 q0 71 -47 125q-57 64 -153 65h-23q-96 0 -171 -64.5t-87 -156.5z" />
<glyph unicode="e" d="M244 311l57 402q18 137 144 234t290 97h27q125 0 219 -92q80 -79 80 -175q0 -16 -2 -34l-4 -30q-29 -195 -277 -271l-368 -116v-9q-1 -11 -1 -22q0 -63 50 -110q59 -56 145 -56q74 0 146.5 11.5t109.5 23.5l37 12l-23 -164q-125 -32 -279 -32h-9q-164 0 -264 96 q-82 79 -82 188q0 23 4 47zM434 492l330 110q123 41 131 98l4 25q1 8 1 16q0 55 -49 101q-56 54 -126 53h-14q-86 0 -162 -59.5t-86 -135.5z" />
<glyph unicode="f" d="M332 877l20 147h228l12 84q20 141 137 243.5t264 102.5h25q74 0 131 -17.5t80 -35.5l20 -17l-108 -122q-41 43 -152 43h-12q-80 0 -143.5 -56.5t-73.5 -134.5l-12 -90h382l-20 -147h-383l-172 -1246h-168l172 1246h-227z" />
<glyph unicode="g" d="M186 -168q0 70 39 134.5t105 101.5l108 43v8q-102 2 -165.5 83t-63.5 177q0 16 4 45l41 289q20 139 145 235t289 96q217 0 379 -69l-145 -1034q-20 -141 -140 -235.5t-290 -94.5q-131 0 -218.5 60.5t-87.5 160.5zM352 -139q0 -41 42 -72t106 -31h12q90 0 164 58.5 t84 136.5l31 225q-27 -33 -76 -57l-301 -158q-61 -41 -62 -102zM377 416q0 -70 60.5 -122t140.5 -52q86 0 162.5 59t86.5 135l60 422q-82 37 -219 37q-86 0 -164 -59.5t-88 -135.5l-37 -264q-2 -6 -2 -20z" />
<glyph unicode="h" d="M160 0l200 1434h164l-67 -490q119 100 274 100q168 0 261 -108q75 -88 75 -208q0 -28 -4 -58l-94 -670h-166l94 676q3 18 3 36q0 68 -45 120q-56 64 -154.5 64.5t-184.5 -66t-96 -144.5l-96 -686h-164z" />
<glyph unicode="i" d="M209 0l20 147h349l102 730h-348l20 147h512l-123 -877h314l-21 -147h-825zM713 1251l24 183h189l-25 -183h-188z" />
<glyph unicode="j" d="M102 -164q0 70 41 136.5t107 101.5l379 202q90 49 123 76l69 522h-385l21 150h553l-154 -1083q-20 -139 -144 -234.5t-294 -95.5q-133 0 -224.5 61.5t-91.5 163.5zM270 -137q0 -41 46 -73t110 -32h12q92 0 168 58.5t86 136.5l31 223q-18 -20 -76 -49l-317 -164 q-25 -12 -42.5 -40.5t-17.5 -59.5zM870 1251l27 183h184l-26 -183h-185z" />
<glyph unicode="k" d="M236 0l200 1434h164l-201 -1434h-163zM475 541l514 483h209l-524 -485l403 -539h-209z" />
<glyph unicode="l" d="M211 0l20 147h316l160 1139h-258l20 148h422l-180 -1287h327l-20 -147h-807z" />
<glyph unicode="m" d="M49 0l144 1024h159l-10 -76q76 92 184 92q53 0 88 -19.5t46.5 -38.5t25.5 -56q99 114 223 114h2q115 0 169 -76q39 -56 39 -137q0 -28 -5 -59l-106 -768h-166l110 786q1 8 1 16q1 34 -21 61q-26 34 -64 34q-63 0 -103 -48t-50 -122l-103 -727h-159l110 786q1 9 1 17 q0 35 -20 61q-26 33 -73 33q-61 0 -103 -49t-53 -121l-102 -727h-164z" />
<glyph unicode="n" d="M150 0l143 1024h160l-13 -84q117 104 279 104q168 0 262 -108q76 -88 76 -208q0 -28 -4 -58l-95 -670h-165l94 676q2 17 2 32q1 74 -45 126q-56 64 -154 63.5t-184 -67t-96 -144.5l-97 -686h-163z" />
<glyph unicode="o" d="M217 358l43 312q23 158 152 267.5t290 109.5h35q163 1 261 -109q80 -89 79 -210q0 -28 -4 -58l-45 -314q-20 -156 -149 -266t-291 -110h-35q-162 0 -260 110q-80 90 -80 212q0 27 4 56zM381 348q-3 -18 -3 -35q0 -71 47 -123q58 -66 155 -65h22q96 0 170 64.5t88 156.5 l45 330q2 16 2 32q0 72 -46 124q-56 64 -152 65h-23q-96 0 -171 -64.5t-89 -156.5z" />
<glyph unicode="p" d="M133 -369l195 1393h153l-10 -72q106 92 254 92h29q162 0 259 -110q80 -90 80 -212q0 -26 -3 -52l-46 -314q-20 -156 -150 -267.5t-292 -111.5h-24q-135 0 -226 97l-61 -443h-158zM397 348q-3 -18 -3 -35q0 -69 48 -121q58 -65 154 -65h22q96 0 170.5 64.5t88.5 156.5 l45 330q2 16 2 32q0 71 -46 124q-55 65 -151 65h-22q-96 0 -172 -65.5t-91 -157.5z" />
<glyph unicode="q" d="M176 309l57 402q18 139 145.5 235t291.5 96h6q217 0 381 -69l-189 -1342h-163l59 430q-27 -31 -104.5 -57.5t-141.5 -26.5q-164 0 -262 97q-83 83 -83 193q0 21 3 42zM342 322q-1 -10 -1 -21q0 -63 53 -115q63 -59 149 -59q88 0 168 59.5t90 135.5l76 534q-82 37 -230 37 q-86 0 -164 -59.5t-88 -135.5z" />
<glyph unicode="r" d="M100 0l21 147h215l123 877h159l-12 -88q94 108 241.5 108t219.5 -100q58 -81 58 -170q0 -21 -3 -43h-166q2 14 2 27q0 51 -30 90q-38 49 -107 49q-86 0 -160.5 -61.5t-85.5 -139.5l-75 -549h428l-21 -147h-807z" />
<glyph unicode="s" d="M215 299l4 25h164l-2 -19q-2 -12 -2 -24q0 -57 40 -101q48 -53 126 -53h37q72 0 129 44t65 108q1 8 1 16q0 48 -41 84q-48 41 -121.5 68.5t-146.5 60.5q-73 32 -118 96q-36 50 -36 119q0 18 3 37q18 125 124 204.5t243 79.5h39q153 0 229 -100q62 -83 63 -174 q0 -19 -3 -39h-170q2 12 2 24q0 51 -35 92q-43 50 -109 50h-38q-61 0 -111.5 -36t-58.5 -89q-1 -7 -1 -14q1 -38 29 -69q34 -36 89 -55.5t118.5 -49t116.5 -62.5q52 -34 82 -98q21 -46 21 -102q0 -23 -3 -48q-16 -121 -131 -207.5t-250 -86.5h-45q-150 0 -236 96 q-71 79 -70 180q0 21 3 43z" />
<glyph unicode="t" d="M213 877l20 147h189l41 291h166l-41 -291h520l-21 -147h-520l-80 -555q-2 -14 -2 -27q0 -61 39 -109q47 -58 129 -59h21q76 0 139.5 58.5t73.5 136.5h168q-20 -152 -129 -248.5t-279 -96.5h-20q-161 -1 -243 95q-65 77 -66 183q0 26 4 54l79 568h-188z" />
<glyph unicode="u" d="M166 354l94 670h166l-96 -676q-2 -17 -3 -33q0 -73 46 -125q55 -64 153.5 -63.5t184.5 67t96 144.5l98 686h164l-145 -1024h-160l12 84q-117 -104 -278 -104q-168 0 -262 108q-75 87 -75 206q0 29 5 60z" />
<glyph unicode="v" d="M266 289l103 735h159l-102 -733q-1 -11 -1 -21q0 -53 34 -93q41 -48 96 -48q102 0 190.5 91t106.5 224l39 285q2 18 2 35q-1 50 -23 81q-30 42 -84 42l23 155q111 0 187 -82q62 -66 62 -169q0 -24 -3 -50l-41 -295q-27 -184 -162 -325t-317 -141q-129 0 -208 89 q-64 72 -64 173q0 23 3 47z" />
<glyph unicode="w" d="M86 289l102 735h158l-102 -733q-3 -19 -3 -37q-1 -46 19 -79q26 -46 80 -46q172 0 215 301l82 594h156l-103 -733q-3 -19 -3 -37q-1 -46 19 -79q26 -46 78 -46q176 0 220 315l38 285q3 19 3 35q-1 49 -23 81q-30 42 -80 42l23 155q105 0 181 -82q61 -66 62 -168 q0 -24 -4 -51l-41 -295q-27 -199 -127 -332.5t-272 -133.5q-74 0 -119 31.5t-84 97.5q-59 -68 -110.5 -98.5t-131.5 -30.5q-125 0 -188 87q-49 68 -49 164q0 28 4 58z" />
<glyph unicode="x" d="M127 0l395 524l-241 500h188l172 -356l268 356h191l-383 -500l250 -524h-187l-180 379l-287 -379h-186z" />
<glyph unicode="y" d="M186 -135q20 137 142 203l108 43l2 8h-14q-33 0 -51 8q-86 41 -130 120q-33 60 -33 131q0 22 3 46l84 600h164l-82 -588q-1 -11 -1 -21q0 -63 51 -114q60 -59 146.5 -59t164 59t87.5 135l82 588h164l-151 -1083q-20 -141 -141.5 -235.5t-291.5 -94.5q-141 0 -229 71 q-76 60 -76 153q0 14 2 30zM352 -129q-1 -5 -1 -10q0 -37 38 -68q43 -35 109 -35h12q90 0 164 58.5t84 136.5l33 225q-25 -27 -78 -57l-301 -158q-51 -37 -60 -92z" />
<glyph unicode="z" d="M184 -135q21 135 146 209l393 211q-38 30 -123 30h-6h-213l22 154l422 408h-495l20 147h694l-22 -158l-399 -401q164 -1 261 -99q82 -82 82 -192q0 -20 -3 -41l-27 -192q-20 -139 -144 -234.5t-294 -95.5q-140 1 -234 71q-81 61 -82 154q0 14 2 29zM350 -129 q-1 -5 -1 -10q0 -37 42 -68q47 -35 115 -35h12q92 0 168 58.5t86 136.5l33 225q-12 -14 -78 -51l-317 -164q-53 -39 -60 -92z" />
<glyph unicode="{" d="M385 467l23 154q45 0 81.5 26.5t40.5 61.5l52 370q20 156 153 266.5t301 110.5l-22 -166q-98 0 -173 -61.5t-87 -151.5l-49 -348q-16 -119 -146 -188q111 -66 94 -187l-53 -366q-12 -92 45.5 -153.5t155.5 -61.5l-23 -162q-168 0 -269 110.5t-79 268.5l53 387 q4 37 -24.5 63.5t-73.5 26.5z" />
<glyph unicode="|" d="M444 -369l254 1803h160l-254 -1803h-160z" />
<glyph unicode="}" d="M266 -389l23 162q98 0 172 61.5t86 153.5l53 366q16 121 143 187q-109 72 -92 188l49 348q12 90 -44 151.5t-154 61.5l22 166q168 0 269.5 -109.5t78.5 -267.5l-51 -370q-4 -35 24.5 -61.5t74.5 -26.5l-23 -154q-45 0 -82 -27.5t-41 -62.5l-53 -387q-23 -158 -155 -268.5 t-300 -110.5z" />
<glyph unicode="~" d="M158 479q27 100 115.5 177t199.5 77q74 0 203 -57.5t186 -57.5q45 0 81 31t52 68h158q-31 -100 -117 -177t-194 -77q-80 0 -213 57.5t-176 57.5q-45 0 -82.5 -30t-57.5 -69h-155z" />
<glyph unicode="&#xa0;" />
<glyph unicode="&#xa1;" d="M453 -393l151 1079h166l-152 -1079h-165zM606 823l29 201h201l-29 -201h-201z" />
<glyph unicode="&#xa2;" d="M252 330l51 372q16 123 113.5 214.5t238.5 111.5l15 96h164l-15 -102q115 -29 174.5 -119t42.5 -209h-162q10 82 -38 138.5t-131 56.5q-86 0 -158 -60.5t-82 -138.5l-49 -352q-10 -78 43 -136.5t141 -58.5q84 0 152.5 59.5t81.5 143.5h163q-18 -129 -105 -222t-216 -120 l-14 -104h-164l14 100q-137 18 -208 110.5t-52 219.5z" />
<glyph unicode="&#xa3;" d="M225 0l23 166h57l57 412h-124l22 161h125l55 381q18 137 132 234.5t257 97.5q141 0 228.5 -97.5t68.5 -234.5l-12 -80h-176l12 90q8 66 -32.5 113t-106.5 47q-72 0 -127 -47t-66 -113l-55 -391h258l-22 -161h-258l-58 -412h506l-22 -166h-742z" />
<glyph unicode="&#xa4;" d="M152 258l108 98q-57 113 -39 240q18 129 111 246l-86 98l131 115l86 -99q125 74 254 74q125 0 231 -74l111 99l100 -115l-110 -98q57 -113 38 -246q-18 -129 -106 -240l84 -98l-133 -117l-86 97q-121 -74 -252 -74t-234 74l-110 -97zM381 598q-17 -112 53 -192 q68 -80 182 -80q111 0 202 80.5t107.5 191.5t-52 191.5t-179 80.5t-205 -80.5t-108.5 -191.5z" />
<glyph unicode="&#xa5;" d="M211 397l22 160h320l16 119l-6 24h-309l22 162h236l-182 572h186l168 -560l330 560h184l-342 -572h234l-23 -162h-309l-13 -20l-18 -123h320l-23 -160h-319l-56 -397h-174l55 397h-319z" />
<glyph unicode="&#xa6;" d="M444 -369l105 742h160l-105 -742h-160zM594 690l104 746h160l-104 -746h-160z" />
<glyph unicode="&#xa7;" d="M268 299h168q-18 -154 137 -154h11q76 0 116.5 34t49.5 77q8 51 -42.5 94t-125 79t-147.5 79t-118 116.5t-30 172.5q18 139 137 231q-35 59 -21 150q16 119 112.5 196.5t252.5 77.5h14q164 0 230.5 -85t46.5 -232h-170q18 152 -137 151h-9q-78 0 -118.5 -33.5 t-46.5 -76.5q-8 -51 42 -94.5t124.5 -79t147.5 -78.5t119 -117t31 -170q-20 -135 -139 -234q33 -74 21 -149q-16 -117 -112.5 -195.5t-250.5 -78.5h-14q-164 0 -231.5 86t-47.5 233zM459 811q-10 -68 39 -115t156.5 -100t144.5 -80q61 44 69 105q6 51 -27.5 95t-79.5 69.5 t-121 65.5t-114 67q-59 -41 -67 -107z" />
<glyph unicode="&#xa8;" d="M430 1251l27 183h182l-27 -183h-182zM776 1251l27 183h182l-27 -183h-182z" />
<glyph unicode="&#xa9;" d="M186 711l39 278q27 190 179.5 326.5t334.5 136.5h35q182 0 296 -136t87 -327l-39 -278q-27 -190 -179.5 -326.5t-334.5 -136.5h-35q-182 0 -295.5 136t-87.5 327zM297 698q-20 -139 68 -241.5t221 -102.5h35q133 0 246.5 102.5t133.5 241.5l43 306q20 139 -65.5 240.5 t-218.5 101.5h-35q-133 0 -249 -101.5t-136 -240.5zM438 719l39 274q10 88 81 150.5t171 62.5q90 0 140.5 -68.5t35.5 -166.5h-114q8 51 -14.5 82.5t-63.5 31.5q-45 0 -82 -33.5t-43 -78.5l-33 -236q-6 -43 20.5 -76.5t71.5 -33.5q41 0 77 32.5t42 81.5h115 q-14 -100 -84 -168.5t-166 -68.5q-100 0 -153.5 61.5t-39.5 153.5z" />
<glyph unicode="&#xaa;" d="M377 578l16 118h506l-16 -118h-506zM420 997q12 84 91 141.5t181 67.5l142 13l2 14q6 39 -19.5 70.5t-73.5 31.5q-84 0 -110 -78h-144q27 96 97.5 146.5t173.5 50.5q115 0 172 -60.5t45 -154.5l-64 -440h-135l6 41q-59 -53 -157 -54q-96 2 -157.5 61.5t-49.5 149.5z M557 999q-4 -37 23.5 -64.5t78.5 -27.5q49 0 94.5 28t49.5 58l14 105l-135 -13q-47 -4 -83 -27.5t-42 -58.5z" />
<glyph unicode="&#xab;" d="M250 596l295 326h190l-297 -326l209 -324h-192zM616 596l295 326h191l-297 -326l209 -324h-193z" />
<glyph unicode="&#xac;" d="M215 690l25 164h907l-82 -573h-164l57 409h-743z" />
<glyph unicode="&#xad;" />
<glyph unicode="&#xae;" d="M186 713l39 278q27 190 179.5 326.5t334.5 136.5h35q182 0 296 -136t87 -327l-39 -278q-27 -190 -179.5 -326.5t-334.5 -136.5h-35q-182 0 -295.5 136t-87.5 327zM297 700q-18 -139 69 -241.5t220 -102.5h35q133 0 247.5 102.5t132.5 241.5l43 306q20 139 -65.5 240.5 t-218.5 101.5h-35q-133 0 -249 -101.5t-136 -240.5zM440 530l92 662h228q63 0 103 -50t32 -116l-14 -102q-6 -41 -33 -82t-62 -64l72 -248h-125l-63 224h-84l-31 -224h-115zM598 864h113q18 0 33.5 13.5t17.5 31.5l14 111q2 18 -10 32.5t-29 14.5h-112z" />
<glyph unicode="&#xaf;" d="M385 1223l21 151h618l-20 -151h-619z" />
<glyph unicode="&#xb0;" d="M395.5 1157q16.5 123 117.5 211t224 88t198 -88t58.5 -211t-117 -211t-223.5 -88t-198.5 88t-59 211zM528.5 1157.5q-10.5 -67.5 31.5 -117t110 -49.5q70 0 124 49.5t64 117t-32 116.5t-109.5 49t-122.5 -49t-65.5 -116.5z" />
<glyph unicode="&#xb1;" d="M123 139l22 162h936l-22 -162h-936zM190 621l23 161h383l37 262h168l-37 -262h383l-23 -161h-383l-36 -261h-168l36 261h-383z" />
<glyph unicode="&#xb2;" d="M397 662l15 100q10 74 52 136.5t94 104t104.5 79.5t91.5 79t45 84q4 33 -14.5 55.5t-51.5 22.5q-41 0 -70.5 -31t-37.5 -84h-142q16 113 93 179.5t176 66.5q92 0 151.5 -61.5t44.5 -155.5q-10 -70 -65.5 -134.5t-118 -105.5t-121.5 -96t-76 -108h320l-19 -131h-471z" />
<glyph unicode="&#xb3;" d="M428 868l4 23h148l-5 -23q-4 -35 16.5 -60.5t57.5 -25.5t64.5 26t31.5 60l21 133q4 27 -9.5 44.5t-39.5 17.5h-107l17 115l112 122h-209l19 134h403l-14 -107l-131 -143q51 -23 83 -73t23 -110l-20 -133q-12 -88 -89 -153.5t-167 -65.5h-12q-94 0 -151.5 63.5 t-45.5 155.5z" />
<glyph unicode="&#xb4;" d="M436 1151l303 303h234l-355 -303h-182z" />
<glyph unicode="&#xb5;" d="M129 -369l197 1393h159l-98 -698q-12 -82 36 -140.5t126 -58.5q86 0 159.5 57.5t84.5 134.5l100 705h160l-115 -813q-2 -25 16.5 -42t44.5 -17h21l-23 -152h-20q-115 0 -178 100q-111 -121 -285 -120q-106 0 -168 69l-59 -418h-158z" />
<glyph unicode="&#xb6;" d="M317 1032q23 166 159 283t306 117h398l-254 -1801h-160l231 1649h-127l-231 -1649h-160l142 1008q-147 25 -235.5 133.5t-68.5 259.5z" />
<glyph unicode="&#xb7;" d="M541 496l28 200h201l-29 -200h-200z" />
<glyph unicode="&#xb8;" d="M424 -369l14 107h123q18 0 32.5 15.5t16.5 33.5q4 16 -7 31.5t-30 15.5h-102l25 166h118l-8 -57q66 0 108 -46.5t34 -109.5q-8 -66 -62.5 -111t-120.5 -45h-141z" />
<glyph unicode="&#xb9;" d="M588 1309l18 125h268l-108 -772h-143l90 647h-125z" />
<glyph unicode="&#xba;" d="M399 578l17 118h458l-16 -118h-459zM444 1001l35 238q12 92 88 153.5t181 61.5q102 0 159 -61.5t45 -153.5l-34 -238q-12 -92 -86 -153.5t-177 -61.5q-104 0 -163.5 61.5t-47.5 153.5zM578 1001q-4 -37 23.5 -67.5t70.5 -30.5t79 30.5t40 67.5l34 238q4 37 -23.5 65.5 t-72.5 28.5q-43 0 -78 -28.5t-39 -65.5z" />
<glyph unicode="&#xbb;" d="M205 272l299 324l-207 326h190l205 -326l-295 -324h-192zM571 272l299 324l-206 326h190l205 -326l-295 -324h-193z" />
<glyph unicode="&#xbc;" d="M133 2l928 1430h108l-925 -1430h-111zM272 1309l17 125h268l-108 -772h-144l92 647h-125zM537 156l14 106l311 502h146l-293 -475h153l23 170h143l-22 -170h67l-18 -133h-68l-22 -154h-144l23 154h-313z" />
<glyph unicode="&#xbd;" d="M84 2l928 1430h108l-925 -1430h-111zM266 1309l17 125h268l-109 -772h-143l92 647h-125zM573 0l15 100q10 74 52 136.5t94 104.5t104.5 80t91.5 79t45 84q4 33 -14.5 55.5t-51.5 22.5q-41 0 -70.5 -31t-37.5 -84h-142q16 113 93 179.5t176 66.5q92 0 151.5 -61.5 t44.5 -156.5q-10 -70 -65 -134t-117.5 -105t-122 -96.5t-76.5 -108.5h320l-19 -131h-471z" />
<glyph unicode="&#xbe;" d="M182 2l928 1430h109l-926 -1430h-111zM182 868l4 23h148l-4 -23q-4 -35 17.5 -60.5t58 -25.5t63.5 24.5t31 61.5l20 133q4 27 -9 44.5t-40 17.5h-106l16 115l113 122h-209l18 134h404l-15 -107l-131 -143q51 -23 83 -73t24 -110l-21 -133q-12 -88 -89 -153.5t-167 -65.5 h-12q-94 0 -151.5 63.5t-45.5 155.5zM563 156l15 106l311 502h145l-293 -475h154l23 170h143l-23 -170h68l-19 -133h-67l-23 -154h-143l23 154h-314z" />
<glyph unicode="&#xbf;" d="M199 -53q14 106 59 182t99.5 125t109.5 99t101 133t63 200h170q-18 -135 -65.5 -234.5t-102.5 -155.5t-109.5 -103.5t-96.5 -110t-54 -145.5q-12 -86 41 -142.5t141 -56.5q94 0 163 60.5t83 160.5h170q-25 -176 -150 -281.5t-289 -105.5q-166 0 -262 103.5t-71 271.5z M633 821l29 203h206l-28 -203h-207z" />
<glyph unicode="&#xc0;" d="M168 0l86 612l362 822h293l131 -826l-84 -608h-174l64 457h-443l-63 -457h-172zM434 616h430l-104 656h-39zM498 1864h233l219 -303h-182z" />
<glyph unicode="&#xc1;" d="M168 0l86 612l362 822h293l131 -826l-84 -608h-174l64 457h-443l-63 -457h-172zM434 616h430l-104 656h-39zM618 1561l302 303h233l-352 -303h-183z" />
<glyph unicode="&#xc2;" d="M168 0l86 612l362 822h293l131 -826l-84 -608h-174l64 457h-443l-63 -457h-172zM434 616h430l-104 656h-39zM483 1563l258 301h156l180 -301h-149l-131 153l-166 -153h-148z" />
<glyph unicode="&#xc3;" d="M168 0l86 612l364 822h293l131 -826l-86 -608h-174l66 457h-442l-66 -457h-172zM436 616h430l-104 656h-39zM467 1589q12 84 83 156t148 72q51 0 127 -45.5t105 -45.5q20 0 36.5 26t20.5 52h148q-10 -84 -79 -155.5t-147 -71.5q-53 0 -128.5 45t-102.5 45q-45 0 -68 -78 h-143z" />
<glyph unicode="&#xc4;" d="M168 0l86 612l362 822h293l133 -826l-86 -608h-174l64 457h-443l-63 -457h-172zM434 616h430l-104 656h-39zM530 1661l25 182h182l-24 -182h-183zM877 1661l24 182h182l-24 -182h-182z" />
<glyph unicode="&#xc5;" d="M168 0l86 612l362 822h293l131 -826l-84 -608h-174l64 457h-443l-63 -457h-172zM434 616h430l-104 656h-39zM637 1700q10 70 62.5 117t120 47t109.5 -48.5t32 -115.5q-8 -68 -63.5 -115t-123 -47t-107.5 47t-30 115zM737 1702q-4 -25 10.5 -42.5t41 -17.5t46 17.5 t23.5 42.5q4 27 -10 44t-41 17t-46.5 -17t-23.5 -44z" />
<glyph unicode="&#xc6;" d="M55 0l86 612l365 822h686l-23 -162h-329l-62 -436h281l-23 -160h-280l-72 -514h336l-23 -162h-512l64 457h-256l-64 -457h-174zM324 616h247l93 656h-56z" />
<glyph unicode="&#xc7;" horiz-adv-x="1230" d="M221 358l103 719q23 158 151.5 267.5t290.5 109.5h10q162 0 259.5 -110.5t74.5 -268.5h-172q12 88 -44 150.5t-146 62.5q-94 0 -166 -61.5t-84 -151.5l-103 -719q-12 -90 43.5 -152.5t149.5 -62.5q90 0 162.5 62.5t85.5 150.5l6 43h172l-6 -41q-20 -141 -128 -246.5 t-253 -125.5l-6 -41q66 0 107.5 -46.5t33.5 -109.5q-8 -66 -62.5 -111t-119.5 -45h-142l15 107h122q18 0 33 15.5t17 33.5q4 16 -7.5 31.5t-29.5 15.5h-103l23 150q-143 16 -225 123.5t-62 250.5z" />
<glyph unicode="&#xc8;" d="M205 0l201 1434h700l-23 -162h-528l-61 -436h479l-23 -160h-479l-72 -514h545l-22 -162h-717zM479 1864h234l219 -303h-182z" />
<glyph unicode="&#xc9;" d="M205 0l201 1434h700l-23 -162h-528l-61 -436h479l-23 -160h-479l-72 -514h545l-22 -162h-717zM608 1561l301 303h234l-352 -303h-183z" />
<glyph unicode="&#xca;" d="M205 0l201 1434h700l-23 -162h-528l-61 -436h479l-23 -160h-479l-72 -514h545l-22 -162h-717zM459 1563l258 301h155l181 -301h-150l-131 153l-166 -153h-147z" />
<glyph unicode="&#xcb;" d="M205 0l201 1434h700l-23 -162h-528l-61 -436h479l-23 -160h-479l-72 -514h545l-22 -162h-717zM526 1661l25 182h182l-24 -182h-183zM872 1661l25 182h182l-24 -182h-183z" />
<glyph unicode="&#xcc;" d="M154 0l20 160h309l158 1114h-309l22 160h791l-23 -160h-309l-158 -1114h310l-21 -160h-790zM446 1864h234l219 -303h-182z" />
<glyph unicode="&#xcd;" d="M154 0l20 160h309l158 1114h-309l22 160h791l-23 -160h-309l-158 -1114h310l-21 -160h-790zM639 1561l301 303h234l-353 -303h-182z" />
<glyph unicode="&#xce;" d="M154 0l20 160h309l158 1114h-309l22 160h791l-23 -160h-309l-158 -1114h310l-21 -160h-790zM471 1563l258 301h156l180 -301h-150l-131 153l-166 -153h-147z" />
<glyph unicode="&#xcf;" d="M154 0l22 160h309l156 1114h-309l22 160h791l-23 -160h-309l-156 -1114h310l-23 -160h-790zM518 1661l25 182h182l-25 -182h-182zM864 1661l25 182h182l-24 -182h-183z" />
<glyph unicode="&#xd0;" d="M182 676l23 160h123l84 598h379q162 0 260 -110.5t75 -266.5l-94 -680q-23 -158 -151.5 -267.5t-290.5 -109.5h-379l94 676h-123zM408 162h198q94 0 165 61.5t85 151.5l94 682q12 90 -41 152.5t-147 62.5h-199l-61 -436h215l-23 -160h-215z" />
<glyph unicode="&#xd1;" d="M168 0l201 1434h192l250 -1006l20 -123h9l6 131l139 998h172l-201 -1434h-192l-250 999l-20 125h-9l-6 -135l-139 -989h-172zM430 1589q12 84 83 156t149 72q51 0 126.5 -45.5t104.5 -45.5q20 0 36.5 26t20.5 52h148q-12 -86 -82 -156.5t-146 -70.5q-53 0 -127.5 45 t-101.5 45q-45 0 -68 -78h-143z" />
<glyph unicode="&#xd2;" d="M207 358l102 719q23 158 152 267.5t291 109.5h34q162 0 260.5 -109.5t75.5 -267.5l-102 -721q-20 -156 -150.5 -266t-291.5 -110h-35q-162 0 -260.5 110.5t-75.5 267.5zM381 356q-12 -90 43 -152.5t149 -62.5h23q92 0 164 61.5t84 151.5l102 721q12 90 -42 151.5 t-148 61.5h-23q-94 0 -165.5 -61.5t-84.5 -151.5zM492 1864h233l217 -303h-182z" />
<glyph unicode="&#xd3;" d="M207 358l102 719q23 158 152 267.5t291 109.5h34q162 0 260.5 -109.5t75.5 -267.5l-102 -721q-20 -156 -150.5 -266t-291.5 -110h-35q-162 0 -260.5 110.5t-75.5 267.5zM381 356q-12 -90 43 -152.5t149 -62.5h23q92 0 164 61.5t84 151.5l102 721q12 90 -42 151.5 t-148 61.5h-23q-94 0 -165.5 -61.5t-84.5 -151.5zM623 1561l303 303h233l-354 -303h-182z" />
<glyph unicode="&#xd4;" d="M207 358l102 719q23 158 152 267.5t291 109.5h34q162 0 260.5 -109.5t75.5 -267.5l-102 -721q-20 -156 -150.5 -266t-291.5 -110h-35q-162 0 -260.5 110.5t-75.5 267.5zM381 356q-12 -90 43 -152.5t149 -62.5h23q92 0 164 61.5t84 151.5l102 721q12 90 -42 151.5 t-148 61.5h-23q-94 0 -165.5 -61.5t-84.5 -151.5zM485 1563l260 301h156l178 -301h-149l-129 153l-168 -153h-148z" />
<glyph unicode="&#xd5;" d="M207 358l102 719q23 158 152 267.5t291 109.5h34q162 0 260.5 -109.5t75.5 -267.5l-102 -721q-20 -156 -150.5 -266t-291.5 -110h-35q-162 0 -260.5 110.5t-75.5 267.5zM381 356q-12 -90 43 -152.5t147 -62.5h23q94 0 166 61.5t84 151.5l102 721q12 90 -42 151.5 t-148 61.5h-23q-94 0 -165.5 -61.5t-84.5 -151.5zM469 1589q10 84 81 156t148 72q51 0 127 -45.5t105 -45.5q20 0 36.5 26t22.5 52h148q-12 -86 -82 -156.5t-146 -70.5q-53 0 -128.5 45t-102.5 45q-23 0 -41.5 -23.5t-24.5 -54.5h-143z" />
<glyph unicode="&#xd6;" d="M207 358l100 719q23 158 152 267.5t291 109.5h34q162 0 260.5 -109.5t75.5 -267.5l-100 -721q-23 -158 -152 -267t-290 -109h-35q-162 0 -260.5 110.5t-75.5 267.5zM381 356q-12 -90 43 -152.5t147 -62.5h23q92 0 164 61.5t86 151.5l100 721q12 90 -42 151.5t-146 61.5 h-23q-94 0 -166.5 -61.5t-85.5 -151.5zM528 1661l27 182h182l-26 -182h-183zM874 1661l27 182h182l-26 -182h-183z" />
<glyph unicode="&#xd7;" d="M219 315l320 281l-242 285l131 114l244 -282l321 282l99 -114l-322 -285l244 -281l-131 -116l-244 284l-320 -282z" />
<glyph unicode="&#xd8;" d="M156 0l86 145q-53 94 -35 213l100 719q23 158 152 267.5t291 109.5h34q109 0 193 -55l20 35h172l-86 -148q51 -94 37 -209l-102 -721q-20 -156 -150.5 -266t-292.5 -110h-34q-109 0 -197 55l-18 -35h-170zM381 362l35 82l469 797q-53 47 -131 47h-23q-94 0 -166 -61.5 t-84 -151.5zM436 188q57 -47 135 -47h23q92 0 164 61.5t84 151.5l102 721l-31 -76z" />
<glyph unicode="&#xd9;" d="M190 358l152 1076h174l-151 -1078q-12 -90 43 -152.5t149 -62.5h23q92 0 163.5 61.5t83.5 151.5l152 1080h176l-151 -1078q-20 -156 -150.5 -266t-292.5 -110h-35q-162 0 -260 110.5t-76 267.5zM483 1864h234l217 -303h-182z" />
<glyph unicode="&#xda;" d="M190 358l152 1076h174l-151 -1078q-12 -90 43 -152.5t149 -62.5h23q92 0 163.5 61.5t83.5 151.5l152 1080h176l-151 -1078q-20 -156 -150.5 -266t-292.5 -110h-35q-162 0 -260 110.5t-76 267.5zM594 1561l303 303h233l-354 -303h-182z" />
<glyph unicode="&#xdb;" d="M190 358l152 1076h174l-151 -1078q-12 -90 43 -152.5t149 -62.5h23q92 0 163.5 61.5t83.5 151.5l152 1080h176l-151 -1078q-20 -156 -150.5 -266t-292.5 -110h-35q-162 0 -260 110.5t-76 267.5zM469 1563l260 301h156l178 -301h-150l-129 153l-168 -153h-147z" />
<glyph unicode="&#xdc;" d="M193 358l151 1076h174l-151 -1078q-12 -90 43 -152.5t147 -62.5h23q92 0 163.5 61.5t85.5 151.5l152 1080h176l-151 -1078q-23 -158 -152 -267t-291 -109h-35q-162 0 -260 110.5t-75 267.5zM516 1661l27 182h182l-27 -182h-182zM862 1661l27 182h182l-27 -182h-182z" />
<glyph unicode="&#xdd;" d="M262 1434h191l196 -539l346 539h193l-481 -756l-95 -678h-178l94 678zM584 1561l301 303h233l-352 -303h-182z" />
<glyph unicode="&#xde;" d="M203 0l200 1434h172l-28 -207h219q137 0 219 -93.5t64 -226.5l-41 -297q-18 -133 -127 -226t-246 -93h-219l-41 -291h-172zM438 453h213q66 0 119.5 45t63.5 108l40 299q8 63 -31.5 109.5t-105.5 46.5h-213z" />
<glyph unicode="&#xdf;" d="M160 0l151 1075q20 156 143.5 266.5t274.5 110.5h16q150 0 238 -103.5t70 -240.5l-23 -164q-90 -4 -159.5 -43t-75.5 -90q-6 -47 21.5 -93t69.5 -87t84 -88t66.5 -115t12.5 -147q-16 -125 -118 -213t-231 -88q-125 0 -201.5 88t-60.5 213l4 30h164l-4 -41 q-10 -59 27 -101t96 -42q57 0 104.5 42t57.5 101q8 57 -19.5 106.5t-70.5 89.5t-86 84t-69 109.5t-13 145.5q12 96 87 164.5t171 89.5l2 14q14 100 -36 167t-136 67q-88 0 -160 -68t-86 -166l-152 -1073h-159z" />
<glyph unicode="&#xe0;" d="M221 311l58 402q20 141 134.5 236t272.5 95q194 1 356 -69l-106 -752q-4 -29 13.5 -50t45.5 -21h21l-21 -152h-20q-121 0 -176 102q-109 -123 -262 -122q-158 0 -246 96t-70 235zM383 324q-10 -78 41 -136.5t135 -58.5t152.5 58.5t79.5 136.5l75 534q-80 37 -202 37 q-82 0 -150 -58.5t-78 -136.5zM453 1454h233l217 -303h-182z" />
<glyph unicode="&#xe1;" d="M221 311l58 402q20 141 134.5 236t272.5 95q194 1 356 -69l-106 -752q-4 -29 13.5 -50t45.5 -21h21l-21 -152h-20q-121 0 -176 102q-109 -123 -262 -122q-158 0 -246 96t-70 235zM383 324q-10 -78 41 -136.5t135 -58.5t152.5 58.5t79.5 136.5l75 534q-80 37 -202 37 q-82 0 -150 -58.5t-78 -136.5zM547 1151l303 303h233l-354 -303h-182z" />
<glyph unicode="&#xe2;" d="M221 311l58 402q20 141 134.5 236t272.5 95q194 1 356 -69l-106 -752q-4 -29 13.5 -50t45.5 -21h21l-21 -152h-20q-121 0 -176 102q-109 -123 -262 -122q-158 0 -246 96t-70 235zM383 324q-10 -78 41 -136.5t135 -58.5t152.5 58.5t79.5 136.5l75 534q-80 37 -202 37 q-82 0 -150 -58.5t-78 -136.5zM451 1153l260 301h155l178 -301h-149l-131 154l-166 -154h-147z" />
<glyph unicode="&#xe3;" d="M221 311l58 402q20 141 134.5 236t272.5 95q194 1 356 -69l-106 -752q-4 -29 13.5 -50t45.5 -21h21l-21 -152h-20q-121 0 -176 102q-109 -123 -262 -122q-158 0 -246 96t-70 235zM383 324q-10 -78 41 -136.5t135 -58.5t152.5 58.5t79.5 136.5l75 534q-80 37 -202 37 q-82 0 -150 -58.5t-78 -136.5zM418 1180q12 84 82.5 155.5t148.5 71.5q51 0 127 -45t105 -45q20 0 36.5 25.5t20.5 52.5h147q-12 -86 -81.5 -157t-145.5 -71q-53 0 -128 45t-101 45q-45 1 -68 -77h-143z" />
<glyph unicode="&#xe4;" d="M221 311l58 402q20 141 134.5 236t272.5 95q194 1 356 -69l-106 -752q-4 -29 13.5 -50t45.5 -21h21l-21 -152h-20q-121 0 -176 102q-109 -123 -262 -122q-158 0 -246 96t-70 235zM383 324q-10 -78 41 -136.5t135 -58.5t152.5 58.5t79.5 136.5l75 534q-80 37 -202 37 q-82 0 -150 -58.5t-78 -136.5zM487 1251l27 183h182l-26 -183h-183zM834 1251l26 183h182l-26 -183h-182z" />
<glyph unicode="&#xe5;" d="M221 311l58 402q20 141 134.5 236t272.5 95q194 1 356 -69l-106 -752q-4 -29 13.5 -50t45.5 -21h21l-21 -152h-20q-121 0 -176 102q-109 -123 -262 -122q-158 0 -246 96t-70 235zM383 324q-10 -78 41 -136.5t135 -58.5t152.5 58.5t79.5 136.5l75 534q-80 37 -202 37 q-82 0 -150 -58.5t-78 -136.5zM635 1290q8 70 61.5 117t121 47t108.5 -47t32 -117q-8 -68 -63 -115t-122.5 -47t-107.5 47t-30 115zM735 1292q-4 -25 10.5 -42t41 -17t46 17.5t23.5 41.5q4 27 -11.5 44.5t-42 17.5t-45 -17.5t-22.5 -44.5z" />
<glyph unicode="&#xe6;" d="M139 252l60 487q16 131 96 208t209 77h444q104 0 170 -71.5t53 -192.5l-6 -53q-18 -164 -221 -265l-231 -116l-4 -29q-10 -76 27.5 -124t109.5 -48q53 0 101 11t71 24l22 10l-16 -152q-70 -39 -197 -38q-45 0 -87 22.5t-64 56.5l-4 -59h-144l11 63q-66 -84 -156 -83 q-127 0 -192.5 76.5t-51.5 195.5zM285 258q-6 -51 23.5 -93t92.5 -42q61 0 100.5 42t45.5 93l78 616h-140q-63 0 -99 -40.5t-42 -106.5zM731 492l213 106q66 33 76 102l6 39q8 53 -21.5 94t-80.5 41h-146z" />
<glyph unicode="&#xe7;" d="M240 358l43 312q23 158 151.5 267.5t290.5 109.5h35q160 0 250 -105.5t67 -259.5h-168q12 90 -36 152.5t-142 62.5h-22q-96 0 -171 -64.5t-89 -156.5l-46 -328q-14 -92 43.5 -157.5t153.5 -65.5h12q96 0 171 63.5t87 151.5h168q-18 -131 -126.5 -233.5t-252.5 -122.5 l-6 -41q66 0 108 -46.5t34 -109.5q-8 -66 -62.5 -111t-120.5 -45h-141l14 107h123q18 0 32.5 15.5t16.5 33.5q4 18 -6 32.5t-28 14.5h-103l21 148q-150 12 -236 119.5t-65 256.5z" />
<glyph unicode="&#xe8;" d="M244 311l57 402q18 137 144 234t290 97h27q125 0 219 -92t78 -209l-4 -30q-29 -195 -277 -271l-368 -116v-9q-10 -76 49 -132t145 -56q74 0 146.5 11.5t109.5 23.5l37 12l-23 -164q-129 -33 -288 -32q-164 0 -263.5 96t-78.5 235zM434 492l330 110q123 41 131 98l4 25 q8 63 -48 116.5t-126 53.5h-14q-86 0 -162 -59.5t-86 -135.5zM471 1454h234l217 -303h-183z" />
<glyph unicode="&#xe9;" d="M244 311l57 402q18 137 144 234t290 97h27q125 0 219 -92t78 -209l-4 -30q-29 -195 -277 -271l-368 -116v-9q-10 -76 49 -132t145 -56q74 0 146.5 11.5t109.5 23.5l37 12l-23 -164q-129 -33 -288 -32q-164 0 -263.5 96t-78.5 235zM434 492l330 110q123 41 131 98l4 25 q8 63 -48 116.5t-126 53.5h-14q-86 0 -162 -59.5t-86 -135.5zM588 1151l303 303h233l-354 -303h-182z" />
<glyph unicode="&#xea;" d="M244 311l57 402q18 137 144 234t290 97h27q125 0 219 -92t78 -209l-4 -30q-29 -195 -277 -271l-368 -116v-9q-10 -76 49 -132t145 -56q74 0 146.5 11.5t109.5 23.5l37 12l-23 -164q-129 -33 -288 -32q-164 0 -263.5 96t-78.5 235zM434 492l330 110q123 41 131 98l4 25 q8 63 -48 116.5t-126 53.5h-14q-86 0 -162 -59.5t-86 -135.5zM479 1153l260 301h156l178 -301h-149l-131 154l-166 -154h-148z" />
<glyph unicode="&#xeb;" d="M244 311l57 402q18 137 144 234t290 97h27q125 0 219 -92t78 -209l-4 -30q-29 -195 -277 -271l-368 -116v-9q-10 -76 49 -132t145 -56q74 0 146.5 11.5t109.5 23.5l37 12l-23 -164q-129 -33 -288 -32q-164 0 -263.5 96t-78.5 235zM434 492l330 110q123 41 131 98l4 25 q8 63 -48 116.5t-126 53.5h-14q-86 0 -162 -59.5t-86 -135.5zM492 1251l26 183h182l-26 -183h-182zM838 1251l26 183h183l-27 -183h-182z" />
<glyph unicode="&#xec;" d="M209 0l20 147h344l103 730h-344l20 147h508l-123 -877h320l-21 -147h-827zM479 1454h234l219 -303h-182z" />
<glyph unicode="&#xed;" d="M209 0l20 147h344l103 730h-344l20 147h508l-123 -877h318l-21 -147h-825zM633 1151l301 303h233l-352 -303h-182z" />
<glyph unicode="&#xee;" d="M209 0l20 147h344l103 730h-344l20 147h508l-123 -877h320l-21 -147h-827zM494 1153l258 301h155l180 -301h-149l-131 154l-166 -154h-147z" />
<glyph unicode="&#xef;" d="M209 0l20 147h344l103 730h-344l20 147h508l-123 -877h320l-21 -147h-827zM535 1251l24 183h182l-24 -183h-182zM881 1251l24 183h182l-24 -183h-182z" />
<glyph unicode="&#xf0;" d="M164 311l45 324q18 139 138 235.5t292 96.5q135 0 199 -64l22 154l2 26l-170 -53l21 141l118 39q-57 74 -151 74h-121l23 150h120q219 0 308 -166l182 57l-21 -143l-137 -43q2 -4 -6 -82l-104 -746q-20 -141 -138 -236t-286 -95q-172 0 -264.5 95t-71.5 236zM332 324 q-10 -78 44 -136.5t144 -58.5q86 0 156 58.5t80 136.5l43 299q10 78 -43.5 136t-141.5 58t-158.5 -58.5t-80.5 -135.5z" />
<glyph unicode="&#xf1;" d="M162 0l143 1024h160l-12 -84q117 104 278 104q168 0 262 -108.5t72 -265.5l-94 -670h-166l94 676q12 94 -43 157.5t-153.5 63.5t-184.5 -66.5t-96 -144.5l-96 -686h-164zM383 1180q12 84 83 155.5t148 71.5q53 0 129 -45t103 -45q20 0 36.5 25.5t20.5 52.5h148 q-12 -86 -82 -157t-146 -71q-53 0 -127.5 45t-101.5 45q-45 1 -68 -77h-143z" />
<glyph unicode="&#xf2;" d="M186 358l43 312q23 158 152 267.5t291 109.5h35q162 0 260 -109.5t75 -267.5l-45 -314q-20 -156 -149 -266t-291 -110h-35q-162 0 -260 110.5t-76 267.5zM350 348q-14 -92 44.5 -157.5t154.5 -65.5h22q96 0 170 64.5t88 156.5l45 330q12 92 -44 156.5t-152 64.5h-23 q-96 0 -170.5 -64.5t-89.5 -156.5zM432 1454h234l217 -303h-183z" />
<glyph unicode="&#xf3;" d="M186 358l43 312q23 158 152 267.5t291 109.5h35q162 0 260 -109.5t75 -267.5l-45 -314q-20 -156 -149 -266t-291 -110h-35q-162 0 -260 110.5t-76 267.5zM350 348q-14 -92 44.5 -157.5t154.5 -65.5h22q96 0 170 64.5t88 156.5l45 330q12 92 -44 156.5t-152 64.5h-23 q-96 0 -170.5 -64.5t-89.5 -156.5zM500 1151l303 303h233l-354 -303h-182z" />
<glyph unicode="&#xf4;" d="M186 358l43 312q23 158 152 267.5t291 109.5h35q162 0 260 -109.5t75 -267.5l-45 -314q-20 -156 -149 -266t-291 -110h-35q-162 0 -260 110.5t-76 267.5zM350 348q-14 -92 44.5 -157.5t154.5 -65.5h22q96 0 170 64.5t88 156.5l45 330q12 92 -44 156.5t-152 64.5h-23 q-96 0 -170.5 -64.5t-89.5 -156.5zM442 1153l260 301h156l178 -301h-149l-131 154l-166 -154h-148z" />
<glyph unicode="&#xf5;" d="M186 358l43 312q23 158 152 267.5t291 109.5h35q162 0 260 -109.5t75 -267.5l-45 -314q-20 -156 -149 -266t-291 -110h-35q-162 0 -260 110.5t-76 267.5zM350 348q-14 -92 44.5 -157.5t154.5 -65.5h22q96 0 170 64.5t88 156.5l45 330q12 92 -44 156.5t-152 64.5h-23 q-96 0 -170.5 -64.5t-89.5 -156.5zM424 1180q12 84 83 155.5t148 71.5q53 0 129 -45t103 -45q20 0 36.5 25.5t20.5 52.5h148q-12 -86 -82 -157t-146 -71q-53 0 -127.5 45t-101.5 45q-45 1 -68 -77h-143z" />
<glyph unicode="&#xf6;" d="M186 358l43 312q23 158 152 267.5t291 109.5h35q162 0 260 -109.5t75 -267.5l-45 -314q-20 -156 -149 -266t-291 -110h-35q-162 0 -260 110.5t-76 267.5zM350 348q-14 -92 44.5 -157.5t154.5 -65.5h22q96 0 170 64.5t88 156.5l45 330q12 92 -44 156.5t-152 64.5h-23 q-96 0 -170.5 -64.5t-89.5 -156.5zM453 1251l26 183h183l-27 -183h-182zM799 1251l26 183h183l-27 -183h-182z" />
<glyph unicode="&#xf7;" d="M176 520l25 164h932l-25 -164h-932zM494 176l28 203h207l-29 -203h-206zM586 829l28 203h207l-28 -203h-207z" />
<glyph unicode="&#xf8;" d="M203 0l80 111q-57 82 -43 200l57 402q18 139 139 235t291 96q102 0 176 -38l15 18h178l-82 -113q61 -87 45 -198l-58 -402q-18 -141 -137 -236t-286 -95q-111 0 -183 38l-16 -18h-176zM408 293l401 573q-47 29 -107 29q-88 0 -158.5 -58.5t-80.5 -136.5l-53 -376z M489 158q47 -29 109 -29q88 0 158 58.5t80 136.5l53 376v29z" />
<glyph unicode="&#xf9;" d="M166 354l94 670h166l-96 -676q-12 -94 43 -157.5t153.5 -63.5t184.5 66.5t96 144.5l98 686h164l-145 -1024h-160l12 84q-117 -104 -278 -104q-168 0 -261.5 108.5t-70.5 265.5zM410 1454h233l217 -303h-182z" />
<glyph unicode="&#xfa;" d="M166 354l94 670h166l-96 -676q-12 -94 43 -157.5t153.5 -63.5t184.5 66.5t96 144.5l98 686h164l-145 -1024h-160l12 84q-117 -104 -278 -104q-168 0 -261.5 108.5t-70.5 265.5zM492 1151l303 303h233l-354 -303h-182z" />
<glyph unicode="&#xfb;" d="M166 354l94 670h166l-96 -676q-12 -94 43 -157.5t153.5 -63.5t184.5 66.5t96 144.5l98 686h164l-145 -1024h-160l12 84q-117 -104 -278 -104q-168 0 -261.5 108.5t-70.5 265.5zM395 1153l260 301h156l178 -301h-149l-131 154l-166 -154h-148z" />
<glyph unicode="&#xfc;" d="M166 354l94 670h166l-96 -676q-12 -94 43 -157.5t153.5 -63.5t184.5 66.5t96 144.5l98 686h164l-145 -1024h-160l12 84q-117 -104 -278 -104q-168 0 -261.5 108.5t-70.5 265.5zM424 1251l27 183h182l-27 -183h-182zM770 1251l27 183h182l-27 -183h-182z" />
<glyph unicode="&#xfd;" d="M172 -135q20 137 141 203l109 43l2 8q-43 -2 -66 8q-86 41 -130 120t-29 177l84 600h163l-81 -588q-10 -76 50 -135t146 -59t164 59t88 135l82 588h164l-152 -1083q-20 -141 -141 -235.5t-291 -94.5q-141 0 -229 70.5t-74 183.5zM338 -129q-6 -43 37 -78t108 -35h13 q90 0 163.5 58.5t83.5 136.5l33 225q-25 -27 -78 -57l-301 -158q-51 -37 -59 -92zM502 1151l303 303h233l-354 -303h-182z" />
<glyph unicode="&#xfe;" d="M129 -369l254 1803h160l-68 -480q104 90 246 90h29q162 0 259 -109.5t76 -264.5l-43 -314q-20 -156 -150 -267.5t-292 -111.5h-25q-137 0 -227 97l-61 -443h-158zM393 348q-12 -92 45.5 -156.5t153.5 -64.5h22q96 0 171 64.5t87 156.5l48 330q12 92 -44.5 156.5 t-152.5 64.5h-23q-96 0 -171.5 -65.5t-88.5 -157.5z" />
<glyph unicode="&#xff;" d="M174 -135q20 137 141 203l109 43l2 8q-43 -2 -66 8q-86 41 -130 120t-29 177l84 600h164l-82 -588q-10 -76 50 -135t146 -59t164 59t88 135l82 588h164l-152 -1083q-20 -141 -141 -235.5t-291 -94.5q-141 0 -229 70.5t-74 183.5zM340 -129q-6 -43 37 -78t108 -35h13 q90 0 163.5 58.5t83.5 136.5l33 225q-25 -27 -78 -57l-301 -158q-51 -37 -59 -92zM373 1251l26 183h183l-27 -183h-182zM719 1251l26 183h183l-27 -183h-182z" />
<glyph unicode="&#x152;" d="M141 383l95 670q23 160 148.5 270.5t287.5 110.5h557l-23 -164h-317l-62 -432h269l-23 -162h-268l-72 -512h326l-23 -164h-565q-162 0 -257 111.5t-73 271.5zM315 381q-12 -92 40.5 -154.5t144.5 -62.5h57l156 1102h-58q-94 0 -163.5 -61.5t-81.5 -153.5z" />
<glyph unicode="&#x153;" d="M133 252l66 508q16 117 109 200.5t212 83.5q131 0 187 -108h8q70 109 221 108q119 0 185.5 -78.5t49.5 -205.5l-6 -47q-12 -96 -68.5 -157.5t-158.5 -113.5l-227 -116l-4 -29q-10 -76 26.5 -124t106.5 -48q53 0 101 11t71 24l22 10l-16 -152q-82 -39 -209 -38 q-72 0 -119 18t-61.5 34.5t-36.5 51.5h-8q-82 -104 -207 -104q-127 0 -192.5 79.5t-51.5 192.5zM279 258q-6 -51 23.5 -92t93 -41t103.5 42t46 91l69 498q8 57 -24.5 98t-97.5 41q-57 0 -98.5 -42t-49.5 -105zM729 492l215 110q63 33 74 98l8 62q6 53 -22.5 93t-79.5 40 q-70 0 -109 -39t-47 -100z" />
<glyph unicode="&#x178;" d="M262 1434h191l196 -539l346 539h193l-481 -756l-95 -678h-178l94 678zM508 1661l27 182h182l-27 -182h-182zM854 1661l27 182h182l-27 -182h-182z" />
<glyph unicode="&#x2c6;" d="M387 1153l260 301h156l178 -301h-150l-131 154l-165 -154h-148z" />
<glyph unicode="&#x2dc;" d="M369 1180q12 84 82.5 155.5t148.5 71.5q51 0 127 -45t104 -45q20 0 37 25.5t21 52.5h147q-12 -86 -81.5 -157t-145.5 -71q-53 0 -128 45t-101 45q-45 1 -68 -77h-143z" />
<glyph unicode="&#x2000;" horiz-adv-x="932" />
<glyph unicode="&#x2001;" horiz-adv-x="1864" />
<glyph unicode="&#x2002;" horiz-adv-x="932" />
<glyph unicode="&#x2003;" horiz-adv-x="1864" />
<glyph unicode="&#x2004;" horiz-adv-x="621" />
<glyph unicode="&#x2005;" horiz-adv-x="466" />
<glyph unicode="&#x2006;" horiz-adv-x="310" />
<glyph unicode="&#x2007;" horiz-adv-x="310" />
<glyph unicode="&#x2008;" horiz-adv-x="233" />
<glyph unicode="&#x2009;" horiz-adv-x="372" />
<glyph unicode="&#x200a;" horiz-adv-x="103" />
<glyph unicode="&#x2010;" d="M395 520l23 160h500l-23 -160h-500z" />
<glyph unicode="&#x2011;" d="M395 520l23 160h500l-23 -160h-500z" />
<glyph unicode="&#x2012;" d="M395 520l23 160h500l-23 -160h-500z" />
<glyph unicode="&#x2013;" d="M256 520l23 160h778l-23 -160h-778z" />
<glyph unicode="&#x2014;" d="M39 520l22 160h1221l-22 -160h-1221z" />
<glyph unicode="&#x2018;" d="M537 995l208 439h115l-135 -439h-188z" />
<glyph unicode="&#x2019;" d="M537 995l135 439h188l-209 -439h-114z" />
<glyph unicode="&#x201a;" d="M451 -238l135 439h188l-209 -439h-114z" />
<glyph unicode="&#x201c;" d="M381 997l209 439h115l-136 -439h-188zM692 997l209 439h115l-135 -439h-189z" />
<glyph unicode="&#x201d;" d="M381 997l135 439h189l-209 -439h-115zM692 997l135 439h189l-209 -439h-115z" />
<glyph unicode="&#x201e;" d="M295 -238l135 439h188l-208 -439h-115zM606 -238l135 439h189l-209 -439h-115z" />
<glyph unicode="&#x2022;" d="M346 735q0 127 90 218t219 91q127 0 218.5 -91t91.5 -218q0 -129 -91.5 -219t-218.5 -90q-129 0 -219 90t-90 219z" />
<glyph unicode="&#x2026;" d="M98 0l29 201h201l-29 -201h-201zM506 0l29 201h200l-28 -201h-201zM913 0l29 201h201l-29 -201h-201z" />
<glyph unicode="&#x202f;" horiz-adv-x="372" />
<glyph unicode="&#x2039;" d="M434 596l295 326h191l-297 -326l208 -324h-192z" />
<glyph unicode="&#x203a;" d="M391 272l297 324l-209 326h193l205 -326l-295 -324h-191z" />
<glyph unicode="&#x205f;" horiz-adv-x="466" />
<glyph unicode="&#x20ac;" d="M195 492l22 161h96l17 117h-97l23 162h96l21 145q20 156 148 266.5t288 110.5h12q162 0 257.5 -108.5t72.5 -270.5h-172q12 90 -43 152.5t-145.5 62.5t-162 -62.5t-83.5 -152.5l-21 -143h457l-23 -162h-456l-17 -117h394l-23 -161h-393l-21 -136q-12 -90 42.5 -153.5 t144.5 -63.5t162.5 62.5t85.5 152.5l4 25h172l-4 -23q-20 -156 -148.5 -266t-288.5 -110h-12q-160 0 -255 110.5t-73 267.5l19 134h-96z" />
<glyph unicode="&#x2122;" d="M250 1331l16 105h400l-17 -105h-143l-82 -583h-115l82 583h-141zM623 748l98 688h113l92 -281l172 281h114l-98 -688h-115l60 411l18 68l-123 -197h-90l-73 197l2 -70l-58 -409h-112z" />
<glyph unicode="&#x25fc;" horiz-adv-x="1024" d="M0 0v1024h1024v-1024h-1024z" />
<glyph unicode="&#xfb01;" d="M166 -369l178 1246h-160l21 147h160l20 145q16 119 111.5 201t214.5 82q92 0 176 -63l-113 -123q-41 35 -84 34q-53 0 -95 -35.5t-50 -88.5l-21 -152h537l-123 -874h147l-20 -150h-451l21 150h141l103 727h-375l-178 -1246h-160zM918 1249l26 185h189l-27 -185h-188z" />
<glyph unicode="&#xfb02;" d="M164 -369l178 1246h-160l21 147h159l19 127q16 119 111.5 201t214.5 82h411l-180 -1284h149l-20 -150h-453l21 150h141l160 1132h-250q-53 0 -95 -37t-50 -88l-19 -133h260l-20 -147h-260l-178 -1246h-160z" />
</font>
</defs>
</svg>
