<?xml version="1.0" standalone="no"?>
<!DOCTYPE svg PUBLIC "-//W3C//DTD SVG 1.1//EN" "http://www.w3.org/Graphics/SVG/1.1/DTD/svg11.dtd" >
<svg xmlns="http://www.w3.org/2000/svg">
<metadata></metadata>
<defs>
<font id="decima_monobold" horiz-adv-x="1228" >
<font-face units-per-em="2048" ascent="1536" descent="-512" />
<missing-glyph horiz-adv-x="500" />
<glyph horiz-adv-x="0" />
<glyph unicode="&#xd;" />
<glyph unicode=" " />
<glyph unicode="!" d="M475 0v279h279v-279h-279zM485 420v1014h256v-1014h-256z" />
<glyph unicode="&#x22;" d="M328 971v483h229l-80 -483h-149zM670 971v483h229l-82 -483h-147z" />
<glyph unicode="#" d="M135 356v234h150l30 201h-120v233h151l64 412h237l-63 -412h157l62 412h239l-63 -412h113v-233h-144l-28 -201h112v-234h-143l-51 -356h-242l53 356h-157l-52 -356h-237l51 356h-119zM524 590h156l29 201h-158z" />
<glyph unicode="$" d="M199 381v88h256v-88q0 -61 43 -105.5t104 -44.5h23q61 0 104 40t43 96q0 78 -57.5 140t-139 108.5t-162.5 98.5t-138.5 139t-57.5 204q0 125 77 226t195 144v105h248v-102q125 -39 200 -150t75 -276h-256q0 92 -38 144t-102 52q-61 0 -101 -39t-40 -94q0 -59 57.5 -109.5 t138.5 -94.5t161.5 -100t138 -154.5t57.5 -227.5q0 -139 -81 -243.5t-210 -137.5v-96h-248v96q-129 35 -209.5 140.5t-80.5 240.5z" />
<glyph unicode="%" d="M147 440v166l934 393v-159zM182 1087v156q0 88 63.5 150.5t151.5 62.5h13q86 0 149.5 -62.5t63.5 -150.5v-156q0 -88 -63.5 -149t-149.5 -61h-13q-88 0 -151.5 61t-63.5 149zM342 1081q0 -25 18.5 -42t42.5 -17q23 0 40.5 17t17.5 42v168q0 25 -17.5 41.5t-42 16.5 t-42 -16.5t-17.5 -41.5v-168zM625 188v156q0 88 62.5 150.5t150.5 62.5h12q86 0 150.5 -62.5t64.5 -150.5v-156q0 -88 -63.5 -149.5t-151.5 -61.5h-12q-88 0 -150.5 61.5t-62.5 149.5zM784 182q0 -27 17.5 -43t42 -16t41 16t16.5 43v168q0 25 -17.5 41.5t-42 16.5t-41 -16.5 t-16.5 -41.5v-168z" />
<glyph unicode="&#x26;" d="M176 371v295q0 190 168 292l-108 238v238h684v-205h-451l248 -561l108 -301v299h226v-297q0 -59 -28 -128t-69 -116l60 -125h-242l-12 23q-63 -43 -170 -43h-12q-166 0 -284 114.5t-118 276.5zM401 369q0 -76 53.5 -130.5t131.5 -54.5q57 0 88 25l-240 543 q-33 -47 -33 -88v-295z" />
<glyph unicode="'" d="M500 971v483h229l-80 -483h-149z" />
<glyph unicode="(" d="M385 6v1055q0 164 130 278.5t327 114.5v-240q-92 0 -149.5 -43t-57.5 -106v-1069q0 -66 57.5 -108t149.5 -42v-237q-197 0 -327 115.5t-130 281.5z" />
<glyph unicode=")" d="M385 -152q92 0 149.5 42t57.5 108v1067q0 63 -58.5 106t-148.5 43v240q195 0 326 -114.5t131 -278.5v-1053q0 -164 -131 -280.5t-326 -116.5v237z" />
<glyph unicode="*" d="M299 1137l61 184l156 -49v162h193v-154l159 49l60 -176l-162 -61l100 -131l-157 -109l-95 125l-82 -125l-161 102l84 133z" />
<glyph unicode="+" d="M143 440v246h342v338h256v-338h342v-246h-342v-344h-256v344h-342z" />
<glyph unicode="," d="M475 0v279h279v-222l-95 -303h-165l71 246h-90z" />
<glyph unicode="-" d="M330 444v240h569v-240h-569z" />
<glyph unicode="." d="M475 0v279h279v-279h-279z" />
<glyph unicode="/" d="M137 -371l697 1805h258l-699 -1805h-256z" />
<glyph unicode="0" d="M217 379v661q0 166 111.5 282t275.5 116h17q162 0 275.5 -117t113.5 -281v-663q0 -164 -114 -280.5t-275 -116.5h-17q-164 0 -275.5 116.5t-111.5 282.5zM471 369q0 -63 42 -107.5t101.5 -44.5t99.5 43.5t40 106.5v682q0 66 -41 109.5t-100.5 43.5t-100.5 -45t-41 -108 v-680z" />
<glyph unicode="1" d="M397 1198v236h432v-1434h-256v1198h-176z" />
<glyph unicode="2" d="M197 0v186q0 106 43 203.5t106.5 165.5t139 137.5t139 123.5t106.5 123t43 136q0 59 -45 101.5t-106 42.5q-68 0 -113 -59.5t-45 -153.5h-252q0 203 119 325.5t293 122.5q172 0 288.5 -112.5t116.5 -282.5q0 -109 -58.5 -210t-141 -177t-166.5 -145.5t-144.5 -144.5 t-64.5 -146h575v-236h-833z" />
<glyph unicode="3" d="M201 377v47h256v-49q0 -63 46 -106.5t111.5 -43.5t108.5 43t43 109v272q0 43 -28.5 74t-71.5 31h-193v202l172 242h-373v236h721v-195l-192 -258q96 -37 160.5 -127t64.5 -203v-272q0 -166 -119 -282.5t-289 -116.5h-10q-170 0 -288.5 116.5t-118.5 280.5z" />
<glyph unicode="4" d="M160 281v254l434 899h278l-436 -916h266v334h256v-334h109v-237h-109v-281h-256v281h-542z" />
<glyph unicode="5" d="M203 377v41h256v-51q0 -63 46 -106.5t111 -43.5q63 0 108.5 44t45.5 108v237q0 63 -45 107.5t-109 44.5q-59 0 -97 -36t-48 -79l-231 64l63 727h678v-236h-442l-21 -227q47 27 109 26q170 0 284.5 -113.5t114.5 -279.5v-225q0 -166 -117.5 -282.5t-287.5 -116.5h-13 q-168 0 -286.5 116.5t-118.5 280.5z" />
<glyph unicode="6" d="M201 373v686q0 164 115.5 279.5t283.5 115.5h10q172 0 287 -110.5t115 -288.5h-256q0 76 -43 120t-109 44q-61 0 -104 -44t-43 -110v-143q68 53 164 53q168 0 286.5 -115t118.5 -276v-209q0 -164 -119 -279.5t-286 -115.5h-15q-170 0 -287.5 114.5t-117.5 278.5zM457 365 q0 -61 46 -104.5t111 -43.5q63 0 108.5 43t45.5 105v223q0 63 -45.5 107t-108.5 44q-66 0 -111.5 -44t-45.5 -107v-223z" />
<glyph unicode="7" d="M229 1198v236h768v-185q0 -76 -48 -226.5t-104.5 -302t-104.5 -353t-48 -367.5h-256q0 205 61.5 441.5t142.5 455.5t97 301h-508z" />
<glyph unicode="8" d="M201 375v98q0 164 118 277q-98 109 -98 254v79q0 154 111.5 262.5t271.5 108.5h19q160 0 271.5 -108.5t111.5 -262.5v-82q0 -154 -97 -251q117 -111 117 -277v-100q0 -164 -117.5 -278.5t-285.5 -114.5h-17q-170 0 -287.5 115.5t-117.5 279.5zM459 367q0 -63 46 -106.5 t113 -43.5q61 0 105.5 43.5t44.5 106.5v104q0 63 -45 107.5t-108.5 44.5t-109.5 -44t-46 -108v-104zM475 991q0 -55 38 -94t95 -39h17q53 0 90 38t37 95v86q0 59 -40 100.5t-99.5 41.5t-98.5 -41t-39 -101v-86z" />
<glyph unicode="9" d="M201 850v209q0 164 118.5 279.5t286.5 115.5h15q170 0 287.5 -114.5t117.5 -278.5v-686q0 -164 -115.5 -279.5t-283.5 -115.5h-11q-172 0 -286.5 110.5t-114.5 288.5h256q0 -76 43 -120t109 -44q61 0 104 44t43 110v143q-68 -53 -164 -53q-168 0 -286.5 114.5 t-118.5 276.5zM459 846q0 -63 45 -107.5t108 -44.5q66 0 112 44t46 108v223q0 61 -46 104.5t-112 43.5q-63 0 -108 -43.5t-45 -104.5v-223z" />
<glyph unicode=":" d="M475 0v279h279v-279h-279zM475 745v279h279v-279h-279z" />
<glyph unicode=";" d="M475 0v279h279v-222l-95 -303h-165l71 246h-90zM475 745v279h279v-279h-279z" />
<glyph unicode="&#x3c;" d="M166 489v199l895 389v-264l-543 -225l543 -223v-265z" />
<glyph unicode="=" d="M145 242v239h938v-239h-938zM145 649v242h938v-242h-938z" />
<glyph unicode="&#x3e;" d="M166 100v267l543 221l-543 223v266l895 -389v-199z" />
<glyph unicode="?" d="M205 1018q0 203 116.5 319.5t293 116.5t293 -107.5t116.5 -283.5q0 -88 -31.5 -150.5t-78 -102.5t-91.5 -84t-76.5 -121t-31.5 -187h-256q0 113 22.5 200t56 134t72.5 88t73 68.5t56.5 70.5t22.5 96q0 59 -43 101.5t-105 42.5q-68 0 -110.5 -54.5t-42.5 -146.5h-256z M444 0v281h289v-281h-289z" />
<glyph unicode="@" d="M147 133v795q0 207 132.5 366.5t310.5 159.5h53q176 0 307 -145.5t131 -352.5v-956h-182v57q-35 -78 -133 -77q-119 0 -199 102t-80 250v354q0 147 82 241.5t209 94.5q74 0 113 -31q-10 106 -84 190.5t-164 84.5h-53q-98 0 -179 -113t-81 -225v-795q0 -109 65.5 -212 t145.5 -103h63v-187h-59q-164 0 -281 148.5t-117 353.5zM676 301q0 -51 33.5 -90t76.5 -39q45 0 79 39t34 90v397q0 53 -32.5 92t-78 39t-79 -40t-33.5 -91v-397z" />
<glyph unicode="A" d="M207 0v627l213 807h389l213 -807v-627h-242v426h-331v-426h-242zM471 666h287l-123 528h-41z" />
<glyph unicode="B" d="M236 0v1434h389q152 0 253 -97.5t101 -238.5v-119q0 -113 -88 -223q100 -111 100 -244v-154q0 -156 -110.5 -257t-262.5 -101h-382zM483 240h135q51 0 87 34.5t36 83.5v152q0 39 -32.5 80t-90.5 41h-135v-391zM483 870h144q45 0 76.5 30t31.5 71v123q0 41 -31.5 70.5 t-76.5 29.5h-144v-324z" />
<glyph unicode="C" d="M209 383v670q0 164 118.5 282.5t284.5 118.5h9q170 0 283.5 -118.5t113.5 -305.5h-246q0 82 -45 133t-109 51q-68 0 -112.5 -43t-44.5 -106v-694q0 -63 45 -107.5t112 -44.5q63 0 108.5 43t45.5 107v77h246v-65q0 -166 -115 -283.5t-282 -117.5h-9q-166 0 -284.5 118.5 t-118.5 284.5z" />
<glyph unicode="D" d="M217 0v1434h393q166 0 283 -117t117 -283v-635q0 -166 -117 -282.5t-283 -116.5h-393zM463 240h141q63 0 107.5 43t44.5 106v653q0 63 -44 107.5t-108 44.5h-141v-954z" />
<glyph unicode="E" d="M242 0v1434h731v-240h-488v-326h445v-239h-445v-389h502v-240h-745z" />
<glyph unicode="F" d="M246 0v1434h735v-240h-487v-317h440v-248h-440v-629h-248z" />
<glyph unicode="G" d="M199 383v670q0 164 117.5 282.5t283.5 118.5h33q170 0 283.5 -118.5t113.5 -305.5h-246q0 80 -47 131t-112 51h-21q-66 0 -113 -43t-47 -106v-692q0 -63 47.5 -107.5t112.5 -44.5h21q66 0 112.5 44t46.5 106v168h-170v237h416v-393q0 -166 -115.5 -283.5t-281.5 -117.5 h-33q-166 0 -283.5 118.5t-117.5 284.5z" />
<glyph unicode="H" d="M207 0v1434h244v-562h325v562h246v-1434h-246v629h-325v-629h-244z" />
<glyph unicode="I" d="M211 0v229h278v975h-278v230h805v-230h-277v-975h277v-229h-805z" />
<glyph unicode="J" d="M205 377v110h248v-112q0 -70 47 -117t112 -47q70 0 116 48t46 118v829h-498v230h746v-1059q0 -162 -119 -278.5t-278 -116.5h-27q-162 0 -277.5 115.5t-115.5 279.5z" />
<glyph unicode="K" d="M139 0v1434h248v-1434h-248zM379 758l401 676h285l-397 -684l419 -750h-288z" />
<glyph unicode="L" d="M215 0v1434h246v-1194h551v-240h-797z" />
<glyph unicode="M" d="M135 0v1434h275l200 -484h8l201 484h275v-1434h-242v852l14 184h-8l-147 -358h-195l-145 358h-9l15 -184v-852h-242z" />
<glyph unicode="N" d="M207 0v1434h256l250 -678l75 -250h9l-17 252v676h242v-1434h-256l-252 686l-72 244h-8l15 -252v-678h-242z" />
<glyph unicode="O" d="M199 383v670q0 166 116.5 283.5t282.5 117.5h33q166 0 281.5 -117.5t115.5 -283.5v-672q0 -166 -115.5 -283.5t-281.5 -117.5h-33q-166 0 -282.5 118.5t-116.5 284.5zM444 371q0 -63 47.5 -107.5t112.5 -44.5h21q66 0 112.5 44.5t46.5 105.5v696q0 61 -47 105t-110 44 h-23q-66 0 -113 -44t-47 -105v-694z" />
<glyph unicode="P" d="M229 0v1434h422q143 0 244.5 -100.5t101.5 -246.5v-274q0 -147 -100 -247.5t-246 -100.5h-174v-465h-248zM477 702h166q43 0 72.5 28t29.5 67v301q0 41 -29.5 68.5t-72.5 27.5h-166v-492z" />
<glyph unicode="Q" d="M172 383v670q0 166 118 283.5t283 117.5h29q168 0 285 -117.5t117 -283.5v-672q0 -90 -41 -176l92 -96l-152 -154l-82 90q-89 -65 -215 -65h-4h-29q-166 0 -283.5 118.5t-117.5 284.5zM420 451q80 49 158 49q94 0 180 -86v643q0 66 -47 111.5t-115 45.5h-18 q-66 0 -112 -46t-46 -111v-606zM446 287q20 -31 59.5 -50.5t72.5 -19.5q55 0 86 14q-25 31 -66 55.5t-74 24.5q-45 0 -78 -24z" />
<glyph unicode="R" d="M197 0v1434h424q145 0 245.5 -100.5t100.5 -246.5v-256q0 -88 -43 -166.5t-117 -125.5l225 -539h-270l-197 487h-123v-487h-245zM442 727h174q41 0 71 28.5t30 67.5v275q0 39 -30 67.5t-71 28.5h-174v-467z" />
<glyph unicode="S" d="M197 381v65h245v-65q0 -66 48.5 -114t111.5 -48h23q63 0 110 45t47 103q0 80 -58 139t-141 102t-166 93.5t-141.5 139.5t-58.5 214q0 170 116 284.5t283 114.5q170 0 284 -118t114 -306h-246q0 78 -43 131t-109 53q-63 0 -107 -40.5t-44 -100.5q0 -63 58.5 -115.5 t141.5 -96.5t165.5 -99t141 -152.5t58.5 -228.5q0 -166 -116.5 -283.5t-282.5 -117.5h-33q-166 0 -283.5 117.5t-117.5 283.5z" />
<glyph unicode="T" d="M190 1194v240h846v-240h-299v-1194h-250v1194h-297z" />
<glyph unicode="U" d="M197 383v1051h245v-1057q0 -63 48.5 -110.5t113.5 -47.5h21q66 0 112.5 46t46.5 110v1059h248v-1053q0 -166 -117.5 -283.5t-283.5 -117.5h-33q-166 0 -283.5 118.5t-117.5 284.5z" />
<glyph unicode="V" d="M207 807v627h246v-594l147 -604h29l147 604v594h246v-627l-229 -807h-357z" />
<glyph unicode="W" d="M119 811v623h243v-600l35 -543h27l59 512h260l60 -512h26l35 543v600h244v-623l-100 -811h-322l-59 557h-27l-59 -557h-322z" />
<glyph unicode="X" d="M131 0l346 748l-315 686h272l180 -422l181 422h272l-317 -686l346 -748h-275l-207 473l-208 -473h-275z" />
<glyph unicode="Y" d="M129 1434h270l215 -467l213 467h273l-361 -762v-672h-252v672z" />
<glyph unicode="Z" d="M201 0v238l532 956h-502v240h791v-236l-528 -958h532v-240h-825z" />
<glyph unicode="[" d="M385 -369v1805h457v-236h-207v-1333h207v-236h-457z" />
<glyph unicode="\" d="M137 1434h258l697 -1807h-258z" />
<glyph unicode="]" d="M385 -133h207v1331h-207v236h457v-1803h-457v236z" />
<glyph unicode="^" d="M207 666l311 768h195l309 -768h-246l-162 434h-8l-153 -434h-246z" />
<glyph unicode="_" d="M0 -109h1227v-198h-1227v198z" />
<glyph unicode="`" d="M334 1454h315l244 -317h-236z" />
<glyph unicode="a" d="M205 303q0 135 108.5 222t259.5 100l207 14v66q0 51 -43 90t-102 39q-49 0 -87 -33t-44 -82h-250q18 145 120.5 235t260.5 90q182 0 285.5 -99t103.5 -251v-694h-223v76q-37 -39 -111 -65.5t-149 -26.5q-135 0 -235.5 91t-100.5 228zM453 307q0 -49 37 -88t94 -39 q74 0 135 44t61 93v125l-196 -12q-55 -4 -93 -38t-38 -85z" />
<glyph unicode="b" d="M203 0v1434h248v-453q63 63 208 63q147 0 257 -100t110 -252v-360q0 -145 -107.5 -246.5t-256.5 -101.5q-143 0 -232 88v-72h-227zM451 334q0 -53 49 -96t116.5 -43t110.5 42t43 97v356q0 55 -44 97t-111.5 42t-115.5 -43t-48 -96v-356z" />
<glyph unicode="c" d="M197 330v364q0 147 115.5 248.5t295.5 101.5q184 0 299 -105t115 -280h-256q0 80 -43 126t-115 46q-66 0 -109.5 -40t-43.5 -93v-372q0 -53 45 -93t110 -40q72 0 115 47t43 131h262q0 -180 -116.5 -285.5t-303.5 -105.5q-180 0 -296.5 100t-116.5 250z" />
<glyph unicode="d" d="M203 332v360q0 152 109.5 252t256.5 100q145 0 209 -63v453h248v-1434h-227v72q-88 -88 -232 -88q-150 0 -257 101t-107 247zM459 334q0 -55 43 -97t110.5 -42t116.5 43t49 96v356q0 53 -48 96t-115.5 43t-111.5 -42t-44 -97v-356z" />
<glyph unicode="e" d="M199 340v344q0 150 117.5 255t298 105t297 -102t116.5 -250v-254h-571v-102q0 -55 45 -99t110 -44h3q142 0 153 108h262q-16 -145 -134 -233t-284 -88q-180 0 -296.5 105t-116.5 255zM457 643h317v49q0 55 -46 99.5t-114 44.5q-63 0 -110 -45.5t-47 -98.5v-49z" />
<glyph unicode="f" d="M154 811v213h231v72q0 152 108.5 255t262.5 103h24q74 0 141.5 -24.5t98.5 -49.5l33 -22l-127 -176q-66 59 -152 59h-12q-59 0 -98 -41t-39 -98v-78h379v-213h-379v-811h-240v811h-231z" />
<glyph unicode="g" d="M127 -96q0 106 79 183t189 77h13v147q-88 43 -140.5 118t-52.5 159v123q0 137 113.5 235t267.5 98q68 0 139 -28q57 72 113.5 102.5t175.5 30.5v-215q-74 0 -111 -49q49 -61 50 -174v-123q0 -123 -96.5 -216t-237.5 -106v-102h202q113 0 192 -77t79 -183v-15 q0 -109 -80 -183.5t-193 -74.5h-434q-113 0 -190.5 75t-77.5 183v15zM324 -104.5q0 -28.5 21.5 -47t53.5 -18.5h394q33 0 54 19.5t21 48.5q0 27 -21 46t-52 19h-396q-33 0 -54 -19.5t-21 -48zM471 580q0 -45 35 -75t90 -30q47 0 84 31t37 74v145q0 43 -37 73.5t-84 30.5 q-55 0 -90 -29.5t-35 -74.5v-145z" />
<glyph unicode="h" d="M197 0v1434h249v-478q88 88 218 88q152 0 260 -107.5t108 -260.5v-676h-252v678q0 61 -46 106t-113 45q-70 0 -121 -45t-51 -104v-680h-252z" />
<glyph unicode="i" d="M162 0v213h354v598h-354v213h602v-811h303v-213h-905zM508 1171v263h266v-263h-266z" />
<glyph unicode="j" d="M225 809v215h729v-1055q0 -145 -108.5 -251.5t-259.5 -106.5h-23q-74 0 -143.5 24.5t-102.5 49.5l-32 22l127 176q66 -57 153 -57h10q59 0 97.5 40t38.5 97v846h-486zM694 1171v263h269v-263h-269z" />
<glyph unicode="k" d="M229 0v1434h250v-1434h-250zM479 537l316 487h305l-330 -492l358 -532h-307z" />
<glyph unicode="l" d="M162 0v213h323v1010h-256v213h504v-1223h334v-213h-905z" />
<glyph unicode="m" d="M127 0v1024h207v-59q58 77 137 77h2q109 0 170 -100q96 100 195 100q121 0 191.5 -94t70.5 -239v-709h-217v713q0 116 -65 116h-1q-45 0 -70.5 -37.5t-25.5 -89.5v-702h-215v713q0 116 -71 116h-1q-90 0 -90 -127v-702h-217z" />
<glyph unicode="n" d="M197 0v1024h239v-68q96 88 228 88q152 0 260 -107.5t108 -260.5v-676h-252v678q0 61 -46 106t-113 45q-70 0 -121 -45t-51 -104v-680h-252z" />
<glyph unicode="o" d="M199 330v364q0 150 116.5 250t300.5 100q182 0 298 -100t116 -250v-364q0 -150 -115.5 -250t-298.5 -100q-184 0 -300.5 100t-116.5 250zM455 328q0 -53 46 -93t115.5 -40t112.5 39t43 94v368q0 55 -43 94t-115 39q-68 0 -113.5 -39.5t-45.5 -93.5v-368z" />
<glyph unicode="p" d="M203 -369v1391h227v-72q88 88 232 88q150 0 257 -101t107 -247v-360q0 -152 -109.5 -252.5t-257.5 -100.5q-145 0 -208 64v-410h-248zM451 332q0 -53 48 -96t115.5 -43t111.5 42t44 97v356q0 55 -43 97t-110.5 42t-116.5 -43t-49 -96v-356z" />
<glyph unicode="q" d="M203 330v360q0 145 107.5 246.5t256.5 101.5q143 0 232 -88v72h227v-1391h-248v410q-63 -63 -209 -64q-147 0 -256.5 100.5t-109.5 252.5zM459 332q0 -55 44 -97t111.5 -42t115.5 43t48 96v356q0 53 -49 96t-116.5 43t-110.5 -42t-43 -97v-356z" />
<glyph unicode="r" d="M121 0v213h207v811h241v-59q86 77 201 77q162 0 250 -114.5t88 -249.5h-242q0 59 -37.5 105t-87.5 46q-70 0 -116.5 -46t-46.5 -107v-463h413v-213h-870z" />
<glyph unicode="s" d="M219 319h258q0 -51 38 -87.5t99 -36.5h11q63 0 93 28.5t30 65.5q0 45 -51.5 77.5t-124 59.5t-144.5 59.5t-123 97t-51 154.5q0 135 109.5 221t261.5 86q176 0 277.5 -103t101.5 -234h-256q0 57 -37 90.5t-90 33.5q-49 0 -83 -27.5t-34 -64.5t52 -64.5t127 -51 t148.5 -57.5t126 -102.5t52.5 -166.5q0 -127 -117 -222t-268 -95h-17q-166 0 -277.5 103t-111.5 236z" />
<glyph unicode="t" d="M129 811v213h182v268h238v-268h502v-213h-502v-475q0 -57 43 -100t106 -43h19q53 0 96 43t43 96v14h244v-18q0 -147 -108.5 -247.5t-280.5 -100.5h-19q-176 0 -278.5 98.5t-102.5 245.5v487h-182z" />
<glyph unicode="u" d="M197 348v676h252v-678q0 -61 46 -106t113 -45q70 0 121 45t51 104v680h252v-1024h-239v68q-96 -88 -228 -88q-152 0 -260 107.5t-108 260.5z" />
<glyph unicode="v" d="M215 623v401h252v-393l135 -424h21l137 424v393h252v-401l-217 -623h-363z" />
<glyph unicode="w" d="M141 606v418h221v-385l52 -416h16l74 432h221l72 -432h16l51 416v385h221v-418l-106 -606h-297l-64 408h-8l-67 -408h-297z" />
<glyph unicode="x" d="M162 0l307 524l-297 500h291l151 -272l150 272h293l-299 -500l307 -524h-281l-170 293l-170 -293h-282z" />
<glyph unicode="y" d="M109 1024h274l229 -647l232 647h274l-538 -1391h-263l168 426z" />
<glyph unicode="z" d="M215 0v203l467 606h-438v215h760v-207l-465 -602h475v-215h-799z" />
<glyph unicode="{" d="M336 418v231q43 0 71.5 23.5t28.5 56.5v334q0 162 133 275.5t324 113.5v-240q-88 0 -148.5 -45t-60.5 -106v-359q0 -98 -76 -170q76 -72 76 -170v-360q0 -66 60.5 -110t148.5 -44v-237q-190 0 -323.5 114.5t-133.5 278.5v334q0 35 -28.5 57.5t-71.5 22.5z" />
<glyph unicode="|" d="M487 -369v1803h252v-1803h-252z" />
<glyph unicode="}" d="M336 -152q90 0 149.5 44.5t59.5 109.5v360q0 98 76 170q-76 80 -76 170v359q0 61 -59.5 106t-149.5 45v240q190 0 323.5 -113.5t133.5 -275.5v-334q0 -33 28.5 -56.5t71.5 -23.5v-231q-43 0 -71.5 -22.5t-28.5 -57.5v-334q0 -164 -133.5 -278.5t-323.5 -114.5v237z" />
<glyph unicode="~" d="M121 410q4 125 92 225t213 100q76 0 210 -52t165 -52q59 0 78 88h227q-4 -123 -92 -223.5t-213 -100.5q-78 0 -213 52.5t-162 52.5q-31 0 -52.5 -27.5t-27.5 -62.5h-225z" />
<glyph unicode="&#xa0;" />
<glyph unicode="&#xa1;" d="M475 743v279h279v-279h-279zM485 -412v1016h256v-1016h-256z" />
<glyph unicode="&#xa2;" d="M213 332v364q0 119 77 210t204 124v90h254v-94q121 -41 190.5 -137t69.5 -230h-250q0 74 -41 122t-102.5 48t-105.5 -39.5t-44 -93.5v-372q0 -53 44 -92t105 -39q63 0 105.5 51t42.5 127h254q0 -141 -73 -240.5t-195 -134.5v-92h-254v90q-127 31 -204 124t-77 214z" />
<glyph unicode="&#xa3;" d="M170 535v235h131v332q0 147 110.5 249.5t268.5 102.5q156 0 264.5 -102.5t108.5 -249.5v-58h-262v74q0 41 -33 71t-76 30q-47 0 -80 -30t-33 -71v-348h248v-235h-248v-299h490v-236h-828v236h70v299h-131z" />
<glyph unicode="&#xa4;" d="M104 221l125 123q-53 94 -53 203q0 133 53 225l-125 127l175 172l122 -125q102 53 205 53q115 0 221 -51l127 119l170 -168l-120 -127q53 -100 53 -213q0 -102 -53 -213l120 -125l-168 -168l-129 123q-100 -59 -209 -59q-115 0 -219 57l-123 -123zM416 559 q0 -80 59.5 -139.5t142.5 -59.5q80 0 137.5 58.5t57.5 140.5q0 80 -56.5 139.5t-133.5 59.5q-86 0 -146.5 -57.5t-60.5 -141.5z" />
<glyph unicode="&#xa5;" d="M113 1434h295l206 -478l211 478h289l-264 -549h209v-232h-314v-98h314v-229h-314v-326h-266v326h-309v229h309v98h-309v232h211z" />
<glyph unicode="&#xa6;" d="M487 -369v756h252v-756h-252zM487 672v762h252v-762h-252z" />
<glyph unicode="&#xa7;" d="M180 799q0 121 94 219q-31 51 -30 139q0 129 96 213t281 84q195 0 284.5 -96t89.5 -264h-256q0 45 -30.5 85t-85.5 40q-59 0 -87 -22.5t-28 -51.5q0 -35 55 -70t135 -69.5t159 -79.5t134.5 -120t55.5 -169q0 -123 -97 -223q35 -63 35 -135q0 -127 -98.5 -213t-278.5 -86 q-195 0 -285 99t-90 259h254q0 -43 31 -82t86 -39q115 0 115 72q0 35 -55.5 68.5t-134 69.5t-158.5 81t-135.5 121t-55.5 170zM430 815q0 -43 50 -80t150.5 -86t145.5 -78q19 14 19 45q0 49 -51.5 86t-149.5 82t-150 80q-14 -18 -14 -49z" />
<glyph unicode="&#xa8;" d="M254 1171v263h258v-263h-258zM715 1171v263h260v-263h-260z" />
<glyph unicode="&#xa9;" d="M41 545v344q0 233 164 399t391 166h35q227 0 391 -166t164 -399v-344q0 -233 -164 -399t-391 -166h-35q-227 0 -391 165.5t-164 399.5zM178 530q0 -170 126 -295.5t292 -125.5h35q166 0 289.5 124.5t123.5 296.5v375q0 172 -123.5 296t-289.5 124h-35q-168 0 -293 -125 t-125 -295v-375zM342 578v290q0 111 78 188t203 77q117 0 189.5 -88.5t72.5 -227.5h-187q0 123 -80 123q-43 0 -66.5 -23.5t-23.5 -56.5v-274q0 -33 23.5 -57.5t66.5 -24.5q41 0 65 32.5t24 92.5h184q0 -143 -74 -229.5t-194 -86.5q-125 0 -203 76t-78 189z" />
<glyph unicode="&#xaa;" d="M334 997q0 84 77.5 141.5t184.5 67.5l145 13v14q0 39 -30.5 70.5t-81.5 31.5q-92 0 -107 -78h-149q14 96 80.5 146.5t175.5 50.5q123 0 193.5 -60.5t70.5 -154.5v-440h-148v41q-53 -53 -157 -54q-104 2 -179 61.5t-75 149.5zM356 578v118h537v-118h-537zM483 999 q0 -37 33 -64.5t88 -27.5q53 0 95 28t42 58v105l-139 -13q-51 -4 -85 -27.5t-34 -58.5z" />
<glyph unicode="&#xab;" d="M76 588l264 344h291l-262 -344l266 -342h-295zM592 588l264 344h291l-264 -344l270 -342h-297z" />
<glyph unicode="&#xac;" d="M143 647v244h940v-617h-241v373h-699z" />
<glyph unicode="&#xad;" />
<glyph unicode="&#xae;" d="M41 545v344q0 233 164 399t391 166h35q227 0 391 -166t164 -399v-344q0 -233 -164 -399t-391 -166h-35q-227 0 -391 165.5t-164 399.5zM178 530q0 -170 126 -295.5t292 -125.5h35q166 0 289.5 124.5t123.5 296.5v375q0 172 -123.5 296t-289.5 124h-35q-168 0 -293 -125 t-125 -295v-375zM360 360v736h295q92 0 154.5 -59.5t62.5 -145.5v-125q0 -96 -73 -152l123 -254h-213l-86 201h-62v-201h-201zM557 745h86q33 0 33 33v84q0 14 -10.5 23.5t-22.5 9.5h-86v-150z" />
<glyph unicode="&#xaf;" d="M285 1151v231h657v-231h-657z" />
<glyph unicode="&#xb0;" d="M274 1120.5q0 139.5 100.5 239.5t240 100t239.5 -100t100 -239.5t-100 -240t-239.5 -100.5t-240 100.5t-100.5 240zM485 1120.5q0 -53.5 38 -91.5t89 -38q53 0 92 38t39 91.5t-38.5 91t-92.5 37.5q-51 0 -89 -37.5t-38 -91z" />
<glyph unicode="&#xb1;" d="M141 0v242h944v-242h-944zM141 594v242h348v235h248v-235h346v-242h-346v-238h-248v238h-348z" />
<glyph unicode="&#xb2;" d="M350 659v127q0 66 50.5 134.5t109.5 115.5t109.5 100.5t50.5 92.5q0 20 -17.5 34.5t-40.5 14.5q-27 0 -47 -23.5t-20 -56.5h-185q0 127 74 192.5t187 65.5q104 0 175.5 -65.5t71.5 -167.5q0 -61 -40 -122t-89 -102t-98 -88t-61 -82h297v-170h-527z" />
<glyph unicode="&#xb3;" d="M360 901h185l2 -29q0 -20 21.5 -34.5t41.5 -14.5q23 0 42.5 14.5t19.5 34.5v113q0 20 -14.5 33.5t-32.5 13.5h-109v109l96 112v13h-213v166h443v-148l-92 -115q55 -23 85.5 -74t30.5 -106v-106q0 -98 -73.5 -171t-169.5 -73h-19q-100 0 -172 76t-72 186z" />
<glyph unicode="&#xb4;" d="M334 1137l244 317h315l-324 -317h-235z" />
<glyph unicode="&#xb5;" d="M174 -369v1393h248v-692q0 -53 45 -95t104.5 -42t108.5 39.5t49 89.5v700h248v-766q0 -18 15.5 -35.5t35.5 -17.5h27v-215h-60q-121 0 -196 90q-117 -100 -248 -100q-74 0 -129 32v-381h-248z" />
<glyph unicode="&#xb6;" d="M168 1024q0 172 123 291t295 119h475v-1803h-193v1571h-102v-1571h-254v1000q-143 27 -243.5 137.5t-100.5 255.5z" />
<glyph unicode="&#xb7;" d="M475 449v278h279v-278h-279z" />
<glyph unicode="&#xb8;" d="M438 -260h127q16 0 28.5 11t12.5 30q0 16 -12 27.5t-29 11.5h-106v180h174v-51q66 -6 112 -54.5t46 -113.5q0 -72 -52.5 -121t-122.5 -49h-178v129z" />
<glyph unicode="&#xb9;" d="M457 1272v162h315v-772h-201v610h-114z" />
<glyph unicode="&#xba;" d="M360 1001v238q0 92 73 153.5t183 61.5q109 0 179.5 -61.5t70.5 -153.5v-238q0 -92 -70.5 -153.5t-179.5 -61.5q-111 0 -183.5 61.5t-72.5 153.5zM375 578v118h491v-118h-491zM502 1001q0 -39 32.5 -68.5t81.5 -29.5q47 0 81 29.5t34 68.5v238q0 37 -33.5 65.5t-83.5 28.5 q-47 0 -79.5 -28.5t-32.5 -65.5v-238z" />
<glyph unicode="&#xbb;" d="M76 246l270 342l-264 344h291l264 -344l-264 -342h-297zM594 246l266 342l-262 344h291l264 -344l-264 -342h-295z" />
<glyph unicode="&#xbc;" d="M27 1272v162h315v-772h-201v610h-114zM121 2l733 1430h180l-729 -1430h-184zM621 143v129l223 492h172l-219 -469h170v164h157v-164h76v-152h-76v-141h-157v141h-346z" />
<glyph unicode="&#xbd;" d="M31 1272v162h315v-772h-201v610h-114zM88 2l733 1430h180l-729 -1430h-184zM672 0v127q0 66 50 134.5t109.5 115.5t109.5 100t50 92q0 20 -17.5 34.5t-39.5 14.5q-27 0 -47.5 -23t-20.5 -56h-184q0 127 73.5 192.5t186.5 65.5q104 0 176 -65.5t72 -168.5 q0 -61 -40 -121.5t-89 -101.5t-98.5 -88t-61.5 -82h297v-170h-526z" />
<glyph unicode="&#xbe;" d="M18 901h185l2 -29q0 -20 21.5 -34.5t41.5 -14.5q23 0 42.5 14.5t19.5 34.5v113q0 20 -14.5 33.5t-32.5 13.5h-109v109l96 112v13h-213v166h443v-148l-92 -115q55 -23 85.5 -74t30.5 -106v-106q0 -98 -73.5 -171t-169.5 -73h-19q-100 0 -172 76t-72 186zM178 2l733 1430 h181l-730 -1430h-184zM629 129v143l223 492h184l-213 -469h152v164h176v-164h57v-166h-57v-127h-176v127h-346z" />
<glyph unicode="&#xbf;" d="M205 -41q0 88 31.5 150.5t77.5 102.5t91.5 84t77 121t31.5 187h256q0 -113 -22.5 -200t-56.5 -134t-72.5 -88t-72.5 -68.5t-56.5 -70.5t-22.5 -96q0 -59 43 -101.5t104 -42.5q68 0 111 54.5t43 146.5h256q0 -203 -116.5 -319.5t-293 -116.5t-293 107.5t-116.5 283.5z M496 741v281h288v-281h-288z" />
<glyph unicode="&#xc0;" d="M186 0v627l224 807h409l223 -807v-627h-254v426h-348v-426h-254zM244 1864h315l244 -318h-236zM463 666h303l-129 528h-45z" />
<glyph unicode="&#xc1;" d="M186 0v627l224 807h409l223 -807v-627h-254v426h-348v-426h-254zM463 666h303l-129 528h-45zM467 1546l244 318h315l-324 -318h-235z" />
<glyph unicode="&#xc2;" d="M186 0v627l224 807h409l223 -807v-627h-254v426h-348v-426h-254zM236 1546l270 318h219l266 -318h-256l-121 133l-118 -133h-260zM463 666h303l-129 528h-45z" />
<glyph unicode="&#xc3;" d="M186 0v627l224 807h409l223 -807v-627h-254v426h-348v-426h-254zM248 1544q0 115 61.5 196t155.5 81q53 0 130 -38t103.5 -38t44 20.5t17.5 42.5h219q0 -115 -62.5 -195.5t-154.5 -80.5q-53 0 -130 38t-103.5 38t-43 -19.5t-18.5 -44.5h-219zM463 666h303l-129 528h-45z " />
<glyph unicode="&#xc4;" d="M186 0v627l224 807h409l223 -807v-627h-254v426h-348v-426h-254zM254 1581v262h258v-262h-258zM463 666h303l-129 528h-45zM715 1581v262h260v-262h-260z" />
<glyph unicode="&#xc5;" d="M186 0v627l224 807h409l223 -807v-627h-254v426h-348v-426h-254zM403 1716q0 90 59.5 150.5t147.5 60.5q86 0 149.5 -61.5t63.5 -149.5q0 -86 -63.5 -148.5t-149.5 -62.5q-88 0 -147.5 61.5t-59.5 149.5zM463 666h303l-129 528h-45zM541 1718.5q0 -28.5 20.5 -50 t48.5 -21.5q31 0 51.5 21.5t20.5 50t-20.5 50t-51.5 21.5q-29 0 -49 -21.5t-20 -50z" />
<glyph unicode="&#xc6;" d="M63 0v627l226 807h862v-240h-344v-326h299v-239h-299v-389h358v-240h-618v426h-228v-426h-256zM338 666h209v528h-78z" />
<glyph unicode="&#xc7;" d="M188 383v670q0 166 124 283.5t300 117.5h9q180 0 298.5 -118.5t118.5 -305.5h-258q0 82 -47 133t-115 51q-70 0 -117.5 -43t-47.5 -106v-694q0 -63 48 -107.5t117 -44.5q66 0 114 43t48 107v77h258v-65q0 -152 -101 -264.5t-257 -132.5v-35q66 -6 112 -54.5t46 -113.5 q0 -72 -52.5 -121t-121.5 -49h-179v129h127q16 0 28.5 11t12.5 30q0 16 -12 27.5t-29 11.5h-106v174q-139 33 -228.5 141.5t-89.5 247.5z" />
<glyph unicode="&#xc8;" d="M221 0v1434h770v-240h-512v-326h467v-239h-467v-389h529v-240h-787zM268 1864h316l243 -318h-235z" />
<glyph unicode="&#xc9;" d="M215 0v1434h770v-240h-512v-326h467v-239h-467v-389h528v-240h-786zM453 1546l243 318h316l-324 -318h-235z" />
<glyph unicode="&#xca;" d="M221 0v1434h770v-240h-512v-326h467v-239h-467v-389h529v-240h-787zM231 1546l271 318h219l266 -318h-256l-121 133l-118 -133h-261z" />
<glyph unicode="&#xcb;" d="M221 0v1434h770v-240h-512v-326h467v-239h-467v-389h529v-240h-787zM223 1581v262h258v-262h-258zM684 1581v262h260v-262h-260z" />
<glyph unicode="&#xcc;" d="M211 0v229h278v975h-278v230h805v-230h-277v-975h277v-229h-805zM240 1864h315l244 -318h-236z" />
<glyph unicode="&#xcd;" d="M211 0v229h278v975h-278v230h805v-230h-277v-975h277v-229h-805zM459 1546l243 318h316l-324 -318h-235z" />
<glyph unicode="&#xce;" d="M211 0v229h278v975h-278v230h805v-230h-277v-975h277v-229h-805zM236 1546l270 318h219l266 -318h-256l-121 133l-118 -133h-260z" />
<glyph unicode="&#xcf;" d="M211 0v229h278v975h-278v230h805v-230h-277v-975h277v-229h-805zM254 1581v262h258v-262h-258zM715 1581v262h260v-262h-260z" />
<glyph unicode="&#xd0;" d="M139 629v239h117v566h422q168 0 290 -117t122 -283v-635q0 -166 -122 -282.5t-290 -116.5h-422v629h-117zM514 240h158q66 0 109.5 43t43.5 106v651q0 66 -44 110t-109 44h-158v-326h199v-239h-199v-389z" />
<glyph unicode="&#xd1;" d="M186 0v1434h269l264 -678l76 -238h8l-15 240v676h254v-1434h-268l-266 686l-74 229h-8l14 -237v-678h-254zM248 1544q0 115 61.5 196t155.5 81q53 0 130 -38t103.5 -38t44 20.5t17.5 42.5h219q0 -115 -62.5 -195.5t-154.5 -80.5q-53 0 -130 38t-103.5 38t-43 -19.5 t-18.5 -44.5h-219z" />
<glyph unicode="&#xd2;" d="M176 383v670q0 166 124 283.5t298 117.5h33q174 0 297 -117.5t123 -283.5v-672q0 -166 -123 -283.5t-297 -117.5h-33q-174 0 -298 118.5t-124 284.5zM211 1864h315l244 -318h-235zM436 371q0 -63 50.5 -107.5t117.5 -44.5h21q68 0 118 44.5t50 105.5v696q0 63 -49.5 106 t-116.5 43h-23q-68 0 -118 -44t-50 -105v-694z" />
<glyph unicode="&#xd3;" d="M176 383v670q0 166 124 283.5t298 117.5h33q174 0 297 -117.5t123 -283.5v-672q0 -166 -123 -283.5t-297 -117.5h-33q-174 0 -298 118.5t-124 284.5zM436 371q0 -63 50.5 -107.5t117.5 -44.5h21q68 0 118 44.5t50 105.5v696q0 63 -49.5 106t-116.5 43h-23q-68 0 -118 -44 t-50 -105v-694zM477 1546l244 318h315l-323 -318h-236z" />
<glyph unicode="&#xd4;" d="M176 383v670q0 166 124 283.5t298 117.5h33q174 0 297 -117.5t123 -283.5v-672q0 -166 -123 -283.5t-297 -117.5h-33q-174 0 -298 118.5t-124 284.5zM233 1546l271 318h219l266 -318h-256l-121 133l-118 -133h-261zM436 371q0 -63 50.5 -107.5t117.5 -44.5h21 q68 0 118 44.5t50 105.5v696q0 63 -49.5 106t-116.5 43h-23q-68 0 -118 -44t-50 -105v-694z" />
<glyph unicode="&#xd5;" d="M176 383v670q0 166 124 283.5t298 117.5h33q174 0 297 -117.5t123 -283.5v-672q0 -166 -123 -283.5t-297 -117.5h-33q-174 0 -298 118.5t-124 284.5zM248 1544q0 115 61.5 196t155.5 81q53 0 130 -38t103.5 -38t44 20.5t17.5 42.5h219q0 -115 -62.5 -195.5t-154.5 -80.5 q-53 0 -130 38t-103.5 38t-43 -19.5t-18.5 -44.5h-219zM436 371q0 -63 50.5 -107.5t117.5 -44.5h21q68 0 118 44.5t50 105.5v696q0 63 -49.5 106t-116.5 43h-23q-68 0 -118 -44t-50 -105v-694z" />
<glyph unicode="&#xd6;" d="M176 383v670q0 166 124 283.5t298 117.5h33q174 0 297 -117.5t123 -283.5v-672q0 -166 -123 -283.5t-297 -117.5h-33q-174 0 -298 118.5t-124 284.5zM252 1581v262h258v-262h-258zM436 371q0 -63 50.5 -107.5t117.5 -44.5h21q68 0 118 44.5t50 105.5v696q0 63 -49.5 106 t-116.5 43h-23q-68 0 -118 -44t-50 -105v-694zM713 1581v262h260v-262h-260z" />
<glyph unicode="&#xd7;" d="M186 332l256 258l-256 258l170 170l258 -256l256 256l172 -172l-256 -258l254 -256l-170 -172l-256 258l-256 -254z" />
<glyph unicode="&#xd8;" d="M135 0l90 186q-51 92 -51 197v670q0 166 124 283.5t298 117.5h33q104 0 190 -43l10 23h263l-93 -191q49 -88 50 -190v-672q0 -166 -123 -283.5t-297 -117.5h-33q-104 0 -190 43l-11 -23h-260zM434 596l27 78l252 518q-41 23 -88 22h-23q-68 0 -118 -44t-50 -105v-469z M514 244q39 -25 88 -25h21q68 0 118 44.5t50 105.5v469l-27 -78z" />
<glyph unicode="&#xd9;" d="M174 383v1051h260v-1057q0 -66 50.5 -112t119.5 -46h21q70 0 119 46t49 110v1059h262v-1053q0 -166 -124 -283.5t-300 -117.5h-33q-176 0 -300 118.5t-124 284.5zM227 1864h316l243 -318h-235z" />
<glyph unicode="&#xda;" d="M174 383v1051h260v-1057q0 -66 50.5 -112t119.5 -46h21q70 0 119 46t49 110v1059h262v-1053q0 -166 -124 -283.5t-300 -117.5h-33q-176 0 -300 118.5t-124 284.5zM428 1546l244 318h315l-323 -318h-236z" />
<glyph unicode="&#xdb;" d="M174 383v1051h260v-1057q0 -66 50.5 -112t119.5 -46h21q70 0 119 46t49 110v1059h262v-1053q0 -166 -124 -283.5t-300 -117.5h-33q-176 0 -300 118.5t-124 284.5zM236 1546l270 318h219l266 -318h-256l-121 133l-118 -133h-260z" />
<glyph unicode="&#xdc;" d="M174 383v1051h260v-1057q0 -66 50.5 -112t119.5 -46h21q70 0 119 46t49 110v1059h262v-1053q0 -166 -124 -283.5t-300 -117.5h-33q-176 0 -300 118.5t-124 284.5zM254 1581v262h258v-262h-258zM715 1581v262h260v-262h-260z" />
<glyph unicode="&#xdd;" d="M104 1434h285l225 -467l224 467h286l-379 -762v-672h-264v672zM459 1546l243 318h316l-324 -318h-235z" />
<glyph unicode="&#xde;" d="M219 0v1434h262v-193h172q147 0 251 -101.5t104 -244.5v-279q0 -143 -103.5 -244.5t-251.5 -101.5h-172v-270h-262zM481 510h162q41 0 69.5 27.5t28.5 66.5v297q0 41 -28.5 69.5t-69.5 28.5h-162v-489z" />
<glyph unicode="&#xdf;" d="M115 2v1036q0 170 121.5 293t291.5 123h64q168 0 291 -113.5t123 -261.5v-147q-86 -4 -147.5 -44t-61.5 -95q0 -41 49 -91.5t108.5 -95.5t108.5 -126t49 -175q0 -135 -97 -229t-239 -94q-137 0 -230 94t-93 229v35h239v-45q0 -35 29 -60.5t65 -25.5q35 0 61.5 25.5 t26.5 60.5q0 41 -32.5 81t-78.5 76.5t-92 79.5t-79 109t-33 145q0 98 55.5 176t143.5 107q-10 70 -61.5 113t-137.5 43q-80 0 -141.5 -55.5t-61.5 -133.5v-1034h-241z" />
<glyph unicode="&#xe0;" d="M205 303q0 135 108.5 222t259.5 100l207 14v66q0 51 -43 90t-102 39q-49 0 -87 -33t-44 -82h-250q18 145 120.5 235t260.5 90q182 0 285.5 -99t103.5 -251v-694h-223v76q-37 -39 -111 -65.5t-149 -26.5q-135 0 -235.5 91t-100.5 228zM289 1454h315l244 -317h-236z M453 307q0 -49 37 -88t94 -39q74 0 135 44t61 93v125l-196 -12q-55 -4 -93 -38t-38 -85z" />
<glyph unicode="&#xe1;" d="M205 303q0 135 108.5 222t259.5 100l207 14v66q0 51 -43 90t-102 39q-49 0 -87 -33t-44 -82h-250q18 145 120.5 235t260.5 90q182 0 285.5 -99t103.5 -251v-694h-223v76q-37 -39 -111 -65.5t-149 -26.5q-135 0 -235.5 91t-100.5 228zM422 1137l244 317h315l-324 -317 h-235zM453 307q0 -49 37 -88t94 -39q74 0 135 44t61 93v125l-196 -12q-55 -4 -93 -38t-38 -85z" />
<glyph unicode="&#xe2;" d="M205 303q0 135 108.5 222t259.5 100l207 14v66q0 51 -43 90t-102 39q-49 0 -87 -33t-44 -82h-250q18 145 120.5 235t260.5 90q182 0 285.5 -99t103.5 -251v-694h-223v76q-37 -39 -111 -65.5t-149 -26.5q-135 0 -235.5 91t-100.5 228zM250 1137l270 317h219l267 -317h-256 l-121 133l-119 -133h-260zM453 307q0 -49 37 -88t94 -39q74 0 135 44t61 93v125l-196 -12q-55 -4 -93 -38t-38 -85z" />
<glyph unicode="&#xe3;" d="M205 303q0 135 108.5 222t259.5 100l207 14v66q0 51 -43 90t-102 39q-49 0 -87 -33t-44 -82h-250q18 145 120.5 235t260.5 90q182 0 285.5 -99t103.5 -251v-694h-223v76q-37 -39 -111 -65.5t-149 -26.5q-135 0 -235.5 91t-100.5 228zM262 1135q0 115 61.5 195.5 t155.5 80.5q53 0 130 -38t103.5 -38t44 20.5t17.5 43.5h219q0 -115 -62.5 -196t-154.5 -81q-53 0 -130 38t-103.5 38t-43 -19t-18.5 -44h-219zM453 307q0 -49 37 -88t94 -39q74 0 135 44t61 93v125l-196 -12q-55 -4 -93 -38t-38 -85z" />
<glyph unicode="&#xe4;" d="M205 303q0 135 108.5 222t259.5 100l207 14v66q0 51 -43 90t-102 39q-49 0 -87 -33t-44 -82h-250q18 145 120.5 235t260.5 90q182 0 285.5 -99t103.5 -251v-694h-223v76q-37 -39 -111 -65.5t-149 -26.5q-135 0 -235.5 91t-100.5 228zM268 1171v263h258v-263h-258z M453 307q0 -49 37 -88t94 -39q74 0 135 44t61 93v125l-196 -12q-55 -4 -93 -38t-38 -85zM729 1171v263h260v-263h-260z" />
<glyph unicode="&#xe5;" d="M205 303q0 135 108.5 222t259.5 100l207 14v66q0 51 -43 90t-102 39q-49 0 -87 -33t-44 -82h-250q18 145 120.5 235t260.5 90q182 0 285.5 -99t103.5 -251v-694h-223v76q-37 -39 -111 -65.5t-149 -26.5q-135 0 -235.5 91t-100.5 228zM432 1307q0 90 59.5 150.5 t147.5 60.5q86 0 149.5 -61.5t63.5 -149.5q0 -86 -63.5 -148.5t-149.5 -62.5q-88 0 -147.5 61.5t-59.5 149.5zM453 307q0 -49 37 -88t94 -39q74 0 135 44t61 93v125l-196 -12q-55 -4 -93 -38t-38 -85zM569 1308.5q0 -28.5 20.5 -50t49.5 -21.5q31 0 51.5 21.5t20.5 50 t-20.5 50t-51.5 21.5q-29 0 -49.5 -21.5t-20.5 -50z" />
<glyph unicode="&#xe6;" d="M55 319q0 139 98.5 231.5t231.5 92.5h131v55q0 51 -28.5 91t-71.5 40q-37 0 -67 -27.5t-36 -66.5h-213q12 147 99.5 227t216.5 80q131 0 217 -79q94 80 217 79q139 0 229 -101t90 -249v-264h-436v-100q0 -51 35 -93t80 -42q47 0 78.5 32.5t31.5 75.5h213 q-6 -115 -98 -218t-223 -103q-141 0 -217 81h-8q-109 -82 -263 -81q-131 0 -219 97t-88 242zM270 305q0 -43 30 -79t71 -36q57 0 101 39t44 82v117h-123q-49 0 -86 -35t-37 -88zM733 643h221v57q0 51 -31.5 91t-74.5 40q-45 0 -80 -36.5t-35 -85.5v-66z" />
<glyph unicode="&#xe7;" d="M197 330v364q0 147 115.5 248.5t295.5 101.5q184 0 299 -105t115 -280h-256q0 80 -43 126t-115 46q-66 0 -109.5 -40t-43.5 -93v-372q0 -53 45 -93t110 -40q72 0 115 47t43 131h262q0 -162 -93 -263.5t-249 -121.5v-37q66 -6 112 -54.5t46 -113.5q0 -72 -52.5 -121 t-121.5 -49h-178v129h127q16 0 28.5 11t12.5 30q0 16 -12.5 27.5t-28.5 11.5h-107v168q-143 27 -230 121t-87 221z" />
<glyph unicode="&#xe8;" d="M199 340v344q0 150 117.5 255t298 105t297 -102t116.5 -250v-254h-571v-102q0 -55 45 -99t110 -44q144 -1 156 108h262q-16 -145 -134 -233t-284 -88q-180 0 -296.5 105t-116.5 255zM283 1454h315l244 -317h-236zM457 643h317v49q0 55 -46 99.5t-114 44.5 q-63 0 -110 -45.5t-47 -98.5v-49z" />
<glyph unicode="&#xe9;" d="M199 340v344q0 150 117.5 255t298 105t297 -102t116.5 -250v-254h-571v-102q0 -55 45 -99t110 -44q144 -1 156 108h262q-16 -145 -134 -233t-284 -88q-180 0 -296.5 105t-116.5 255zM424 1137l244 317h315l-324 -317h-235zM457 643h317v49q0 55 -46 99.5t-114 44.5 q-63 0 -110 -45.5t-47 -98.5v-49z" />
<glyph unicode="&#xea;" d="M199 340v344q0 150 117.5 255t298 105t297 -102t116.5 -250v-254h-571v-102q0 -55 45 -99t110 -44q144 -1 156 108h262q-16 -145 -134 -233t-284 -88q-180 0 -296.5 105t-116.5 255zM236 1137l270 317h219l266 -317h-256l-121 133l-118 -133h-260zM457 643h317v49 q0 55 -46 99.5t-114 44.5q-63 0 -110 -45.5t-47 -98.5v-49z" />
<glyph unicode="&#xeb;" d="M199 340v344q0 150 117.5 255t298 105t297 -102t116.5 -250v-254h-571v-102q0 -55 45 -99t110 -44q144 -1 156 108h262q-16 -145 -134 -233t-284 -88q-180 0 -296.5 105t-116.5 255zM254 1171v263h258v-263h-258zM457 643h317v49q0 55 -46 99.5t-114 44.5 q-63 0 -110 -45.5t-47 -98.5v-49zM715 1171v263h260v-263h-260z" />
<glyph unicode="&#xec;" d="M162 0v213h354v598h-354v213h602v-811h303v-213h-905zM221 1454h316l243 -317h-235z" />
<glyph unicode="&#xed;" d="M162 0v213h354v598h-354v213h602v-811h303v-213h-905zM436 1137l244 317h315l-323 -317h-236z" />
<glyph unicode="&#xee;" d="M162 0v213h354v598h-354v213h602v-811h303v-213h-905zM248 1137l270 317h219l267 -317h-256l-121 133l-119 -133h-260z" />
<glyph unicode="&#xef;" d="M162 0v213h354v598h-354v213h602v-811h303v-213h-905zM260 1171v263h258v-263h-258zM721 1171v263h260v-263h-260z" />
<glyph unicode="&#xf0;" d="M156 330v295q0 143 108.5 243.5t270.5 100.5q45 0 98 -16.5t76 -37.5v144l-146 -49v188l70 25q-27 16 -64 16h-159v215h159q195 0 326 -147l176 57v-188l-117 -39q2 -20 2 -72v-735q0 -150 -111.5 -250t-287.5 -100t-288.5 100t-112.5 250zM406 324q0 -51 46 -90t105 -39 t105.5 39t46.5 90v307q0 51 -46.5 89t-107.5 38q-59 0 -104 -38t-45 -89v-307z" />
<glyph unicode="&#xf1;" d="M197 0v1024h239v-68q96 88 228 88q152 0 260 -107.5t108 -260.5v-676h-252v678q0 61 -46 106t-113 45q-70 0 -121 -45t-51 -104v-680h-252zM240 1135q0 115 61 195.5t156 80.5q53 0 130 -38t103.5 -38t44 20.5t17.5 43.5h219q0 -115 -62.5 -196t-154.5 -81q-53 0 -130 38 t-103.5 38t-43 -19t-18.5 -44h-219z" />
<glyph unicode="&#xf2;" d="M199 330q0 -150 116.5 -250t300.5 -100q182 0 298 100t116 250v364q0 150 -115.5 250t-298.5 100q-184 0 -300.5 -100t-116.5 -250v-364zM276 1454h316l244 -317h-236zM455 328v368q0 53 46 93t113 40q72 0 115 -39t43 -94v-368q0 -55 -43 -94t-112.5 -39t-115.5 39.5 t-46 93.5z" />
<glyph unicode="&#xf3;" d="M199 330q0 -150 116.5 -250t300.5 -100q182 0 298 100t116 250v364q0 150 -115.5 250t-298.5 100q-184 0 -300.5 -100t-116.5 -250v-364zM414 1137l243 317h316l-324 -317h-235zM455 328v368q0 53 46 93t113 40q72 0 115 -39t43 -94v-368q0 -55 -43 -94t-112.5 -39 t-115.5 39.5t-46 93.5z" />
<glyph unicode="&#xf4;" d="M199 330q0 -150 116.5 -250t300.5 -100q182 0 298 100t116 250v364q0 150 -115.5 250t-298.5 100q-184 0 -300.5 -100t-116.5 -250v-364zM236 1137l270 317h219l266 -317h-256l-121 133l-118 -133h-260zM455 328v368q0 53 46 93t113 40q72 0 115 -39t43 -94v-368 q0 -55 -43 -94t-112.5 -39t-115.5 39.5t-46 93.5z" />
<glyph unicode="&#xf5;" d="M199 330q0 -150 116.5 -250t300.5 -100q182 0 298 100t116 250v364q0 150 -115.5 250t-298.5 100q-184 0 -300.5 -100t-116.5 -250v-364zM248 1135q0 115 61.5 195.5t155.5 80.5q53 0 130 -38t103.5 -38t44 20.5t17.5 43.5h219q0 -115 -62.5 -196t-154.5 -81 q-53 0 -130 38t-103.5 38t-43 -19t-18.5 -44h-219zM455 328v368q0 53 46 93t113 40q72 0 115 -39t43 -94v-368q0 -55 -43 -94t-112.5 -39t-115.5 39.5t-46 93.5z" />
<glyph unicode="&#xf6;" d="M199 330q0 -150 116.5 -250t300.5 -100q182 0 298 100t116 250v364q0 150 -115.5 250t-298.5 100q-184 0 -300.5 -100t-116.5 -250v-364zM254 1171v263h258v-263h-258zM455 328v368q0 53 46 93t113 40q72 0 115 -39t43 -94v-368q0 -55 -43 -94t-112.5 -39t-115.5 39.5 t-46 93.5zM715 1171v263h260v-263h-260z" />
<glyph unicode="&#xf7;" d="M145 440v246h938v-246h-938zM471 80v278h285v-278h-285zM471 764v280h285v-280h-285z" />
<glyph unicode="&#xf8;" d="M193 0l86 137q-61 80 -62 193v364q0 150 111.5 250t289.5 100q106 0 189 -36l8 16h221l-84 -137q63 -88 64 -193v-364q0 -150 -110.5 -250t-287.5 -100q-104 0 -192 38l-10 -18h-223zM469 436l23 56l196 323q-39 14 -72 14q-61 0 -104 -40t-43 -93v-260zM543 213 q37 -18 75 -18q63 0 103.5 40t40.5 93v260l-25 -56z" />
<glyph unicode="&#xf9;" d="M197 348v676h252v-678q0 -61 46 -106t113 -45q70 0 121 45t51 104v680h252v-1024h-239v68q-96 -88 -228 -88q-152 0 -260 107.5t-108 260.5zM272 1454h316l243 -317h-235z" />
<glyph unicode="&#xfa;" d="M197 348v676h252v-678q0 -61 46 -106t113 -45q70 0 121 45t51 104v680h252v-1024h-239v68q-96 -88 -228 -88q-152 0 -260 107.5t-108 260.5zM422 1137l244 317h315l-324 -317h-235z" />
<glyph unicode="&#xfb;" d="M197 348v676h252v-678q0 -61 46 -106t113 -45q70 0 121 45t51 104v680h252v-1024h-239v68q-96 -88 -228 -88q-152 0 -260 107.5t-108 260.5zM244 1137l270 317h219l266 -317h-256l-120 133l-119 -133h-260z" />
<glyph unicode="&#xfc;" d="M197 348v676h252v-678q0 -61 46 -106t113 -45q70 0 121 45t51 104v680h252v-1024h-239v68q-96 -88 -228 -88q-152 0 -260 107.5t-108 260.5zM262 1171v263h258v-263h-258zM723 1171v263h260v-263h-260z" />
<glyph unicode="&#xfd;" d="M109 1024h274l229 -647l232 647h274l-538 -1391h-263l168 426zM403 1137l244 317h316l-324 -317h-236z" />
<glyph unicode="&#xfe;" d="M227 -369v1803h236v-451q72 57 172 57q166 0 266 -99t100 -251v-360q0 -147 -104 -248.5t-274 -101.5q-86 0 -156 51v-400h-240zM467 326q0 -53 44 -93t103 -40q61 0 103.5 40t42.5 93v370q0 53 -42 93t-101.5 40t-104.5 -39.5t-45 -93.5v-370z" />
<glyph unicode="&#xff;" d="M109 1024h274l229 -647l232 647h274l-538 -1391h-263l168 426zM254 1171v263h258v-263h-258zM715 1171v263h260v-263h-260z" />
<glyph unicode="&#x152;" d="M66 406v624q0 168 123.5 286t299.5 118h658v-240h-332v-320h285v-239h-285v-395h348v-240h-674q-176 0 -299.5 119t-123.5 287zM326 393q0 -63 47 -108t114 -45h68v950h-68q-68 0 -114.5 -44t-46.5 -108v-645z" />
<glyph unicode="&#x153;" d="M72 330v362q0 150 90 251t235 101q117 0 215 -90q94 90 226 90q139 0 228 -101t89 -251v-262h-436v-100q0 -51 34.5 -94t82.5 -43q43 0 74.5 30.5t31.5 77.5h213q0 -63 -29.5 -134t-106.5 -129t-181 -58q-135 0 -224 83q-82 -84 -217 -83q-145 0 -235 100t-90 250z M287 322q0 -51 32.5 -90t77.5 -39q43 0 75 39t32 90v391q0 49 -32 85t-77 36t-76.5 -39t-31.5 -90v-383zM719 635h223v70q0 51 -31.5 90t-74.5 39q-47 0 -82 -36t-35 -85v-78z" />
<glyph unicode="&#x178;" d="M104 1434h285l225 -467l224 467h286l-379 -762v-672h-264v672zM254 1581v262h258v-262h-258zM715 1581v262h260v-262h-260z" />
<glyph unicode="&#x2c6;" d="M236 1137l270 317h219l266 -317h-256l-121 133l-118 -133h-260z" />
<glyph unicode="&#x2dc;" d="M248 1135q0 115 61.5 195.5t155.5 80.5q53 0 130 -38t103.5 -38t44 20.5t17.5 43.5h219q0 -115 -62.5 -196t-154.5 -81q-53 0 -130 38t-103.5 38t-43 -19t-18.5 -44h-219z" />
<glyph unicode="&#x2000;" horiz-adv-x="963" />
<glyph unicode="&#x2001;" horiz-adv-x="1927" />
<glyph unicode="&#x2002;" horiz-adv-x="963" />
<glyph unicode="&#x2003;" horiz-adv-x="1927" />
<glyph unicode="&#x2004;" horiz-adv-x="642" />
<glyph unicode="&#x2005;" horiz-adv-x="481" />
<glyph unicode="&#x2006;" horiz-adv-x="321" />
<glyph unicode="&#x2007;" horiz-adv-x="321" />
<glyph unicode="&#x2008;" horiz-adv-x="240" />
<glyph unicode="&#x2009;" horiz-adv-x="385" />
<glyph unicode="&#x200a;" horiz-adv-x="107" />
<glyph unicode="&#x2010;" d="M330 444v240h569v-240h-569z" />
<glyph unicode="&#x2011;" d="M330 444v240h569v-240h-569z" />
<glyph unicode="&#x2012;" d="M330 444v240h569v-240h-569z" />
<glyph unicode="&#x2013;" d="M201 446v236h827v-236h-827z" />
<glyph unicode="&#x2014;" d="M-115 446v236h1458v-236h-1458z" />
<glyph unicode="&#x2018;" d="M457 973l153 463h162l-76 -463h-239z" />
<glyph unicode="&#x2019;" d="M457 973l75 463h240l-154 -463h-161z" />
<glyph unicode="&#x201a;" d="M457 -231l75 462h240l-154 -462h-161z" />
<glyph unicode="&#x201c;" d="M254 973l154 463h161l-75 -463h-240zM659 973l154 463h162l-76 -463h-240z" />
<glyph unicode="&#x201d;" d="M254 973l76 463h239l-153 -463h-162zM659 973l76 463h240l-154 -463h-162z" />
<glyph unicode="&#x201e;" d="M254 -231l76 462h239l-153 -462h-162zM659 -231l76 462h240l-154 -462h-162z" />
<glyph unicode="&#x2022;" d="M287 715q0 135 96 231t233 96q133 0 229.5 -96t96.5 -231t-96 -232.5t-230 -97.5q-137 0 -233 96.5t-96 233.5z" />
<glyph unicode="&#x2026;" d="M-57 0v279h278v-279h-278zM487 0v279h279v-279h-279zM1012 0v279h276v-279h-276z" />
<glyph unicode="&#x202f;" horiz-adv-x="385" />
<glyph unicode="&#x2039;" d="M334 588l266 344h291l-264 -344l266 -342h-293z" />
<glyph unicode="&#x203a;" d="M334 932h293l266 -344l-266 -342h-291l264 342z" />
<glyph unicode="&#x205f;" horiz-adv-x="481" />
<glyph unicode="&#x20ac;" d="M158 485v189h88v88h-88v186h88v111q0 164 119.5 278.5t287.5 114.5h11q172 0 288.5 -111.5t116.5 -289.5h-256q0 76 -45 121t-111 45q-63 0 -109 -44.5t-46 -107.5v-117h430v-186h-430v-88h370v-189h-370v-116q0 -63 46 -107.5t109 -44.5q66 0 112 43t46 107v16h256v-14 q0 -162 -118.5 -275.5t-288.5 -113.5h-11q-170 0 -288.5 115.5t-118.5 279.5v110h-88z" />
<glyph unicode="&#x2122;" d="M59 1266v168h437v-168h-131v-596h-181v596h-125zM569 670v764h181l116 -226l121 226h182v-764h-176v407l8 105l-77 -164h-115l-78 164l10 -105v-407h-172z" />
<glyph unicode="&#x25fc;" horiz-adv-x="1024" d="M0 0v1024h1024v-1024h-1024z" />
<glyph unicode="&#xfb01;" d="M45 809v215h131v127q0 127 89 215t218 88q115 0 234 -80l-137 -180q-66 45 -96.5 45t-49 -19.5t-18.5 -50.5v-145h635v-807h133v-217h-535v217h160v592h-393v-809h-240v809h-131zM801 1171v263h260v-263h-260z" />
<glyph unicode="&#xfb02;" d="M47 809v215h131v106q0 127 89 215.5t218 88.5h564v-1217h135v-217h-535v217h158v1002h-322q-31 0 -49 -19.5t-18 -50.5v-125h233v-215h-233v-809h-240v809h-131z" />
</font>
</defs>
</svg>
